<svg id="Layer_1" data-name="Layer 1" xmlns="http://www.w3.org/2000/svg" viewBox="0 0 128 128"><defs><style>.cls-1{fill:#6d5720;}.cls-2{fill:#564318;}.cls-3{fill:#916f2a;}.cls-4{fill:#00d5cc;opacity:0.5;}.cls-5{fill:#1c569a;}.cls-6{fill:#fff8f8;}.cls-7{fill:#549efb;}.cls-8{fill:#0071bc;}.cls-9{fill:#d1d1d1;}.cls-10{fill:#2b76d3;}.cls-11{fill:#235c99;}.cls-12{fill:#fff;}.cls-13{fill:#a09999;}.cls-14{fill:#c8c0c0;}.cls-15{fill:#47464e;stroke:#1d2d5b;stroke-miterlimit:10;stroke-width:0.52px;}.cls-16{fill:#585860;}</style></defs><path class="cls-1" d="M0,0V91.06a9.37,9.37,0,0,1,5.57,2.67C6.57,94.6,7,95,8.21,95s1.64-.4,2.64-1.27a9.27,9.27,0,0,1,13.15,0C25,94.6,25.46,95,26.64,95s1.64-.4,2.64-1.27a9.27,9.27,0,0,1,13.14,0c1,.87,1.46,1.27,2.64,1.27s1.64-.4,2.64-1.27a9.28,9.28,0,0,1,13.15,0c1,.87,1.46,1.27,2.64,1.27s1.64-.4,2.64-1.26a9.25,9.25,0,0,1,13.14,0c1,.86,1.46,1.26,2.64,1.26s1.64-.4,2.64-1.27a9.28,9.28,0,0,1,13.15,0c1,.87,1.46,1.27,2.64,1.27s1.64-.4,2.64-1.27a9.28,9.28,0,0,1,13.15,0c1,.87,1.46,1.27,2.65,1.27s1.64-.4,2.64-1.27A9.22,9.22,0,0,1,128,91V0Z"/><rect class="cls-2" x="26" y="40" width="5" height="5"/><rect class="cls-2" x="51" y="54" width="4" height="4"/><rect class="cls-2" x="64" y="22" width="8" height="8"/><rect class="cls-3" x="76" y="47" width="5" height="5" transform="translate(-12.01 70.01) rotate(-45)"/><rect class="cls-3" x="58" y="1" width="5" height="5" transform="translate(15.25 43.81) rotate(-45)"/><rect class="cls-3" x="28.75" y="70.48" width="6.04" height="6.04" transform="translate(-42.67 43.99) rotate(-45)"/><rect class="cls-3" x="13.63" y="21.9" width="3.21" height="3.21" transform="translate(-12.16 17.65) rotate(-45)"/><rect class="cls-3" x="116.19" y="64.42" width="8.16" height="8.16" transform="translate(-13.21 105.11) rotate(-45)"/><rect class="cls-2" x="94" y="9" width="5" height="5"/><rect class="cls-2" x="100" y="43" width="5" height="5"/><rect class="cls-2" x="25" y="3" width="8" height="8"/><rect class="cls-2" x="94" y="73" width="5" height="5"/><rect class="cls-2" x="122" y="25" width="5" height="5"/><rect class="cls-2" x="9" y="62" width="5" height="5"/><path class="cls-4" d="M118.85,101.57a8.67,8.67,0,0,1-6.2-2.61,3.91,3.91,0,0,0-3-1.39c-1.36,0-1.92.5-2.94,1.39a8.67,8.67,0,0,1-12.4,0,3.91,3.91,0,0,0-3-1.39c-1.36,0-1.92.5-2.94,1.39a8.67,8.67,0,0,1-12.4,0c-1-.89-1.58-1.39-2.94-1.39s-1.92.5-2.94,1.39a8.67,8.67,0,0,1-12.4,0c-1-.89-1.58-1.39-2.94-1.39s-1.92.5-3,1.39a8.66,8.66,0,0,1-12.39,0,3.91,3.91,0,0,0-2.95-1.39c-1.35,0-1.92.5-2.94,1.39a8.66,8.66,0,0,1-12.39,0c-1-.89-1.59-1.39-2.95-1.39s-1.92.5-2.94,1.39a8.67,8.67,0,0,1-12.4,0c-1-.89-1.58-1.39-2.94-1.39v-20a8.63,8.63,0,0,1,6.2,2.62,3.88,3.88,0,0,0,2.94,1.38c1.36,0,1.92-.49,2.95-1.38a8.63,8.63,0,0,1,12.39,0,3.88,3.88,0,0,0,2.94,1.38c1.36,0,1.92-.49,2.95-1.38a8.63,8.63,0,0,1,12.39,0,3.83,3.83,0,0,0,5.89,0,8.65,8.65,0,0,1,12.4,0,3.82,3.82,0,0,0,5.88,0,8.65,8.65,0,0,1,12.4,0,3.88,3.88,0,0,0,2.94,1.38c1.36,0,1.92-.49,3-1.38a8.63,8.63,0,0,1,12.39,0,3.83,3.83,0,0,0,5.89,0,8.65,8.65,0,0,1,12.4,0c1,.89,1.59,1.38,2.95,1.38a3.9,3.9,0,0,0,3-1.38,8.63,8.63,0,0,1,6.2-2.62v20a3.91,3.91,0,0,0-3,1.39A8.67,8.67,0,0,1,118.85,101.57Z"/><path class="cls-5" d="M114.44,87.94H44A241.56,241.56,0,0,0,6.79,91.09v4.19c15.19,18.33,41.9,25.14,41.9,25.14h61.56a8.64,8.64,0,0,0,8.64-8.64h0V92.4A4.46,4.46,0,0,0,114.44,87.94Z"/><path class="cls-6" d="M114.44,79.56H44c-19.38,0-37.19,11-37.19,11v4.19c13.62,10.48,36.67,12,36.67,12L48.69,112h65.75a4.45,4.45,0,0,0,4.45-4.45V84A4.46,4.46,0,0,0,114.44,79.56Z"/><path class="cls-7" d="M49.78,105.23l-5.17-5.16-1-.07c-.2,0-18.85-1.39-31.83-9.19,6-3.08,18.82-8.63,32.18-8.63h70.46A1.83,1.83,0,0,1,116.27,84V103.4a1.83,1.83,0,0,1-1.83,1.83Z"/><path class="cls-8" d="M113.65,84.8v17.81H50.86l-3.7-3.7-1.39-1.39-2-.13c-.18,0-14.31-1.07-26.14-6.46C24.22,88.09,34,84.8,44,84.8h69.67m.79-5.24H44c-19.38,0-37.19,11-37.19,11,13.62,10.48,36.67,12,36.67,12l5.23,5.24h65.75a4.45,4.45,0,0,0,4.45-4.45V84a4.46,4.46,0,0,0-4.45-4.46Z"/><path class="cls-9" d="M114.44,80.61a3.41,3.41,0,0,1,3.4,3.41V103.4a3.4,3.4,0,0,1-3.4,3.4H49.13l-4.93-4.93-.28-.28-.39,0c-.22,0-21.49-1.58-34.83-10.9C13.2,88.18,28.16,80.61,44,80.61h70.46m0-1H44c-19.38,0-37.19,11-37.19,11,13.62,10.48,36.67,12,36.67,12l5.23,5.24h65.75a4.45,4.45,0,0,0,4.45-4.45V84a4.46,4.46,0,0,0-4.45-4.46Z"/><path class="cls-10" d="M51.28,103.66c-6.94,0-14.07-10.07-15.5-12.2L51.46,79h41c1.56,0,2.83,1.55,2.83,3.46v17.7c0,1.91-1.27,3.46-2.83,3.46Z"/><path class="cls-11" d="M92.49,79.56c1.27,0,2.3,1.32,2.3,2.94v17.7c0,1.62-1,2.94-2.3,2.94H51.28c-6.32,0-12.92-8.86-14.8-11.57l15.16-12H92.49m0-1H51.28L35.07,91.35s8.11,12.83,16.21,12.83H92.49c1.85,0,3.35-1.78,3.35-4V82.5c0-2.2-1.5-4-3.35-4Z"/><path class="cls-10" d="M57.6,91.09c-5.15,0-10.43-6-11.81-7.74l12-8H89.57a2.08,2.08,0,0,1,2.08,2.08V89a2.08,2.08,0,0,1-2.08,2.08Z"/><path class="cls-12" d="M89.57,75.9a1.55,1.55,0,0,1,1.56,1.55V89a1.55,1.55,0,0,1-1.56,1.55h-32c-4.55,0-9.29-5-11-7.1L57.92,75.9H89.57m0-1.05h-32L45,83.23s6.28,8.38,12.57,8.38h32a2.59,2.59,0,0,0,2.6-2.6V77.45a2.59,2.59,0,0,0-2.6-2.6Z"/><path class="cls-13" d="M65.72,73.8H79.08a0,0,0,0,1,0,0V86.9a0,0,0,0,1,0,0H65.72a6.55,6.55,0,0,1-6.55-6.55v0A6.55,6.55,0,0,1,65.72,73.8Z"/><path class="cls-14" d="M65.72,71.18H79.08a0,0,0,0,1,0,0v13.1a0,0,0,0,1,0,0H65.72a6.55,6.55,0,0,1-6.55-6.55v0A6.55,6.55,0,0,1,65.72,71.18Z"/><rect class="cls-15" x="71.74" y="94.23" width="10.48" height="4.19" rx="2.1"/><rect class="cls-15" x="58.12" y="94.23" width="10.48" height="4.19" rx="2.1"/><rect class="cls-13" x="70.7" y="67.51" width="4.19" height="13.62"/><rect class="cls-16" x="70.7" y="77.47" width="4.19" height="3.67"/></svg>