<svg id="Layer_1" data-name="Layer 1" xmlns="http://www.w3.org/2000/svg" viewBox="0 0 128 128"><defs><style>.cls-1{fill:#6d5720;}.cls-2{fill:#564318;}.cls-3{fill:#916f2a;}.cls-4{fill:#00d5cc;opacity:0.5;}</style></defs><rect class="cls-1" width="128" height="13"/><path class="cls-1" d="M0,13v91.06a9.37,9.37,0,0,1,5.57,2.67C6.57,107.6,7,108,8.21,108s1.64-.4,2.64-1.27a9.27,9.27,0,0,1,13.15,0c1,.86,1.46,1.26,2.64,1.26s1.64-.4,2.64-1.27a9.27,9.27,0,0,1,13.14,0c1,.87,1.46,1.27,2.64,1.27s1.64-.4,2.64-1.27a9.28,9.28,0,0,1,13.15,0c1,.87,1.46,1.27,2.64,1.27s1.64-.4,2.64-1.26a9.25,9.25,0,0,1,13.14,0c1,.86,1.46,1.26,2.64,1.26s1.64-.4,2.64-1.27a9.28,9.28,0,0,1,13.15,0c1,.87,1.46,1.27,2.64,1.27s1.64-.4,2.64-1.27a9.28,9.28,0,0,1,13.15,0c1,.87,1.46,1.27,2.65,1.27s1.64-.4,2.64-1.27A9.22,9.22,0,0,1,128,104V13Z"/><rect class="cls-2" x="26" y="53" width="5" height="5"/><rect class="cls-2" x="51" y="67" width="4" height="4"/><rect class="cls-2" x="64" y="35" width="8" height="8"/><rect class="cls-3" x="76" y="60" width="5" height="5" transform="translate(-21.2 73.81) rotate(-45)"/><rect class="cls-3" x="58" y="14" width="5" height="5" transform="translate(6.05 47.61) rotate(-45)"/><rect class="cls-3" x="28.75" y="83.48" width="6.04" height="6.04" transform="translate(-51.86 47.8) rotate(-45)"/><rect class="cls-3" x="13.63" y="34.9" width="3.21" height="3.21" transform="translate(-21.35 21.46) rotate(-45)"/><rect class="cls-3" x="116.19" y="77.42" width="8.16" height="8.16" transform="translate(-22.4 108.91) rotate(-45)"/><rect class="cls-2" x="94" y="22" width="5" height="5"/><rect class="cls-2" x="100" y="56" width="5" height="5"/><rect class="cls-2" x="25" y="16" width="8" height="8"/><rect class="cls-2" x="94" y="86" width="5" height="5"/><rect class="cls-2" x="122" y="38" width="5" height="5"/><rect class="cls-2" x="9" y="75" width="5" height="5"/><path class="cls-4" d="M118.85,114.57a8.67,8.67,0,0,1-6.2-2.61,3.91,3.91,0,0,0-3-1.39c-1.36,0-1.92.5-2.94,1.39a8.67,8.67,0,0,1-12.4,0,3.91,3.91,0,0,0-3-1.39c-1.36,0-1.92.5-2.94,1.39a8.67,8.67,0,0,1-12.4,0c-1-.89-1.58-1.39-2.94-1.39s-1.92.5-2.94,1.39a8.67,8.67,0,0,1-12.4,0c-1-.89-1.58-1.39-2.94-1.39s-1.92.5-3,1.39a8.66,8.66,0,0,1-12.39,0,3.91,3.91,0,0,0-2.95-1.39c-1.35,0-1.92.5-2.94,1.39a8.66,8.66,0,0,1-12.39,0c-1-.89-1.59-1.39-2.95-1.39s-1.92.5-2.94,1.39a8.67,8.67,0,0,1-12.4,0c-1-.89-1.58-1.39-2.94-1.39v-20a8.63,8.63,0,0,1,6.2,2.62,3.88,3.88,0,0,0,2.94,1.38c1.36,0,1.92-.49,2.95-1.38a8.63,8.63,0,0,1,12.39,0,3.88,3.88,0,0,0,2.94,1.38c1.36,0,1.92-.49,2.95-1.38a8.63,8.63,0,0,1,12.39,0,3.83,3.83,0,0,0,5.89,0,8.65,8.65,0,0,1,12.4,0,3.82,3.82,0,0,0,5.88,0,8.65,8.65,0,0,1,12.4,0,3.88,3.88,0,0,0,2.94,1.38c1.36,0,1.92-.49,3-1.38a8.63,8.63,0,0,1,12.39,0,3.83,3.83,0,0,0,5.89,0,8.65,8.65,0,0,1,12.4,0c1,.89,1.59,1.38,2.95,1.38a3.9,3.9,0,0,0,3-1.38,8.63,8.63,0,0,1,6.2-2.62v20a3.91,3.91,0,0,0-3,1.39A8.67,8.67,0,0,1,118.85,114.57Z"/></svg>