<svg id="Layer_1" data-name="Layer 1" xmlns="http://www.w3.org/2000/svg" xmlns:xlink="http://www.w3.org/1999/xlink" viewBox="0 0 128 128"><defs><style>.cls-1{fill:#b8681a;}.cls-2{fill:#32e785;}.cls-3{fill:url(#linear-gradient);}.cls-4,.cls-6{fill:#e45e00;}.cls-5{fill:#943100;}.cls-6{opacity:0.8;}.cls-7{fill:#070a0e;}.cls-8{fill:#00d395;fill-rule:evenodd;}.cls-9{fill:url(#linear-gradient-2);}.cls-10{fill:url(#linear-gradient-3);}.cls-11{fill:url(#linear-gradient-4);}</style><linearGradient id="linear-gradient" x1="66.03" y1="89.88" x2="113" y2="89.88" gradientUnits="userSpaceOnUse"><stop offset="0" stop-color="#f3963c"/><stop offset="1" stop-color="#ffa948"/></linearGradient><linearGradient id="linear-gradient-2" x1="15" y1="89.88" x2="61.97" y2="89.88" xlink:href="#linear-gradient"/><linearGradient id="linear-gradient-3" x1="66.03" y1="37.88" x2="113" y2="37.88" xlink:href="#linear-gradient"/><linearGradient id="linear-gradient-4" x1="15" y1="37.88" x2="61.97" y2="37.88" xlink:href="#linear-gradient"/></defs><rect class="cls-1" x="7" y="8" width="114" height="114" rx="20.21"/><path class="cls-2" d="M103.45,119.34a6.21,6.21,0,0,1,1.62,3,4,4,0,0,1-.6,2.79s-2-2-1.83-3.25A8.09,8.09,0,0,1,103.45,119.34Z"/><path class="cls-2" d="M104.1,118.88a6.41,6.41,0,0,1,2.2,2.8,4.13,4.13,0,0,1-.11,2.94s-2.34-1.64-2.44-3A8.54,8.54,0,0,1,104.1,118.88Z"/><path class="cls-2" d="M104.94,117.13a9.1,9.1,0,0,1,3,4,5.87,5.87,0,0,1-.24,4.2s-3.29-2.41-3.4-4.31A12.13,12.13,0,0,1,104.94,117.13Z"/><path class="cls-2" d="M107.19,117.91a6,6,0,0,1,1.42,3,3.94,3.94,0,0,1-.73,2.69s-1.81-2-1.62-3.27A8,8,0,0,1,107.19,117.91Z"/><path class="cls-2" d="M107.69,115.86a9.47,9.47,0,0,1,2.75,4.49,6.11,6.11,0,0,1-.66,4.32s-3.17-2.82-3.09-4.8A12.43,12.43,0,0,1,107.69,115.86Z"/><path class="cls-2" d="M109.07,116.52a7,7,0,0,1,2.11,3.3,4.53,4.53,0,0,1-.42,3.22s-2.4-2.05-2.37-3.53A9.32,9.32,0,0,1,109.07,116.52Z"/><path class="cls-2" d="M111,118.25a2.21,2.21,0,0,1,.52,1.12,1.41,1.41,0,0,1-.27,1s-.66-.74-.59-1.21A2.8,2.8,0,0,1,111,118.25Z"/><path class="cls-2" d="M112.15,117.13a3.55,3.55,0,0,1,.76,1.81,2.34,2.34,0,0,1-.49,1.55s-1-1.22-.87-1.95A4.52,4.52,0,0,1,112.15,117.13Z"/><path class="cls-2" d="M113.35,117.37a2,2,0,0,1,.47,1,1.29,1.29,0,0,1-.24.89s-.6-.67-.53-1.08A2.54,2.54,0,0,1,113.35,117.37Z"/><path class="cls-2" d="M114.24,113.23a9.67,9.67,0,0,1,2.15,4.89,6.21,6.21,0,0,1-1.25,4.26s-2.81-3.27-2.45-5.26A12.65,12.65,0,0,1,114.24,113.23Z"/><path class="cls-2" d="M114.33,113.51a8.57,8.57,0,0,1,3.08,3.64,5.59,5.59,0,0,1,0,4s-3.22-2.1-3.42-3.88A11.19,11.19,0,0,1,114.33,113.51Z"/><path class="cls-2" d="M112.51,114.83a9.06,9.06,0,0,1,4.95.92A5.82,5.82,0,0,1,120.1,119s-4,.44-5.39-.89A11.82,11.82,0,0,1,112.51,114.83Z"/><path class="cls-2" d="M114.33,114.14a6.16,6.16,0,0,1,3.3.87,4,4,0,0,1,1.64,2.31s-2.76.11-3.61-.86A8.09,8.09,0,0,1,114.33,114.14Z"/><path class="cls-2" d="M114.16,112.94a7.4,7.4,0,0,1,4,.63,4.79,4.79,0,0,1,2.22,2.57s-3.27.45-4.4-.6A9.58,9.58,0,0,1,114.16,112.94Z"/><path class="cls-2" d="M116.38,112.53a3.5,3.5,0,0,1,1.85.41,2.17,2.17,0,0,1,1,1.26s-1.52.11-2-.41A4.37,4.37,0,0,1,116.38,112.53Z"/><path class="cls-2" d="M117.17,111.62a2.57,2.57,0,0,1,1.42.22,1.7,1.7,0,0,1,.79.9s-1.15.16-1.55-.21A3.31,3.31,0,0,1,117.17,111.62Z"/><path class="cls-2" d="M117.67,110.5a2.48,2.48,0,0,1,1.39.14,1.65,1.65,0,0,1,.8.84s-1.11.21-1.51-.13A3.29,3.29,0,0,1,117.67,110.5Z"/><path class="cls-2" d="M118.24,109.16a2.46,2.46,0,0,1,1.36.34,1.62,1.62,0,0,1,.68.94s-1.13.06-1.48-.34A3.2,3.2,0,0,1,118.24,109.16Z"/><path class="cls-2" d="M115.81,106.61a9.23,9.23,0,0,1,5.07.75,6,6,0,0,1,2.82,3.19s-4.09.6-5.52-.7A12,12,0,0,1,115.81,106.61Z"/><path class="cls-2" d="M119.25,106.81a2.48,2.48,0,0,1,1.32.31,1.54,1.54,0,0,1,.67.9s-1.09.08-1.44-.3A3.08,3.08,0,0,1,119.25,106.81Z"/><path class="cls-2" d="M118.92,105.14a4.46,4.46,0,0,1,2.4.53,2.88,2.88,0,0,1,1.24,1.63s-2,.15-2.62-.53A5.81,5.81,0,0,1,118.92,105.14Z"/><path class="cls-2" d="M117.09,103.1a9.5,9.5,0,0,1,5.27.6,6.18,6.18,0,0,1,3,3.22s-4.22.76-5.74-.54A12.62,12.62,0,0,1,117.09,103.1Z"/><path class="cls-2" d="M118.5,103.27a6.48,6.48,0,0,1,3.59-.17,4.12,4.12,0,0,1,2.37,1.81s-2.73,1-3.89.27A8.57,8.57,0,0,1,118.5,103.27Z"/><path class="cls-2" d="M119.55,102.18a4.21,4.21,0,0,1,2.37,0,2.74,2.74,0,0,1,1.5,1.26s-1.83.56-2.57.06A5.51,5.51,0,0,1,119.55,102.18Z"/><path class="cls-2" d="M118.34,101.42a6.54,6.54,0,0,1,3.5-1,4.27,4.27,0,0,1,2.78,1.22s-2.47,1.62-3.78,1.2A8.49,8.49,0,0,1,118.34,101.42Z"/><path class="cls-2" d="M118.47,100.2a6.26,6.26,0,0,1,3.33-1.06,4,4,0,0,1,2.68,1.12s-2.32,1.59-3.59,1.22A8.25,8.25,0,0,1,118.47,100.2Z"/><path class="cls-2" d="M119,98.49a5.24,5.24,0,0,1,2.88-.39,3.36,3.36,0,0,1,2,1.3s-2.13,1-3.12.49A7.11,7.11,0,0,1,119,98.49Z"/><path class="cls-2" d="M117.34,97.29A8.67,8.67,0,0,1,122,96.18,5.6,5.6,0,0,1,125.61,98s-3.37,2-5.07,1.32A11.32,11.32,0,0,1,117.34,97.29Z"/><path class="cls-2" d="M118,95.77a7.41,7.41,0,0,1,4-.61,4.76,4.76,0,0,1,2.9,1.78s-3,1.42-4.38.76A9.7,9.7,0,0,1,118,95.77Z"/><path class="cls-2" d="M117.1,93.61a9.66,9.66,0,0,1,5.37,0,6.26,6.26,0,0,1,3.4,2.88s-4.15,1.25-5.83.12A12.63,12.63,0,0,1,117.1,93.61Z"/><path class="cls-2" d="M118.55,93.44a6.14,6.14,0,0,1,3.36-.68,4,4,0,0,1,2.5,1.38s-2.44,1.3-3.64.81A8.28,8.28,0,0,1,118.55,93.44Z"/><path class="cls-2" d="M119.76,92.14a3.67,3.67,0,0,1,2-.22,2.36,2.36,0,0,1,1.4,1s-1.52.64-2.2.28A4.93,4.93,0,0,1,119.76,92.14Z"/><path class="cls-2" d="M117.41,90.52a8.6,8.6,0,0,1,4.74-.72,5.55,5.55,0,0,1,3.39,2.08s-3.49,1.66-5.12.89A11.36,11.36,0,0,1,117.41,90.52Z"/><path class="cls-2" d="M119,89.6a5.27,5.27,0,0,1,2.9-.56A3.41,3.41,0,0,1,124,90.25s-2.11,1.11-3.14.67A6.94,6.94,0,0,1,119,89.6Z"/><path class="cls-2" d="M119.34,88.45a4.47,4.47,0,0,1,2.43-.56,2.89,2.89,0,0,1,1.85.94s-1.75,1-2.63.67A6,6,0,0,1,119.34,88.45Z"/><path class="cls-2" d="M117.62,87.1A8,8,0,0,1,122,86a5.2,5.2,0,0,1,3.36,1.61s-3.09,1.88-4.69,1.33A10.65,10.65,0,0,1,117.62,87.1Z"/><path class="cls-2" d="M120.17,85.74a2.85,2.85,0,0,1,1.57-.11,1.81,1.81,0,0,1,1.06.77s-1.19.46-1.71.16A3.87,3.87,0,0,1,120.17,85.74Z"/><path class="cls-2" d="M120.07,84.43a3,3,0,0,1,1.69-.12,2,2,0,0,1,1.14.82s-1.28.49-1.83.18A4,4,0,0,1,120.07,84.43Z"/><path class="cls-2" d="M117,82.12a9.73,9.73,0,0,1,5.4-.13,6.26,6.26,0,0,1,3.5,2.81s-4.14,1.37-5.86.27A12.7,12.7,0,0,1,117,82.12Z"/><path class="cls-2" d="M119.89,82.08a3.32,3.32,0,0,1,1.8-.44,2.19,2.19,0,0,1,1.39.69s-1.29.76-2,.52A4.34,4.34,0,0,1,119.89,82.08Z"/><path class="cls-2" d="M119.82,80.5a3.62,3.62,0,0,1,2-.15,2.35,2.35,0,0,1,1.34,1s-1.5.58-2.16.2A4.71,4.71,0,0,1,119.82,80.5Z"/><path class="cls-2" d="M117.09,78.53a9.41,9.41,0,0,1,5.24-.41,6.14,6.14,0,0,1,3.54,2.55s-4,1.54-5.68.56A12.48,12.48,0,0,1,117.09,78.53Z"/><path class="cls-2" d="M117.5,78.33a8.23,8.23,0,0,1,4.38-1.45,5.34,5.34,0,0,1,3.56,1.43s-3,2.14-4.72,1.67A10.79,10.79,0,0,1,117.5,78.33Z"/><path class="cls-2" d="M118.47,76.79a6.31,6.31,0,0,1,3.41-.82,4.1,4.1,0,0,1,2.61,1.32s-2.45,1.43-3.69,1A8.1,8.1,0,0,1,118.47,76.79Z"/><path class="cls-2" d="M118.26,75.37a6.79,6.79,0,0,1,3.69-.75,4.34,4.34,0,0,1,2.74,1.51s-2.67,1.43-4,.89A8.85,8.85,0,0,1,118.26,75.37Z"/><path class="cls-2" d="M119.5,74a4.31,4.31,0,0,1,2.35-.25,2.76,2.76,0,0,1,1.62,1.11s-1.76.74-2.55.32A5.71,5.71,0,0,1,119.5,74Z"/><path class="cls-2" d="M120.41,73.13a2.2,2.2,0,0,1,1.21-.32,1.45,1.45,0,0,1,.94.44s-.86.53-1.31.38A2.93,2.93,0,0,1,120.41,73.13Z"/><path class="cls-2" d="M117.73,71.38a8,8,0,0,1,4.32-.81,5.13,5.13,0,0,1,3.17,1.8s-3.14,1.64-4.67,1A10.31,10.31,0,0,1,117.73,71.38Z"/><path class="cls-2" d="M117.3,69.93a8.78,8.78,0,0,1,4.85-.79,5.77,5.77,0,0,1,3.51,2.1s-3.57,1.74-5.26,1A11.61,11.61,0,0,1,117.3,69.93Z"/><path class="cls-2" d="M116.91,68.87a9.65,9.65,0,0,1,5.19-1.19,6.16,6.16,0,0,1,3.93,2s-3.73,2.12-5.6,1.4A12.39,12.39,0,0,1,116.91,68.87Z"/><path class="cls-2" d="M117.83,67.91a7.63,7.63,0,0,1,4.06-1.21,4.91,4.91,0,0,1,3.23,1.42s-2.86,1.88-4.38,1.4A9.87,9.87,0,0,1,117.83,67.91Z"/><path class="cls-2" d="M117.87,66.36a7.51,7.51,0,0,1,4.12-.9,4.86,4.86,0,0,1,3.09,1.64s-3,1.65-4.45,1.07A10.05,10.05,0,0,1,117.87,66.36Z"/><path class="cls-2" d="M119.61,65.2a3.92,3.92,0,0,1,2.16-.4,2.56,2.56,0,0,1,1.58.91s-1.57.81-2.33.48A5.24,5.24,0,0,1,119.61,65.2Z"/><path class="cls-2" d="M120.11,63.92a2.89,2.89,0,0,1,1.61-.22,1.86,1.86,0,0,1,1.14.72s-1.19.55-1.74.28A3.91,3.91,0,0,1,120.11,63.92Z"/><path class="cls-2" d="M118.38,62.07a6.73,6.73,0,0,1,3.71-.25,4.32,4.32,0,0,1,2.49,1.84s-2.81,1-4,.35A8.69,8.69,0,0,1,118.38,62.07Z"/><path class="cls-2" d="M120.39,61.49a2.28,2.28,0,0,1,1.25-.28,1.48,1.48,0,0,1,.94.5s-.9.5-1.35.33A3.09,3.09,0,0,1,120.39,61.49Z"/><path class="cls-2" d="M119.86,60.13a3.36,3.36,0,0,1,1.86-.4,2.22,2.22,0,0,1,1.39.75s-1.35.74-2,.47A4.49,4.49,0,0,1,119.86,60.13Z"/><path class="cls-2" d="M118.15,58.46a7,7,0,0,1,3.87-.61,4.55,4.55,0,0,1,2.79,1.69s-2.85,1.37-4.19.75A9.28,9.28,0,0,1,118.15,58.46Z"/><path class="cls-2" d="M118.72,57.09a5.86,5.86,0,0,1,3.28-.31,3.84,3.84,0,0,1,2.25,1.56s-2.46,1-3.56.41A7.77,7.77,0,0,1,118.72,57.09Z"/><path class="cls-2" d="M118.16,56.43a7,7,0,0,1,3.66-1.21,4.51,4.51,0,0,1,3,1.2s-2.55,1.79-4,1.39A9.08,9.08,0,0,1,118.16,56.43Z"/><path class="cls-2" d="M117.8,54.25a7.88,7.88,0,0,1,4.39-.36,5.08,5.08,0,0,1,3,2.12s-3.3,1.3-4.75.49A10.47,10.47,0,0,1,117.8,54.25Z"/><path class="cls-2" d="M118.77,53.74a5.66,5.66,0,0,1,3-.86A3.65,3.65,0,0,1,124.18,54s-2.14,1.37-3.27,1A7.23,7.23,0,0,1,118.77,53.74Z"/><path class="cls-2" d="M118.13,52a7.18,7.18,0,0,1,3.92-.56,4.59,4.59,0,0,1,2.78,1.75s-2.89,1.35-4.24.7A9.41,9.41,0,0,1,118.13,52Z"/><path class="cls-2" d="M120.37,50.91a2.5,2.5,0,0,1,1.37,0,1.6,1.6,0,0,1,.86.75s-1.06.31-1.49,0A3.3,3.3,0,0,1,120.37,50.91Z"/><path class="cls-2" d="M117.45,49.85a8.42,8.42,0,0,1,4.49-1.32,5.46,5.46,0,0,1,3.56,1.57s-3.16,2.07-4.85,1.54A11.06,11.06,0,0,1,117.45,49.85Z"/><path class="cls-2" d="M118.56,48.06A6.26,6.26,0,0,1,122,47.7a4,4,0,0,1,2.38,1.63s-2.58,1.08-3.74.47A8.32,8.32,0,0,1,118.56,48.06Z"/><path class="cls-2" d="M118.47,47.16a6.31,6.31,0,0,1,3.41-.82,4.1,4.1,0,0,1,2.61,1.31s-2.45,1.43-3.69,1A8.28,8.28,0,0,1,118.47,47.16Z"/><path class="cls-2" d="M117.18,45.76a9,9,0,0,1,4.87-1.17,5.78,5.78,0,0,1,3.71,1.87s-3.48,2-5.25,1.38A12,12,0,0,1,117.18,45.76Z"/><path class="cls-2" d="M119.92,44.5a3.37,3.37,0,0,1,1.85-.19,2.16,2.16,0,0,1,1.28.87s-1.39.58-2,.25A4.38,4.38,0,0,1,119.92,44.5Z"/><path class="cls-2" d="M119.74,43.27a3.71,3.71,0,0,1,2-.32,2.39,2.39,0,0,1,1.45.88s-1.49.72-2.19.4A5,5,0,0,1,119.74,43.27Z"/><path class="cls-2" d="M117.35,42A8.66,8.66,0,0,1,122,40.77a5.58,5.58,0,0,1,3.61,1.69s-3.28,2-5,1.47A11.37,11.37,0,0,1,117.35,42Z"/><path class="cls-2" d="M117.19,40.54a9,9,0,0,1,4.88-1.1,5.81,5.81,0,0,1,3.69,1.93s-3.52,2-5.28,1.3A11.71,11.71,0,0,1,117.19,40.54Z"/><path class="cls-2" d="M120.33,39.43a2.47,2.47,0,0,1,1.37-.13,1.58,1.58,0,0,1,.94.66s-1,.42-1.49.17A3.35,3.35,0,0,1,120.33,39.43Z"/><path class="cls-2" d="M118.23,37.47a7,7,0,0,1,3.92-.17,4.61,4.61,0,0,1,2.59,2s-3,1-4.26.27A9.17,9.17,0,0,1,118.23,37.47Z"/><path class="cls-2" d="M118.31,36.35a6.88,6.88,0,0,1,3.77-.33,4.43,4.43,0,0,1,2.58,1.82s-2.84,1.14-4.1.45A9.06,9.06,0,0,1,118.31,36.35Z"/><path class="cls-2" d="M118.7,35.21a6,6,0,0,1,3.29-.34,3.86,3.86,0,0,1,2.27,1.54s-2.46,1-3.56.45A7.83,7.83,0,0,1,118.7,35.21Z"/><path class="cls-2" d="M117.3,34.28A8.71,8.71,0,0,1,122,33a5.6,5.6,0,0,1,3.64,1.72s-3.33,2.06-5.06,1.47A11.54,11.54,0,0,1,117.3,34.28Z"/><path class="cls-2" d="M120.42,33a2.31,2.31,0,0,1,1.27-.11,1.51,1.51,0,0,1,.86.62s-1,.37-1.37.14A3.23,3.23,0,0,1,120.42,33Z"/><path class="cls-2" d="M119.38,31.72a4.43,4.43,0,0,1,2.41-.5,2.85,2.85,0,0,1,1.79,1s-1.74,1-2.6.6A5.82,5.82,0,0,1,119.38,31.72Z"/><path class="cls-2" d="M119,30.2a5.25,5.25,0,0,1,2.9-.38,3.4,3.4,0,0,1,2,1.31s-2.15,1-3.14.48A7,7,0,0,1,119,30.2Z"/><path class="cls-2" d="M119.18,29.09a4.88,4.88,0,0,1,2.65-.52,3.16,3.16,0,0,1,2,1.1s-1.93,1-2.87.62A6.42,6.42,0,0,1,119.18,29.09Z"/><path class="cls-2" d="M117.67,27.49a8,8,0,0,1,4.42-.73,5.19,5.19,0,0,1,3.19,1.9s-3.24,1.6-4.78.9A10.69,10.69,0,0,1,117.67,27.49Z"/><path class="cls-2" d="M118.92,26.62a5.3,5.3,0,0,1,2.89-.73A3.43,3.43,0,0,1,124,27s-2.06,1.24-3.12.86A6.92,6.92,0,0,1,118.92,26.62Z"/><path class="cls-2" d="M118.44,25.23a6.37,6.37,0,0,1,3.46-.8,4.15,4.15,0,0,1,2.62,1.35s-2.49,1.42-3.74.95A8.39,8.39,0,0,1,118.44,25.23Z"/><path class="cls-2" d="M117.2,25.77a8.47,8.47,0,0,1,3.86-2.7,5.45,5.45,0,0,1,3.89.36s-2.34,3-4.12,3A11.22,11.22,0,0,1,117.2,25.77Z"/><path class="cls-2" d="M116.78,24.89a8.54,8.54,0,0,1,3.66-3,5.51,5.51,0,0,1,3.94.05s-2.12,3.18-3.9,3.36A11.3,11.3,0,0,1,116.78,24.89Z"/><path class="cls-2" d="M115.72,23a9.37,9.37,0,0,1,4.53-2.5,6,6,0,0,1,4.21.85s-2.91,3-4.85,2.81A12.28,12.28,0,0,1,115.72,23Z"/><path class="cls-2" d="M117.09,21.25a5.32,5.32,0,0,1,2.71-1.15,3.42,3.42,0,0,1,2.34.73s-1.83,1.52-2.92,1.3A7,7,0,0,1,117.09,21.25Z"/><path class="cls-2" d="M117.17,20.65A4.4,4.4,0,0,1,119,19.06a2.84,2.84,0,0,1,2,0s-1.07,1.66-2,1.76A5.65,5.65,0,0,1,117.17,20.65Z"/><path class="cls-2" d="M114.57,19.27a8.6,8.6,0,0,1,4.24-2.16,5.51,5.51,0,0,1,3.85.91s-2.77,2.66-4.55,2.44A11.32,11.32,0,0,1,114.57,19.27Z"/><path class="cls-2" d="M116.7,17.7a3,3,0,0,1,1.51-.77,1.94,1.94,0,0,1,1.37.32s-1,.95-1.62.87A3.81,3.81,0,0,1,116.7,17.7Z"/><path class="cls-2" d="M114.36,17.15a7.14,7.14,0,0,1,3.3-2.16,4.55,4.55,0,0,1,3.24.41s-2,2.43-3.53,2.41A9.39,9.39,0,0,1,114.36,17.15Z"/><path class="cls-2" d="M113.49,15.47a7.64,7.64,0,0,1,3.89-1.76,5,5,0,0,1,3.42,1s-2.6,2.26-4.19,2A10.18,10.18,0,0,1,113.49,15.47Z"/><path class="cls-2" d="M115.5,14.08a2.5,2.5,0,0,1,1.22-.61,1.57,1.57,0,0,1,1.1.27s-.8.75-1.31.68A3.15,3.15,0,0,1,115.5,14.08Z"/><path class="cls-2" d="M114.52,13a3.46,3.46,0,0,1,1.72-.89,2.28,2.28,0,0,1,1.57.36s-1.12,1.08-1.85,1A4.59,4.59,0,0,1,114.52,13Z"/><path class="cls-2" d="M113.43,15.19a7.06,7.06,0,0,1,1.32-3.71,4.55,4.55,0,0,1,2.82-1.64s-.15,3.17-1.34,4.05A9.27,9.27,0,0,1,113.43,15.19Z"/><path class="cls-2" d="M112.66,15.22a7.55,7.55,0,0,1,.66-4.13A4.84,4.84,0,0,1,116,8.84s.44,3.34-.63,4.49A10,10,0,0,1,112.66,15.22Z"/><path class="cls-2" d="M111.78,13.53a5.06,5.06,0,0,1,.76-2.7,3.32,3.32,0,0,1,1.94-1.3s0,2.26-.77,3A6.75,6.75,0,0,1,111.78,13.53Z"/><path class="cls-2" d="M111,13.26a5,5,0,0,1,.24-2.79,3.29,3.29,0,0,1,1.66-1.65s.46,2.22-.2,3A6.63,6.63,0,0,1,111,13.26Z"/><path class="cls-2" d="M109.59,12.37a4.57,4.57,0,0,1,.62-2.44,2.9,2.9,0,0,1,1.7-1.21s.09,2-.61,2.66A6.06,6.06,0,0,1,109.59,12.37Z"/><path class="cls-2" d="M108.32,12.28a5.37,5.37,0,0,1,.56-2.91,3.45,3.45,0,0,1,1.91-1.54s.25,2.37-.54,3.17A7,7,0,0,1,108.32,12.28Z"/><path class="cls-2" d="M107.63,10.74a2.88,2.88,0,0,1,.4-1.57,1.88,1.88,0,0,1,1.09-.79s.06,1.31-.39,1.72A3.73,3.73,0,0,1,107.63,10.74Z"/><path class="cls-2" d="M106.63,10a2.25,2.25,0,0,1,.29-1.2,1.46,1.46,0,0,1,.83-.6s.06,1-.29,1.31A2.91,2.91,0,0,1,106.63,10Z"/><path class="cls-2" d="M103.44,12.57a9.85,9.85,0,0,1,1.34-5.33,6.4,6.4,0,0,1,3.71-2.67s.21,4.43-1.33,5.82A13,13,0,0,1,103.44,12.57Z"/><path class="cls-2" d="M104.22,9.31a2.89,2.89,0,0,1,.2-1.57,1.87,1.87,0,0,1,1-.89s.21,1.26-.18,1.71A3.69,3.69,0,0,1,104.22,9.31Z"/><path class="cls-2" d="M101.41,10.13a7,7,0,0,1,1.5-3.61A4.53,4.53,0,0,1,105.79,5s-.32,3.13-1.54,4A9.38,9.38,0,0,1,101.41,10.13Z"/><path class="cls-2" d="M102.38,8.44a2,2,0,0,1,0-1.12,1.27,1.27,0,0,1,.58-.72s.28.85.06,1.21A2.89,2.89,0,0,1,102.38,8.44Z"/><path class="cls-2" d="M100.9,9.71a4.63,4.63,0,0,1-.29-2.58,3,3,0,0,1,1.2-1.8s.83,1.92.38,2.8A6.07,6.07,0,0,1,100.9,9.71Z"/><path class="cls-2" d="M99.73,10.15a5.49,5.49,0,0,1-.58-3A3.52,3.52,0,0,1,100.4,4.9s1.15,2.19.7,3.26A7.27,7.27,0,0,1,99.73,10.15Z"/><path class="cls-2" d="M98.58,10.13a5.43,5.43,0,0,1-.73-3A3.51,3.51,0,0,1,99,4.92s1.25,2.11.86,3.19A7.18,7.18,0,0,1,98.58,10.13Z"/><path class="cls-2" d="M97.35,9.25a3.64,3.64,0,0,1-.47-2,2.36,2.36,0,0,1,.77-1.5s.81,1.41.54,2.12A4.77,4.77,0,0,1,97.35,9.25Z"/><path class="cls-2" d="M95.53,10.76A6.93,6.93,0,0,1,95.09,7a4.44,4.44,0,0,1,1.76-2.66s1.23,2.84.57,4.12A9.09,9.09,0,0,1,95.53,10.76Z"/><path class="cls-2" d="M94.15,12a9.5,9.5,0,0,1-.81-5.23A6.18,6.18,0,0,1,95.63,3s1.85,3.85,1,5.67A12.31,12.31,0,0,1,94.15,12Z"/><path class="cls-2" d="M93.58,10.89A7,7,0,0,1,92.4,7.16a4.55,4.55,0,0,1,1.25-3s1.78,2.6,1.37,4A9.39,9.39,0,0,1,93.58,10.89Z"/><path class="cls-2" d="M91.56,11.5A8.48,8.48,0,0,1,91,6.83a5.46,5.46,0,0,1,2.12-3.28S94.63,7,93.84,8.6A11.06,11.06,0,0,1,91.56,11.5Z"/><path class="cls-2" d="M90.63,9.84a4.9,4.9,0,0,1-.38-2.71A3.2,3.2,0,0,1,91.46,5.2s.93,2,.48,2.94A6.41,6.41,0,0,1,90.63,9.84Z"/><path class="cls-2" d="M89.38,9.76A4.7,4.7,0,0,1,89,7.15a3.06,3.06,0,0,1,1.15-1.87s.91,1.93.49,2.83A6.27,6.27,0,0,1,89.38,9.76Z"/><path class="cls-2" d="M88,9.89a5.06,5.06,0,0,1-.37-2.78,3.26,3.26,0,0,1,1.25-2s.93,2.06.47,3A6.82,6.82,0,0,1,88,9.89Z"/><path class="cls-2" d="M86.62,10a5.33,5.33,0,0,1-.28-2.94,3.42,3.42,0,0,1,1.4-2s.9,2.21.37,3.19A7,7,0,0,1,86.62,10Z"/><path class="cls-2" d="M85.38,9.6a4.47,4.47,0,0,1-.19-2.49,2.9,2.9,0,0,1,1.22-1.68s.73,1.88.26,2.7A5.77,5.77,0,0,1,85.38,9.6Z"/><path class="cls-2" d="M84.58,9.9a4.93,4.93,0,0,1-.83-2.63,3.18,3.18,0,0,1,.88-2.12S85.89,7,85.6,8A6.67,6.67,0,0,1,84.58,9.9Z"/><path class="cls-2" d="M83.32,8.71a2.55,2.55,0,0,1-.42-1.32,1.57,1.57,0,0,1,.43-1s.64.91.49,1.41A3.23,3.23,0,0,1,83.32,8.71Z"/><path class="cls-2" d="M81,11.73a9.14,9.14,0,0,1-.39-5A5.84,5.84,0,0,1,83,3.32s1.47,3.78.54,5.44A12.06,12.06,0,0,1,81,11.73Z"/><path class="cls-2" d="M80.64,9.3a3.72,3.72,0,0,1-.53-2,2.39,2.39,0,0,1,.74-1.55s.88,1.42.62,2.15A4.8,4.8,0,0,1,80.64,9.3Z"/><path class="cls-2" d="M79,10.57A6.38,6.38,0,0,1,78.39,7a4.14,4.14,0,0,1,1.5-2.56s1.3,2.57.75,3.81A8.62,8.62,0,0,1,79,10.57Z"/><path class="cls-2" d="M77.57,9.28a3.88,3.88,0,0,1,0-2.16,2.52,2.52,0,0,1,1.18-1.37s.48,1.68,0,2.35A5,5,0,0,1,77.57,9.28Z"/><path class="cls-2" d="M76.42,9.74a4.73,4.73,0,0,1-.3-2.62A3,3,0,0,1,77.34,5.3s.84,2,.38,2.84A6.31,6.31,0,0,1,76.42,9.74Z"/><path class="cls-2" d="M75.55,10.2a5.64,5.64,0,0,1-.93-3,3.6,3.6,0,0,1,1-2.37S77,6.92,76.7,8.05A7.38,7.38,0,0,1,75.55,10.2Z"/><path class="cls-2" d="M73.84,9.25a3.76,3.76,0,0,1-.12-2.08,2.48,2.48,0,0,1,1-1.39s.58,1.59.17,2.27A4.94,4.94,0,0,1,73.84,9.25Z"/><path class="cls-2" d="M72.2,11.75a9,9,0,0,1-.66-4.95,5.79,5.79,0,0,1,2.24-3.5s1.67,3.67.83,5.36A11.74,11.74,0,0,1,72.2,11.75Z"/><path class="cls-2" d="M70.88,10.8a7.07,7.07,0,0,1-.27-3.92,4.58,4.58,0,0,1,1.93-2.64s1.13,3,.39,4.26A9.33,9.33,0,0,1,70.88,10.8Z"/><path class="cls-2" d="M70,10.66a6.65,6.65,0,0,1-.69-3.61,4.3,4.3,0,0,1,1.5-2.66s1.38,2.62.83,3.9A8.59,8.59,0,0,1,70,10.66Z"/><path class="cls-2" d="M69.12,12.07a9.44,9.44,0,0,1-1.63-5,6.1,6.1,0,0,1,1.65-4S71.57,6.49,71,8.4A12.61,12.61,0,0,1,69.12,12.07Z"/><path class="cls-2" d="M67.6,9.32a3.8,3.8,0,0,1-.36-2.08,2.44,2.44,0,0,1,.88-1.51s.77,1.51.45,2.24A5.14,5.14,0,0,1,67.6,9.32Z"/><path class="cls-2" d="M66.45,9a3.14,3.14,0,0,1-.39-1.66,1.94,1.94,0,0,1,.65-1.25s.68,1.18.45,1.78A4,4,0,0,1,66.45,9Z"/><path class="cls-2" d="M65.12,8.64a2.34,2.34,0,0,1-.22-1.3,1.56,1.56,0,0,1,.57-.94s.47.95.26,1.41A3.2,3.2,0,0,1,65.12,8.64Z"/><path class="cls-2" d="M62.93,11a7.65,7.65,0,0,1-.12-4.27A5,5,0,0,1,65,4s1.09,3.27.23,4.63A10.09,10.09,0,0,1,62.93,11Z"/><path class="cls-2" d="M61.9,10.17A5.79,5.79,0,0,1,61.82,7,3.8,3.8,0,0,1,63.5,4.87s.81,2.47.16,3.49A7.87,7.87,0,0,1,61.9,10.17Z"/><path class="cls-2" d="M60.62,10.49a6.47,6.47,0,0,1-.2-3.57A4.18,4.18,0,0,1,62.2,4.55s1,2.71.3,3.87A8.32,8.32,0,0,1,60.62,10.49Z"/><path class="cls-2" d="M60.06,9a3.09,3.09,0,0,1-.44-1.62,1.93,1.93,0,0,1,.6-1.26s.71,1.15.5,1.75A4,4,0,0,1,60.06,9Z"/><path class="cls-2" d="M58.49,9.05a3.28,3.28,0,0,1-.16-1.82A2.15,2.15,0,0,1,59.21,6s.55,1.38.21,2A4.16,4.16,0,0,1,58.49,9.05Z"/><path class="cls-2" d="M57.14,11.42a8.12,8.12,0,0,1-1-4.45,5.27,5.27,0,0,1,1.77-3.34s1.78,3.21,1.15,4.81A10.68,10.68,0,0,1,57.14,11.42Z"/><path class="cls-2" d="M55.46,11.24A8,8,0,0,1,55,6.85,5.18,5.18,0,0,1,57,3.8s1.39,3.29.62,4.76A10.5,10.5,0,0,1,55.46,11.24Z"/><path class="cls-2" d="M54.91,10.6a6.51,6.51,0,0,1-1-3.42A4.13,4.13,0,0,1,55,4.46s1.6,2.39,1.22,3.68A8.4,8.4,0,0,1,54.91,10.6Z"/><path class="cls-2" d="M53.41,8.89a2.9,2.9,0,0,1-.18-1.62A1.93,1.93,0,0,1,54,6.14s.52,1.22.24,1.76A3.87,3.87,0,0,1,53.41,8.89Z"/><path class="cls-2" d="M51.26,11.07a7.73,7.73,0,0,1,0-4.33A5,5,0,0,1,53.51,4s1,3.33.15,4.7A10.18,10.18,0,0,1,51.26,11.07Z"/><path class="cls-2" d="M50.76,9.68a4.56,4.56,0,0,1-.39-2.51,2.93,2.93,0,0,1,1.09-1.81s.89,1.85.49,2.72A5.9,5.9,0,0,1,50.76,9.68Z"/><path class="cls-2" d="M49.54,8.87a2.87,2.87,0,0,1-.17-1.6,1.88,1.88,0,0,1,.75-1.11s.51,1.2.22,1.74A3.64,3.64,0,0,1,49.54,8.87Z"/><path class="cls-2" d="M48.3,8.59a2.29,2.29,0,0,1-.12-1.28,1.52,1.52,0,0,1,.61-.87s.39,1,.16,1.39A3.23,3.23,0,0,1,48.3,8.59Z"/><path class="cls-2" d="M47.18,9a3,3,0,0,1-.44-1.63,1.94,1.94,0,0,1,.59-1.27s.72,1.16.52,1.76A4.18,4.18,0,0,1,47.18,9Z"/><path class="cls-2" d="M45.78,8.59a2.32,2.32,0,0,1-.18-1.25,1.44,1.44,0,0,1,.55-.89s.44.92.23,1.35A2.88,2.88,0,0,1,45.78,8.59Z"/><path class="cls-2" d="M44.18,9.05a3.34,3.34,0,0,1,0-1.87,2.15,2.15,0,0,1,1-1.19s.44,1.44,0,2A4.58,4.58,0,0,1,44.18,9.05Z"/><path class="cls-2" d="M43.05,10.67a6.62,6.62,0,0,1-.78-3.59,4.28,4.28,0,0,1,1.43-2.7s1.44,2.59.93,3.88A8.69,8.69,0,0,1,43.05,10.67Z"/><path class="cls-2" d="M42,9.88a4.93,4.93,0,0,1-.74-2.64,3.2,3.2,0,0,1,.94-2.07S43.38,7,43.06,8A6.38,6.38,0,0,1,42,9.88Z"/><path class="cls-2" d="M40.42,9.81A4.92,4.92,0,0,1,40,7.14a3.13,3.13,0,0,1,1.18-1.91s.93,2,.5,2.89A6.29,6.29,0,0,1,40.42,9.81Z"/><path class="cls-2" d="M39.44,10a5.25,5.25,0,0,1-.82-2.77,3.38,3.38,0,0,1,1-2.2s1.28,2,.95,3A6.7,6.7,0,0,1,39.44,10Z"/><path class="cls-2" d="M38,11.59A8.5,8.5,0,0,1,36.77,7a5.5,5.5,0,0,1,1.71-3.54s2,3.26,1.38,4.95A11.14,11.14,0,0,1,38,11.59Z"/><path class="cls-2" d="M36.61,10.75a6.79,6.79,0,0,1-.81-3.68A4.35,4.35,0,0,1,37.25,4.3s1.49,2.65,1,4A8.91,8.91,0,0,1,36.61,10.75Z"/><path class="cls-2" d="M34.65,11a7.58,7.58,0,0,1-.17-4.2A4.87,4.87,0,0,1,36.63,4s1.11,3.21.28,4.56A10,10,0,0,1,34.65,11Z"/><path class="cls-2" d="M34.23,11.66a8.59,8.59,0,0,1-1.37-4.6,5.6,5.6,0,0,1,1.6-3.66s2.13,3.23,1.6,5A11.29,11.29,0,0,1,34.23,11.66Z"/><path class="cls-2" d="M33,9.24a3.63,3.63,0,0,1-.58-1.91,2.37,2.37,0,0,1,.67-1.53s.89,1.35.66,2.07A4.69,4.69,0,0,1,33,9.24Z"/><path class="cls-2" d="M31.48,9.37a3.91,3.91,0,0,1-.33-2.16,2.52,2.52,0,0,1,1-1.54s.76,1.59.41,2.33A5.28,5.28,0,0,1,31.48,9.37Z"/><path class="cls-2" d="M30.06,9.75a4.71,4.71,0,0,1-.33-2.62,3.06,3.06,0,0,1,1.21-1.84s.86,2,.41,2.84A6.23,6.23,0,0,1,30.06,9.75Z"/><path class="cls-2" d="M28.88,9.73a4.73,4.73,0,0,1-.44-2.56,3.06,3.06,0,0,1,1.1-1.86s.93,1.88.53,2.77A6,6,0,0,1,28.88,9.73Z"/><path class="cls-2" d="M27.82,9.83a4.8,4.8,0,0,1-.72-2.58,3.08,3.08,0,0,1,.92-2S29.18,7,28.87,8A6.4,6.4,0,0,1,27.82,9.83Z"/><path class="cls-2" d="M26.58,8.47a1.94,1.94,0,0,1-.27-1.08,1.29,1.29,0,0,1,.4-.83s.46.77.32,1.17A2.66,2.66,0,0,1,26.58,8.47Z"/><path class="cls-2" d="M25.07,8.73A2.56,2.56,0,0,1,25,7.29a1.65,1.65,0,0,1,.69-1s.43,1.08.17,1.56A3.71,3.71,0,0,1,25.07,8.73Z"/><path class="cls-2" d="M24.1,9.79a4.53,4.53,0,0,1-.63-2.42,2.89,2.89,0,0,1,.9-1.88s1.05,1.72.74,2.61A5.82,5.82,0,0,1,24.1,9.79Z"/><path class="cls-2" d="M23.6,9.67a3.45,3.45,0,0,1-1-1.6,2.2,2.2,0,0,1,.21-1.55s1.16,1,1.14,1.7A4.41,4.41,0,0,1,23.6,9.67Z"/><path class="cls-2" d="M23.07,12.35A8.19,8.19,0,0,1,20.52,8.6a5.29,5.29,0,0,1,.39-3.75s2.85,2.3,2.86,4A10.77,10.77,0,0,1,23.07,12.35Z"/><path class="cls-2" d="M21.11,11.53a5.14,5.14,0,0,1-1.22-2.6,3.36,3.36,0,0,1,.62-2.31s1.55,1.73,1.38,2.8A6.74,6.74,0,0,1,21.11,11.53Z"/><path class="cls-2" d="M21.32,13.92a9.69,9.69,0,0,1-3.46-4.16,6.27,6.27,0,0,1,0-4.5s3.65,2.41,3.86,4.44A12.76,12.76,0,0,1,21.32,13.92Z"/><path class="cls-2" d="M18.69,13.14a6.44,6.44,0,0,1-1.41-3.3A4.15,4.15,0,0,1,18.16,7s1.85,2.22,1.6,3.55A8.45,8.45,0,0,1,18.69,13.14Z"/><path class="cls-2" d="M17.8,12.09a3.4,3.4,0,0,1-1.17-1.5A2.16,2.16,0,0,1,16.7,9s1.24.88,1.29,1.6A4.3,4.3,0,0,1,17.8,12.09Z"/><path class="cls-2" d="M16.37,13A4.23,4.23,0,0,1,15.3,11a2.73,2.73,0,0,1,.44-1.89s1.3,1.35,1.2,2.22A5.5,5.5,0,0,1,16.37,13Z"/><path class="cls-2" d="M15.86,15.51a8.54,8.54,0,0,1-2.55-4,5.48,5.48,0,0,1,.52-3.91s2.91,2.49,2.87,4.29A11.1,11.1,0,0,1,15.86,15.51Z"/><path class="cls-2" d="M14.35,14.85A6,6,0,0,1,12.58,12,3.87,3.87,0,0,1,13,9.24s2,1.78,2,3A7.93,7.93,0,0,1,14.35,14.85Z"/><path class="cls-2" d="M12.81,15.74a6.77,6.77,0,0,1-1.54-3.42,4.38,4.38,0,0,1,.87-3s2,2.28,1.74,3.67A8.89,8.89,0,0,1,12.81,15.74Z"/><path class="cls-2" d="M13.08,14.62a4.56,4.56,0,0,1-2.15-1.29,2.93,2.93,0,0,1-.66-2s2,.5,2.36,1.36A5.89,5.89,0,0,1,13.08,14.62Z"/><path class="cls-2" d="M14.07,15.07a6.19,6.19,0,0,1-3.41-.27,4,4,0,0,1-2-2s2.7-.59,3.71.21A8.26,8.26,0,0,1,14.07,15.07Z"/><path class="cls-2" d="M14.48,17.15a8.65,8.65,0,0,1-4.73-.91,5.59,5.59,0,0,1-2.51-3.12s3.87-.4,5.16.89A11.31,11.31,0,0,1,14.48,17.15Z"/><path class="cls-2" d="M11.27,16.86a2.27,2.27,0,0,1-1.2-.29,1.46,1.46,0,0,1-.6-.83s1-.05,1.31.29A2.91,2.91,0,0,1,11.27,16.86Z"/><path class="cls-2" d="M11.51,18.54A4.07,4.07,0,0,1,9.33,18a2.61,2.61,0,0,1-1.08-1.53s1.81-.07,2.37.56A5.38,5.38,0,0,1,11.51,18.54Z"/><path class="cls-2" d="M12.38,20.42a7.21,7.21,0,0,1-3.93-.81A4.7,4.7,0,0,1,6.38,17s3.23-.3,4.29.78A9.33,9.33,0,0,1,12.38,20.42Z"/><path class="cls-2" d="M11.94,21.25a7,7,0,0,1-3.86-.39,4.56,4.56,0,0,1-2.24-2.32s3.07-.6,4.2.33A9.18,9.18,0,0,1,11.94,21.25Z"/><path class="cls-2" d="M11.12,22.67a6.55,6.55,0,0,1-3.59-.77,4.27,4.27,0,0,1-1.86-2.41s2.95-.25,3.91.75A8.55,8.55,0,0,1,11.12,22.67Z"/><path class="cls-2" d="M11.58,24a8.44,8.44,0,0,1-4.67-.52A5.4,5.4,0,0,1,4.24,20.6s3.72-.68,5.07.46A11.11,11.11,0,0,1,11.58,24Z"/><path class="cls-2" d="M11.23,25.49a9.06,9.06,0,0,1-4.95-.84,5.82,5.82,0,0,1-2.69-3.2s4-.5,5.4.81A11.81,11.81,0,0,1,11.23,25.49Z"/><path class="cls-2" d="M9,26.33a5.54,5.54,0,0,1-2.9-1.11A3.58,3.58,0,0,1,4.84,23s2.5.18,3.17,1.14A7.27,7.27,0,0,1,9,26.33Z"/><path class="cls-2" d="M10.43,26.67A8.42,8.42,0,0,1,5.77,27a5.43,5.43,0,0,1-3.15-2.27s3.52-1.37,5.05-.5A11,11,0,0,1,10.43,26.67Z"/><path class="cls-2" d="M8.3,27a3.65,3.65,0,0,1-2,.49,2.34,2.34,0,0,1-1.53-.75s1.42-.85,2.15-.59A4.91,4.91,0,0,1,8.3,27Z"/><path class="cls-2" d="M9.83,28.94a7.07,7.07,0,0,1-3.93.3,4.58,4.58,0,0,1-2.65-1.92s3-1.14,4.26-.41A9.31,9.31,0,0,1,9.83,28.94Z"/><path class="cls-2" d="M9,29.44a5.15,5.15,0,0,1-2.73.86,3.33,3.33,0,0,1-2.19-.92s1.91-1.3,3-1A6.67,6.67,0,0,1,9,29.44Z"/><path class="cls-2" d="M10.78,32a9.25,9.25,0,0,1-5.15.13A6,6,0,0,1,2.3,29.45s3.94-1.31,5.58-.26A12.21,12.21,0,0,1,10.78,32Z"/><path class="cls-2" d="M10.78,32.47a8.89,8.89,0,0,1-4.85,1,5.74,5.74,0,0,1-3.61-2s3.5-1.92,5.23-1.22A11.77,11.77,0,0,1,10.78,32.47Z"/><path class="cls-2" d="M8.13,33.3a3.28,3.28,0,0,1-1.77.54A2.14,2.14,0,0,1,5,33.23s1.24-.83,1.91-.62A4.26,4.26,0,0,1,8.13,33.3Z"/><path class="cls-2" d="M10.71,35A8.72,8.72,0,0,1,6,36.05,5.64,5.64,0,0,1,2.39,34.2s3.4-1.94,5.11-1.29A11.45,11.45,0,0,1,10.71,35Z"/><path class="cls-2" d="M11.2,36.68a9.84,9.84,0,0,1-5.43.8,6.41,6.41,0,0,1-3.88-2.41s4-1.88,5.88-1A13,13,0,0,1,11.2,36.68Z"/><path class="cls-2" d="M10.67,37.35a8.64,8.64,0,0,1-4.62,1.28A5.55,5.55,0,0,1,2.43,37s3.27-2.06,5-1.49A11.43,11.43,0,0,1,10.67,37.35Z"/><path class="cls-2" d="M10.42,39.44a8.42,8.42,0,0,1-4.65.31,5.45,5.45,0,0,1-3.11-2.3s3.52-1.32,5-.44A11,11,0,0,1,10.42,39.44Z"/><path class="cls-2" d="M8.2,40.15a3.59,3.59,0,0,1-2,.12,2.33,2.33,0,0,1-1.33-1S6.39,38.71,7,39.1A4.66,4.66,0,0,1,8.2,40.15Z"/><path class="cls-2" d="M10.32,41.24a8,8,0,0,1-4.25,1.12,5.09,5.09,0,0,1-3.29-1.57s3-1.85,4.58-1.31A10.48,10.48,0,0,1,10.32,41.24Z"/><path class="cls-2" d="M9.86,43a7.1,7.1,0,0,1-3.94.39,4.58,4.58,0,0,1-2.7-1.87s2.95-1.21,4.26-.51A9.36,9.36,0,0,1,9.86,43Z"/><path class="cls-2" d="M9.77,43.6a6.75,6.75,0,0,1-3.56,1.16,4.37,4.37,0,0,1-2.89-1.18s2.48-1.73,3.84-1.34A9,9,0,0,1,9.77,43.6Z"/><path class="cls-2" d="M10,46a7.49,7.49,0,0,1-4.16,0,4.79,4.79,0,0,1-2.66-2.2s3.2-1,4.51-.15A9.92,9.92,0,0,1,10,46Z"/><path class="cls-2" d="M9.16,46.46a5.48,5.48,0,0,1-3,.62,3.59,3.59,0,0,1-2.24-1.22s2.18-1.18,3.25-.74A7.27,7.27,0,0,1,9.16,46.46Z"/><path class="cls-2" d="M9.62,48.24a6.66,6.66,0,0,1-3.69.25,4.34,4.34,0,0,1-2.48-1.82s2.8-1.05,4-.36A8.67,8.67,0,0,1,9.62,48.24Z"/><path class="cls-2" d="M10.11,49.06a7.45,7.45,0,0,1-4,.95A4.82,4.82,0,0,1,3,48.43s2.91-1.67,4.38-1.12A9.85,9.85,0,0,1,10.11,49.06Z"/><path class="cls-2" d="M8.46,50.62a4.18,4.18,0,0,1-2.34,0,2.67,2.67,0,0,1-1.5-1.23s1.79-.57,2.53-.09A5.61,5.61,0,0,1,8.46,50.62Z"/><path class="cls-2" d="M8.36,51.35a3.78,3.78,0,0,1-2,.61,2.43,2.43,0,0,1-1.61-.7s1.42-.94,2.19-.71A5.13,5.13,0,0,1,8.36,51.35Z"/><path class="cls-2" d="M9.56,53.1a6.41,6.41,0,0,1-3.51.55,4.15,4.15,0,0,1-2.53-1.54s2.59-1.24,3.8-.67A8.27,8.27,0,0,1,9.56,53.1Z"/><path class="cls-2" d="M8.49,54.14a4.09,4.09,0,0,1-2.25.43,2.63,2.63,0,0,1-1.65-.94s1.63-.85,2.43-.51A5.26,5.26,0,0,1,8.49,54.14Z"/><path class="cls-2" d="M7.48,55.31a2,2,0,0,1-1.09.18A1.27,1.27,0,0,1,5.6,55s.8-.39,1.18-.22A2.75,2.75,0,0,1,7.48,55.31Z"/><path class="cls-2" d="M10.69,57.52a9,9,0,0,1-5,.36,5.77,5.77,0,0,1-3.34-2.43S6.14,54,7.77,54.94A11.89,11.89,0,0,1,10.69,57.52Z"/><path class="cls-2" d="M10.53,58A8.4,8.4,0,0,1,6,59.19a5.43,5.43,0,0,1-3.48-1.68s3.2-1.94,4.86-1.36A10.87,10.87,0,0,1,10.53,58Z"/><path class="cls-2" d="M10.52,59.79a8.41,8.41,0,0,1-4.66.63,5.45,5.45,0,0,1-3.3-2.09s3.45-1.58,5.05-.8A11.11,11.11,0,0,1,10.52,59.79Z"/><path class="cls-2" d="M8.63,60.37a4.35,4.35,0,0,1-2.32.71,2.84,2.84,0,0,1-1.86-.8S6.08,59.19,7,59.46A5.52,5.52,0,0,1,8.63,60.37Z"/><path class="cls-2" d="M11.05,61.87A9.36,9.36,0,0,1,6,63.24,6.08,6.08,0,0,1,2.05,61.4s3.59-2.23,5.46-1.6A12.36,12.36,0,0,1,11.05,61.87Z"/><path class="cls-2" d="M9.12,63.56A5.62,5.62,0,0,1,6,63.78,3.55,3.55,0,0,1,4,62.26S6.29,61.37,7.3,62A7.4,7.4,0,0,1,9.12,63.56Z"/><path class="cls-2" d="M9.56,64.48a6.42,6.42,0,0,1-3.43.79,4.06,4.06,0,0,1-2.6-1.35S6,62.52,7.23,63A8.1,8.1,0,0,1,9.56,64.48Z"/><path class="cls-2" d="M11.22,66.13a9.88,9.88,0,0,1-5.39,1,6.37,6.37,0,0,1-4-2.26s3.93-2,5.83-1.22A12.94,12.94,0,0,1,11.22,66.13Z"/><path class="cls-2" d="M7.48,66.89a2,2,0,0,1-1.09.2,1.27,1.27,0,0,1-.79-.46s.79-.41,1.17-.24A2.78,2.78,0,0,1,7.48,66.89Z"/><path class="cls-2" d="M8.13,68.55a3.49,3.49,0,0,1-1.94,0,2.27,2.27,0,0,1-1.25-1s1.49-.48,2.11-.08A4.68,4.68,0,0,1,8.13,68.55Z"/><path class="cls-2" d="M7.54,69.66a2.22,2.22,0,0,1-1.23,0A1.49,1.49,0,0,1,5.53,69s1-.29,1.33,0A2.75,2.75,0,0,1,7.54,69.66Z"/><path class="cls-2" d="M10.38,70.82A8,8,0,0,1,6.08,72a5.18,5.18,0,0,1-3.37-1.54s3-1.93,4.64-1.41A10.54,10.54,0,0,1,10.38,70.82Z"/><path class="cls-2" d="M10.08,72.88a7.64,7.64,0,0,1-4.25.24A4.89,4.89,0,0,1,3,71s3.22-1.18,4.61-.37A10.16,10.16,0,0,1,10.08,72.88Z"/><path class="cls-2" d="M10.4,73.92a8.12,8.12,0,0,1-4.51.63,5.27,5.27,0,0,1-3.2-2S6,71,7.57,71.75A10.73,10.73,0,0,1,10.4,73.92Z"/><path class="cls-2" d="M8.8,74.93a4.76,4.76,0,0,1-2.65.34,3.12,3.12,0,0,1-1.87-1.19s2-.89,2.87-.44A6.22,6.22,0,0,1,8.8,74.93Z"/><path class="cls-2" d="M8.91,75.94a4.92,4.92,0,0,1-2.67.69,3.19,3.19,0,0,1-2.07-1s1.9-1.16,2.89-.82A6.6,6.6,0,0,1,8.91,75.94Z"/><path class="cls-2" d="M11.25,77.37A9.82,9.82,0,0,1,6,78.77a6.36,6.36,0,0,1-4.11-1.94s3.76-2.32,5.71-1.65A12.92,12.92,0,0,1,11.25,77.37Z"/><path class="cls-2" d="M10.42,79a8.28,8.28,0,0,1-4.52.69,5.34,5.34,0,0,1-3.23-2S6,76.15,7.55,76.88A10.78,10.78,0,0,1,10.42,79Z"/><path class="cls-2" d="M11.26,79.71A9.85,9.85,0,0,1,6,81.38a6.36,6.36,0,0,1-4.2-1.74s3.64-2.51,5.63-1.93A12.86,12.86,0,0,1,11.26,79.71Z"/><path class="cls-2" d="M9.5,81.73A6.35,6.35,0,0,1,6,81.94a4.14,4.14,0,0,1-2.38-1.77s2.7-1,3.86-.31A8.38,8.38,0,0,1,9.5,81.73Z"/><path class="cls-2" d="M8.24,82.64a3.62,3.62,0,0,1-2,.16,2.39,2.39,0,0,1-1.38-1s1.54-.6,2.21-.22A4.81,4.81,0,0,1,8.24,82.64Z"/><path class="cls-2" d="M8.75,83.67a4.6,4.6,0,0,1-2.5.63,2.93,2.93,0,0,1-1.91-.94S6.11,82.3,7,82.62A6.2,6.2,0,0,1,8.75,83.67Z"/><path class="cls-2" d="M9.54,85.45A6.39,6.39,0,0,1,6,85.83a4.15,4.15,0,0,1-2.45-1.65s2.65-1.12,3.84-.5A8.58,8.58,0,0,1,9.54,85.45Z"/><path class="cls-2" d="M10.46,86.66a8.31,8.31,0,0,1-4.53.81,5.33,5.33,0,0,1-3.3-1.91s3.31-1.68,4.89-1A11,11,0,0,1,10.46,86.66Z"/><path class="cls-2" d="M10.1,88.59a8,8,0,0,1-4.37,0A5,5,0,0,1,3,86.21s3.37-1,4.73-.08A10.33,10.33,0,0,1,10.1,88.59Z"/><path class="cls-2" d="M9.81,89.16A6.87,6.87,0,0,1,6,89.82,4.47,4.47,0,0,1,3.27,88.2s2.77-1.39,4.1-.8A9.06,9.06,0,0,1,9.81,89.16Z"/><path class="cls-2" d="M9.37,90.23A5.93,5.93,0,0,1,6.15,91,3.85,3.85,0,0,1,3.71,89.7S6,88.38,7.19,88.83A7.77,7.77,0,0,1,9.37,90.23Z"/><path class="cls-2" d="M10.4,92.11a8.31,8.31,0,0,1-4.57.47,5.37,5.37,0,0,1-3.15-2.16S6.1,89,7.63,89.81A10.76,10.76,0,0,1,10.4,92.11Z"/><path class="cls-2" d="M10.43,93.1a8.19,8.19,0,0,1-4.49.8A5.25,5.25,0,0,1,2.66,92s3.28-1.67,4.85-1A10.73,10.73,0,0,1,10.43,93.1Z"/><path class="cls-2" d="M9.26,94.08a5.7,5.7,0,0,1-3.09.71,3.66,3.66,0,0,1-2.34-1.21s2.22-1.27,3.34-.84A7.65,7.65,0,0,1,9.26,94.08Z"/><path class="cls-2" d="M9.53,95.56a6.31,6.31,0,0,1-3.46.6,4.07,4.07,0,0,1-2.52-1.48S6.08,93.41,7.3,94A8.22,8.22,0,0,1,9.53,95.56Z"/><path class="cls-2" d="M9.89,96.87A7,7,0,0,1,6,97.58,4.57,4.57,0,0,1,3.19,96S6,94.51,7.37,95.1A9.33,9.33,0,0,1,9.89,96.87Z"/><path class="cls-2" d="M9.21,97.92a5.63,5.63,0,0,1-3,.72,3.64,3.64,0,0,1-2.3-1.17s2.17-1.26,3.26-.85A7.39,7.39,0,0,1,9.21,97.92Z"/><path class="cls-2" d="M11.06,100.25a9.77,9.77,0,0,1-5.44.26A6.31,6.31,0,0,1,2,97.76s4.14-1.48,5.9-.42A12.87,12.87,0,0,1,11.06,100.25Z"/><path class="cls-2" d="M9.21,100.52a5.59,5.59,0,0,1-3,.69A3.61,3.61,0,0,1,3.87,100s2.19-1.24,3.28-.82A7.34,7.34,0,0,1,9.21,100.52Z"/><path class="cls-2" d="M10.52,102.75a8.68,8.68,0,0,1-4.82.14,5.58,5.58,0,0,1-3.14-2.49s3.69-1.24,5.23-.27A11.48,11.48,0,0,1,10.52,102.75Z"/><path class="cls-2" d="M10,103.62a7.51,7.51,0,0,1-4.14.43,4.85,4.85,0,0,1-2.86-2s3.1-1.3,4.49-.57A9.77,9.77,0,0,1,10,103.62Z"/><path class="cls-2" d="M8.94,104.73a5.19,5.19,0,0,1-2.87.21,3.32,3.32,0,0,1-1.94-1.4s2.17-.84,3.11-.3A6.61,6.61,0,0,1,8.94,104.73Z"/><path class="cls-2" d="M9.05,104.69a4.72,4.72,0,0,1-2.36,1.23,3.12,3.12,0,0,1-2.15-.5s1.54-1.49,2.54-1.38A6.44,6.44,0,0,1,9.05,104.69Z"/><path class="cls-2" d="M8.47,106.06a2.45,2.45,0,0,1-1.24.63,1.64,1.64,0,0,1-1.13-.27s.81-.77,1.34-.71A3.15,3.15,0,0,1,8.47,106.06Z"/><path class="cls-2" d="M9.94,106.57a4.86,4.86,0,0,1-2.06,1.74,3.15,3.15,0,0,1-2.24,0s1.19-1.82,2.2-1.93A6.37,6.37,0,0,1,9.94,106.57Z"/><path class="cls-2" d="M12.78,107.14a9.9,9.9,0,0,1-4.41,3.29,6.4,6.4,0,0,1-4.56-.28s2.64-3.57,4.71-3.67A13.08,13.08,0,0,1,12.78,107.14Z"/><path class="cls-2" d="M10.26,109.6a3.2,3.2,0,0,1-1.57.78A2,2,0,0,1,7.27,110s1-1,1.69-.88A4,4,0,0,1,10.26,109.6Z"/><path class="cls-2" d="M12.92,110.4a7.75,7.75,0,0,1-3.81,2,5,5,0,0,1-3.48-.77s2.46-2.43,4.08-2.26A10.25,10.25,0,0,1,12.92,110.4Z"/><path class="cls-2" d="M12.1,111.86a5,5,0,0,1-2.46,1.23,3.21,3.21,0,0,1-2.22-.55S9,111,10.06,111.16A6.47,6.47,0,0,1,12.1,111.86Z"/><path class="cls-2" d="M14.22,113.09A8.37,8.37,0,0,1,10,114.88a5.35,5.35,0,0,1-3.66-1.16s2.87-2.37,4.58-2A10.81,10.81,0,0,1,14.22,113.09Z"/><path class="cls-2" d="M14.79,113.2a8.83,8.83,0,0,1-3.95,3A5.77,5.77,0,0,1,6.72,116s2.35-3.24,4.22-3.35A11.77,11.77,0,0,1,14.79,113.2Z"/><path class="cls-2" d="M13.2,115.61a4.14,4.14,0,0,1-2.11.89,2.64,2.64,0,0,1-1.82-.57s1.42-1.18,2.27-1A5.33,5.33,0,0,1,13.2,115.61Z"/><path class="cls-2" d="M13.17,116.45a3.18,3.18,0,0,1-1.41,1.08,2.11,2.11,0,0,1-1.48-.07s.84-1.16,1.51-1.21A4.21,4.21,0,0,1,13.17,116.45Z"/><path class="cls-2" d="M13.22,115.17a5,5,0,0,1-.35,2.76,3.23,3.23,0,0,1-1.69,1.57s-.38-2.21.31-3A6.47,6.47,0,0,1,13.22,115.17Z"/><path class="cls-2" d="M14.07,116.36a3.37,3.37,0,0,1-.23,1.87,2.2,2.2,0,0,1-1.15,1.07s-.26-1.51.21-2A4.35,4.35,0,0,1,14.07,116.36Z"/><path class="cls-2" d="M15.52,117.13a3.21,3.21,0,0,1-.62,1.66,2,2,0,0,1-1.29.72s.1-1.43.64-1.81A4.35,4.35,0,0,1,15.52,117.13Z"/><path class="cls-2" d="M17.54,115.44a7.94,7.94,0,0,1-.72,4.36,5.14,5.14,0,0,1-2.8,2.39s-.46-3.54.68-4.75A10.4,10.4,0,0,1,17.54,115.44Z"/><path class="cls-2" d="M18.53,115.94a7.74,7.74,0,0,1-.51,4.28,5,5,0,0,1-2.61,2.45s-.61-3.42.45-4.66A10.4,10.4,0,0,1,18.53,115.94Z"/><path class="cls-2" d="M19.48,118a4.66,4.66,0,0,1-.83,2.45,3,3,0,0,1-1.84,1.12s.07-2.09.84-2.69A6.25,6.25,0,0,1,19.48,118Z"/><path class="cls-2" d="M20.13,119.2a2.8,2.8,0,0,1-.49,1.5,1.85,1.85,0,0,1-1.12.69s0-1.27.5-1.64A3.67,3.67,0,0,1,20.13,119.2Z"/><path class="cls-2" d="M21.87,118.91a4.77,4.77,0,0,1-.8,2.56,3.14,3.14,0,0,1-1.89,1.2s0-2.17.82-2.8A6.22,6.22,0,0,1,21.87,118.91Z"/><path class="cls-2" d="M23.08,119.61a4.57,4.57,0,0,1-.9,2.34,2.92,2.92,0,0,1-1.83,1s.15-2,.93-2.56A6,6,0,0,1,23.08,119.61Z"/><path class="cls-2" d="M24.29,119.47a5.56,5.56,0,0,1-.69,3,3.64,3.64,0,0,1-2.06,1.57s-.19-2.51.67-3.32A7.33,7.33,0,0,1,24.29,119.47Z"/><path class="cls-2" d="M24.51,121.28a2.32,2.32,0,0,1-.11,1.24,1.44,1.44,0,0,1-.74.72s-.2-1,.1-1.34A3,3,0,0,1,24.51,121.28Z"/><path class="cls-2" d="M25.56,118.23a8.87,8.87,0,0,1,1,4.85,5.8,5.8,0,0,1-2,3.61s-1.89-3.53-1.17-5.25A11.51,11.51,0,0,1,25.56,118.23Z"/><path class="cls-2" d="M26.33,118.08a9.11,9.11,0,0,1,1.6,4.83,5.88,5.88,0,0,1-1.58,3.91s-2.35-3.35-1.84-5.2A12,12,0,0,1,26.33,118.08Z"/><path class="cls-2" d="M28.17,119.19a6.92,6.92,0,0,1,.58,3.81,4.51,4.51,0,0,1-1.68,2.74s-1.33-2.81-.71-4.13A9.12,9.12,0,0,1,28.17,119.19Z"/><path class="cls-2" d="M29.16,120.9a3.39,3.39,0,0,1,.28,1.83,2.12,2.12,0,0,1-.81,1.3s-.64-1.34-.34-2A4.07,4.07,0,0,1,29.16,120.9Z"/><path class="cls-2" d="M30.84,118.28a8.89,8.89,0,0,1,.81,4.84,5.71,5.71,0,0,1-2.07,3.51s-1.76-3.54-1-5.23A11.61,11.61,0,0,1,30.84,118.28Z"/><path class="cls-2" d="M32.28,118a9.52,9.52,0,0,1,.77,5.27A6.19,6.19,0,0,1,30.72,127s-1.83-3.89-1-5.7A12.48,12.48,0,0,1,32.28,118Z"/><path class="cls-2" d="M33.39,120.09a5.11,5.11,0,0,1,.17,2.85,3.3,3.3,0,0,1-1.42,1.9s-.79-2.16-.25-3.09A6.82,6.82,0,0,1,33.39,120.09Z"/><path class="cls-2" d="M34.13,121.38a2.34,2.34,0,0,1,.3,1.23,1.51,1.51,0,0,1-.47.94s-.52-.88-.35-1.33A3,3,0,0,1,34.13,121.38Z"/><path class="cls-2" d="M36.31,118.85a7.87,7.87,0,0,1,.26,4.34,5,5,0,0,1-2.16,2.88s-1.21-3.28-.38-4.69A10.2,10.2,0,0,1,36.31,118.85Z"/><path class="cls-2" d="M37.41,120.16a5.11,5.11,0,0,1,0,2.83,3.32,3.32,0,0,1-1.53,1.79s-.65-2.2,0-3.08A6.86,6.86,0,0,1,37.41,120.16Z"/><path class="cls-2" d="M37.93,119.64a5.92,5.92,0,0,1,1,3.11,3.8,3.8,0,0,1-1,2.52s-1.51-2.16-1.18-3.35A7.8,7.8,0,0,1,37.93,119.64Z"/><path class="cls-2" d="M39.45,121a3.09,3.09,0,0,1,.26,1.72,2,2,0,0,1-.76,1.23s-.6-1.27-.32-1.86A4.18,4.18,0,0,1,39.45,121Z"/><path class="cls-2" d="M40.83,120.94a3.27,3.27,0,0,1,.18,1.81,2.07,2.07,0,0,1-.86,1.24s-.56-1.35-.23-2A4.27,4.27,0,0,1,40.83,120.94Z"/><path class="cls-2" d="M41.78,120.81a3.43,3.43,0,0,1,.6,1.83,2.25,2.25,0,0,1-.6,1.48s-.89-1.27-.69-2A4.41,4.41,0,0,1,41.78,120.81Z"/><path class="cls-2" d="M43.52,120.61a4,4,0,0,1,.17,2.21,2.56,2.56,0,0,1-1.07,1.5s-.65-1.67-.24-2.4A5.21,5.21,0,0,1,43.52,120.61Z"/><path class="cls-2" d="M44.44,118.7a7.85,7.85,0,0,1,1.29,4.17,5.07,5.07,0,0,1-1.42,3.34s-2-2.92-1.5-4.5A10.16,10.16,0,0,1,44.44,118.7Z"/><path class="cls-2" d="M46.25,119.66a6.07,6.07,0,0,1,.36,3.31,3.86,3.86,0,0,1-1.55,2.29s-1.05-2.47-.47-3.58A8.07,8.07,0,0,1,46.25,119.66Z"/><path class="cls-2" d="M47.5,118.59a8.15,8.15,0,0,1,.8,4.47,5.28,5.28,0,0,1-1.9,3.27s-1.66-3.27-1-4.84A10.72,10.72,0,0,1,47.5,118.59Z"/><path class="cls-2" d="M48.43,121.48a2.11,2.11,0,0,1,.12,1.17,1.38,1.38,0,0,1-.55.81s-.37-.88-.16-1.27A2.86,2.86,0,0,1,48.43,121.48Z"/><path class="cls-2" d="M50.75,118.43a8.84,8.84,0,0,1,.12,4.9,5.67,5.67,0,0,1-2.56,3.16s-1.23-3.75-.23-5.31A11.7,11.7,0,0,1,50.75,118.43Z"/><path class="cls-2" d="M51.44,118.11a9.17,9.17,0,0,1,.89,5,6,6,0,0,1-2.13,3.67s-1.86-3.68-1.08-5.44A12,12,0,0,1,51.44,118.11Z"/><path class="cls-2" d="M52.44,121.09a3,3,0,0,1,.1,1.65,1.88,1.88,0,0,1-.81,1.1s-.47-1.25-.15-1.78A3.91,3.91,0,0,1,52.44,121.09Z"/><path class="cls-2" d="M53.38,119.62a5.93,5.93,0,0,1,1,3.14,3.86,3.86,0,0,1-1,2.54s-1.52-2.19-1.19-3.38A7.9,7.9,0,0,1,53.38,119.62Z"/><path class="cls-2" d="M55,121.34a2.46,2.46,0,0,1,0,1.37,1.59,1.59,0,0,1-.7.89s-.36-1-.08-1.49A3.26,3.26,0,0,1,55,121.34Z"/><path class="cls-2" d="M56,119a7.25,7.25,0,0,1,1.26,3.81,4.62,4.62,0,0,1-1.25,3.1s-1.86-2.65-1.46-4.11A9.51,9.51,0,0,1,56,119Z"/><path class="cls-2" d="M57.27,120.85a3.32,3.32,0,0,1,.55,1.8,2.18,2.18,0,0,1-.62,1.43s-.84-1.26-.63-1.94A4.26,4.26,0,0,1,57.27,120.85Z"/><path class="cls-2" d="M59,120.61a4.07,4.07,0,0,1,.11,2.24A2.65,2.65,0,0,1,58,124.32s-.6-1.7-.17-2.42A5.49,5.49,0,0,1,59,120.61Z"/><path class="cls-2" d="M60.33,120.86a3.45,3.45,0,0,1,0,2,2.26,2.26,0,0,1-1,1.25s-.47-1.51-.06-2.13A4.78,4.78,0,0,1,60.33,120.86Z"/><path class="cls-2" d="M62.4,118a9.78,9.78,0,0,1,.23,5.43A6.3,6.3,0,0,1,59.87,127s-1.45-4.14-.38-5.89A12.87,12.87,0,0,1,62.4,118Z"/><path class="cls-2" d="M62.55,119a7.15,7.15,0,0,1,1.08,3.83,4.62,4.62,0,0,1-1.36,3s-1.73-2.7-1.27-4.12A9.48,9.48,0,0,1,62.55,119Z"/><path class="cls-2" d="M64.5,120.07a5.23,5.23,0,0,1,0,2.94,3.41,3.41,0,0,1-1.59,1.85s-.67-2.27,0-3.19A6.93,6.93,0,0,1,64.5,120.07Z"/><path class="cls-2" d="M65.1,119.86a5.49,5.49,0,0,1,.81,2.92,3.52,3.52,0,0,1-1.06,2.28s-1.3-2.07-.94-3.15A7.16,7.16,0,0,1,65.1,119.86Z"/><path class="cls-2" d="M66.75,118a9.43,9.43,0,0,1,1.11,5.12,6.1,6.1,0,0,1-2,3.85s-2.06-3.69-1.33-5.53A12.27,12.27,0,0,1,66.75,118Z"/><path class="cls-2" d="M69,118a9.92,9.92,0,0,1,0,5.5A6.4,6.4,0,0,1,66.11,127s-1.29-4.24-.14-6A13,13,0,0,1,69,118Z"/><path class="cls-2" d="M69.75,119.24a7,7,0,0,1,.17,3.89,4.5,4.5,0,0,1-2,2.55s-1-3-.28-4.21A9.43,9.43,0,0,1,69.75,119.24Z"/><path class="cls-2" d="M70.41,121.16a2.79,2.79,0,0,1,.15,1.55,1.79,1.79,0,0,1-.74,1.06s-.47-1.16-.19-1.67A3.76,3.76,0,0,1,70.41,121.16Z"/><path class="cls-2" d="M71.92,119.5a6.25,6.25,0,0,1,.52,3.46,4,4,0,0,1-1.52,2.47s-1.21-2.55-.64-3.74A8.11,8.11,0,0,1,71.92,119.5Z"/><path class="cls-2" d="M73,118.91a7.4,7.4,0,0,1,.93,4A4.83,4.83,0,0,1,72.39,126s-1.66-2.91-1.1-4.37A9.76,9.76,0,0,1,73,118.91Z"/><path class="cls-2" d="M74.91,119.53a6.44,6.44,0,0,1,.06,3.58,4.16,4.16,0,0,1-1.88,2.29s-.88-2.75-.15-3.88A8.56,8.56,0,0,1,74.91,119.53Z"/><path class="cls-2" d="M75.64,119.63a5.9,5.9,0,0,1,.63,3.26,3.86,3.86,0,0,1-1.34,2.4s-1.25-2.36-.76-3.52A7.76,7.76,0,0,1,75.64,119.63Z"/><path class="cls-2" d="M77.22,120.06a5.23,5.23,0,0,1,.15,2.89,3.38,3.38,0,0,1-1.44,1.92s-.8-2.2-.24-3.13A6.93,6.93,0,0,1,77.22,120.06Z"/><path class="cls-2" d="M78.71,119.35a6.78,6.78,0,0,1,.2,3.75A4.38,4.38,0,0,1,77,125.58s-1-2.85-.3-4.06A8.88,8.88,0,0,1,78.71,119.35Z"/><path class="cls-2" d="M79.43,120.17a4.83,4.83,0,0,1,.52,2.64,3.12,3.12,0,0,1-1.09,2s-1-1.92-.62-2.86A6.3,6.3,0,0,1,79.43,120.17Z"/><path class="cls-2" d="M80.67,119.56a6.09,6.09,0,0,1,.8,3.29,3.91,3.91,0,0,1-1.26,2.51s-1.38-2.35-.94-3.55A7.93,7.93,0,0,1,80.67,119.56Z"/><path class="cls-2" d="M81.76,119.32a6.59,6.59,0,0,1,1.1,3.48,4.24,4.24,0,0,1-1.16,2.8s-1.67-2.43-1.28-3.75A8.4,8.4,0,0,1,81.76,119.32Z"/><path class="cls-2" d="M83.91,119.43a6.6,6.6,0,0,1,.12,3.68,4.28,4.28,0,0,1-1.9,2.39s-.95-2.81-.21-4A8.67,8.67,0,0,1,83.91,119.43Z"/><path class="cls-2" d="M84.94,118.64a8.13,8.13,0,0,1,.69,4.45,5.24,5.24,0,0,1-1.94,3.19s-1.58-3.27-.86-4.81A10.67,10.67,0,0,1,84.94,118.64Z"/><path class="cls-2" d="M85.89,120.56a4,4,0,0,1,.35,2.22,2.6,2.6,0,0,1-1,1.59s-.78-1.63-.42-2.4A5.14,5.14,0,0,1,85.89,120.56Z"/><path class="cls-2" d="M88.34,118a9.72,9.72,0,0,1,0,5.41,6.25,6.25,0,0,1-2.89,3.43s-1.27-4.17-.14-5.86A12.91,12.91,0,0,1,88.34,118Z"/><path class="cls-2" d="M88.6,118.1a9.17,9.17,0,0,1,1.12,5,5.9,5.9,0,0,1-2,3.75s-2-3.57-1.33-5.36A12,12,0,0,1,88.6,118.1Z"/><path class="cls-2" d="M89.54,119.41a6.29,6.29,0,0,1,1,3.4,4.11,4.11,0,0,1-1.18,2.7s-1.57-2.39-1.17-3.67A8.19,8.19,0,0,1,89.54,119.41Z"/><path class="cls-2" d="M91.18,120.77a3.63,3.63,0,0,1,.12,2,2.37,2.37,0,0,1-1,1.35s-.57-1.54-.18-2.2A4.76,4.76,0,0,1,91.18,120.77Z"/><path class="cls-2" d="M92.78,119.89a5.61,5.61,0,0,1,.11,3.12,3.63,3.63,0,0,1-1.6,2s-.81-2.38-.19-3.38A7.33,7.33,0,0,1,92.78,119.89Z"/><path class="cls-2" d="M94.05,120.1a5.15,5.15,0,0,1,0,2.88,3.37,3.37,0,0,1-1.51,1.85s-.71-2.21-.12-3.12A6.92,6.92,0,0,1,94.05,120.1Z"/><path class="cls-2" d="M95.82,118.14a9.41,9.41,0,0,1,.25,5.21,6.07,6.07,0,0,1-2.64,3.44s-1.4-4-.39-5.65A12.27,12.27,0,0,1,95.82,118.14Z"/><path class="cls-2" d="M96,120.82a3.49,3.49,0,0,1,.52,1.84,2.23,2.23,0,0,1-.66,1.45s-.83-1.3-.61-2A4.54,4.54,0,0,1,96,120.82Z"/><path class="cls-2" d="M98.05,118.59a8.32,8.32,0,0,1,.46,4.59,5.38,5.38,0,0,1-2.16,3.16s-1.43-3.44-.61-5A10.86,10.86,0,0,1,98.05,118.59Z"/><path class="cls-2" d="M99.37,117.83a9.84,9.84,0,0,1,.71,5.43,6.35,6.35,0,0,1-2.47,3.83s-1.81-4-.89-5.88A12.79,12.79,0,0,1,99.37,117.83Z"/><path class="cls-2" d="M101,118.31a9.06,9.06,0,0,1,.17,5,5.83,5.83,0,0,1-2.59,3.28s-1.31-3.85-.3-5.46A11.76,11.76,0,0,1,101,118.31Z"/><path class="cls-2" d="M101.33,118.26a8.83,8.83,0,0,1,1.23,4.73,5.69,5.69,0,0,1-1.77,3.66s-2-3.37-1.43-5.11A11.53,11.53,0,0,1,101.33,118.26Z"/><path class="cls-2" d="M102.69,121.06a3.05,3.05,0,0,1,.11,1.69,2,2,0,0,1-.84,1.12s-.47-1.27-.15-1.82A3.87,3.87,0,0,1,102.69,121.06Z"/><path class="cls-2" d="M103.82,120.66a3.75,3.75,0,0,1,.43,2.06,2.45,2.45,0,0,1-.83,1.55s-.82-1.49-.52-2.23A5,5,0,0,1,103.82,120.66Z"/><rect class="cls-3" x="66.03" y="66.39" width="46.97" height="46.97" rx="8"/><rect class="cls-4" x="103.14" y="102.09" width="2.82" height="2.82" transform="translate(103.81 -43.61) rotate(45)"/><rect class="cls-5" x="89.05" y="105.38" width="2.82" height="2.82" transform="translate(102 -32.68) rotate(45)"/><rect class="cls-4" x="100.12" y="91.09" width="1.33" height="1.33" transform="translate(94.4 -44.39) rotate(45)"/><rect class="cls-5" x="69.32" y="102.09" width="2.82" height="2.82" transform="translate(93.9 -19.7) rotate(45)"/><rect class="cls-4" x="103.14" y="77.2" width="2.82" height="2.82" transform="translate(86.2 -50.9) rotate(45)"/><rect class="cls-4" x="79.18" y="68.27" width="2.82" height="2.82" transform="translate(72.88 -36.58) rotate(45)"/><rect class="cls-4" x="73.55" y="79.55" width="2.82" height="2.82" transform="translate(79.2 -29.29) rotate(45)"/><ellipse class="cls-6" cx="89.05" cy="99.98" rx="13.62" ry="3.05"/><path class="cls-7" d="M87.32,101A14.71,14.71,0,1,0,72.61,86.29,14.72,14.72,0,0,0,87.32,101Z"/><path class="cls-8" d="M81.11,91.22A1.47,1.47,0,0,1,80.4,90V87.08a.65.65,0,0,1,.08-.31.61.61,0,0,1,.85-.22l6.49,3.78a1.23,1.23,0,0,1,.61,1.06v3a.68.68,0,0,1-.11.39.74.74,0,0,1-1,.25Zm9.67-5.46a1.26,1.26,0,0,1,.62,1.07v6a.49.49,0,0,1-.26.43l-1.41.81-.06,0V90.78a1.23,1.23,0,0,0-.6-1.06l-5.7-3.41v-3.8a.68.68,0,0,1,.08-.31A.63.63,0,0,1,84.3,82Zm2.84-4.46a1.24,1.24,0,0,1,.62,1.07V91.2a.48.48,0,0,1-.26.43l-1.35.73V86.22a1.23,1.23,0,0,0-.6-1.06l-5.82-3.5V78.07a.69.69,0,0,1,.08-.32.63.63,0,0,1,.85-.22Z"/><rect class="cls-9" x="15" y="66.39" width="46.97" height="46.97" rx="8"/><rect class="cls-4" x="52.11" y="102.09" width="2.82" height="2.82" transform="translate(88.86 -7.53) rotate(45)"/><rect class="cls-5" x="38.02" y="105.38" width="2.82" height="2.82" transform="translate(87.06 3.4) rotate(45)"/><rect class="cls-4" x="49.09" y="91.09" width="1.33" height="1.33" transform="translate(79.46 -8.31) rotate(45)"/><rect class="cls-5" x="18.29" y="102.09" width="2.82" height="2.82" transform="translate(78.95 16.39) rotate(45)"/><rect class="cls-4" x="52.11" y="77.2" width="2.82" height="2.82" transform="translate(71.26 -14.82) rotate(45)"/><rect class="cls-4" x="28.15" y="68.27" width="2.82" height="2.82" transform="translate(57.93 -0.49) rotate(45)"/><rect class="cls-4" x="22.52" y="79.55" width="2.82" height="2.82" transform="translate(64.25 6.79) rotate(45)"/><ellipse class="cls-6" cx="38.02" cy="99.98" rx="13.62" ry="3.05"/><path class="cls-7" d="M41.16,99A14.71,14.71,0,1,0,26.44,84.29,14.72,14.72,0,0,0,41.16,99Z"/><path class="cls-8" d="M34.94,89.22A1.47,1.47,0,0,1,34.23,88V85.08a.65.65,0,0,1,.08-.31.61.61,0,0,1,.85-.22l6.49,3.78a1.23,1.23,0,0,1,.61,1.06v3a.76.76,0,0,1-.1.39.75.75,0,0,1-1,.25Zm9.68-5.46a1.27,1.27,0,0,1,.61,1.07v6a.5.5,0,0,1-.25.43l-1.42.81-.06,0V88.78a1.23,1.23,0,0,0-.6-1.06l-5.7-3.41v-3.8a.68.68,0,0,1,.08-.31.63.63,0,0,1,.85-.22Zm2.83-4.46a1.24,1.24,0,0,1,.62,1.07V89.2a.48.48,0,0,1-.26.43l-1.35.73V84.22a1.23,1.23,0,0,0-.6-1.06L40,79.66V76.07a.69.69,0,0,1,.08-.32.63.63,0,0,1,.85-.22Z"/><rect class="cls-10" x="66.03" y="14.39" width="46.97" height="46.97" rx="8"/><rect class="cls-4" x="103.14" y="50.09" width="2.82" height="2.82" transform="translate(67.04 -58.84) rotate(45)"/><rect class="cls-5" x="89.05" y="53.38" width="2.82" height="2.82" transform="translate(65.23 -47.91) rotate(45)"/><rect class="cls-4" x="100.12" y="39.09" width="1.33" height="1.33" transform="translate(57.63 -59.62) rotate(45)"/><rect class="cls-5" x="69.32" y="50.09" width="2.82" height="2.82" transform="translate(57.13 -34.93) rotate(45)"/><rect class="cls-4" x="103.14" y="25.2" width="2.82" height="2.82" transform="translate(49.43 -66.13) rotate(45)"/><rect class="cls-4" x="79.18" y="16.27" width="2.82" height="2.82" transform="translate(36.11 -51.81) rotate(45)"/><rect class="cls-4" x="73.55" y="27.55" width="2.82" height="2.82" transform="translate(42.43 -44.52) rotate(45)"/><ellipse class="cls-6" cx="89.05" cy="47.98" rx="13.62" ry="3.05"/><path class="cls-7" d="M89.32,45.82A14.72,14.72,0,1,0,74.61,31.11,14.72,14.72,0,0,0,89.32,45.82Z"/><path class="cls-8" d="M83.11,36a1.49,1.49,0,0,1-.71-1.27V31.9a.69.69,0,0,1,.08-.32.63.63,0,0,1,.85-.22l6.49,3.78a1.25,1.25,0,0,1,.61,1.07v3a.65.65,0,0,1-.11.38.74.74,0,0,1-1,.25Zm9.67-5.46a1.24,1.24,0,0,1,.62,1.06v6a.48.48,0,0,1-.26.42l-1.41.81-.06,0V35.59a1.25,1.25,0,0,0-.6-1.06l-5.7-3.41V27.33a.65.65,0,0,1,.08-.31.62.62,0,0,1,.85-.23Zm2.84-4.46a1.24,1.24,0,0,1,.62,1.07V36a.5.5,0,0,1-.26.44l-1.35.73V31A1.24,1.24,0,0,0,94,30l-5.82-3.49v-3.6a.65.65,0,0,1,.08-.31.63.63,0,0,1,.85-.22Z"/><rect class="cls-11" x="15" y="14.39" width="46.97" height="46.97" rx="8"/><rect class="cls-4" x="52.11" y="50.09" width="2.82" height="2.82" transform="translate(52.09 -22.76) rotate(45)"/><rect class="cls-5" x="38.02" y="53.38" width="2.82" height="2.82" transform="translate(50.29 -11.83) rotate(45)"/><rect class="cls-4" x="49.09" y="39.09" width="1.33" height="1.33" transform="translate(42.69 -23.54) rotate(45)"/><rect class="cls-5" x="18.29" y="50.09" width="2.82" height="2.82" transform="translate(42.19 1.16) rotate(45)"/><rect class="cls-4" x="52.11" y="25.2" width="2.82" height="2.82" transform="translate(34.49 -30.05) rotate(45)"/><rect class="cls-4" x="28.15" y="16.27" width="2.82" height="2.82" transform="translate(21.16 -15.72) rotate(45)"/><rect class="cls-4" x="22.52" y="27.55" width="2.82" height="2.82" transform="translate(27.48 -8.44) rotate(45)"/><ellipse class="cls-6" cx="38.02" cy="47.98" rx="13.62" ry="3.05"/><path class="cls-7" d="M38,49A14.72,14.72,0,1,0,23.32,34.25,14.72,14.72,0,0,0,38,49Z"/><path class="cls-8" d="M31.82,39.18a1.49,1.49,0,0,1-.71-1.27V35a.69.69,0,0,1,.08-.32A.63.63,0,0,1,32,34.5l6.49,3.78a1.27,1.27,0,0,1,.61,1.07v3a.73.73,0,0,1-.11.38A.75.75,0,0,1,38,43Zm9.67-5.46a1.23,1.23,0,0,1,.61,1.06v6a.47.47,0,0,1-.25.43l-1.42.81-.06,0V38.73a1.23,1.23,0,0,0-.6-1.06l-5.69-3.41V30.47a.65.65,0,0,1,.08-.31.62.62,0,0,1,.85-.23Zm2.84-4.46a1.22,1.22,0,0,1,.61,1.07v8.82a.51.51,0,0,1-.25.44l-1.35.73V34.17a1.23,1.23,0,0,0-.6-1.06l-5.83-3.49V26a.56.56,0,0,1,.09-.31.6.6,0,0,1,.84-.22Z"/></svg>