<svg id="Layer_1" data-name="Layer 1" xmlns="http://www.w3.org/2000/svg" viewBox="0 0 128 128"><defs><style>.cls-1{fill:#004d51;opacity:0.2;}.cls-2{fill:#c9988b;}.cls-3{fill:#bf7d6e;}.cls-4{fill:#956749;}.cls-5{fill:#79533b;}.cls-6{fill:#6dbcf5;}.cls-7{fill:#de4d4d;}.cls-8{fill:#0b779f;}.cls-9{fill:#4abbe6;}.cls-10{fill:#28b0e3;}.cls-11{fill:#d93131;}.cls-12{fill:#bee1eb;}.cls-13{fill:#7a8f9f;}.cls-14{fill:#596e7d;}.cls-15{fill:#b1bec7;}</style></defs><rect class="cls-1" x="11.59" y="44.45" width="105.01" height="82.55" rx="8.38"/><rect class="cls-2" x="24.27" y="58.67" width="81.96" height="60.43"/><rect class="cls-3" x="24.27" y="78.54" width="80.3" height="0.83"/><rect class="cls-3" x="24.27" y="83.5" width="80.3" height="0.83"/><rect class="cls-3" x="24.27" y="88.47" width="80.3" height="0.83"/><rect class="cls-3" x="24.27" y="93.44" width="80.3" height="0.83"/><rect class="cls-3" x="24.27" y="101.72" width="80.3" height="0.83"/><rect class="cls-3" x="24.27" y="106.68" width="80.3" height="0.83"/><rect class="cls-3" x="24.27" y="111.65" width="80.3" height="0.83"/><rect class="cls-3" x="24.27" y="118.27" width="80.3" height="0.83"/><rect class="cls-3" x="24.27" y="66.95" width="80.3" height="0.83"/><path class="cls-4" d="M103.74,86.81v8.28h-24v-19H105.4v-5H79.73V67h-5v4.13H53.24v-5h-5v5h-24v5h24v19h-24V86.81h-5v33.12h5V100.06H52.42v19.87h5V100.06H70.63v19.87h5V100.06h28.15v19.87h5V86.81ZM53.24,76.05H74.77v19H53.24Z"/><rect class="cls-5" x="24.27" y="95.09" width="24.01" height="0.83"/><rect class="cls-5" x="79.73" y="95.09" width="24.01" height="0.83"/><rect class="cls-5" x="53.24" y="95.09" width="21.52" height="0.83"/><rect class="cls-5" x="53.24" y="71.08" width="21.52" height="0.83"/><rect class="cls-5" x="27.17" y="107.92" width="10.76" height="1.66" transform="translate(141.3 76.21) rotate(90)"/><rect class="cls-5" x="38.76" y="107.92" width="10.76" height="1.66" transform="translate(152.89 64.62) rotate(90)"/><rect class="cls-4" x="30.89" y="101.72" width="14.9" height="2.48"/><rect class="cls-6" x="33.37" y="104.2" width="9.93" height="8.28"/><rect class="cls-5" x="33.37" y="107.51" width="9.93" height="1.66" transform="translate(-70 146.68) rotate(-90)"/><rect class="cls-4" x="30.89" y="112.48" width="14.9" height="2.48"/><rect class="cls-5" x="33.37" y="108.34" width="9.93" height="0.83"/><rect class="cls-4" x="33.37" y="107.51" width="9.93" height="0.83"/><rect class="cls-5" x="78.49" y="107.92" width="10.76" height="1.66" transform="translate(192.63 24.88) rotate(90)"/><rect class="cls-5" x="90.08" y="107.92" width="10.76" height="1.66" transform="translate(204.22 13.29) rotate(90)"/><rect class="cls-4" x="82.22" y="101.72" width="14.9" height="2.48"/><rect class="cls-6" x="84.7" y="104.2" width="9.93" height="8.28"/><rect class="cls-5" x="84.7" y="107.51" width="9.93" height="1.66" transform="translate(-18.67 198.01) rotate(-90)"/><rect class="cls-4" x="82.22" y="112.48" width="14.9" height="2.48"/><rect class="cls-5" x="84.7" y="108.34" width="9.93" height="0.83"/><rect class="cls-4" x="84.7" y="107.51" width="9.93" height="0.83"/><rect class="cls-5" x="52.83" y="85.57" width="10.76" height="1.66" transform="translate(144.61 28.19) rotate(90)"/><rect class="cls-5" x="64.42" y="85.57" width="10.76" height="1.66" transform="translate(156.2 16.6) rotate(90)"/><rect class="cls-4" x="56.55" y="79.36" width="14.9" height="2.48"/><rect class="cls-6" x="59.04" y="81.85" width="9.93" height="8.28"/><rect class="cls-5" x="59.04" y="85.16" width="9.93" height="1.66" transform="translate(-21.98 149.99) rotate(-90)"/><rect class="cls-4" x="56.55" y="90.13" width="14.9" height="2.48"/><rect class="cls-5" x="59.04" y="85.99" width="9.93" height="0.83"/><rect class="cls-4" x="59.04" y="85.16" width="9.93" height="0.83"/><rect class="cls-7" x="57.38" y="100.06" width="13.25" height="19.04"/><path class="cls-8" d="M18.47,33.83l42-27.46a6.46,6.46,0,0,1,7.13,0l42,28.26V91.78l-42-28.34a6.46,6.46,0,0,0-7.06,0L18.47,91Z"/><path class="cls-9" d="M18.47,30.52l42-27.46a6.46,6.46,0,0,1,7.13,0l42,28.26V88.47l-42-28.34a6.48,6.48,0,0,0-7.06,0l-42,27.5Z"/><path class="cls-10" d="M67.56,3.09l42,28.26V88.47l-42-28.34C65.39,58.74,65.4,1.65,67.56,3.09Z"/><rect class="cls-11" x="57.38" y="100.06" width="13.25" height="4.14"/><circle class="cls-12" cx="59.87" cy="109.99" r="1.66"/><polygon class="cls-13" points="92.15 40.45 78.91 33 78.91 23.9 92.15 23.9 92.15 40.45"/><rect class="cls-14" x="78.08" y="16.45" width="14.9" height="9.93" rx="1.44"/><rect class="cls-15" x="78.08" y="13.14" width="14.9" height="9.93" rx="1.44"/><rect class="cls-14" x="80.56" y="14.79" width="9.93" height="6.62" rx="1.44"/></svg>