<svg id="Layer_1" data-name="Layer 1" xmlns="http://www.w3.org/2000/svg" xmlns:xlink="http://www.w3.org/1999/xlink" viewBox="0 0 128 128"><defs><style>.cls-1{fill:#004d51;opacity:0.2;}.cls-2{fill:#ff9100;}.cls-3{fill:#ad2716;}.cls-4{fill:url(#linear-gradient);}.cls-5{fill:#42210b;}.cls-6{fill:url(#linear-gradient-2);}.cls-7{fill:url(#linear-gradient-3);}.cls-8{fill:url(#linear-gradient-4);}.cls-9{fill:url(#linear-gradient-5);}.cls-10{fill:url(#linear-gradient-6);}.cls-11{fill:url(#linear-gradient-7);}.cls-12{fill:url(#linear-gradient-8);}.cls-13{fill:url(#linear-gradient-9);}.cls-14{fill:url(#linear-gradient-10);}.cls-15{fill:url(#linear-gradient-11);}.cls-16{fill:url(#linear-gradient-12);}.cls-17{fill:url(#linear-gradient-13);}.cls-18{fill:url(#linear-gradient-14);}.cls-19{fill:url(#linear-gradient-15);}.cls-20{fill:url(#linear-gradient-16);}.cls-21{fill:url(#linear-gradient-17);}.cls-22{fill:url(#linear-gradient-18);}.cls-23{fill:#1f9079;}</style><linearGradient id="linear-gradient" x1="112.5" y1="21" x2="119.5" y2="21" gradientUnits="userSpaceOnUse"><stop offset="0" stop-color="#ad2716"/><stop offset="1" stop-color="#c33700"/></linearGradient><linearGradient id="linear-gradient-2" x1="91.5" x2="98.5" xlink:href="#linear-gradient"/><linearGradient id="linear-gradient-3" x1="70.5" x2="77.5" xlink:href="#linear-gradient"/><linearGradient id="linear-gradient-4" x1="49.5" x2="56.5" xlink:href="#linear-gradient"/><linearGradient id="linear-gradient-5" x1="29.5" x2="36.5" xlink:href="#linear-gradient"/><linearGradient id="linear-gradient-6" x1="8.5" x2="15.5" xlink:href="#linear-gradient"/><linearGradient id="linear-gradient-7" x1="8.5" y1="41" x2="15.5" y2="41" xlink:href="#linear-gradient"/><linearGradient id="linear-gradient-8" x1="8.5" y1="63" x2="15.5" y2="63" xlink:href="#linear-gradient"/><linearGradient id="linear-gradient-9" x1="8.5" y1="84.2" x2="15.5" y2="84.2" xlink:href="#linear-gradient"/><linearGradient id="linear-gradient-10" y1="41" y2="41" xlink:href="#linear-gradient"/><linearGradient id="linear-gradient-11" y1="63" y2="63" xlink:href="#linear-gradient"/><linearGradient id="linear-gradient-12" y1="84.2" y2="84.2" xlink:href="#linear-gradient"/><linearGradient id="linear-gradient-13" y1="108" y2="108" xlink:href="#linear-gradient"/><linearGradient id="linear-gradient-14" x1="91.5" y1="108" x2="98.5" y2="108" xlink:href="#linear-gradient"/><linearGradient id="linear-gradient-15" x1="70.5" y1="108" x2="77.5" y2="108" xlink:href="#linear-gradient"/><linearGradient id="linear-gradient-16" x1="49.5" y1="108" x2="56.5" y2="108" xlink:href="#linear-gradient"/><linearGradient id="linear-gradient-17" x1="8.5" y1="108" x2="15.5" y2="108" xlink:href="#linear-gradient"/><linearGradient id="linear-gradient-18" x1="29.5" y1="108" x2="36.5" y2="108" xlink:href="#linear-gradient"/></defs><path class="cls-1" d="M115.2,33H12.8C7.94,33,4,36.53,4,40.89v77.22c0,4.36,3.94,7.89,8.8,7.89H115.2c4.86,0,8.8-3.53,8.8-7.89V40.89C124,36.53,120.06,33,115.2,33Zm3.72,79.6c0,4.35-3.94,7.88-8.8,7.88H17.88c-4.86,0-8.8-3.53-8.8-7.88V46.4c0-4.35,3.94-7.88,8.8-7.88h92.24c4.86,0,8.8,3.53,8.8,7.88Z"/><rect class="cls-2" x="12" y="101" width="103" height="1"/><rect class="cls-3" x="12" y="102" width="103" height="2"/><rect class="cls-2" x="12" y="112" width="103" height="1"/><rect class="cls-3" x="12" y="113" width="103" height="2"/><rect class="cls-2" x="12" y="14" width="103" height="1"/><rect class="cls-3" x="12" y="15" width="103" height="2"/><rect class="cls-2" x="12" y="25" width="103" height="1"/><rect class="cls-3" x="12" y="26" width="103" height="2"/><rect class="cls-4" x="112.5" y="5.5" width="7" height="31"/><path class="cls-5" d="M119,6V36h-6V6h6m1-1h-8V37h8V5Z"/><rect class="cls-2" x="113" y="6" width="6" height="3"/><rect class="cls-6" x="91.5" y="5.5" width="7" height="31"/><path class="cls-5" d="M98,6V36H92V6h6m1-1H91V37h8V5Z"/><rect class="cls-2" x="92" y="6" width="6" height="3"/><rect class="cls-7" x="70.5" y="5.5" width="7" height="31"/><path class="cls-5" d="M77,6V36H71V6h6m1-1H70V37h8V5Z"/><rect class="cls-2" x="71" y="6" width="6" height="3"/><rect class="cls-8" x="49.5" y="5.5" width="7" height="31"/><path class="cls-5" d="M56,6V36H50V6h6m1-1H49V37h8V5Z"/><rect class="cls-2" x="50" y="6" width="6" height="3"/><rect class="cls-9" x="29.5" y="5.5" width="7" height="31"/><path class="cls-5" d="M36,6V36H30V6h6m1-1H29V37h8V5Z"/><rect class="cls-2" x="30" y="6" width="6" height="3"/><rect class="cls-10" x="8.5" y="5.5" width="7" height="31"/><path class="cls-5" d="M15,6V36H9V6h6m1-1H8V37h8V5Z"/><rect class="cls-2" x="9" y="6" width="6" height="3"/><rect class="cls-11" x="8.5" y="25.5" width="7" height="31"/><path class="cls-5" d="M15,26V56H9V26h6m1-1H8V57h8V25Z"/><rect class="cls-2" x="9" y="26" width="6" height="3"/><rect class="cls-12" x="8.5" y="47.5" width="7" height="31"/><path class="cls-5" d="M15,48V78H9V48h6m1-1H8V79h8V47Z"/><rect class="cls-2" x="9" y="48" width="6" height="3"/><rect class="cls-13" x="8.5" y="68.7" width="7" height="31"/><path class="cls-5" d="M15,69.2v30H9v-30h6m1-1H8v32h8v-32Z"/><rect class="cls-2" x="9" y="69.2" width="6" height="3"/><rect class="cls-14" x="112.5" y="25.5" width="7" height="31"/><path class="cls-5" d="M119,26V56h-6V26h6m1-1h-8V57h8V25Z"/><rect class="cls-2" x="113" y="26" width="6" height="3"/><rect class="cls-15" x="112.5" y="47.5" width="7" height="31"/><path class="cls-5" d="M119,48V78h-6V48h6m1-1h-8V79h8V47Z"/><rect class="cls-2" x="113" y="48" width="6" height="3"/><rect class="cls-16" x="112.5" y="68.7" width="7" height="31"/><path class="cls-5" d="M119,69.2v30h-6v-30h6m1-1h-8v32h8v-32Z"/><rect class="cls-2" x="113" y="69.2" width="6" height="3"/><rect class="cls-17" x="112.5" y="92.5" width="7" height="31"/><path class="cls-5" d="M119,93v30h-6V93h6m1-1h-8v32h8V92Z"/><rect class="cls-2" x="113" y="93" width="6" height="3"/><rect class="cls-18" x="91.5" y="92.5" width="7" height="31"/><path class="cls-5" d="M98,93v30H92V93h6m1-1H91v32h8V92Z"/><rect class="cls-2" x="92" y="93" width="6" height="3"/><rect class="cls-19" x="70.5" y="92.5" width="7" height="31"/><path class="cls-5" d="M77,93v30H71V93h6m1-1H70v32h8V92Z"/><rect class="cls-2" x="71" y="93" width="6" height="3"/><rect class="cls-20" x="49.5" y="92.5" width="7" height="31"/><path class="cls-5" d="M56,93v30H50V93h6m1-1H49v32h8V92Z"/><rect class="cls-2" x="50" y="93" width="6" height="3"/><rect class="cls-21" x="8.5" y="92.5" width="7" height="31"/><path class="cls-5" d="M15,93v30H9V93h6m1-1H8v32h8V92Z"/><rect class="cls-2" x="9" y="93" width="6" height="3"/><rect class="cls-22" x="29.5" y="92.5" width="7" height="31"/><path class="cls-5" d="M36,93v30H30V93h6m1-1H29v32h8V92Z"/><rect class="cls-2" x="30" y="93" width="6" height="3"/><path class="cls-23" d="M76.82,38.4a8.56,8.56,0,0,1,.55-4.69A5.46,5.46,0,0,1,80.24,31s.67,3.74-.49,5.1A11.32,11.32,0,0,1,76.82,38.4Z"/><path class="cls-23" d="M75.36,38.4a16.79,16.79,0,0,1-3.65-4.33,14.5,14.5,0,0,1-1-5.6s3.66,2,4.14,3.9A37,37,0,0,1,75.36,38.4Z"/><path class="cls-23" d="M71.58,38.4c-.06-.37-.73-4.08-2.56-4.51a23.48,23.48,0,0,0-5.66,0,23.7,23.7,0,0,0,4.11,3.3A20.88,20.88,0,0,0,71.58,38.4Z"/><path class="cls-23" d="M29,125.4a8.45,8.45,0,0,0-.55-4.69A5.42,5.42,0,0,0,25.55,118s-.67,3.74.49,5.1A11.36,11.36,0,0,0,29,125.4Z"/><path class="cls-23" d="M30.43,125.4a17,17,0,0,0,3.65-4.33,14.5,14.5,0,0,0,1-5.6s-3.66,2-4.15,3.9A37.8,37.8,0,0,0,30.43,125.4Z"/><path class="cls-23" d="M34.2,125.4c.06-.37.73-4.08,2.56-4.51a23.55,23.55,0,0,1,5.67,0,23.7,23.7,0,0,1-4.11,3.3A21.1,21.1,0,0,1,34.2,125.4Z"/></svg>