<svg id="Layer_1" data-name="Layer 1" xmlns="http://www.w3.org/2000/svg" viewBox="0 0 128 128"><defs><style>.cls-1{opacity:0.3;}.cls-2,.cls-9{fill:#e71f2e;}.cls-3{fill:none;stroke:#bf1a26;}.cls-10,.cls-3,.cls-9{stroke-miterlimit:10;}.cls-10,.cls-3{stroke-width:2px;}.cls-4{fill:#dfdfdf;}.cls-10,.cls-5{fill:#4b4b4b;}.cls-6{fill:#404040;}.cls-7{fill:#343434;}.cls-8{fill:#5a5a5a;}.cls-10,.cls-9{stroke:#e6e6e6;}.cls-9{stroke-width:3px;}.cls-11{fill:#ccc;}</style></defs><rect class="cls-1" x="8.6" y="56.89" width="111.3" height="69.11" rx="8.38"/><rect class="cls-2" x="20.82" y="53.83" width="86.86" height="64.1"/><line class="cls-3" x1="101.98" y1="117.92" x2="101.98" y2="73.55"/><line class="cls-3" x1="32.58" y1="117.92" x2="32.58" y2="70.51"/><line class="cls-3" x1="95.92" y1="117.92" x2="95.92" y2="70.51"/><line class="cls-3" x1="38.64" y1="117.92" x2="38.64" y2="67.86"/><line class="cls-3" x1="90.61" y1="117.92" x2="90.61" y2="67.86"/><line class="cls-3" x1="44.33" y1="117.92" x2="44.33" y2="65.2"/><line class="cls-3" x1="84.54" y1="117.92" x2="84.54" y2="65.2"/><line class="cls-3" x1="50.02" y1="117.92" x2="50.02" y2="62.17"/><line class="cls-3" x1="78.85" y1="117.92" x2="78.85" y2="62.17"/><line class="cls-3" x1="55.71" y1="117.92" x2="55.71" y2="59.89"/><line class="cls-3" x1="73.16" y1="117.92" x2="73.16" y2="59.89"/><line class="cls-3" x1="61.4" y1="117.92" x2="61.4" y2="57.24"/><line class="cls-3" x1="67.47" y1="117.92" x2="67.47" y2="57.24"/><line class="cls-3" x1="26.89" y1="117.92" x2="26.89" y2="73.55"/><rect class="cls-4" x="18.54" y="78.68" width="4.93" height="40.2"/><rect class="cls-4" x="105.4" y="78.68" width="4.93" height="40.2"/><path class="cls-4" d="M12.1,94,17,91.75l6.91-12.91a11.75,11.75,0,0,1,5.27-5.07L60,58.86a7.8,7.8,0,0,1,6.72,0L98.38,73.75A11.83,11.83,0,0,1,103.83,79l6.88,13.16,4.17,1.9V42.83L110,40.55l-7.3-13.69a11.81,11.81,0,0,0-5.24-5.06L67.13,7a7.8,7.8,0,0,0-6.89,0L29.63,22.13a11.78,11.78,0,0,0-5.28,5.21L17.78,40.17l-5.68,3Z"/><path class="cls-5" d="M12.1,89.86,17,87.58l6.91-12.92a11.78,11.78,0,0,1,5.27-5.06L60,54.69a7.8,7.8,0,0,1,6.72,0L98.38,69.58a11.83,11.83,0,0,1,5.45,5.22L110.71,88l4.17,1.9V38.65L110,36.38l-7.3-13.69a11.81,11.81,0,0,0-5.24-5.06L67.13,2.8a7.8,7.8,0,0,0-6.89,0L29.63,18a11.78,11.78,0,0,0-5.28,5.21L17.78,36,12.1,39Z"/><path class="cls-6" d="M60,54.69a7.8,7.8,0,0,1,6.72,0L98.38,69.58a11.83,11.83,0,0,1,5.45,5.22L110.71,88l4.17,1.9V38.65L110,36.38l-7.3-13.69a11.81,11.81,0,0,0-5.24-5.06L67.13,2.8a7.8,7.8,0,0,0-6.89,0Z"/><path class="cls-7" d="M103.83,74.8,110.71,88,110,36.38l-7.3-13.69C101.48,20.49,102.63,72.51,103.83,74.8Z"/><path class="cls-8" d="M17,87.58l6.91-12.92c1.17-2.2,1.56-53.75.41-51.49L17.78,36Z"/><rect class="cls-9" x="64.44" y="95.93" width="12.14" height="21.62"/><rect class="cls-9" x="51.92" y="95.93" width="12.14" height="21.62"/><line class="cls-10" x1="64.44" y1="117.54" x2="76.57" y2="95.93"/><line class="cls-10" x1="52.3" y1="117.54" x2="64.44" y2="95.93"/><line class="cls-10" x1="64.44" y1="117.54" x2="52.3" y2="95.93"/><line class="cls-10" x1="76.57" y1="117.54" x2="64.44" y2="95.93"/><rect class="cls-4" x="47.75" y="91" width="33.38" height="4.93"/><rect class="cls-11" x="47.75" y="92.7" width="33.38" height="3.22"/></svg>