<svg id="Layer_1" data-name="Layer 1" xmlns="http://www.w3.org/2000/svg" viewBox="0 0 128 128"><defs><style>.cls-1{fill:#004d51;opacity:0.2;}.cls-2{fill:#81879b;}.cls-3{fill:#949ab3;}.cls-4{fill:#2f484c;}.cls-5{fill:#b8b4cc;}.cls-6{fill:#aa1802;}.cls-18,.cls-7{fill:#ca4d1f;}.cls-8{fill:#ae3629;}.cls-9{fill:#d3c18d;}.cls-10{fill:#cf4a1c;}.cls-11{fill:#e9eae2;}.cls-12{fill:#edd60d;}.cls-13{fill:#f7931e;}.cls-14{fill:#32493c;}.cls-15{fill:#e2ede5;}.cls-16,.cls-17{fill:#bacdc3;}.cls-17{opacity:0.5;}.cls-18{font-size:6.37px;font-family:Rodchenko-Bold, Rodchenko Bold;font-weight:700;}.cls-19{letter-spacing:-0.02em;}.cls-20{letter-spacing:-0.02em;}.cls-21{letter-spacing:-0.01em;}</style></defs><rect class="cls-1" x="2.61" y="61.61" width="122.44" height="61.26" rx="8.69"/><rect class="cls-1" x="7.24" y="96.39" width="39.77" height="22.75" rx="6.07"/><rect class="cls-2" x="58.11" y="109.82" width="33.34" height="15.39" rx="2.85"/><rect class="cls-3" x="58.11" y="107.25" width="33.34" height="15.39" rx="2.96"/><path class="cls-4" d="M56.42,117a4.89,4.89,0,0,1-3.6-1.54A7.38,7.38,0,0,1,51,110c.1-2.16,1.45-3.73,2.53-5a4.84,4.84,0,0,0,1.41-2.24c.06-2.14.07-4.73.07-4.75h2s0,2.64-.07,4.81c0,1.33-.94,2.37-1.89,3.48s-2,2.3-2.05,3.78a5.38,5.38,0,0,0,1.27,4,2.93,2.93,0,0,0,2.2.93,3.65,3.65,0,0,0,3.79-2.66,22.44,22.44,0,0,0,.51-6.84c0-.46,0-.86,0-1.2a2.81,2.81,0,0,1,3-2.74v2c-.3,0-1,.1-1,.75,0,.32,0,.71,0,1.15a24.46,24.46,0,0,1-.61,7.5A5.65,5.65,0,0,1,56.46,117Z"/><path class="cls-5" d="M61.16,80.14a7.75,7.75,0,0,1,3-.76V78.14a7.88,7.88,0,0,0-1.63.11c-1.24.17-3,.73-5.06,3.27a10.94,10.94,0,0,0-2.63,6.69V98.6l2.3.08V97h2.45a2.1,2.1,0,0,0,2.09-2.1V90.93c0-2.48-4-2.81-4-2.81a19.15,19.15,0,0,1,.57-4.32A9,9,0,0,1,61.16,80.14Zm-1.3,10.14a1.85,1.85,0,0,1,.94,1.66c0,.42,0,1.65,0,2.6a1.18,1.18,0,0,1-1.09,1.22l-2.38.08V89.77A6,6,0,0,1,59.86,90.28Z"/><path class="cls-6" d="M66.8,73.61h16a3.56,3.56,0,0,1,3.56,3.56v40.69a0,0,0,0,1,0,0H63.24a0,0,0,0,1,0,0V77.16A3.56,3.56,0,0,1,66.8,73.61Z"/><path class="cls-7" d="M67.3,76.24h15a3.42,3.42,0,0,1,3.42,3.42V117a0,0,0,0,1,0,0H63.89a0,0,0,0,1,0,0V79.66A3.42,3.42,0,0,1,67.3,76.24Z"/><rect class="cls-8" x="68.37" y="107.73" width="2.56" height="7.41"/><rect class="cls-8" x="65.49" y="80.46" width="0.64" height="36.53"/><rect class="cls-8" x="83.39" y="80.46" width="0.64" height="36.53"/><rect class="cls-8" x="73.5" y="107.73" width="2.56" height="7.41"/><rect class="cls-8" x="78.63" y="107.73" width="2.56" height="7.41"/><rect class="cls-9" x="67.6" y="80.41" width="14.36" height="10.65" rx="1.8"/><rect class="cls-9" x="73.5" y="67.71" width="2.56" height="7.69" rx="1.28"/><circle class="cls-10" cx="74.78" cy="66.64" r="8.98"/><circle class="cls-11" cx="74.78" cy="66.64" r="6.41"/><polygon class="cls-12" points="68.6 100.3 74.8 97.7 81.02 100.3 74.76 102.62 68.6 100.3"/><path class="cls-13" d="M74.8,98.16l5,2.12-5.09,1.89-5-1.9,5-2.11m0-.92-.33.14-5,2.11-2,.83,2,.75,5,1.9.3.11.3-.11,5.09-1.89,2-.75-2-.84-5.05-2.11-.33-.14Z"/><rect class="cls-14" x="69.23" y="82.09" width="6.5" height="3.12" rx="0.43"/><rect class="cls-14" x="77.06" y="82.09" width="3.23" height="3.12" rx="0.43"/><path class="cls-14" d="M72.71,86.36V87h-2v1.8h1v-.46h-.4v-.59h1.33v1.73H69.82V86.36Z"/><path class="cls-14" d="M76,86.36l.42,3.15h-.92l-.1-.74h-1l-.09.74h-.93l.42-3.15Zm-.68,1.73L75.15,87h-.59l-.13,1.06Z"/><path class="cls-14" d="M79.76,86.36V87H77.92v.55h1.84v1.93H77v-.68h1.85v-.57H77v-1.9Z"/><path class="cls-14" d="M74.89,62.14l.58,1,2.2,3.65c.07.11,0,.16-.06.22L75,68.51a.13.13,0,0,1-.16,0l-2.72-1.6-.06,0Zm2.84,5.14a.1.1,0,0,0-.08,0L75,68.85a.24.24,0,0,1-.29,0c-.84-.51-1.69-1-2.54-1.5a.41.41,0,0,0-.11-.07l0,0c.94,1.32,1.88,2.64,2.82,4Z"/><path class="cls-15" d="M35.43,43.74H18.67l-2.18,2.18v64.21l2.18,2.18H35.43l2.18-2.18V45.92Z"/><rect class="cls-16" x="16.49" y="46.71" width="21.12" height="21.46"/><rect class="cls-7" x="2.61" y="12.54" width="122.44" height="41.71"/><rect class="cls-15" x="2.61" y="1.94" width="122.44" height="40.41"/><rect class="cls-15" x="5.07" y="44.59" width="117.51" height="7.79"/><rect class="cls-16" x="8.51" y="6.64" width="110.64" height="5.69"/><rect class="cls-17" x="8.51" y="12.46" width="110.64" height="25.13"/><text class="cls-18" transform="translate(6.63 50.96)">GAS <tspan class="cls-19" x="12.64" y="0">S</tspan><tspan class="cls-20" x="16.17" y="0">T</tspan><tspan class="cls-21" x="19.49" y="0">A</tspan><tspan x="23.01" y="0">TION</tspan></text><rect class="cls-10" x="51.74" y="46.58" width="70.85" height="1.2"/><rect class="cls-10" x="51.74" y="49.55" width="70.85" height="1.2"/></svg>