<svg id="Layer_1" data-name="Layer 1" xmlns="http://www.w3.org/2000/svg" viewBox="0 0 128 128"><defs><style>.cls-1{fill:#32e785;}.cls-2{fill:#7cffa0;}.cls-3{fill:#6d5720;}</style></defs><path class="cls-1" d="M0,0H104a24,24,0,0,1,24,24V128a0,0,0,0,1,0,0H0a0,0,0,0,1,0,0V0A0,0,0,0,1,0,0Z"/><path class="cls-2" d="M98.74,107.76a9.36,9.36,0,0,1,1.21-3.63c1.21-2.42,6.06-1.21,6.06-1.21a28.32,28.32,0,0,1-3.64,3.63A17.37,17.37,0,0,1,98.74,107.76Z"/><path class="cls-2" d="M46.06,38.84a9.36,9.36,0,0,1,1.21-3.63C48.49,32.79,53.33,34,53.33,34a28.11,28.11,0,0,1-3.63,3.63A17.58,17.58,0,0,1,46.06,38.84Z"/><path class="cls-2" d="M92.82,106.4a8.56,8.56,0,0,1,.55-4.69A5.46,5.46,0,0,1,96.24,99s.67,3.74-.49,5.1A11.32,11.32,0,0,1,92.82,106.4Z"/><path class="cls-2" d="M45.45,80.22a9.36,9.36,0,0,1,1.21-3.63c1.21-2.42,6.05-1.21,6.05-1.21A28.11,28.11,0,0,1,49.08,79,17.37,17.37,0,0,1,45.45,80.22Z"/><path class="cls-2" d="M39.53,78.86a8.45,8.45,0,0,1,.55-4.69,5.47,5.47,0,0,1,2.86-2.68s.67,3.75-.49,5.1A10.93,10.93,0,0,1,39.53,78.86Z"/><path class="cls-2" d="M91.36,106.4a16.79,16.79,0,0,1-3.65-4.33,14.5,14.5,0,0,1-1-5.6s3.66,2,4.14,3.9A37,37,0,0,1,91.36,106.4Z"/><path class="cls-2" d="M87.58,106.4c-.06-.37-.73-4.08-2.56-4.51a23.48,23.48,0,0,0-5.66,0,23.7,23.7,0,0,0,4.11,3.3A20.88,20.88,0,0,0,87.58,106.4Z"/><path class="cls-2" d="M104.71,23.74a16.6,16.6,0,0,1-3.65-4.33,14.5,14.5,0,0,1-1-5.6s3.66,1.95,4.14,3.9A37,37,0,0,1,104.71,23.74Z"/><path class="cls-2" d="M100.93,23.74c-.06-.36-.73-4.08-2.55-4.51a24.11,24.11,0,0,0-5.67,0,23.7,23.7,0,0,0,4.11,3.3A20.88,20.88,0,0,0,100.93,23.74Z"/><path class="cls-2" d="M38.58,38.62a16.67,16.67,0,0,1-3.65-4.32,14.56,14.56,0,0,1-1-5.61s3.66,1.95,4.15,3.9A37.8,37.8,0,0,1,38.58,38.62Z"/><path class="cls-2" d="M34.81,38.62c-.06-.36-.74-4.08-2.56-4.51a24.11,24.11,0,0,0-5.67,0,23.7,23.7,0,0,0,4.11,3.3A21.1,21.1,0,0,0,34.81,38.62Z"/><path class="cls-3" d="M104,12a12,12,0,0,1,12,12V360a12,12,0,0,1-12,12H-232a12,12,0,0,1-12-12V24a12,12,0,0,1,12-12H104m0-12H-232a24,24,0,0,0-24,24V360a24,24,0,0,0,24,24H104a24,24,0,0,0,24-24V24A24,24,0,0,0,104,0Z"/><path class="cls-1" d="M109.85,129.14a13.57,13.57,0,0,1,7.41-1.49,8.76,8.76,0,0,1,5.49,3s-5.37,2.87-8,1.78A18,18,0,0,1,109.85,129.14Z"/><path class="cls-1" d="M113.24,128.46a6.51,6.51,0,0,1,3.55-.63,4.18,4.18,0,0,1,2.59,1.51s-2.59,1.31-3.84.76A8.62,8.62,0,0,1,113.24,128.46Z"/><path class="cls-1" d="M108.7,126.52s4.55-2.19,8.86-1.33a10.46,10.46,0,0,1,6.34,3.91s-6.53,3.1-9.59,1.65A21,21,0,0,1,108.7,126.52Z"/><path class="cls-1" d="M109.47,126.43s3.78-2.41,7.67-2.09a9.24,9.24,0,0,1,6,2.8s-5.44,3.39-8.28,2.43A18.55,18.55,0,0,1,109.47,126.43Z"/><path class="cls-1" d="M109.81,123.73s4.24-1.39,7.91-.14a9.17,9.17,0,0,1,5.09,4.15s-6.07,2-8.58.34A18.65,18.65,0,0,1,109.81,123.73Z"/><path class="cls-1" d="M112.19,124.59a8.58,8.58,0,0,1,4.59-1.34,5.52,5.52,0,0,1,3.63,1.61s-3.23,2.1-5,1.56A11.46,11.46,0,0,1,112.19,124.59Z"/><path class="cls-1" d="M110.54,123.36a12.1,12.1,0,0,1,6.47-1.75,7.8,7.8,0,0,1,5,2.36s-4.59,2.86-7,2A16.12,16.12,0,0,1,110.54,123.36Z"/><path class="cls-1" d="M110.85,121.84a11.52,11.52,0,0,1,6.31-1.11,7.43,7.43,0,0,1,4.6,2.68s-4.61,2.33-6.83,1.35A15.12,15.12,0,0,1,110.85,121.84Z"/><path class="cls-1" d="M110.4,120.91a12.44,12.44,0,0,1,6.76-1.4,8,8,0,0,1,5,2.74s-4.9,2.66-7.32,1.67A16.27,16.27,0,0,1,110.4,120.91Z"/><path class="cls-1" d="M112,119.92a9.11,9.11,0,0,1,5-.86,5.85,5.85,0,0,1,3.6,2.13s-3.63,1.81-5.37,1A11.88,11.88,0,0,1,112,119.92Z"/><path class="cls-1" d="M109,118.42s4.31-2.21,8.45-1.47a9.93,9.93,0,0,1,6.14,3.6s-6.17,3.1-9.13,1.78A20.33,20.33,0,0,1,109,118.42Z"/><path class="cls-1" d="M114.85,118.21a3.18,3.18,0,0,1,1.72-.22,2,2,0,0,1,1.21.78s-1.28.57-1.86.28A4,4,0,0,1,114.85,118.21Z"/><path class="cls-1" d="M111.24,115.7a11.23,11.23,0,0,1,6.23,0,7.27,7.27,0,0,1,3.92,3.38s-4.82,1.41-6.76.08A14.84,14.84,0,0,1,111.24,115.7Z"/><path class="cls-1" d="M111.32,114.87a10.92,10.92,0,0,1,6.06-.15,7,7,0,0,1,3.92,3.15s-4.64,1.53-6.57.31A14.38,14.38,0,0,1,111.32,114.87Z"/><path class="cls-1" d="M109.41,114.26s4.08-2.05,8-1.33a9.4,9.4,0,0,1,5.78,3.44s-5.86,2.9-8.65,1.63A19.13,19.13,0,0,1,109.41,114.26Z"/><path class="cls-1" d="M113.86,113.48a5.41,5.41,0,0,1,3,0,3.51,3.51,0,0,1,1.89,1.64s-2.34.67-3.27,0A7.07,7.07,0,0,1,113.86,113.48Z"/><path class="cls-1" d="M108.93,112.6s4.18-2.46,8.36-2a10,10,0,0,1,6.36,3.22s-6,3.48-9,2.34A20.34,20.34,0,0,1,108.93,112.6Z"/><path class="cls-1" d="M110.72,111a11.91,11.91,0,0,1,6.59-.74,7.74,7.74,0,0,1,4.58,3.06s-4.92,2.11-7.14,1A15.81,15.81,0,0,1,110.72,111Z"/><path class="cls-1" d="M114.63,111.1a3.48,3.48,0,0,1,1.89-.5,2.24,2.24,0,0,1,1.47.7s-1.34.82-2,.58A4.62,4.62,0,0,1,114.63,111.1Z"/><path class="cls-1" d="M114.49,109.89a3.88,3.88,0,0,1,2.11-.37,2.48,2.48,0,0,1,1.53.89s-1.54.78-2.27.45A5,5,0,0,1,114.49,109.89Z"/><path class="cls-1" d="M114.9,108.82a3,3,0,0,1,1.67-.19,2,2,0,0,1,1.16.78s-1.25.53-1.81.24A4,4,0,0,1,114.9,108.82Z"/><path class="cls-1" d="M109.64,106.48s4.15-1.71,7.92-.72a9.21,9.21,0,0,1,5.41,3.8s-6,2.4-8.58,1A18.63,18.63,0,0,1,109.64,106.48Z"/><path class="cls-1" d="M110.47,106.28a12.24,12.24,0,0,1,6.7-1.33,8,8,0,0,1,5,2.74s-4.87,2.6-7.25,1.61A16,16,0,0,1,110.47,106.28Z"/><path class="cls-1" d="M114.43,105.83a3.93,3.93,0,0,1,2.13-.51,2.52,2.52,0,0,1,1.63.81s-1.52.9-2.3.61A5,5,0,0,1,114.43,105.83Z"/><path class="cls-1" d="M109.58,104.69s3.67-2.44,7.49-2.2a9.06,9.06,0,0,1,5.94,2.62s-5.27,3.45-8.09,2.56A18.3,18.3,0,0,1,109.58,104.69Z"/><path class="cls-1" d="M114,103.74a4.94,4.94,0,0,1,2.66-.68,3.23,3.23,0,0,1,2.06,1s-1.9,1.15-2.87.8A6.44,6.44,0,0,1,114,103.74Z"/><path class="cls-1" d="M109.06,102.28s4.07-2.47,8.18-2a9.82,9.82,0,0,1,6.29,3.1s-5.85,3.48-8.84,2.4A19.89,19.89,0,0,1,109.06,102.28Z"/><path class="cls-1" d="M114.65,101.7a3.47,3.47,0,0,1,1.88-.47,2.22,2.22,0,0,1,1.45.71s-1.35.8-2,.55A4.74,4.74,0,0,1,114.65,101.7Z"/><path class="cls-1" d="M115.05,100.77a2.71,2.71,0,0,1,1.4-.45,1.73,1.73,0,0,1,1.13.47s-1,.67-1.51.52A3.67,3.67,0,0,1,115.05,100.77Z"/><path class="cls-1" d="M112.3,98.51a8.79,8.79,0,0,1,4.87-.13,5.7,5.7,0,0,1,3.16,2.52s-3.73,1.24-5.28.26A11.38,11.38,0,0,1,112.3,98.51Z"/><path class="cls-1" d="M113.25,98.36a6.46,6.46,0,0,1,3.49-.76,4.2,4.2,0,0,1,2.63,1.4s-2.52,1.39-3.78.9A8.56,8.56,0,0,1,113.25,98.36Z"/><path class="cls-1" d="M111.58,97.4a10,10,0,0,1,5.3-1.47A6.4,6.4,0,0,1,121,97.84s-3.74,2.37-5.71,1.72A13.12,13.12,0,0,1,111.58,97.4Z"/><path class="cls-1" d="M112.94,96.57a7,7,0,0,1,3.73-1.2,4.59,4.59,0,0,1,3,1.25s-2.6,1.79-4,1.38A9.19,9.19,0,0,1,112.94,96.57Z"/><path class="cls-1" d="M114.16,95.1a4.62,4.62,0,0,1,2.55-.27A3,3,0,0,1,118.46,96s-1.9.8-2.75.35A6.19,6.19,0,0,1,114.16,95.1Z"/><path class="cls-1" d="M114.57,93.93a3.81,3.81,0,0,1,2.14,0,2.49,2.49,0,0,1,1.36,1.16s-1.66.49-2.33,0A5.14,5.14,0,0,1,114.57,93.93Z"/><path class="cls-1" d="M111,93.44a11.05,11.05,0,0,1,5.81-1.9,7.09,7.09,0,0,1,4.7,1.92s-4,2.82-6.26,2.19A14.49,14.49,0,0,1,111,93.44Z"/><path class="cls-1" d="M110,92a13.12,13.12,0,0,1,7.07-1.8,8.53,8.53,0,0,1,5.44,2.65s-5,3-7.63,2.11A17.38,17.38,0,0,1,110,92Z"/><path class="cls-1" d="M109.87,90.58a13.53,13.53,0,0,1,7.38-1.48,8.78,8.78,0,0,1,5.48,3s-5.36,2.86-8,1.78A17.89,17.89,0,0,1,109.87,90.58Z"/><path class="cls-1" d="M115,90a2.75,2.75,0,0,1,1.55-.07,1.81,1.81,0,0,1,1,.78s-1.19.42-1.69.12A3.8,3.8,0,0,1,115,90Z"/><path class="cls-1" d="M114.18,89.16a4.49,4.49,0,0,1,2.41-.61,2.86,2.86,0,0,1,1.85.91s-1.72,1-2.6.71A6,6,0,0,1,114.18,89.16Z"/><path class="cls-1" d="M110.19,86.78a13.13,13.13,0,0,1,7.28-.62,8.5,8.5,0,0,1,5,3.51s-5.47,2.17-7.88.84A17.27,17.27,0,0,1,110.19,86.78Z"/><path class="cls-1" d="M109.06,85.5s4.51-1.86,8.61-.78a10,10,0,0,1,5.87,4.12s-6.46,2.61-9.32,1A20.52,20.52,0,0,1,109.06,85.5Z"/><path class="cls-1" d="M114.54,85.7a3.81,3.81,0,0,1,2.14-.11,2.51,2.51,0,0,1,1.42,1.07s-1.63.59-2.33.18A5.13,5.13,0,0,1,114.54,85.7Z"/><path class="cls-1" d="M112.81,84.08a7.69,7.69,0,0,1,4.25-.12,4.93,4.93,0,0,1,2.75,2.2s-3.24,1.08-4.6.23A10.09,10.09,0,0,1,112.81,84.08Z"/><path class="cls-1" d="M110.3,82.24a13.13,13.13,0,0,1,7.3-.17,8.51,8.51,0,0,1,4.72,3.8s-5.59,1.83-7.92.36A17.26,17.26,0,0,1,110.3,82.24Z"/><path class="cls-1" d="M111.5,82a10.27,10.27,0,0,1,5.67-.64,6.64,6.64,0,0,1,4,2.63s-4.23,1.82-6.15.83A13.47,13.47,0,0,1,111.5,82Z"/><path class="cls-1" d="M115.19,81.81a2.37,2.37,0,0,1,1.32-.18,1.53,1.53,0,0,1,.93.6s-1,.44-1.43.22A3.08,3.08,0,0,1,115.19,81.81Z"/><path class="cls-1" d="M114.19,80.53a4.5,4.5,0,0,1,2.5-.28,2.91,2.91,0,0,1,1.74,1.16s-1.86.8-2.7.36A5.8,5.8,0,0,1,114.19,80.53Z"/><path class="cls-1" d="M112.9,79.85a7.11,7.11,0,0,1,3.79-1.16,4.59,4.59,0,0,1,3,1.3s-2.65,1.77-4.08,1.34A9.34,9.34,0,0,1,112.9,79.85Z"/><path class="cls-1" d="M114.63,78.67a3.6,3.6,0,0,1,1.94-.37,2.32,2.32,0,0,1,1.43.81s-1.42.73-2.1.44A4.53,4.53,0,0,1,114.63,78.67Z"/><path class="cls-1" d="M113.74,77.78a5.41,5.41,0,0,1,2.86-.87,3.51,3.51,0,0,1,2.28,1s-2,1.34-3.09,1A6.93,6.93,0,0,1,113.74,77.78Z"/><path class="cls-1" d="M111.37,75.48a10.67,10.67,0,0,1,5.93-.37,6.94,6.94,0,0,1,4,3s-4.49,1.67-6.42.54A14.08,14.08,0,0,1,111.37,75.48Z"/><path class="cls-1" d="M109.11,75.39s4-2.56,8-2.25a9.74,9.74,0,0,1,6.32,2.9s-5.7,3.61-8.7,2.62A19.8,19.8,0,0,1,109.11,75.39Z"/><path class="cls-1" d="M109.85,74.21a13.5,13.5,0,0,1,7.29-1.82,8.72,8.72,0,0,1,5.6,2.76s-5.2,3.1-7.87,2.14A17.89,17.89,0,0,1,109.85,74.21Z"/><path class="cls-1" d="M115.27,73.63a2.17,2.17,0,0,1,1.17-.32,1.42,1.42,0,0,1,.92.43s-.83.52-1.27.37A3,3,0,0,1,115.27,73.63Z"/><path class="cls-1" d="M109.45,70.6s4.42-1.54,8.29-.29a9.59,9.59,0,0,1,5.42,4.25s-6.33,2.17-9,.52A19.63,19.63,0,0,1,109.45,70.6Z"/><path class="cls-1" d="M111.38,70.77a10.41,10.41,0,0,1,5.73-.91,6.76,6.76,0,0,1,4.12,2.5s-4.21,2-6.2,1.11A13.84,13.84,0,0,1,111.38,70.77Z"/><path class="cls-1" d="M111.73,69.81a9.66,9.66,0,0,1,5.32-.87,6.31,6.31,0,0,1,3.84,2.3s-3.91,1.91-5.76,1.07A12.73,12.73,0,0,1,111.73,69.81Z"/><path class="cls-1" d="M109.12,67.09s4.74-1.47,8.8,0a10.22,10.22,0,0,1,5.58,4.72s-6.79,2-9.55.2A20.74,20.74,0,0,1,109.12,67.09Z"/><path class="cls-1" d="M113.31,67.65a6.5,6.5,0,0,1,3.61-.2,4.21,4.21,0,0,1,2.4,1.8s-2.74,1-3.92.31A8.64,8.64,0,0,1,113.31,67.65Z"/><path class="cls-1" d="M114.59,67.41a3.59,3.59,0,0,1,1.91-.61,2.31,2.31,0,0,1,1.53.64s-1.33.91-2,.7A4.71,4.71,0,0,1,114.59,67.41Z"/><path class="cls-1" d="M110.56,64.38a12.75,12.75,0,0,1,7.06.08,8.21,8.21,0,0,1,4.44,3.84s-5.47,1.58-7.66.07A16.55,16.55,0,0,1,110.56,64.38Z"/><path class="cls-1" d="M112.29,64.51a8.55,8.55,0,0,1,4.73-.57,5.54,5.54,0,0,1,3.31,2.19s-3.52,1.54-5.13.72A11.27,11.27,0,0,1,112.29,64.51Z"/><path class="cls-1" d="M109.79,62.1s4.3-1.33,8,0a9.3,9.3,0,0,1,5.06,4.29s-6.16,1.85-8.66.17A18.88,18.88,0,0,1,109.79,62.1Z"/><path class="cls-1" d="M112.85,63.07A7.21,7.21,0,0,1,116.73,62a4.67,4.67,0,0,1,3,1.4s-2.74,1.72-4.18,1.25A9.47,9.47,0,0,1,112.85,63.07Z"/><path class="cls-1" d="M112.26,61.05a8.79,8.79,0,0,1,4.89-.21,5.72,5.72,0,0,1,3.22,2.49s-3.73,1.3-5.31.34A11.42,11.42,0,0,1,112.26,61.05Z"/><path class="cls-1" d="M113,61.05A7,7,0,0,1,116.69,60a4.5,4.5,0,0,1,2.94,1.3s-2.61,1.71-4,1.27A9.06,9.06,0,0,1,113,61.05Z"/><path class="cls-1" d="M113.49,59.3a6.1,6.1,0,0,1,3.42-.12,4,4,0,0,1,2.23,1.76s-2.61.88-3.71.2A8.19,8.19,0,0,1,113.49,59.3Z"/><path class="cls-1" d="M111.85,57.78a9.67,9.67,0,0,1,5.39-.2,6.21,6.21,0,0,1,3.53,2.76s-4.12,1.41-5.85.34A12.78,12.78,0,0,1,111.85,57.78Z"/><path class="cls-1" d="M113.28,57.71a6.32,6.32,0,0,1,3.46-.74,4.16,4.16,0,0,1,2.6,1.39s-2.5,1.38-3.74.88A8.37,8.37,0,0,1,113.28,57.71Z"/><path class="cls-1" d="M113,56a7.24,7.24,0,0,1,4-.05A4.66,4.66,0,0,1,119.6,58s-3.08,1-4.35.14A9.38,9.38,0,0,1,113,56Z"/><path class="cls-1" d="M111.71,55.05a9.81,9.81,0,0,1,5.4-.69,6.32,6.32,0,0,1,3.79,2.45s-4,1.8-5.84.88A13,13,0,0,1,111.71,55.05Z"/><path class="cls-1" d="M110.75,53.69a11.83,11.83,0,0,1,6.57-.7,7.67,7.67,0,0,1,4.54,3.09s-4.91,2.06-7.11.9A15.52,15.52,0,0,1,110.75,53.69Z"/><path class="cls-1" d="M110.42,53.49A12.25,12.25,0,0,1,117,51.75a8,8,0,0,1,5.14,2.44s-4.71,2.89-7.15,2A16.12,16.12,0,0,1,110.42,53.49Z"/><path class="cls-1" d="M115.18,52.64a2.45,2.45,0,0,1,1.33-.19,1.55,1.55,0,0,1,.94.58s-1,.47-1.43.25A3.16,3.16,0,0,1,115.18,52.64Z"/><path class="cls-1" d="M115.27,51.46a2.29,2.29,0,0,1,1.28,0,1.51,1.51,0,0,1,.82.68s-1,.31-1.39,0A2.8,2.8,0,0,1,115.27,51.46Z"/><path class="cls-1" d="M110.23,48.68a13.38,13.38,0,0,1,7.45,0,8.72,8.72,0,0,1,4.71,4s-5.76,1.71-8.09.13A17.66,17.66,0,0,1,110.23,48.68Z"/><path class="cls-1" d="M108.91,47.64s4.72-1.74,8.9-.46a10.38,10.38,0,0,1,5.89,4.49s-6.76,2.42-9.65.69A21,21,0,0,1,108.91,47.64Z"/><path class="cls-1" d="M109.11,48s4.06-2.42,8.15-2a9.79,9.79,0,0,1,6.22,3.12s-5.83,3.42-8.8,2.32A19.79,19.79,0,0,1,109.11,48Z"/><path class="cls-1" d="M110.39,45.65a13,13,0,0,1,7.24,0,8.42,8.42,0,0,1,4.6,3.87s-5.59,1.7-7.86.18A17.17,17.17,0,0,1,110.39,45.65Z"/><path class="cls-1" d="M114.86,46.12a3.18,3.18,0,0,1,1.78,0,2,2,0,0,1,1.13.95s-1.37.42-1.93.05A4.19,4.19,0,0,1,114.86,46.12Z"/><path class="cls-1" d="M114.32,44.88a4.36,4.36,0,0,1,2.44,0,2.83,2.83,0,0,1,1.55,1.31s-1.89.57-2.65.06A5.77,5.77,0,0,1,114.32,44.88Z"/><path class="cls-1" d="M108.94,43.46s4.31-2.27,8.49-1.58a10,10,0,0,1,6.23,3.55s-6.19,3.2-9.18,1.91A20.42,20.42,0,0,1,108.94,43.46Z"/><path class="cls-1" d="M112.61,42.63a7.94,7.94,0,0,1,4.38-.45,5.09,5.09,0,0,1,3,2.06s-3.27,1.37-4.74.59A10.21,10.21,0,0,1,112.61,42.63Z"/><path class="cls-1" d="M113.23,41.55a6.64,6.64,0,0,1,3.71-.18,4.34,4.34,0,0,1,2.45,1.88s-2.82,1-4,.28A8.94,8.94,0,0,1,113.23,41.55Z"/><path class="cls-1" d="M110,40.38a13.36,13.36,0,0,1,7.34-1.25,8.65,8.65,0,0,1,5.32,3.14S117.26,45,114.7,43.8A17.44,17.44,0,0,1,110,40.38Z"/><path class="cls-1" d="M111.07,39.66a11,11,0,0,1,6-1.2,7.14,7.14,0,0,1,4.46,2.48s-4.37,2.32-6.5,1.43A14.4,14.4,0,0,1,111.07,39.66Z"/><path class="cls-1" d="M109.05,38.07s4.32-2.13,8.43-1.34a9.91,9.91,0,0,1,6.06,3.67s-6.19,3-9.11,1.65A20.22,20.22,0,0,1,109.05,38.07Z"/><path class="cls-1" d="M112.36,37.07a8.57,8.57,0,0,1,4.79-.16,5.55,5.55,0,0,1,3.12,2.47s-3.66,1.23-5.2.28A11.37,11.37,0,0,1,112.36,37.07Z"/><path class="cls-1" d="M114.23,36.64a4.52,4.52,0,0,1,2.5-.14,2.88,2.88,0,0,1,1.67,1.25s-1.9.7-2.72.22A5.88,5.88,0,0,1,114.23,36.64Z"/><path class="cls-1" d="M114.27,36a4.31,4.31,0,0,1,2.31-.57,2.8,2.8,0,0,1,1.77.88s-1.65,1-2.49.67A5.62,5.62,0,0,1,114.27,36Z"/><path class="cls-1" d="M110.21,33.9a12.94,12.94,0,0,1,7.16-.91,8.43,8.43,0,0,1,5,3.26s-5.32,2.37-7.75,1.15A17,17,0,0,1,110.21,33.9Z"/><path class="cls-1" d="M111.75,32.92a9.83,9.83,0,0,1,5.45-.41,6.33,6.33,0,0,1,3.67,2.66s-4.11,1.59-5.9.57A12.64,12.64,0,0,1,111.75,32.92Z"/><path class="cls-1" d="M111.59,32.37a10,10,0,0,1,5.44-1,6.49,6.49,0,0,1,4,2.28s-4,2-5.88,1.22A13.06,13.06,0,0,1,111.59,32.37Z"/><path class="cls-1" d="M113.22,32.7a6.32,6.32,0,0,1,3-1.65,4,4,0,0,1,2.82.59s-2,2-3.27,1.86A8.32,8.32,0,0,1,113.22,32.7Z"/><path class="cls-1" d="M109.84,31a12.66,12.66,0,0,1,6.72-2,8.16,8.16,0,0,1,5.34,2.32s-4.71,3.13-7.24,2.35A16.7,16.7,0,0,1,109.84,31Z"/><path class="cls-1" d="M112.13,30.42a7.29,7.29,0,0,1,3.74-1.55,4.69,4.69,0,0,1,3.21,1s-2.53,2.08-4,1.78A9.65,9.65,0,0,1,112.13,30.42Z"/><path class="cls-1" d="M110.35,29.83a10.52,10.52,0,0,1,5.24-2.57,6.81,6.81,0,0,1,4.71,1.18s-3.45,3.21-5.64,2.91A13.88,13.88,0,0,1,110.35,29.83Z"/><path class="cls-1" d="M109.48,28.7A11.76,11.76,0,0,1,115.42,26a7.6,7.6,0,0,1,5.2,1.5s-4,3.44-6.39,3A15.45,15.45,0,0,1,109.48,28.7Z"/><path class="cls-1" d="M108.47,27.93a13.3,13.3,0,0,1,6.67-3.19,8.58,8.58,0,0,1,5.94,1.55s-4.41,4-7.17,3.62A17.34,17.34,0,0,1,108.47,27.93Z"/><path class="cls-1" d="M112.58,26.14a4,4,0,0,1,2.15-.7,2.64,2.64,0,0,1,1.74.7s-1.49,1-2.31.81A5.21,5.21,0,0,1,112.58,26.14Z"/><path class="cls-1" d="M110.24,25.54a8.39,8.39,0,0,1,4.27-1.92,5.41,5.41,0,0,1,3.73,1.08s-2.85,2.47-4.59,2.17A10.88,10.88,0,0,1,110.24,25.54Z"/><path class="cls-1" d="M107.06,25.44s3.17-3.34,7.12-4a9.5,9.5,0,0,1,6.66,1.29s-4.57,4.74-7.64,4.49A19.12,19.12,0,0,1,107.06,25.44Z"/><path class="cls-1" d="M110.65,23.88a6.63,6.63,0,0,1,3.09-1.95,4.25,4.25,0,0,1,3,.42s-1.92,2.23-3.3,2.19A8.67,8.67,0,0,1,110.65,23.88Z"/><path class="cls-1" d="M110.86,22.42a5.42,5.42,0,0,1,2.73-1.27,3.49,3.49,0,0,1,2.41.66s-1.81,1.61-2.93,1.44A7.27,7.27,0,0,1,110.86,22.42Z"/><path class="cls-1" d="M107.67,23.12a11.93,11.93,0,0,1,5.3-3.95,7.71,7.71,0,0,1,5.48.34s-3.17,4.28-5.66,4.41A15.7,15.7,0,0,1,107.67,23.12Z"/><path class="cls-1" d="M109.64,22.4a6.78,6.78,0,0,1,2.48-2.86,4.43,4.43,0,0,1,3.11-.48s-1.25,2.78-2.63,3.16A9,9,0,0,1,109.64,22.4Z"/><path class="cls-1" d="M108.76,21.91a7.3,7.3,0,0,1,2.55-3.18,4.74,4.74,0,0,1,3.32-.65s-1.22,3.05-2.69,3.51A9.67,9.67,0,0,1,108.76,21.91Z"/><path class="cls-1" d="M108.9,20.7a5.31,5.31,0,0,1,1.76-2.34,3.37,3.37,0,0,1,2.37-.54s-.81,2.22-1.85,2.58A6.76,6.76,0,0,1,108.9,20.7Z"/><path class="cls-1" d="M107.17,20.29a7.34,7.34,0,0,1,2.73-3.06,4.74,4.74,0,0,1,3.37-.48s-1.39,3-2.89,3.38A9.64,9.64,0,0,1,107.17,20.29Z"/><path class="cls-1" d="M106.1,19.84a8.25,8.25,0,0,1,3-3.51,5.41,5.41,0,0,1,3.78-.62s-1.49,3.41-3.17,3.88A10.84,10.84,0,0,1,106.1,19.84Z"/><path class="cls-1" d="M108,17.81a2.22,2.22,0,0,1,.59-1.11,1.42,1.42,0,0,1,1-.39s-.2,1-.62,1.22A3,3,0,0,1,108,17.81Z"/><path class="cls-1" d="M106.17,18.1a5.36,5.36,0,0,1,1.39-2.64,3.54,3.54,0,0,1,2.31-.93s-.47,2.37-1.46,2.9A6.88,6.88,0,0,1,106.17,18.1Z"/><path class="cls-1" d="M101.49,19.68S103,15.29,106.35,13A9.52,9.52,0,0,1,113,11.43s-2.2,6.26-5.11,7.32A19.51,19.51,0,0,1,101.49,19.68Z"/><path class="cls-1" d="M100.33,19.25s1.62-4.72,5.21-7.14a10.29,10.29,0,0,1,7.14-1.73s-2.36,6.73-5.5,7.87A20.85,20.85,0,0,1,100.33,19.25Z"/><path class="cls-1" d="M101.12,18.31A13.15,13.15,0,0,1,104.73,12a8.54,8.54,0,0,1,5.7-2.09s-1.31,5.75-3.78,7A17.2,17.2,0,0,1,101.12,18.31Z"/><path class="cls-1" d="M103.14,15.49a5.75,5.75,0,0,1,1.5-2.81,3.72,3.72,0,0,1,2.46-1s-.5,2.52-1.56,3.08A7.71,7.71,0,0,1,103.14,15.49Z"/><path class="cls-1" d="M101.71,20.18s-1.23-4.58.32-8.4a9.75,9.75,0,0,1,4.7-5.15s1.71,6.56-.15,9.12A20,20,0,0,1,101.71,20.18Z"/><path class="cls-1" d="M100.51,20.29s-1.28-4.85.39-8.89a10.3,10.3,0,0,1,5-5.43s1.78,7-.22,9.66A20.86,20.86,0,0,1,100.51,20.29Z"/><path class="cls-1" d="M102,13.71a2,2,0,0,1,0-1.06,1.22,1.22,0,0,1,.59-.65s.22.82,0,1.15A2.43,2.43,0,0,1,102,13.71Z"/><path class="cls-1" d="M99.48,16.75a9.54,9.54,0,0,1,.42-5.24A6.11,6.11,0,0,1,103,8.42s.9,4.14-.33,5.69A12.44,12.44,0,0,1,99.48,16.75Z"/><path class="cls-1" d="M99.1,14.41a5,5,0,0,1,.5-2.73,3.24,3.24,0,0,1,1.78-1.47s.25,2.22-.48,3A6.58,6.58,0,0,1,99.1,14.41Z"/><path class="cls-1" d="M95.67,18.19s-.45-4.63,1.66-8.08a9.55,9.55,0,0,1,5.38-4.23s.6,6.62-1.61,8.8A19.64,19.64,0,0,1,95.67,18.19Z"/><path class="cls-1" d="M96.38,14.87a7.54,7.54,0,0,1,.9-4.1,4.93,4.93,0,0,1,2.78-2.12s.26,3.38-.89,4.48A10,10,0,0,1,96.38,14.87Z"/><path class="cls-1" d="M94.86,17.8s-1.15-4.25.28-7.81A9.07,9.07,0,0,1,99.51,5.2s1.6,6.09-.13,8.48A18.53,18.53,0,0,1,94.86,17.8Z"/><path class="cls-1" d="M95,15.56a9.37,9.37,0,0,1-.21-5.23,6.09,6.09,0,0,1,2.67-3.44s1.38,4,.35,5.68A12.38,12.38,0,0,1,95,15.56Z"/><path class="cls-1" d="M92.86,15.06a9.86,9.86,0,0,1,1.08-5.39,6.38,6.38,0,0,1,3.58-2.84s.42,4.41-1,5.88A12.94,12.94,0,0,1,92.86,15.06Z"/><path class="cls-1" d="M93,14.66a8.65,8.65,0,0,1-.13-4.83A5.66,5.66,0,0,1,95.38,6.7s1.22,3.7.25,5.24A11.49,11.49,0,0,1,93,14.66Z"/><path class="cls-1" d="M92.74,14.28a7.62,7.62,0,0,1-.66-4.17,4.89,4.89,0,0,1,1.81-3s1.49,3.06.82,4.5A10.06,10.06,0,0,1,92.74,14.28Z"/><path class="cls-1" d="M91.6,12.71a4.47,4.47,0,0,1,0-2.49A2.9,2.9,0,0,1,93,8.65s.56,1.93,0,2.71A5.91,5.91,0,0,1,91.6,12.71Z"/><path class="cls-1" d="M90.15,14.59a8.5,8.5,0,0,1-.22-4.7,5.48,5.48,0,0,1,2.38-3.11s1.27,3.58.35,5.1A11.21,11.21,0,0,1,90.15,14.59Z"/><path class="cls-1" d="M88.71,17.18S87,13.16,88,9.49a9,9,0,0,1,3.66-5.28S94,10,92.6,12.54A18.15,18.15,0,0,1,88.71,17.18Z"/><path class="cls-1" d="M89,13.45a5.77,5.77,0,0,1-.84-3.1A3.71,3.71,0,0,1,89.3,7.93s1.37,2.2,1,3.34A7.73,7.73,0,0,1,89,13.45Z"/><path class="cls-1" d="M87.22,16.35a12,12,0,0,1-1.09-6.56A7.74,7.74,0,0,1,89,5s2.38,4.81,1.34,7.1A15.63,15.63,0,0,1,87.22,16.35Z"/><path class="cls-1" d="M86,14.26a7.87,7.87,0,0,1-.09-4.35,5,5,0,0,1,2.28-2.8s1.08,3.34.19,4.72A10.3,10.3,0,0,1,86,14.26Z"/><path class="cls-1" d="M86,11.61a1.91,1.91,0,0,1-.24-1.06,1.27,1.27,0,0,1,.42-.8s.43.77.28,1.15A2.6,2.6,0,0,1,86,11.61Z"/><path class="cls-1" d="M84.42,13.15a5.29,5.29,0,0,1-.26-2.93,3.41,3.41,0,0,1,1.4-2s.89,2.19.35,3.16A7,7,0,0,1,84.42,13.15Z"/><path class="cls-1" d="M83.21,16a11.15,11.15,0,0,1-1.12-6.07,7.16,7.16,0,0,1,2.55-4.44S86.92,9.86,86,12A14.49,14.49,0,0,1,83.21,16Z"/><path class="cls-1" d="M81.3,17.56s-1.77-4.27-.76-8.15a9.51,9.51,0,0,1,3.89-5.58s2.49,6.12,1,8.83A19.33,19.33,0,0,1,81.3,17.56Z"/><path class="cls-1" d="M81.53,12.33a3.54,3.54,0,0,1-.22-1.94A2.27,2.27,0,0,1,82.22,9s.62,1.45.28,2.1A4.51,4.51,0,0,1,81.53,12.33Z"/><path class="cls-1" d="M80.69,13.29a5.46,5.46,0,0,1-.79-2.92A3.52,3.52,0,0,1,81,8.09s1.29,2.07.93,3.15A7.33,7.33,0,0,1,80.69,13.29Z"/><path class="cls-1" d="M78.72,14.5a8.27,8.27,0,0,1-.23-4.59,5.39,5.39,0,0,1,2.32-3s1.25,3.5.36,5A10.91,10.91,0,0,1,78.72,14.5Z"/><path class="cls-1" d="M78.33,17.29s-2.3-3.67-2-7.41a8.88,8.88,0,0,1,2.72-5.76s3.25,5.26,2.31,8A18.25,18.25,0,0,1,78.33,17.29Z"/><path class="cls-1" d="M77,13.22a5.45,5.45,0,0,1-.16-3.05,3.49,3.49,0,0,1,1.54-2s.83,2.32.24,3.31A7.12,7.12,0,0,1,77,13.22Z"/><path class="cls-1" d="M76.31,14.18a7.35,7.35,0,0,1-.89-4A4.74,4.74,0,0,1,77,7.2S78.6,10.06,78,11.5A9.55,9.55,0,0,1,76.31,14.18Z"/><path class="cls-1" d="M75.48,11.56a1.85,1.85,0,0,1-.15-1,1.18,1.18,0,0,1,.45-.74s.35.76.19,1.11A2.4,2.4,0,0,1,75.48,11.56Z"/><path class="cls-1" d="M73.38,14.91a9.1,9.1,0,0,1-.23-5.09,5.88,5.88,0,0,1,2.58-3.35s1.36,3.87.37,5.51A12,12,0,0,1,73.38,14.91Z"/><path class="cls-1" d="M73.11,17.6S70.69,13.77,71,9.84a9.35,9.35,0,0,1,2.84-6s3.41,5.5,2.43,8.37A18.76,18.76,0,0,1,73.11,17.6Z"/><path class="cls-1" d="M72.4,11.64a2,2,0,0,1-.23-1.09,1.27,1.27,0,0,1,.43-.82s.44.79.28,1.18A2.78,2.78,0,0,1,72.4,11.64Z"/><path class="cls-1" d="M70.06,18.15S68,13.66,68.83,9.43a10.22,10.22,0,0,1,3.9-6.18s3,6.44,1.53,9.43A20.6,20.6,0,0,1,70.06,18.15Z"/><path class="cls-1" d="M69.07,14.86A9.17,9.17,0,0,1,69,9.77a6,6,0,0,1,2.68-3.26s1.24,3.91.19,5.52A12,12,0,0,1,69.07,14.86Z"/><path class="cls-1" d="M69.12,17.44s-2.45-3.68-2.22-7.51a9.11,9.11,0,0,1,2.62-6s3.47,5.28,2.59,8.1A18.69,18.69,0,0,1,69.12,17.44Z"/><path class="cls-1" d="M67.1,15.65a10.6,10.6,0,0,1-.48-5.91,6.87,6.87,0,0,1,2.86-4s1.76,4.45.67,6.41A14.16,14.16,0,0,1,67.1,15.65Z"/><path class="cls-1" d="M66.27,14a7.3,7.3,0,0,1-.11-4,4.68,4.68,0,0,1,2.1-2.63s1,3.1.21,4.39A9.44,9.44,0,0,1,66.27,14Z"/><path class="cls-1" d="M65.67,17.61s-2.34-3.9-1.92-7.82a9.36,9.36,0,0,1,3-6S70,9.39,69,12.24A19.16,19.16,0,0,1,65.67,17.61Z"/><path class="cls-1" d="M63.73,17.07A13.66,13.66,0,0,1,63,9.51a8.86,8.86,0,0,1,3.59-5.2s2.33,5.67,1,8.2A18.06,18.06,0,0,1,63.73,17.07Z"/><path class="cls-1" d="M63.74,18.22s-2.66-4.16-2.32-8.43a10.15,10.15,0,0,1,3-6.59s3.76,6,2.71,9.09A20.6,20.6,0,0,1,63.74,18.22Z"/><path class="cls-1" d="M62.15,14.36a7.93,7.93,0,0,1-.29-4.4A5.12,5.12,0,0,1,64,7s1.25,3.33.41,4.77A10.37,10.37,0,0,1,62.15,14.36Z"/><path class="cls-1" d="M61.78,18.18s-2.71-4.09-2.44-8.34a10.09,10.09,0,0,1,2.93-6.6s3.82,5.87,2.84,9A20.59,20.59,0,0,1,61.78,18.18Z"/><path class="cls-1" d="M60.74,16.42A11.93,11.93,0,0,1,59,10a7.72,7.72,0,0,1,2.3-5s2.88,4.54,2.09,6.92A15.92,15.92,0,0,1,60.74,16.42Z"/><path class="cls-1" d="M59.43,12.55a4.06,4.06,0,0,1-.06-2.26,2.62,2.62,0,0,1,1.17-1.48s.58,1.74.12,2.46A5.11,5.11,0,0,1,59.43,12.55Z"/><path class="cls-1" d="M58.51,12.44a3.74,3.74,0,0,1-.16-2.1,2.49,2.49,0,0,1,1-1.42s.61,1.59.22,2.28A4.93,4.93,0,0,1,58.51,12.44Z"/><path class="cls-1" d="M57.6,18.37s-2.77-4.19-2.5-8.55a10.36,10.36,0,0,1,3-6.77S62,9.07,61,12.27A21,21,0,0,1,57.6,18.37Z"/><path class="cls-1" d="M56.39,17.53s-2.37-3.81-2-7.7a9.22,9.22,0,0,1,2.86-5.95s3.33,5.47,2.34,8.31A18.81,18.81,0,0,1,56.39,17.53Z"/><path class="cls-1" d="M55.1,14.77A8.63,8.63,0,0,1,54.39,10a5.57,5.57,0,0,1,2.11-3.4s1.65,3.51.87,5.15A11.45,11.45,0,0,1,55.1,14.77Z"/><path class="cls-1" d="M52.92,18.2S51,13.5,52.19,9.25a10.46,10.46,0,0,1,4.33-6.06s2.65,6.74,1,9.69A21.13,21.13,0,0,1,52.92,18.2Z"/><path class="cls-1" d="M52.75,17.51s-2.08-4-1.43-7.86a9.29,9.29,0,0,1,3.3-5.76s2.94,5.74,1.74,8.5A18.93,18.93,0,0,1,52.75,17.51Z"/><path class="cls-1" d="M51.59,14.18a7.72,7.72,0,0,1-.07-4.25,5,5,0,0,1,2.23-2.74s1,3.27.18,4.61A10,10,0,0,1,51.59,14.18Z"/><path class="cls-1" d="M51.14,12.26a3.45,3.45,0,0,1,0-1.93,2.26,2.26,0,0,1,1-1.22s.45,1.48,0,2.09A4.61,4.61,0,0,1,51.14,12.26Z"/><path class="cls-1" d="M50.55,14.8a8.59,8.59,0,0,1-1.45-4.55,5.57,5.57,0,0,1,1.53-3.66s2.18,3.18,1.67,4.91A11.12,11.12,0,0,1,50.55,14.8Z"/><path class="cls-1" d="M49.5,14.85A8.75,8.75,0,0,1,48,10.24a5.64,5.64,0,0,1,1.55-3.7s2.2,3.22,1.69,5A11.29,11.29,0,0,1,49.5,14.85Z"/><path class="cls-1" d="M48,13.05a5.06,5.06,0,0,1-.24-2.81,3.31,3.31,0,0,1,1.35-1.92s.85,2.12.33,3A6.61,6.61,0,0,1,48,13.05Z"/><path class="cls-1" d="M47.19,12.29a3.45,3.45,0,0,1-.26-1.88,2.22,2.22,0,0,1,.85-1.33s.63,1.39.32,2A4.53,4.53,0,0,1,47.19,12.29Z"/><path class="cls-1" d="M45.68,18.17s-2.46-4.26-1.92-8.51A10.11,10.11,0,0,1,47.1,3.24s3.47,6.12,2.28,9.19A20.66,20.66,0,0,1,45.68,18.17Z"/><path class="cls-1" d="M45.1,11.6a2,2,0,0,1,0-1.12,1.34,1.34,0,0,1,.61-.72s.26.87,0,1.22A2.59,2.59,0,0,1,45.1,11.6Z"/><path class="cls-1" d="M43.8,14.29a7.59,7.59,0,0,1-.71-4.17,4.9,4.9,0,0,1,1.79-3s1.52,3.05.86,4.5A9.89,9.89,0,0,1,43.8,14.29Z"/><path class="cls-1" d="M41.34,17.05S40,12.91,41.16,9.32a9,9,0,0,1,4-5s1.93,5.92.36,8.38A18.27,18.27,0,0,1,41.34,17.05Z"/><path class="cls-1" d="M41.28,15.1a9.41,9.41,0,0,1-.53-5.22,6.07,6.07,0,0,1,2.46-3.6s1.63,3.91.7,5.66A12.48,12.48,0,0,1,41.28,15.1Z"/><path class="cls-1" d="M41.1,17.48S38.58,13.82,38.74,10a9.12,9.12,0,0,1,2.53-6S44.84,9.18,44,12A18.5,18.5,0,0,1,41.1,17.48Z"/><path class="cls-1" d="M39.1,14.78a8.8,8.8,0,0,1-.31-4.91A5.71,5.71,0,0,1,41.23,6.6s1.38,3.71.44,5.31A11.44,11.44,0,0,1,39.1,14.78Z"/><path class="cls-1" d="M39.09,16.87a12.92,12.92,0,0,1-2.22-6.82,8.36,8.36,0,0,1,2.25-5.51s3.3,4.75,2.57,7.35A17,17,0,0,1,39.09,16.87Z"/><path class="cls-1" d="M37.79,12.18a3.17,3.17,0,0,1-.19-1.77,2.05,2.05,0,0,1,.82-1.22s.56,1.32.25,1.91A4.31,4.31,0,0,1,37.79,12.18Z"/><path class="cls-1" d="M35.08,17.24S33.63,13,34.84,9.3a9.2,9.2,0,0,1,4.1-5.16s2,6.07.45,8.61A18.82,18.82,0,0,1,35.08,17.24Z"/><path class="cls-1" d="M35.91,13.18a5.22,5.22,0,0,1-.79-2.79,3.35,3.35,0,0,1,1-2.19s1.26,2,.93,3A6.81,6.81,0,0,1,35.91,13.18Z"/><path class="cls-1" d="M33.52,16.94a13.33,13.33,0,0,1-.7-7.41,8.63,8.63,0,0,1,3.53-5.08s2.27,5.56.93,8A17.62,17.62,0,0,1,33.52,16.94Z"/><path class="cls-1" d="M33.66,14a6.94,6.94,0,0,1-.91-3.73A4.48,4.48,0,0,1,34.18,7.4s1.57,2.67,1.07,4A9,9,0,0,1,33.66,14Z"/><path class="cls-1" d="M32.82,16.32a11.75,11.75,0,0,1-2-6.22,7.59,7.59,0,0,1,2.07-5s3,4.34,2.3,6.7A15.38,15.38,0,0,1,32.82,16.32Z"/><path class="cls-1" d="M31.48,12.74a4.3,4.3,0,0,1-.34-2.4,2.84,2.84,0,0,1,1.08-1.71s.82,1.78.42,2.6A5.65,5.65,0,0,1,31.48,12.74Z"/><path class="cls-1" d="M30.74,11.75a2.22,2.22,0,0,1-.31-1.2,1.43,1.43,0,0,1,.46-.93s.52.86.36,1.3A3,3,0,0,1,30.74,11.75Z"/><path class="cls-1" d="M28.55,17.75s-2.05-4.22-1.27-8.21a9.68,9.68,0,0,1,3.6-5.89s2.89,6,1.56,8.88A19.52,19.52,0,0,1,28.55,17.75Z"/><path class="cls-1" d="M28.44,13.63a6.23,6.23,0,0,1-.77-3.35A4,4,0,0,1,29,7.75s1.37,2.41.9,3.62A8,8,0,0,1,28.44,13.63Z"/><path class="cls-1" d="M27.44,13.81a6.49,6.49,0,0,1-.88-3.53A4.23,4.23,0,0,1,27.9,7.57s1.5,2.52,1,3.81A8.55,8.55,0,0,1,27.44,13.81Z"/><path class="cls-1" d="M25.78,18.16s-2.4-4.3-1.81-8.53A10.11,10.11,0,0,1,27.4,3.25s3.38,6.16,2.15,9.21A20.47,20.47,0,0,1,25.78,18.16Z"/><path class="cls-1" d="M25.42,14a7,7,0,0,1-1-3.72,4.48,4.48,0,0,1,1.35-2.91s1.65,2.63,1.19,4A9.16,9.16,0,0,1,25.42,14Z"/><path class="cls-1" d="M23.37,17.1a13.62,13.62,0,0,1-1.06-7.49,8.75,8.75,0,0,1,3.34-5.32s2.57,5.53,1.33,8.1A17.68,17.68,0,0,1,23.37,17.1Z"/><path class="cls-1" d="M22.77,13.67a6.47,6.47,0,0,1-.28-3.56A4.17,4.17,0,0,1,24.23,7.7s1,2.69.38,3.86A8.28,8.28,0,0,1,22.77,13.67Z"/><path class="cls-1" d="M22.43,12A2.79,2.79,0,0,1,22,10.53a1.77,1.77,0,0,1,.52-1.18S23.2,10.4,23,11A3.66,3.66,0,0,1,22.43,12Z"/><path class="cls-1" d="M19.88,16a11.48,11.48,0,0,1-.24-6.37A7.39,7.39,0,0,1,22.9,5.42s1.67,4.86.41,6.91A15.12,15.12,0,0,1,19.88,16Z"/><path class="cls-1" d="M20,12a2.75,2.75,0,0,1,0-1.54,1.79,1.79,0,0,1,.8-1s.39,1.17.08,1.66A3.67,3.67,0,0,1,20,12Z"/><path class="cls-1" d="M19,13.66a6.18,6.18,0,0,1-.74-3.39,4,4,0,0,1,1.35-2.55s1.36,2.45.88,3.66A8.21,8.21,0,0,1,19,13.66Z"/><path class="cls-1" d="M17.46,17.85s-2.29-4.13-1.71-8.19a9.69,9.69,0,0,1,3.3-6.1s3.23,5.92,2,8.84A19.8,19.8,0,0,1,17.46,17.85Z"/><path class="cls-1" d="M17,12.48a3.81,3.81,0,0,1-.34-2.08,2.44,2.44,0,0,1,.89-1.5s.75,1.52.43,2.24A4.92,4.92,0,0,1,17,12.48Z"/><path class="cls-1" d="M15.86,17.43s-2.39-3.72-2.09-7.55A9.13,9.13,0,0,1,16.49,4s3.37,5.34,2.44,8.14A18.55,18.55,0,0,1,15.86,17.43Z"/><path class="cls-1" d="M14.82,12.09a3,3,0,0,1-.12-1.69,2,2,0,0,1,.84-1.13s.48,1.28.16,1.83A3.87,3.87,0,0,1,14.82,12.09Z"/><path class="cls-1" d="M13,16.12a11.61,11.61,0,0,1-.71-6.41,7.53,7.53,0,0,1,3-4.45s2.05,4.79.92,6.94A15.18,15.18,0,0,1,13,16.12Z"/><path class="cls-1" d="M13.07,17a13.18,13.18,0,0,1-2.3-6.93A8.5,8.5,0,0,1,13,4.43s3.39,4.81,2.65,7.47A17.07,17.07,0,0,1,13.07,17Z"/><path class="cls-1" d="M11.65,11.9a2.66,2.66,0,0,1,0-1.49,1.74,1.74,0,0,1,.81-.95s.34,1.16,0,1.62A3.58,3.58,0,0,1,11.65,11.9Z"/><path class="cls-1" d="M10.86,12.08a2.93,2.93,0,0,1-.34-1.6,1.89,1.89,0,0,1,.64-1.19s.64,1.15.41,1.73A3.79,3.79,0,0,1,10.86,12.08Z"/><path class="cls-1" d="M9.51,15.85A10.83,10.83,0,0,1,8.11,10a7,7,0,0,1,2.25-4.46S12.8,9.73,12,11.86A14.11,14.11,0,0,1,9.51,15.85Z"/><path class="cls-1" d="M8.71,11.89a2.6,2.6,0,0,1-.2-1.41,1.7,1.7,0,0,1,.63-1s.49,1,.25,1.54A3.27,3.27,0,0,1,8.71,11.89Z"/><path class="cls-1" d="M7.83,12.62a4.06,4.06,0,0,1-.64-2.15,2.57,2.57,0,0,1,.73-1.71s1,1.51.76,2.31A5.4,5.4,0,0,1,7.83,12.62Z"/><path class="cls-1" d="M6.52,14.49a8,8,0,0,1-1-4.3,5.2,5.2,0,0,1,1.65-3.3S8.93,10,8.35,11.54A10.33,10.33,0,0,1,6.52,14.49Z"/><path class="cls-1" d="M5.46,14.52a8.09,8.09,0,0,1-1-4.34A5.19,5.19,0,0,1,6.09,6.87S7.9,10,7.32,11.55A10.66,10.66,0,0,1,5.46,14.52Z"/><path class="cls-1" d="M2.5,17.87S1,13.19,2.33,9.14A10.14,10.14,0,0,1,6.9,3.51s2.17,6.7.39,9.47A20.66,20.66,0,0,1,2.5,17.87Z"/><path class="cls-1" d="M3.68,14.38A7.74,7.74,0,0,1,2.36,10.3,5,5,0,0,1,3.71,7s2,2.84,1.53,4.39A10.23,10.23,0,0,1,3.68,14.38Z"/><path class="cls-1" d="M1.45,15.21a9.76,9.76,0,0,1-.32-5.43A6.29,6.29,0,0,1,3.84,6.16s1.51,4.12.47,5.89A12.81,12.81,0,0,1,1.45,15.21Z"/><path class="cls-1" d="M.44,17.38s-1.93-4-1.16-7.8A9.1,9.1,0,0,1,2.72,4s2.72,5.74,1.44,8.43A18.49,18.49,0,0,1,.44,17.38Z"/><path class="cls-1" d="M-.24,13.47A6.08,6.08,0,0,1-.35,10.1,3.89,3.89,0,0,1,1.39,7.9s.87,2.58.2,3.66A8,8,0,0,1-.24,13.47Z"/><path class="cls-1" d="M-.8,16.49A12.16,12.16,0,0,1-2.56,10,7.83,7.83,0,0,1-.19,4.91s2.88,4.61,2.06,7A15.83,15.83,0,0,1-.8,16.49Z"/><path class="cls-1" d="M-3.41,17.74s-1.68-4.47-.5-8.46A9.85,9.85,0,0,1,.3,3.64s2.37,6.42.75,9.17A20,20,0,0,1-3.41,17.74Z"/><path class="cls-1" d="M-3.8,17.91S-5.89,13.59-5.08,9.5a9.87,9.87,0,0,1,3.7-6S1.56,9.68.2,12.58A20.24,20.24,0,0,1-3.8,17.91Z"/></svg>