<svg id="Layer_1" data-name="Layer 1" xmlns="http://www.w3.org/2000/svg" viewBox="0 0 128 128"><defs><style>.cls-1{fill:#32e785;}.cls-2{fill:#7cffa0;}.cls-3{fill:#6d5720;}</style></defs><path class="cls-1" d="M-128,0H0A0,0,0,0,1,0,0V128a0,0,0,0,1,0,0H-104a24,24,0,0,1-24-24V0A0,0,0,0,1-128,0Z"/><rect class="cls-1" width="128" height="128"/><path class="cls-2" d="M98.74,107.76a9.36,9.36,0,0,1,1.21-3.63c1.21-2.42,6.06-1.21,6.06-1.21a28.32,28.32,0,0,1-3.64,3.63A17.37,17.37,0,0,1,98.74,107.76Z"/><path class="cls-2" d="M46.06,38.84a9.36,9.36,0,0,1,1.21-3.63C48.49,32.79,53.33,34,53.33,34a28.11,28.11,0,0,1-3.63,3.63A17.58,17.58,0,0,1,46.06,38.84Z"/><path class="cls-2" d="M92.82,106.4a8.56,8.56,0,0,1,.55-4.69A5.46,5.46,0,0,1,96.24,99s.67,3.74-.49,5.1A11.32,11.32,0,0,1,92.82,106.4Z"/><path class="cls-2" d="M45.45,80.22a9.36,9.36,0,0,1,1.21-3.63c1.21-2.42,6.05-1.21,6.05-1.21A28.11,28.11,0,0,1,49.08,79,17.37,17.37,0,0,1,45.45,80.22Z"/><path class="cls-2" d="M39.53,78.86a8.45,8.45,0,0,1,.55-4.69,5.47,5.47,0,0,1,2.86-2.68s.67,3.75-.49,5.1A10.93,10.93,0,0,1,39.53,78.86Z"/><path class="cls-2" d="M91.36,106.4a16.79,16.79,0,0,1-3.65-4.33,14.5,14.5,0,0,1-1-5.6s3.66,2,4.14,3.9A37,37,0,0,1,91.36,106.4Z"/><path class="cls-2" d="M87.58,106.4c-.06-.37-.73-4.08-2.56-4.51a23.48,23.48,0,0,0-5.66,0,23.7,23.7,0,0,0,4.11,3.3A20.88,20.88,0,0,0,87.58,106.4Z"/><path class="cls-2" d="M104.71,23.74a16.6,16.6,0,0,1-3.65-4.33,14.5,14.5,0,0,1-1-5.6s3.66,1.95,4.14,3.9A37,37,0,0,1,104.71,23.74Z"/><path class="cls-2" d="M100.93,23.74c-.06-.36-.73-4.08-2.55-4.51a24.11,24.11,0,0,0-5.67,0,23.7,23.7,0,0,0,4.11,3.3A20.88,20.88,0,0,0,100.93,23.74Z"/><path class="cls-2" d="M38.58,38.62a16.67,16.67,0,0,1-3.65-4.32,14.56,14.56,0,0,1-1-5.61s3.66,1.95,4.15,3.9A37.8,37.8,0,0,1,38.58,38.62Z"/><path class="cls-2" d="M34.81,38.62c-.06-.36-.74-4.08-2.56-4.51a24.11,24.11,0,0,0-5.67,0,23.7,23.7,0,0,0,4.11,3.3A21.1,21.1,0,0,0,34.81,38.62Z"/><path class="cls-3" d="M232-244a12,12,0,0,1,12,12V104a12,12,0,0,1-12,12H-104a12,12,0,0,1-12-12V-232a12,12,0,0,1,12-12H232m0-12H-104a24,24,0,0,0-24,24V104a24,24,0,0,0,24,24H232a24,24,0,0,0,24-24V-232a24,24,0,0,0-24-24Z"/><path class="cls-1" d="M-1.27,108.8a13.56,13.56,0,0,1,1.9,7.32,8.82,8.82,0,0,1-2.72,5.67s-3.18-5.21-2.23-7.91A17.84,17.84,0,0,1-1.27,108.8Z"/><path class="cls-1" d="M.57,109.76a11.85,11.85,0,0,1,.67,6.57,7.66,7.66,0,0,1-3.1,4.52s-2-4.92-.87-7.11A15.6,15.6,0,0,1,.57,109.76Z"/><path class="cls-1" d="M1.47,109.26a12.86,12.86,0,0,1,1,7.06,8.25,8.25,0,0,1-3.15,5s-2.42-5.22-1.25-7.64A17,17,0,0,1,1.47,109.26Z"/><path class="cls-1" d="M2.35,111.16a8.86,8.86,0,0,1,.48,4.91,5.72,5.72,0,0,1-2.32,3.38s-1.52-3.68-.64-5.32A11.72,11.72,0,0,1,2.35,111.16Z"/><path class="cls-1" d="M2.88,110.4A10.21,10.21,0,0,1,4.21,116a6.66,6.66,0,0,1-2.14,4.24s-2.32-4-1.57-6A13.41,13.41,0,0,1,2.88,110.4Z"/><path class="cls-1" d="M3.56,112.44a6.06,6.06,0,0,1,1,3.19,3.89,3.89,0,0,1-1.1,2.54s-1.49-2.24-1.12-3.44A8,8,0,0,1,3.56,112.44Z"/><path class="cls-1" d="M4.67,114A2.64,2.64,0,0,1,5,115.5a1.69,1.69,0,0,1-.59,1.08s-.57-1-.36-1.57A3.49,3.49,0,0,1,4.67,114Z"/><path class="cls-1" d="M7,110.89a9.63,9.63,0,0,1,0,5.4,6.26,6.26,0,0,1-2.88,3.44s-1.28-4.17-.15-5.86A12.76,12.76,0,0,1,7,110.89Z"/><path class="cls-1" d="M7.73,110.65a10,10,0,0,1,.49,5.54A6.47,6.47,0,0,1,5.56,120s-1.67-4.16-.66-6A13.17,13.17,0,0,1,7.73,110.65Z"/><path class="cls-1" d="M8.23,109.54a12.11,12.11,0,0,1,1.5,6.56,7.85,7.85,0,0,1-2.57,5S4.47,116.34,5.38,114A15.77,15.77,0,0,1,8.23,109.54Z"/><path class="cls-1" d="M8.71,113.16a4.49,4.49,0,0,1,.77,2.37,2.89,2.89,0,0,1-.78,1.92s-1.15-1.65-.9-2.55A5.92,5.92,0,0,1,8.71,113.16Z"/><path class="cls-1" d="M10.37,108s2.45,4.11,2,8.23a9.82,9.82,0,0,1-3.15,6.29s-3.45-5.89-2.35-8.88A20.18,20.18,0,0,1,10.37,108Z"/><path class="cls-1" d="M11.15,111.46a8.11,8.11,0,0,1,1,4.37,5.2,5.2,0,0,1-1.7,3.32s-1.8-3.14-1.2-4.72A10.48,10.48,0,0,1,11.15,111.46Z"/><path class="cls-1" d="M12,111.78a7.39,7.39,0,0,1,1.12,3.94,4.74,4.74,0,0,1-1.4,3.1s-1.78-2.78-1.31-4.25A9.75,9.75,0,0,1,12,111.78Z"/><path class="cls-1" d="M13,112.14a6.67,6.67,0,0,1,1,3.54,4.24,4.24,0,0,1-1.25,2.78s-1.61-2.49-1.18-3.81A8.6,8.6,0,0,1,13,112.14Z"/><path class="cls-1" d="M14.79,111.88a7.39,7.39,0,0,1,.29,4.1,4.79,4.79,0,0,1-2,2.76s-1.18-3.1-.41-4.44A9.73,9.73,0,0,1,14.79,111.88Z"/><path class="cls-1" d="M16.06,110.43a10.42,10.42,0,0,1,.58,5.78,6.79,6.79,0,0,1-2.73,4s-1.8-4.33-.77-6.27A13.8,13.8,0,0,1,16.06,110.43Z"/><path class="cls-1" d="M17.79,108.72s1.57,4.19.46,7.91a9.26,9.26,0,0,1-4,5.26s-2.19-6-.67-8.57A18.67,18.67,0,0,1,17.79,108.72Z"/><path class="cls-1" d="M17.56,108.6s2.29,3.76,1.9,7.57A9,9,0,0,1,16.6,122s-3.23-5.4-2.23-8.17A18.65,18.65,0,0,1,17.56,108.6Z"/><path class="cls-1" d="M19.84,108.72s1.58,4.17.49,7.9a9.15,9.15,0,0,1-3.92,5.26s-2.22-6-.71-8.55A18.78,18.78,0,0,1,19.84,108.72Z"/><path class="cls-1" d="M19.34,114a2.8,2.8,0,0,1,.24,1.58,1.88,1.88,0,0,1-.69,1.13s-.55-1.17-.3-1.71A3.75,3.75,0,0,1,19.34,114Z"/><path class="cls-1" d="M20.18,114.12a2.53,2.53,0,0,1,.41,1.32,1.65,1.65,0,0,1-.45,1.06s-.63-.93-.48-1.42A3.3,3.3,0,0,1,20.18,114.12Z"/><path class="cls-1" d="M21.43,109.09a13,13,0,0,1,2,6.92,8.37,8.37,0,0,1-2.41,5.48s-3.19-4.86-2.38-7.46A17,17,0,0,1,21.43,109.09Z"/><path class="cls-1" d="M24.35,108.55s1.47,4.39.18,8.21a9.53,9.53,0,0,1-4.28,5.3s-2.06-6.29-.39-8.9A19.48,19.48,0,0,1,24.35,108.55Z"/><path class="cls-1" d="M23.63,110.69A9.68,9.68,0,0,1,25,115.9a6.25,6.25,0,0,1-1.95,4s-2.23-3.71-1.55-5.62A12.52,12.52,0,0,1,23.63,110.69Z"/><path class="cls-1" d="M24.51,112.65a5.53,5.53,0,0,1,.77,3A3.57,3.57,0,0,1,24.17,118s-1.3-2.13-.91-3.23A7.45,7.45,0,0,1,24.51,112.65Z"/><path class="cls-1" d="M26.63,110.18a11.08,11.08,0,0,1,.51,6.11,7.13,7.13,0,0,1-2.95,4.14s-1.82-4.59-.7-6.61A14.64,14.64,0,0,1,26.63,110.18Z"/><path class="cls-1" d="M27.94,109.39a12.8,12.8,0,0,1,.51,7.07A8.24,8.24,0,0,1,25,121.22s-2-5.34-.71-7.67A16.76,16.76,0,0,1,27.94,109.39Z"/><path class="cls-1" d="M29,107.89s2,4.52,1.07,8.71a10.14,10.14,0,0,1-4,6.1s-2.85-6.47-1.36-9.42A20.67,20.67,0,0,1,29,107.89Z"/><path class="cls-1" d="M28.84,113.53a3.83,3.83,0,0,1,.27,2.09,2.48,2.48,0,0,1-.94,1.48s-.71-1.56-.35-2.27A4.94,4.94,0,0,1,28.84,113.53Z"/><path class="cls-1" d="M30.8,109.41a12.53,12.53,0,0,1,.79,7,8.13,8.13,0,0,1-3.22,4.84s-2.24-5.19-1-7.53A16.39,16.39,0,0,1,30.8,109.41Z"/><path class="cls-1" d="M30.91,111.2a8.54,8.54,0,0,1,1.15,4.64,5.55,5.55,0,0,1-1.76,3.57s-2-3.32-1.36-5A11.29,11.29,0,0,1,30.91,111.2Z"/><path class="cls-1" d="M33.12,108.08s2,4.41,1,8.5a10,10,0,0,1-3.91,5.94s-2.78-6.32-1.31-9.2A20.33,20.33,0,0,1,33.12,108.08Z"/><path class="cls-1" d="M33.12,113.77a3.41,3.41,0,0,1,.06,1.87,2.17,2.17,0,0,1-1,1.21s-.47-1.42-.1-2A4.53,4.53,0,0,1,33.12,113.77Z"/><path class="cls-1" d="M34.38,108.57s2.22,3.83,1.75,7.66a9.11,9.11,0,0,1-3,5.79s-3.13-5.5-2.07-8.27A18.47,18.47,0,0,1,34.38,108.57Z"/><path class="cls-1" d="M35.15,109.47A12.17,12.17,0,0,1,36.86,116a7.86,7.86,0,0,1-2.43,5.08s-2.85-4.67-2-7.08A16,16,0,0,1,35.15,109.47Z"/><path class="cls-1" d="M36.09,111.87a7.25,7.25,0,0,1,.94,3.89,4.66,4.66,0,0,1-1.5,3s-1.63-2.79-1.11-4.21A9.46,9.46,0,0,1,36.09,111.87Z"/><path class="cls-1" d="M37.35,113.75a3.42,3.42,0,0,1,0,1.91,2.22,2.22,0,0,1-1,1.22s-.45-1.48,0-2.08A4.46,4.46,0,0,1,37.35,113.75Z"/><path class="cls-1" d="M38.56,112.48a6.18,6.18,0,0,1,.29,3.37,3.94,3.94,0,0,1-1.62,2.29s-1-2.53-.4-3.65A8.14,8.14,0,0,1,38.56,112.48Z"/><path class="cls-1" d="M39.44,109.7a11.69,11.69,0,0,1,1.49,6.36,7.57,7.57,0,0,1-2.46,4.83s-2.63-4.56-1.76-6.86A15.27,15.27,0,0,1,39.44,109.7Z"/><path class="cls-1" d="M40.38,112.28a6.31,6.31,0,0,1,.65,3.49,4.14,4.14,0,0,1-1.46,2.57s-1.32-2.55-.78-3.78A8.44,8.44,0,0,1,40.38,112.28Z"/><path class="cls-1" d="M41.27,109.74A11.6,11.6,0,0,1,43,116a7.54,7.54,0,0,1-2.22,4.89s-2.81-4.39-2.05-6.71A15.15,15.15,0,0,1,41.27,109.74Z"/><path class="cls-1" d="M42.22,112.28a6.37,6.37,0,0,1,.92,3.4,4.14,4.14,0,0,1-1.24,2.65s-1.5-2.41-1.08-3.67A8.35,8.35,0,0,1,42.22,112.28Z"/><path class="cls-1" d="M43.3,111a9,9,0,0,1,1.36,4.84,5.83,5.83,0,0,1-1.74,3.8s-2.17-3.42-1.58-5.22A11.93,11.93,0,0,1,43.3,111Z"/><path class="cls-1" d="M44.68,113.47a4,4,0,0,1,.07,2.23,2.62,2.62,0,0,1-1.16,1.46s-.57-1.71-.12-2.43A5.36,5.36,0,0,1,44.68,113.47Z"/><path class="cls-1" d="M45.89,110.29A10.53,10.53,0,0,1,47,116.07a6.79,6.79,0,0,1-2.43,4.24s-2.17-4.21-1.28-6.25A13.77,13.77,0,0,1,45.89,110.29Z"/><path class="cls-1" d="M48,108.44s1.67,4.33.56,8.21a9.57,9.57,0,0,1-4,5.51s-2.35-6.2-.8-8.89A19.62,19.62,0,0,1,48,108.44Z"/><path class="cls-1" d="M47.77,108.11s2.48,4,2.09,8.1a9.72,9.72,0,0,1-3,6.26s-3.5-5.77-2.45-8.74A19.87,19.87,0,0,1,47.77,108.11Z"/><path class="cls-1" d="M48.77,113.63a3.63,3.63,0,0,1,.09,2,2.32,2.32,0,0,1-1,1.33s-.55-1.54-.15-2.19A4.63,4.63,0,0,1,48.77,113.63Z"/><path class="cls-1" d="M50.48,109.69a12,12,0,0,1,.82,6.6,7.74,7.74,0,0,1-3,4.62s-2.17-4.9-1-7.14A15.7,15.7,0,0,1,50.48,109.69Z"/><path class="cls-1" d="M50.85,110.91a9.19,9.19,0,0,1,1.11,5,6,6,0,0,1-2,3.78s-2-3.62-1.32-5.42A12,12,0,0,1,50.85,110.91Z"/><path class="cls-1" d="M51.63,113.73a3.35,3.35,0,0,1,.35,1.82,2.13,2.13,0,0,1-.75,1.34s-.7-1.32-.43-2A4.24,4.24,0,0,1,51.63,113.73Z"/><path class="cls-1" d="M52.77,113.68a3.46,3.46,0,0,1,.26,1.91,2.22,2.22,0,0,1-.86,1.35s-.65-1.41-.33-2.06A4.47,4.47,0,0,1,52.77,113.68Z"/><path class="cls-1" d="M55,109.26a12.93,12.93,0,0,1,.64,7.19,8.41,8.41,0,0,1-3.45,4.9s-2.17-5.4-.86-7.79A16.92,16.92,0,0,1,55,109.26Z"/><path class="cls-1" d="M56,109.77a12,12,0,0,1,.41,6.64,7.73,7.73,0,0,1-3.3,4.43s-1.87-5-.6-7.19A15.79,15.79,0,0,1,56,109.77Z"/><path class="cls-1" d="M56.28,110.27a10.6,10.6,0,0,1,1.1,5.79,6.82,6.82,0,0,1-2.4,4.27s-2.21-4.21-1.34-6.26A13.83,13.83,0,0,1,56.28,110.27Z"/><path class="cls-1" d="M58,108.18s2,4.31,1.12,8.34a9.77,9.77,0,0,1-3.76,5.9s-2.81-6.18-1.41-9A19.89,19.89,0,0,1,58,108.18Z"/><path class="cls-1" d="M59.67,108s1.73,4.63.5,8.74a10.15,10.15,0,0,1-4.37,5.8s-2.42-6.62-.74-9.46A20.82,20.82,0,0,1,59.67,108Z"/><path class="cls-1" d="M59.3,110.21A10.7,10.7,0,0,1,60.54,116a6.94,6.94,0,0,1-2.33,4.36s-2.32-4.2-1.48-6.29A13.9,13.9,0,0,1,59.3,110.21Z"/><path class="cls-1" d="M59.85,114.35a2,2,0,0,1,.25,1.1,1.31,1.31,0,0,1-.43.83s-.45-.79-.3-1.19A2.49,2.49,0,0,1,59.85,114.35Z"/><path class="cls-1" d="M63.23,108.22s1.43,4.69,0,8.69a10.06,10.06,0,0,1-4.69,5.48s-2-6.71-.14-9.43A20.55,20.55,0,0,1,63.23,108.22Z"/><path class="cls-1" d="M62.53,108.73a13.82,13.82,0,0,1,1.68,7.48,8.92,8.92,0,0,1-2.95,5.65s-3-5.39-2-8.08A18,18,0,0,1,62.53,108.73Z"/><path class="cls-1" d="M63.26,109a13.17,13.17,0,0,1,1.91,7,8.48,8.48,0,0,1-2.57,5.48s-3.11-5-2.23-7.59A17.28,17.28,0,0,1,63.26,109Z"/><path class="cls-1" d="M65.45,108.82s1.68,4,.73,7.7a9,9,0,0,1-3.67,5.27s-2.36-5.78-1-8.34A18.17,18.17,0,0,1,65.45,108.82Z"/><path class="cls-1" d="M66,109.81a11.75,11.75,0,0,1,.88,6.43A7.56,7.56,0,0,1,64,120.79s-2.18-4.76-1.11-7A15.35,15.35,0,0,1,66,109.81Z"/><path class="cls-1" d="M68.39,107.93s1.56,4.83.12,9a10.47,10.47,0,0,1-4.75,5.76s-2.18-6.91-.33-9.75A21.23,21.23,0,0,1,68.39,107.93Z"/><path class="cls-1" d="M67.18,113.92a3,3,0,0,1,.37,1.58,1.92,1.92,0,0,1-.61,1.21s-.66-1.14-.44-1.72A3.69,3.69,0,0,1,67.18,113.92Z"/><path class="cls-1" d="M68.4,111.11a8.77,8.77,0,0,1,1.22,4.73,5.73,5.73,0,0,1-1.78,3.66s-2-3.38-1.42-5.12A11.57,11.57,0,0,1,68.4,111.11Z"/><path class="cls-1" d="M69.55,111.7a7.61,7.61,0,0,1,.88,4.12,4.94,4.94,0,0,1-1.66,3.09s-1.63-3-1-4.45A10,10,0,0,1,69.55,111.7Z"/><path class="cls-1" d="M71.05,110.75a9.7,9.7,0,0,1,.73,5.33,6.32,6.32,0,0,1-2.4,3.78s-1.8-4-.91-5.77A12.63,12.63,0,0,1,71.05,110.75Z"/><path class="cls-1" d="M71.47,112.73a5.38,5.38,0,0,1,.68,2.93A3.52,3.52,0,0,1,71,117.89s-1.21-2.11-.8-3.17A7.1,7.1,0,0,1,71.47,112.73Z"/><path class="cls-1" d="M72.45,112.41a6.06,6.06,0,0,1,.86,3.26,3.93,3.93,0,0,1-1.2,2.53s-1.42-2.32-1-3.52A8.12,8.12,0,0,1,72.45,112.41Z"/><path class="cls-1" d="M74.9,108.67s1.7,4.13.71,7.89a9.21,9.21,0,0,1-3.79,5.38s-2.38-5.93-.94-8.55A18.52,18.52,0,0,1,74.9,108.67Z"/><path class="cls-1" d="M75.4,112.24a6.77,6.77,0,0,1,0,3.77,4.45,4.45,0,0,1-2,2.38s-.86-2.92-.06-4.1A9,9,0,0,1,75.4,112.24Z"/><path class="cls-1" d="M77.17,110a11.62,11.62,0,0,1,0,6.48,7.51,7.51,0,0,1-3.48,4.12s-1.52-5-.16-7A15.5,15.5,0,0,1,77.17,110Z"/><path class="cls-1" d="M77.65,110.11a11.17,11.17,0,0,1,.58,6.17,7.19,7.19,0,0,1-2.93,4.22s-1.89-4.62-.78-6.68A14.86,14.86,0,0,1,77.65,110.11Z"/><path class="cls-1" d="M77.89,113.81a3.26,3.26,0,0,1,.09,1.81,2.12,2.12,0,0,1-.91,1.2s-.49-1.38-.14-2A4.33,4.33,0,0,1,77.89,113.81Z"/><path class="cls-1" d="M80.1,107.8s2,4.59,1,8.84a10.3,10.3,0,0,1-4.08,6.16s-2.86-6.58-1.33-9.57A20.91,20.91,0,0,1,80.1,107.8Z"/><path class="cls-1" d="M79.66,111.43a8.09,8.09,0,0,1,1.32,4.3,5.27,5.27,0,0,1-1.47,3.45s-2-3-1.54-4.65A10.47,10.47,0,0,1,79.66,111.43Z"/><path class="cls-1" d="M81.09,113.3a4.29,4.29,0,0,1,.2,2.4,2.77,2.77,0,0,1-1.15,1.63s-.72-1.81-.28-2.6A5.55,5.55,0,0,1,81.09,113.3Z"/><path class="cls-1" d="M81.75,110.76a9.52,9.52,0,0,1,1.56,5,6.14,6.14,0,0,1-1.71,4s-2.38-3.53-1.81-5.44A12.44,12.44,0,0,1,81.75,110.76Z"/><path class="cls-1" d="M82.87,112.2a6.48,6.48,0,0,1,.94,3.49,4.21,4.21,0,0,1-1.27,2.72s-1.54-2.48-1.11-3.77A8.53,8.53,0,0,1,82.87,112.2Z"/><path class="cls-1" d="M85.82,108.74s1.4,4.29.13,8a9.27,9.27,0,0,1-4.2,5.14s-2-6.13-.33-8.67A18.94,18.94,0,0,1,85.82,108.74Z"/><path class="cls-1" d="M85.07,114.21a2.38,2.38,0,0,1,.07,1.33,1.57,1.57,0,0,1-.67.88s-.36-1-.1-1.44A3.06,3.06,0,0,1,85.07,114.21Z"/><path class="cls-1" d="M86.89,110.51a10.3,10.3,0,0,1,.59,5.67,6.61,6.61,0,0,1-2.67,3.92S83,115.86,84,114A13.22,13.22,0,0,1,86.89,110.51Z"/><path class="cls-1" d="M87.62,112.19a6.69,6.69,0,0,1,.31,3.72,4.35,4.35,0,0,1-1.8,2.52s-1.11-2.8-.42-4A8.88,8.88,0,0,1,87.62,112.19Z"/><path class="cls-1" d="M88.69,112a7.14,7.14,0,0,1,.35,3.93,4.61,4.61,0,0,1-1.89,2.68s-1.18-3-.47-4.25A9.37,9.37,0,0,1,88.69,112Z"/><path class="cls-1" d="M89.12,114.2a2.37,2.37,0,0,1,.2,1.29,1.52,1.52,0,0,1-.56.94s-.46-1-.25-1.4A3,3,0,0,1,89.12,114.2Z"/><path class="cls-1" d="M91.85,108.38s1.66,4.39.51,8.31a9.68,9.68,0,0,1-4.13,5.54s-2.33-6.3-.75-9A19.65,19.65,0,0,1,91.85,108.38Z"/><path class="cls-1" d="M91.09,110.13a10.84,10.84,0,0,1,1.84,5.72,7,7,0,0,1-1.9,4.61s-2.75-4-2.13-6.16A14.3,14.3,0,0,1,91.09,110.13Z"/><path class="cls-1" d="M92.08,113.7a3.29,3.29,0,0,1,.57,1.78,2.16,2.16,0,0,1-.59,1.44s-.86-1.24-.66-1.92A4.31,4.31,0,0,1,92.08,113.7Z"/><path class="cls-1" d="M93.76,113.36a4.29,4.29,0,0,1,0,2.39,2.76,2.76,0,0,1-1.29,1.52s-.55-1.85,0-2.6A5.73,5.73,0,0,1,93.76,113.36Z"/><path class="cls-1" d="M95.84,110.35a11,11,0,0,1,0,6.08,7.07,7.07,0,0,1-3.28,3.84s-1.4-4.7-.11-6.6A14.22,14.22,0,0,1,95.84,110.35Z"/><path class="cls-1" d="M95.9,111a9,9,0,0,1,.8,5,5.82,5.82,0,0,1-2.16,3.57s-1.77-3.64-1-5.36A11.91,11.91,0,0,1,95.9,111Z"/><path class="cls-1" d="M96.39,111.16a8.69,8.69,0,0,1,1.36,4.62,5.58,5.58,0,0,1-1.61,3.66s-2.13-3.25-1.59-5A11.17,11.17,0,0,1,96.39,111.16Z"/><path class="cls-1" d="M98.61,109.24a13,13,0,0,1,.78,7.16,8.36,8.36,0,0,1-3.35,5s-2.27-5.34-1-7.75A17,17,0,0,1,98.61,109.24Z"/><path class="cls-1" d="M98.42,113.84a3,3,0,0,1,.42,1.66,2,2,0,0,1-.62,1.28s-.71-1.18-.49-1.79A4,4,0,0,1,98.42,113.84Z"/><path class="cls-1" d="M100.24,107.74s2.43,4.35,1.83,8.64a10.27,10.27,0,0,1-3.47,6.46s-3.43-6.24-2.18-9.33A21,21,0,0,1,100.24,107.74Z"/><path class="cls-1" d="M101.09,108.86a13.54,13.54,0,0,1,1.63,7.34,8.72,8.72,0,0,1-2.9,5.53s-3-5.28-1.94-7.93A17.75,17.75,0,0,1,101.09,108.86Z"/><path class="cls-1" d="M102,112.19a6.6,6.6,0,0,1,.58,3.63,4.27,4.27,0,0,1-1.57,2.6s-1.3-2.66-.72-3.92A9,9,0,0,1,102,112.19Z"/><path class="cls-1" d="M104.49,109.56a12.65,12.65,0,0,1-.08,7.06,8.22,8.22,0,0,1-3.83,4.44s-1.59-5.47-.08-7.67A16.83,16.83,0,0,1,104.49,109.56Z"/><path class="cls-1" d="M103.73,114a2.71,2.71,0,0,1,.25,1.51,1.73,1.73,0,0,1-.65,1.09s-.54-1.1-.31-1.63A3.55,3.55,0,0,1,103.73,114Z"/><path class="cls-1" d="M105.31,111.74a7.61,7.61,0,0,1,.5,4.2,4.91,4.91,0,0,1-1.93,2.93s-1.37-3.12-.64-4.54A10.21,10.21,0,0,1,105.31,111.74Z"/><path class="cls-1" d="M107,108.44s1.88,4.18,1,8.07a9.47,9.47,0,0,1-3.71,5.65s-2.64-6-1.26-8.74A19.12,19.12,0,0,1,107,108.44Z"/><path class="cls-1" d="M107.71,111.54a8.18,8.18,0,0,1,.23,4.54,5.23,5.23,0,0,1-2.28,3s-1.24-3.45-.36-4.92A10.72,10.72,0,0,1,107.71,111.54Z"/><path class="cls-1" d="M108.39,112.93a5.13,5.13,0,0,1,.12,2.88A3.35,3.35,0,0,1,107,117.7s-.76-2.2-.19-3.13A6.66,6.66,0,0,1,108.39,112.93Z"/><path class="cls-1" d="M110,108.58s1.9,4.06,1.09,7.87a9.26,9.26,0,0,1-3.52,5.57s-2.68-5.82-1.37-8.51A18.64,18.64,0,0,1,110,108.58Z"/><path class="cls-1" d="M110.16,108.92a13.36,13.36,0,0,1,1.94,7.16,8.61,8.61,0,0,1-2.6,5.58s-3.17-5.07-2.27-7.72A17.52,17.52,0,0,1,110.16,108.92Z"/><path class="cls-1" d="M112.8,107.87s1.8,4.7.58,8.9a10.36,10.36,0,0,1-4.4,6s-2.53-6.74-.84-9.66A20.9,20.9,0,0,1,112.8,107.87Z"/><path class="cls-1" d="M112.28,108.19s2.5,3.93,2.18,8a9.6,9.6,0,0,1-2.9,6.23s-3.54-5.65-2.55-8.6A19.64,19.64,0,0,1,112.28,108.19Z"/><path class="cls-1" d="M113.55,111.65a7.71,7.71,0,0,1,.64,4.26,5,5,0,0,1-1.87,3s-1.49-3.14-.8-4.61A10.11,10.11,0,0,1,113.55,111.65Z"/><path class="cls-1" d="M114.23,109.27a12.65,12.65,0,0,1,1.93,6.74,8.16,8.16,0,0,1-2.4,5.31s-3.06-4.76-2.24-7.28A16.52,16.52,0,0,1,114.23,109.27Z"/><path class="cls-1" d="M116.12,110.88a9.53,9.53,0,0,1,.4,5.29,6.2,6.2,0,0,1-2.59,3.56s-1.53-4-.55-5.73A12.75,12.75,0,0,1,116.12,110.88Z"/><path class="cls-1" d="M116.3,113.53a3.74,3.74,0,0,1,.36,2.06,2.4,2.4,0,0,1-.87,1.5s-.76-1.5-.45-2.22A4.84,4.84,0,0,1,116.3,113.53Z"/><path class="cls-1" d="M117.87,109.19a12.87,12.87,0,0,1,1.39,7,8.32,8.32,0,0,1-2.88,5.2s-2.71-5.1-1.67-7.59A17,17,0,0,1,117.87,109.19Z"/><path class="cls-1" d="M118.43,109a13.22,13.22,0,0,1,2,7.08,8.58,8.58,0,0,1-2.53,5.57s-3.19-5-2.33-7.64A17.24,17.24,0,0,1,118.43,109Z"/><path class="cls-1" d="M120.58,108.53s1.84,4.14,1,8a9.32,9.32,0,0,1-3.67,5.57s-2.6-5.93-1.22-8.63A19,19,0,0,1,120.58,108.53Z"/><path class="cls-1" d="M120.26,114.4a1.89,1.89,0,0,1,.27,1,1.25,1.25,0,0,1-.39.8s-.44-.74-.31-1.12A2.36,2.36,0,0,1,120.26,114.4Z"/><path class="cls-1" d="M121.38,112.66a5.57,5.57,0,0,1,.83,3,3.61,3.61,0,0,1-1.07,2.32s-1.33-2.1-1-3.2A7.25,7.25,0,0,1,121.38,112.66Z"/><path class="cls-1" d="M122.34,109.63a11.91,11.91,0,0,1,2,6.26,7.61,7.61,0,0,1-2.06,5.06s-3-4.35-2.36-6.74A15.7,15.7,0,0,1,122.34,109.63Z"/><path class="cls-1" d="M124.73,108.46s1.88,4.17,1,8.05a9.4,9.4,0,0,1-3.68,5.63s-2.64-6-1.26-8.71A19.16,19.16,0,0,1,124.73,108.46Z"/><path class="cls-1" d="M124.5,110.17a10.73,10.73,0,0,1,1.76,5.7,6.89,6.89,0,0,1-2,4.55s-2.68-4-2-6.14A14.1,14.1,0,0,1,124.5,110.17Z"/><path class="cls-1" d="M125.74,111.43a8.09,8.09,0,0,1,1.07,4.39,5.23,5.23,0,0,1-1.67,3.36s-1.85-3.14-1.27-4.74A10.75,10.75,0,0,1,125.74,111.43Z"/><path class="cls-1" d="M126.86,111.36a8.21,8.21,0,0,1,1,4.49,5.35,5.35,0,0,1-1.76,3.4s-1.83-3.23-1.21-4.86A10.91,10.91,0,0,1,126.86,111.36Z"/><path class="cls-1" d="M128.91,109.52a12.4,12.4,0,0,1,.59,6.89,8,8,0,0,1-3.32,4.68s-2.06-5.18-.8-7.46A16.52,16.52,0,0,1,128.91,109.52Z"/><path class="cls-1" d="M130,109.23a12.73,12.73,0,0,1,1.76,6.84,8.28,8.28,0,0,1-2.56,5.29s-2.95-4.87-2.07-7.39A16.76,16.76,0,0,1,130,109.23Z"/></svg>