<svg id="Layer_1" data-name="Layer 1" xmlns="http://www.w3.org/2000/svg" viewBox="0 0 128 128"><defs><style>.cls-1{fill:#32e785;}.cls-2{fill:#7cffa0;}</style></defs><rect class="cls-1" width="128" height="128"/><path class="cls-2" d="M98.74,107.76a9.36,9.36,0,0,1,1.21-3.63c1.21-2.42,6.06-1.21,6.06-1.21a28.32,28.32,0,0,1-3.64,3.63A17.37,17.37,0,0,1,98.74,107.76Z"/><path class="cls-2" d="M46.06,38.84a9.36,9.36,0,0,1,1.21-3.63C48.49,32.79,53.33,34,53.33,34a28.11,28.11,0,0,1-3.63,3.63A17.58,17.58,0,0,1,46.06,38.84Z"/><path class="cls-2" d="M92.82,106.4a8.56,8.56,0,0,1,.55-4.69A5.46,5.46,0,0,1,96.24,99s.67,3.74-.49,5.1A11.32,11.32,0,0,1,92.82,106.4Z"/><path class="cls-2" d="M45.45,80.22a9.36,9.36,0,0,1,1.21-3.63c1.21-2.42,6.05-1.21,6.05-1.21A28.11,28.11,0,0,1,49.08,79,17.37,17.37,0,0,1,45.45,80.22Z"/><path class="cls-2" d="M39.53,78.86a8.45,8.45,0,0,1,.55-4.69,5.47,5.47,0,0,1,2.86-2.68s.67,3.75-.49,5.1A10.93,10.93,0,0,1,39.53,78.86Z"/><path class="cls-2" d="M91.36,106.4a16.79,16.79,0,0,1-3.65-4.33,14.5,14.5,0,0,1-1-5.6s3.66,2,4.14,3.9A37,37,0,0,1,91.36,106.4Z"/><path class="cls-2" d="M87.58,106.4c-.06-.37-.73-4.08-2.56-4.51a23.48,23.48,0,0,0-5.66,0,23.7,23.7,0,0,0,4.11,3.3A20.88,20.88,0,0,0,87.58,106.4Z"/><path class="cls-2" d="M106.17,23.74a8.56,8.56,0,0,1,.55-4.69,5.51,5.51,0,0,1,2.87-2.68s.67,3.75-.49,5.1A11.07,11.07,0,0,1,106.17,23.74Z"/><path class="cls-2" d="M104.71,23.74a16.6,16.6,0,0,1-3.65-4.33,14.5,14.5,0,0,1-1-5.6s3.66,1.95,4.14,3.9A37,37,0,0,1,104.71,23.74Z"/><path class="cls-2" d="M100.93,23.74c-.06-.36-.73-4.08-2.55-4.51a24.11,24.11,0,0,0-5.67,0,23.7,23.7,0,0,0,4.11,3.3A20.88,20.88,0,0,0,100.93,23.74Z"/><path class="cls-2" d="M38.58,38.62a16.67,16.67,0,0,1-3.65-4.32,14.56,14.56,0,0,1-1-5.61s3.66,1.95,4.15,3.9A37.8,37.8,0,0,1,38.58,38.62Z"/><path class="cls-2" d="M34.81,38.62c-.06-.36-.74-4.08-2.56-4.51a24.11,24.11,0,0,0-5.67,0,23.7,23.7,0,0,0,4.11,3.3A21.1,21.1,0,0,0,34.81,38.62Z"/></svg>