<?xml version="1.0" encoding="utf-8"?>
<!-- Generator: Adobe Illustrator 24.2.3, SVG Export Plug-In . SVG Version: 6.00 Build 0)  -->
<svg version="1.1" id="Layer_1" xmlns="http://www.w3.org/2000/svg" xmlns:xlink="http://www.w3.org/1999/xlink" x="0px" y="0px"
	 viewBox="0 0 128 128" style="enable-background:new 0 0 128 128;" xml:space="preserve">
<style type="text/css">
	.st0{opacity:0.4;fill:#004D51;enable-background:new    ;}
	.st1{fill:url(#SVGID_1_);}
	.st2{fill:#006837;}
	.st3{fill:url(#SVGID_2_);}
	.st4{fill:url(#SVGID_3_);}
	.st5{fill:url(#SVGID_4_);}
	.st6{fill:url(#SVGID_5_);}
	.st7{fill:url(#SVGID_6_);}
	.st8{fill:url(#SVGID_7_);}
	.st9{fill:url(#SVGID_8_);}
	.st10{fill:url(#SVGID_9_);}
	.st11{fill:url(#SVGID_10_);}
	.st12{fill:url(#SVGID_11_);}
	.st13{fill:url(#SVGID_12_);}
	.st14{fill:url(#SVGID_13_);}
	.st15{fill:url(#SVGID_14_);}
	.st16{fill:url(#SVGID_15_);}
	.st17{fill:url(#SVGID_16_);}
	.st18{fill:url(#SVGID_17_);}
	.st19{fill:url(#SVGID_18_);}
	.st20{fill:url(#SVGID_19_);}
	.st21{fill:url(#SVGID_20_);}
	.st22{fill:url(#SVGID_21_);}
	.st23{fill:url(#SVGID_22_);}
	.st24{fill:url(#SVGID_23_);}
	.st25{fill:url(#SVGID_24_);}
	.st26{fill:url(#SVGID_25_);}
	.st27{fill:url(#SVGID_26_);}
	.st28{fill:url(#SVGID_27_);}
	.st29{fill:url(#SVGID_28_);}
	.st30{fill:url(#SVGID_29_);}
	.st31{fill:url(#SVGID_30_);}
	.st32{fill:url(#SVGID_31_);}
	.st33{fill:url(#SVGID_32_);}
</style>
<ellipse class="st0" cx="94" cy="46" rx="24" ry="15"/>
<linearGradient id="SVGID_1_" gradientUnits="userSpaceOnUse" x1="110.6758" y1="100.8618" x2="98.4137" y2="106.9228" gradientTransform="matrix(1 0 0 -1 0 130)">
	<stop  offset="0" style="stop-color:#559F66"/>
	<stop  offset="1" style="stop-color:#7EDCA7"/>
</linearGradient>
<path class="st1" d="M97,33.1c0-0.5,0.1-12.9,5.9-15.8c1.1-0.5,2.3-0.8,3.5-0.8c4.4,0,8,3.6,8.2,3.7l0.3,0.4l-0.3,0.4
	c-2.6,2.6-5.4,4.9-8.4,7L97,34V33.1z"/>
<path class="st2" d="M106.4,17c4.3,0,7.8,3.6,7.8,3.6c-2.6,2.6-5.4,4.9-8.4,7l-8.4,5.6c0,0,0-12.5,5.6-15.3
	C104.1,17.3,105.2,17,106.4,17 M106.4,16L106.4,16c-1.3,0-2.6,0.3-3.8,0.9c-6.1,3-6.1,15.7-6.1,16.2V35l1.6-1l8.4-5.6
	c3-2.1,5.9-4.5,8.5-7.1l0.7-0.7l-0.7-0.7C114.8,19.8,111,16.1,106.4,16L106.4,16z"/>
<linearGradient id="SVGID_2_" gradientUnits="userSpaceOnUse" x1="104.0235" y1="104.387" x2="90.1519" y2="111.2327" gradientTransform="matrix(1 0 0 -1 0 130)">
	<stop  offset="0" style="stop-color:#559F66"/>
	<stop  offset="1" style="stop-color:#7EDCA7"/>
</linearGradient>
<path class="st3" d="M91.5,27.8c-0.1-0.3-2.7-6.2,0-11.6c1.7-3.4,4.1-6.3,7.1-8.6l0.6-0.4l0.2,0.7c0.1,0.5,2.2,11.1,1.8,15.4
	S98.1,37,98,37.4l-0.3,1.1L91.5,27.8z"/>
<path class="st2" d="M98.9,8c0,0,2.2,11,1.8,15.2s-3.2,14-3.2,14l-5.6-9.8c0,0-2.7-5.9,0-11.2C93.5,13,95.9,10.2,98.9,8 M99.6,6.3
	l-1.2,0.8c-3.1,2.3-5.6,5.3-7.3,8.8c-2.8,5.6-0.1,11.8,0,12l0,0l0,0l5.6,9.8l1.2,2.1l0.7-2.3c0.1-0.4,2.8-9.9,3.2-14.2
	s-1.7-15-1.8-15.5L99.6,6.3L99.6,6.3z"/>
<linearGradient id="SVGID_3_" gradientUnits="userSpaceOnUse" x1="96.2588" y1="75.41" x2="96.2588" y2="94.67" gradientTransform="matrix(1 0 0 -1 0 130)">
	<stop  offset="0" style="stop-color:#61A14F"/>
	<stop  offset="1" style="stop-color:#2A6017"/>
</linearGradient>
<path class="st4" d="M94.4,54.4c-0.3-0.2-7.2-5.8-7.2-10.2s4.2-8.5,4.3-8.7l0.2-0.2l13,3l0.1,0.2c0.9,3,0.4,6.2-1.3,8.7
	c-2.8,4.2-8.3,7-8.6,7.1l-0.3,0.1L94.4,54.4z"/>
<path class="st2" d="M91.9,35.9l12.4,2.9c0.8,2.8,0.4,5.8-1.3,8.2c-2.8,4.2-8.4,7-8.4,7s-7-5.6-7-9.8S91.9,35.9,91.9,35.9
	 M91.6,34.8l-0.4,0.4c-0.2,0.2-4.5,4.5-4.5,9.1s6.6,9.9,7.3,10.5l0.5,0.4l0.6-0.3c0.2-0.1,5.8-3,8.8-7.3c1.8-2.7,2.3-6,1.4-9.1
	l-0.2-0.5l-0.5-0.1l-12.4-2.9C92.1,34.9,91.6,34.8,91.6,34.8z"/>
<linearGradient id="SVGID_4_" gradientUnits="userSpaceOnUse" x1="73.9461" y1="81.9565" x2="95.8961" y2="91.7965" gradientTransform="matrix(1 0 0 -1 0 130)">
	<stop  offset="0" style="stop-color:#61A14F"/>
	<stop  offset="1" style="stop-color:#2A6017"/>
</linearGradient>
<path class="st5" d="M82.4,48.2c-2,0-4-0.2-5.9-0.6l-0.6-0.2l0.3-0.5c0.2-0.3,4.3-8.6,10.1-10c1.1-0.3,2.2-0.4,3.3-0.4
	c2.4,0,4.8,0.6,6.9,1.9l0.3,0.2l-0.2,0.4c-0.1,0.3-3,7.2-8.7,8.7C86.1,48,84.2,48.2,82.4,48.2z"/>
<path class="st2" d="M89.5,36.9c2.3,0,4.6,0.6,6.6,1.8c0,0-2.8,7-8.4,8.4c-1.8,0.4-3.6,0.6-5.4,0.6c-1.9,0-3.9-0.2-5.8-0.7
	c0,0,4.2-8.4,9.8-9.8C87.4,37,88.4,36.9,89.5,36.9 M89.5,35.8L89.5,35.8c-1.1,0-2.3,0.1-3.4,0.4c-6,1.5-10.2,9.9-10.4,10.3l-0.6,1.1
	l1.2,0.3c2,0.4,4,0.7,6,0.7c1.9,0,3.8-0.2,5.7-0.6c6-1.5,8.9-8.7,9-9l0.3-0.8l-0.7-0.5C94.5,36.5,92,35.8,89.5,35.8L89.5,35.8z"/>
<linearGradient id="SVGID_5_" gradientUnits="userSpaceOnUse" x1="122.2818" y1="79.284" x2="97.9618" y2="90.454" gradientTransform="matrix(1 0 0 -1 0 130)">
	<stop  offset="0" style="stop-color:#61A14F"/>
	<stop  offset="1" style="stop-color:#2A6017"/>
</linearGradient>
<path class="st6" d="M107.8,48.2c-1.7,0-3.3-0.2-4.9-0.7c-4.3-1.4-8.5-8.3-8.6-8.6l-0.4-0.6l0.7-0.1c2.5-0.4,5-0.6,7.5-0.6
	c1.8-0.1,3.6,0.2,5.3,0.6c4.3,1.5,7.2,8.4,7.3,8.6l0.2,0.6l-0.6,0.1C112.2,47.9,110,48.1,107.8,48.2z"/>
<path class="st2" d="M102.1,38c1.7-0.1,3.4,0.2,5.1,0.6c4.2,1.4,7,8.4,7,8.4c-2.1,0.4-4.3,0.6-6.4,0.6c-1.6,0-3.2-0.2-4.8-0.6
	c-4.2-1.4-8.4-8.4-8.4-8.4C97.2,38.3,99.7,38.1,102.1,38 M102.2,37L102.2,37c-2.5,0-5.1,0.2-7.6,0.6l-1.4,0.2l0.8,1.3
	c0.2,0.3,4.4,7.3,8.9,8.8c1.6,0.5,3.4,0.7,5.1,0.7c2.2,0,4.4-0.2,6.6-0.6l1.2-0.2l-0.4-1.1c-0.1-0.3-3-7.4-7.6-8.9
	C105.8,37.2,104,37,102.2,37z"/>
<linearGradient id="SVGID_6_" gradientUnits="userSpaceOnUse" x1="94.0587" y1="91.0767" x2="117.0353" y2="101.3752" gradientTransform="matrix(1 0 0 -1 0 130)">
	<stop  offset="0" style="stop-color:#246525"/>
	<stop  offset="1" style="stop-color:#83CA99"/>
</linearGradient>
<path class="st7" d="M101.5,39.8c-2.3,0-4.6-0.2-6.9-0.6l-0.5-0.1l0.1-0.5c0-0.1,1.5-8.5,9.4-10c1.6-0.3,3.1-0.5,4.7-0.5
	c3-0.1,6.1,0.6,8.9,1.8l0.5,0.2l-0.3,0.5c-0.2,0.3-4.4,7.2-10.1,8.6C105.4,39.6,103.5,39.8,101.5,39.8z"/>
<path class="st2" d="M108.4,28.6c3,0,5.9,0.5,8.6,1.7c0,0-4.2,7-9.8,8.4c-1.9,0.4-3.8,0.6-5.7,0.6c-2.3,0-4.6-0.2-6.8-0.6
	c0,0,1.3-8.1,9-9.6C105.2,28.7,106.8,28.6,108.4,28.6 M108.3,27.6L108.3,27.6c-1.6,0-3.2,0.2-4.8,0.5c-8.3,1.6-9.8,10.3-9.8,10.4
	l-0.2,1l1,0.2c2.3,0.4,4.7,0.6,7,0.6c2,0,4-0.2,6-0.7c5.9-1.5,10.2-8.5,10.4-8.8l0.6-0.9l-1-0.5C114.6,28.2,111.5,27.6,108.3,27.6
	L108.3,27.6z"/>
<linearGradient id="SVGID_7_" gradientUnits="userSpaceOnUse" x1="95.4839" y1="92.9076" x2="71.2839" y2="104.8476" gradientTransform="matrix(1 0 0 -1 0 130)">
	<stop  offset="0" style="stop-color:#246525"/>
	<stop  offset="1" style="stop-color:#83CA99"/>
</linearGradient>
<path class="st8" d="M87.8,39.5c-1,0-2-0.1-2.9-0.3c-7.1-1.4-14-11-14.2-11.4l-0.4-0.5l0.6-0.2c0.3-0.1,7.3-3.1,12-3.1
	c0.8,0,1.5,0.1,2.2,0.3c4.3,1.4,11.1,10.9,11.4,11.3l0.2,0.3l-0.3,0.3C94,38.3,90.9,39.5,87.8,39.5z"/>
<path class="st2" d="M82.8,24.4c0.7,0,1.4,0.1,2.1,0.3c4.2,1.4,11.2,11.1,11.2,11.1c-2.3,2-5.3,3.1-8.3,3.1c-0.9,0-1.9-0.1-2.8-0.3
	C78,37.3,71,27.5,71,27.5S78.2,24.4,82.8,24.4 M82.8,23.4L82.8,23.4c-4.8,0-11.9,3-12.2,3.2l-1.2,0.5l0.7,1
	c0.3,0.4,7.3,10.1,14.6,11.5c1,0.2,2,0.3,3,0.3c3.3,0,6.5-1.2,9-3.4l0.6-0.6l-0.5-0.7c-0.7-1-7.3-10.1-11.6-11.5
	C84.4,23.5,83.6,23.4,82.8,23.4L82.8,23.4z"/>
<linearGradient id="SVGID_8_" gradientUnits="userSpaceOnUse" x1="99.5665" y1="99.2814" x2="75.8015" y2="111.0139" gradientTransform="matrix(1 0 0 -1 0 130)">
	<stop  offset="0" style="stop-color:#559F66"/>
	<stop  offset="1" style="stop-color:#7EDCA7"/>
</linearGradient>
<path class="st9" d="M95.7,36.2c-2.6-2.5-5.3-4.8-8.3-6.9c-4.2-2.8-10.9-9.5-11.2-9.8L75.8,19l0.6-0.3c2.3-1.3,4.9-1.9,7.5-1.9
	c2.5,0,4.9,0.7,7,1.9c7.2,4.3,5.9,16.7,5.8,17.2l-0.1,1L95.7,36.2z"/>
<path class="st2" d="M83.8,17.3c2.4,0,4.7,0.6,6.7,1.9c7,4.2,5.6,16.7,5.6,16.7c-2.6-2.6-5.4-4.9-8.4-7c-4.2-2.8-11.2-9.8-11.2-9.8
	C78.8,17.9,81.3,17.3,83.8,17.3 M83.8,16.3c-2.7,0-5.4,0.7-7.7,2L75,19l0.9,0.9c0.3,0.3,7.1,7.1,11.3,9.9c2.9,2,5.7,4.3,8.2,6.8
	l1.5,1.5l0.2-2.1c0.1-0.5,1.4-13.2-6-17.7C88.9,17,86.4,16.3,83.8,16.3L83.8,16.3z"/>
<ellipse class="st0" cx="37" cy="46" rx="24" ry="15"/>
<linearGradient id="SVGID_9_" gradientUnits="userSpaceOnUse" x1="53.6758" y1="100.8618" x2="41.4137" y2="106.9228" gradientTransform="matrix(1 0 0 -1 0 130)">
	<stop  offset="0" style="stop-color:#559F66"/>
	<stop  offset="1" style="stop-color:#7EDCA7"/>
</linearGradient>
<path class="st10" d="M40,33.1c0-0.5,0.1-12.9,5.9-15.8c1.1-0.5,2.3-0.8,3.5-0.8c4.4,0,8,3.6,8.2,3.7l0.3,0.4l-0.3,0.4
	c-2.6,2.6-5.4,4.9-8.4,7L40,34V33.1z"/>
<path class="st2" d="M49.4,17c4.3,0,7.8,3.6,7.8,3.6c-2.6,2.6-5.4,4.9-8.4,7l-8.4,5.6c0,0,0-12.5,5.6-15.3
	C47.1,17.3,48.2,17,49.4,17 M49.4,16L49.4,16c-1.3,0-2.6,0.3-3.8,0.9c-6.1,3-6.1,15.7-6.1,16.2V35l1.6-1l8.4-5.6
	c3-2.1,5.9-4.5,8.5-7.1l0.7-0.7l-0.7-0.7C57.8,19.7,54,16,49.4,16L49.4,16z"/>
<linearGradient id="SVGID_10_" gradientUnits="userSpaceOnUse" x1="47.0235" y1="104.387" x2="33.1519" y2="111.2327" gradientTransform="matrix(1 0 0 -1 0 130)">
	<stop  offset="0" style="stop-color:#559F66"/>
	<stop  offset="1" style="stop-color:#7EDCA7"/>
</linearGradient>
<path class="st11" d="M34.5,27.8c-0.1-0.3-2.7-6.2,0-11.6c1.7-3.4,4.1-6.3,7.1-8.6l0.6-0.4l0.2,0.7c0.1,0.5,2.2,11.1,1.8,15.4
	S41.1,37,41,37.4l-0.3,1.1L34.5,27.8z"/>
<path class="st2" d="M41.9,8c0,0,2.2,11,1.8,15.2s-3.2,14-3.2,14l-5.6-9.8c0,0-2.7-5.9,0-11.2C36.5,13,38.9,10.2,41.9,8 M42.6,6.3
	l-1.2,0.8c-3.1,2.3-5.6,5.3-7.4,8.8c-2.8,5.6-0.1,11.8,0,12l0,0l0,0l5.6,9.8l1.2,2.1l0.7-2.3c0.1-0.4,2.8-9.9,3.2-14.2
	S43,8.3,42.9,7.8L42.6,6.3L42.6,6.3z"/>
<linearGradient id="SVGID_11_" gradientUnits="userSpaceOnUse" x1="39.2588" y1="75.41" x2="39.2588" y2="94.67" gradientTransform="matrix(1 0 0 -1 0 130)">
	<stop  offset="0" style="stop-color:#61A14F"/>
	<stop  offset="1" style="stop-color:#2A6017"/>
</linearGradient>
<path class="st12" d="M37.4,54.4c-0.3-0.2-7.1-5.8-7.1-10.2s4.1-8.5,4.3-8.7l0.2-0.2l13,3l0.1,0.2c0.9,3,0.4,6.2-1.3,8.7
	c-2.8,4.2-8.3,7-8.6,7.1l-0.3,0.1L37.4,54.4z"/>
<path class="st2" d="M34.9,35.9l12.4,2.9c0.8,2.8,0.4,5.8-1.3,8.2c-2.8,4.2-8.4,7-8.4,7s-7-5.6-7-9.8S34.9,35.9,34.9,35.9
	 M34.6,34.8l-0.4,0.4c-0.2,0.2-4.5,4.5-4.5,9.1s6.6,9.9,7.3,10.5l0.5,0.4l0.6-0.3c0.2-0.1,5.8-3,8.8-7.3c1.8-2.7,2.3-6,1.4-9.1
	l-0.2-0.5l-0.5-0.1l-12.4-2.9C35.1,34.9,34.6,34.8,34.6,34.8z"/>
<linearGradient id="SVGID_12_" gradientUnits="userSpaceOnUse" x1="16.9461" y1="81.9565" x2="38.8961" y2="91.7965" gradientTransform="matrix(1 0 0 -1 0 130)">
	<stop  offset="0" style="stop-color:#61A14F"/>
	<stop  offset="1" style="stop-color:#2A6017"/>
</linearGradient>
<path class="st13" d="M25.4,48.2c-2,0-4-0.2-5.9-0.6l-0.6-0.2l0.3-0.5c0.2-0.3,4.4-8.6,10.1-10c1.1-0.3,2.2-0.4,3.3-0.4
	c2.4,0,4.8,0.6,6.9,1.9l0.3,0.2l-0.2,0.4c-0.1,0.3-3,7.2-8.7,8.7C29.1,48,27.2,48.2,25.4,48.2z"/>
<path class="st2" d="M32.5,36.9c2.3,0,4.6,0.6,6.6,1.8c0,0-2.8,7-8.4,8.4c-1.8,0.4-3.6,0.6-5.4,0.6c-1.9,0-3.9-0.2-5.8-0.7
	c0,0,4.2-8.4,9.8-9.8C30.4,37,31.4,36.9,32.5,36.9 M32.5,35.8L32.5,35.8c-1.1,0-2.3,0.1-3.4,0.4c-5.9,1.5-10.2,9.9-10.4,10.3
	l-0.6,1.1l1.2,0.3c2,0.4,4,0.7,6,0.7c1.9,0,3.8-0.2,5.7-0.6c6-1.5,8.9-8.7,9-9l0.3-0.8l-0.7-0.5C37.5,36.5,35,35.8,32.5,35.8
	L32.5,35.8z"/>
<linearGradient id="SVGID_13_" gradientUnits="userSpaceOnUse" x1="65.2818" y1="79.284" x2="40.9618" y2="90.454" gradientTransform="matrix(1 0 0 -1 0 130)">
	<stop  offset="0" style="stop-color:#61A14F"/>
	<stop  offset="1" style="stop-color:#2A6017"/>
</linearGradient>
<path class="st14" d="M50.8,48.2c-1.7,0-3.3-0.2-4.9-0.7c-4.3-1.4-8.5-8.3-8.6-8.6l-0.4-0.6l0.7-0.1c2.5-0.4,5-0.6,7.5-0.6
	c1.8-0.1,3.6,0.2,5.3,0.6c4.3,1.5,7.2,8.4,7.3,8.6l0.2,0.6l-0.6,0.1C55.2,47.9,53,48.1,50.8,48.2z"/>
<path class="st2" d="M45.1,38c1.7-0.1,3.4,0.2,5.1,0.6c4.2,1.4,7,8.4,7,8.4c-2.1,0.4-4.3,0.6-6.4,0.6c-1.6,0-3.2-0.2-4.8-0.6
	c-4.2-1.4-8.4-8.4-8.4-8.4C40.2,38.3,42.6,38,45.1,38 M45.1,37L45.1,37c-2.5,0-5.1,0.2-7.6,0.6l-1.5,0.2l0.8,1.3
	c0.2,0.3,4.4,7.3,8.9,8.8c1.6,0.5,3.4,0.7,5.1,0.7c2.2,0,4.4-0.2,6.6-0.6l1.2-0.2l-0.5-1.1c-0.1-0.3-3-7.4-7.6-8.9
	C48.8,37.2,47,37,45.1,37z"/>
<linearGradient id="SVGID_14_" gradientUnits="userSpaceOnUse" x1="37.0587" y1="91.0767" x2="60.0353" y2="101.3752" gradientTransform="matrix(1 0 0 -1 0 130)">
	<stop  offset="0" style="stop-color:#246525"/>
	<stop  offset="1" style="stop-color:#83CA99"/>
</linearGradient>
<path class="st15" d="M44.5,39.8c-2.3,0-4.6-0.2-6.9-0.6l-0.5-0.1l0.1-0.5c0-0.1,1.5-8.5,9.4-10c1.6-0.3,3.1-0.5,4.7-0.5
	c3-0.1,6.1,0.6,8.9,1.8l0.5,0.2l-0.3,0.5c-0.2,0.3-4.4,7.2-10.1,8.6C48.4,39.6,46.5,39.8,44.5,39.8z"/>
<path class="st2" d="M51.4,28.6c3,0,5.9,0.5,8.6,1.7c0,0-4.2,7-9.8,8.4c-1.9,0.4-3.8,0.6-5.7,0.6c-2.3,0-4.6-0.2-6.8-0.6
	c0,0,1.3-8.1,9-9.6C48.2,28.7,49.8,28.6,51.4,28.6 M51.3,27.6L51.3,27.6c-1.6,0-3.2,0.2-4.8,0.5c-8.3,1.6-9.8,10.3-9.8,10.4l-0.2,1
	l1,0.2c2.3,0.4,4.7,0.6,7,0.6c2,0,4-0.2,6-0.7c5.9-1.5,10.2-8.5,10.4-8.8l0.5-0.9l-1-0.5C57.6,28.2,54.5,27.6,51.3,27.6L51.3,27.6z"
	/>
<linearGradient id="SVGID_15_" gradientUnits="userSpaceOnUse" x1="38.4888" y1="92.9175" x2="14.2888" y2="104.8575" gradientTransform="matrix(1 0 0 -1 0 130)">
	<stop  offset="0" style="stop-color:#246525"/>
	<stop  offset="1" style="stop-color:#83CA99"/>
</linearGradient>
<path class="st16" d="M30.8,39.5c-1,0-2-0.1-2.9-0.3c-7.1-1.4-14-11-14.2-11.4l-0.4-0.5l0.6-0.2c0.3-0.1,7.3-3.1,12.1-3.1
	c0.8,0,1.5,0.1,2.2,0.3c4.3,1.4,11.1,10.9,11.4,11.3l0.2,0.3l-0.3,0.3C37,38.3,33.9,39.5,30.8,39.5z"/>
<path class="st2" d="M25.9,24.4c0.7,0,1.4,0.1,2.1,0.3c4.2,1.4,11.1,11.1,11.1,11.1c-2.3,2-5.3,3.1-8.3,3.1c-0.9,0-1.9-0.1-2.8-0.3
	C21,37.3,14,27.5,14,27.5S21.2,24.4,25.9,24.4 M25.9,23.4L25.9,23.4c-4.8,0-11.9,3-12.2,3.2l-1.1,0.5l0.7,1
	c0.3,0.4,7.3,10.1,14.6,11.5c1,0.2,2,0.3,3,0.3c3.3,0,6.5-1.2,9-3.4l0.6-0.6l-0.5-0.7c-0.7-1-7.3-10.1-11.6-11.5
	C27.4,23.5,26.6,23.4,25.9,23.4L25.9,23.4z"/>
<linearGradient id="SVGID_16_" gradientUnits="userSpaceOnUse" x1="42.5665" y1="99.2814" x2="18.8015" y2="111.0139" gradientTransform="matrix(1 0 0 -1 0 130)">
	<stop  offset="0" style="stop-color:#559F66"/>
	<stop  offset="1" style="stop-color:#7EDCA7"/>
</linearGradient>
<path class="st17" d="M38.7,36.2c-2.6-2.5-5.3-4.8-8.3-6.9c-4.2-2.8-10.9-9.5-11.2-9.8L18.8,19l0.5-0.3c2.3-1.3,4.9-1.9,7.5-1.9
	c2.5,0,4.9,0.7,7,1.9c7.2,4.3,5.9,16.7,5.8,17.2l-0.1,1L38.7,36.2z"/>
<path class="st2" d="M26.8,17.3c2.4,0,4.7,0.6,6.7,1.9c7,4.2,5.6,16.7,5.6,16.7c-2.6-2.6-5.4-4.9-8.4-7c-4.2-2.8-11.1-9.8-11.1-9.8
	C21.8,17.9,24.3,17.3,26.8,17.3 M26.8,16.3c-2.7,0-5.4,0.7-7.7,2L18,19l0.9,0.9c0.3,0.3,7.1,7.1,11.3,9.9c2.9,2,5.7,4.3,8.2,6.8
	l1.5,1.5l0.2-2.1c0.1-0.5,1.4-13.2-6-17.7C31.9,17,29.4,16.3,26.8,16.3L26.8,16.3z"/>
<ellipse class="st0" cx="94" cy="102" rx="24" ry="15"/>
<linearGradient id="SVGID_17_" gradientUnits="userSpaceOnUse" x1="110.6758" y1="44.8618" x2="98.4137" y2="50.9228" gradientTransform="matrix(1 0 0 -1 0 130)">
	<stop  offset="0" style="stop-color:#559F66"/>
	<stop  offset="1" style="stop-color:#7EDCA7"/>
</linearGradient>
<path class="st18" d="M97,89.1c0-0.5,0.1-12.9,5.9-15.8c1.1-0.5,2.3-0.8,3.5-0.8c4.4,0,8,3.6,8.2,3.7l0.3,0.4l-0.3,0.3
	c-2.6,2.6-5.4,4.9-8.4,7L97,90V89.1z"/>
<path class="st2" d="M106.4,73c4.3,0,7.8,3.6,7.8,3.6c-2.6,2.6-5.4,4.9-8.4,7l-8.4,5.6c0,0,0-12.5,5.6-15.3
	C104.1,73.3,105.2,73,106.4,73 M106.4,72L106.4,72c-1.3,0-2.6,0.3-3.8,0.9c-6.1,3-6.1,15.7-6.1,16.2V91l1.6-1l8.4-5.6
	c3-2.1,5.9-4.5,8.5-7.1l0.7-0.7l-0.7-0.7C114.8,75.8,111,72.1,106.4,72L106.4,72z"/>
<linearGradient id="SVGID_18_" gradientUnits="userSpaceOnUse" x1="104.0254" y1="48.391" x2="90.1539" y2="55.2367" gradientTransform="matrix(1 0 0 -1 0 130)">
	<stop  offset="0" style="stop-color:#559F66"/>
	<stop  offset="1" style="stop-color:#7EDCA7"/>
</linearGradient>
<path class="st19" d="M91.5,83.8c-0.1-0.3-2.7-6.2,0-11.6c1.7-3.4,4.1-6.3,7.1-8.6l0.6-0.4l0.2,0.7c0.1,0.5,2.2,11.1,1.8,15.4
	S98.1,93,98,93.4l-0.3,1.1L91.5,83.8z"/>
<path class="st2" d="M98.9,64c0,0,2.2,11,1.8,15.2s-3.2,14-3.2,14l-5.6-9.8c0,0-2.7-5.9,0-11.2C93.5,69,95.9,66.2,98.9,64
	 M99.6,62.3l-1.2,0.8c-3.1,2.3-5.6,5.3-7.3,8.8c-2.8,5.7-0.1,11.8,0,12l0,0l0,0l5.6,9.8l1.2,2.1l0.7-2.3c0.1-0.4,2.8-9.9,3.2-14.2
	s-1.7-15-1.8-15.5L99.6,62.3L99.6,62.3z"/>
<linearGradient id="SVGID_19_" gradientUnits="userSpaceOnUse" x1="96.2588" y1="19.41" x2="96.2588" y2="38.67" gradientTransform="matrix(1 0 0 -1 0 130)">
	<stop  offset="0" style="stop-color:#61A14F"/>
	<stop  offset="1" style="stop-color:#2A6017"/>
</linearGradient>
<path class="st20" d="M94.4,110.4c-0.3-0.2-7.2-5.8-7.2-10.2s4.2-8.5,4.3-8.7l0.2-0.2l13,3l0.1,0.2c0.9,3,0.4,6.2-1.3,8.7
	c-2.8,4.2-8.3,7-8.6,7.1l-0.3,0.1L94.4,110.4z"/>
<path class="st2" d="M91.9,91.9l12.4,2.9c0.8,2.8,0.4,5.8-1.3,8.2c-2.8,4.2-8.4,7-8.4,7s-7-5.6-7-9.8S91.9,91.9,91.9,91.9
	 M91.6,90.8l-0.4,0.4c-0.2,0.2-4.5,4.5-4.5,9.1s6.6,9.9,7.3,10.5l0.5,0.4l0.6-0.3c0.2-0.1,5.8-3,8.8-7.3c1.8-2.7,2.3-6,1.4-9.2
	l-0.2-0.5l-0.5-0.1l-12.4-2.9L91.6,90.8z"/>
<linearGradient id="SVGID_20_" gradientUnits="userSpaceOnUse" x1="73.9461" y1="25.9565" x2="95.896" y2="35.7965" gradientTransform="matrix(1 0 0 -1 0 130)">
	<stop  offset="0" style="stop-color:#61A14F"/>
	<stop  offset="1" style="stop-color:#2A6017"/>
</linearGradient>
<path class="st21" d="M82.4,104.2c-2,0-4-0.2-5.9-0.6l-0.6-0.2l0.3-0.6c0.2-0.3,4.3-8.6,10.1-10c1.1-0.3,2.2-0.4,3.3-0.4
	c2.4,0,4.8,0.6,6.9,1.9l0.3,0.2l-0.2,0.4c-0.1,0.3-3,7.2-8.7,8.7C86.1,104,84.2,104.2,82.4,104.2z"/>
<path class="st2" d="M89.5,92.9c2.3,0,4.6,0.6,6.6,1.8c0,0-2.8,7-8.4,8.4c-1.8,0.4-3.6,0.6-5.4,0.6c-1.9,0-3.9-0.2-5.8-0.6
	c0,0,4.2-8.4,9.8-9.8C87.4,93,88.4,92.9,89.5,92.9 M89.5,91.9L89.5,91.9c-1.1,0-2.3,0.1-3.4,0.4c-6,1.5-10.2,9.9-10.4,10.3l-0.6,1.1
	l1.2,0.3c2,0.4,4,0.7,6,0.7c1.9,0,3.8-0.2,5.7-0.7c6-1.5,8.9-8.7,9-9l0.3-0.8l-0.7-0.4C94.5,92.5,92,91.8,89.5,91.9L89.5,91.9z"/>
<linearGradient id="SVGID_21_" gradientUnits="userSpaceOnUse" x1="122.2818" y1="23.284" x2="97.9618" y2="34.454" gradientTransform="matrix(1 0 0 -1 0 130)">
	<stop  offset="0" style="stop-color:#61A14F"/>
	<stop  offset="1" style="stop-color:#2A6017"/>
</linearGradient>
<path class="st22" d="M107.8,104.2c-1.7,0-3.3-0.2-4.9-0.7c-4.3-1.4-8.5-8.3-8.6-8.6l-0.4-0.6l0.7-0.1c2.5-0.4,5-0.6,7.5-0.6
	c1.8-0.1,3.6,0.2,5.3,0.6c4.3,1.4,7.2,8.4,7.3,8.7l0.2,0.6l-0.6,0.1C112.2,103.9,110,104.1,107.8,104.2z"/>
<path class="st2" d="M102.1,94.1c1.7-0.1,3.4,0.2,5.1,0.6c4.2,1.4,7,8.4,7,8.4c-2.1,0.4-4.3,0.6-6.4,0.6c-1.6,0-3.2-0.2-4.8-0.6
	c-4.2-1.4-8.4-8.4-8.4-8.4C97.2,94.3,99.7,94.1,102.1,94.1 M102.2,93.1L102.2,93.1c-2.5,0-5.1,0.2-7.6,0.6l-1.4,0.2l0.8,1.3
	c0.2,0.3,4.4,7.3,8.9,8.8c1.6,0.5,3.4,0.7,5.1,0.7c2.2,0,4.4-0.2,6.6-0.6l1.2-0.2l-0.4-1.1c-0.1-0.3-3-7.4-7.6-8.9
	C105.8,93.2,104,93,102.2,93.1z"/>
<linearGradient id="SVGID_22_" gradientUnits="userSpaceOnUse" x1="94.0587" y1="35.0767" x2="117.0353" y2="45.3752" gradientTransform="matrix(1 0 0 -1 0 130)">
	<stop  offset="0" style="stop-color:#246525"/>
	<stop  offset="1" style="stop-color:#83CA99"/>
</linearGradient>
<path class="st23" d="M101.5,95.8c-2.3,0-4.6-0.2-6.9-0.6l-0.5-0.1l0.1-0.5c0-0.1,1.5-8.5,9.4-10c1.6-0.3,3.1-0.5,4.7-0.5
	c3-0.1,6.1,0.6,8.9,1.8l0.5,0.2l-0.3,0.5c-0.2,0.3-4.4,7.2-10.1,8.6C105.4,95.6,103.5,95.8,101.5,95.8z"/>
<path class="st2" d="M108.4,84.6c3,0,5.9,0.5,8.6,1.7c0,0-4.2,7-9.8,8.4c-1.9,0.4-3.8,0.6-5.7,0.6c-2.3,0-4.6-0.2-6.8-0.6
	c0,0,1.3-8.1,9-9.6C105.2,84.7,106.8,84.6,108.4,84.6 M108.3,83.6L108.3,83.6c-1.6,0-3.2,0.2-4.8,0.5c-8.3,1.6-9.8,10.3-9.8,10.4
	l-0.2,1l1,0.2c2.3,0.4,4.7,0.6,7,0.6c2,0,4-0.2,6-0.7c5.9-1.5,10.2-8.5,10.4-8.8l0.6-0.9l-1-0.5C114.6,84.2,111.5,83.6,108.3,83.6
	L108.3,83.6z"/>
<linearGradient id="SVGID_23_" gradientUnits="userSpaceOnUse" x1="95.4844" y1="36.9087" x2="71.2844" y2="48.8487" gradientTransform="matrix(1 0 0 -1 0 130)">
	<stop  offset="0" style="stop-color:#246525"/>
	<stop  offset="1" style="stop-color:#83CA99"/>
</linearGradient>
<path class="st24" d="M87.8,95.4c-1,0-2-0.1-2.9-0.3c-7.1-1.4-14-11-14.2-11.3l-0.4-0.5l0.6-0.2c0.3-0.1,7.3-3.1,12-3.1
	c0.8,0,1.5,0.1,2.2,0.3c4.3,1.4,11.1,10.9,11.4,11.3l0.2,0.3l-0.3,0.3C94,94.3,90.9,95.5,87.8,95.4z"/>
<path class="st2" d="M82.8,80.4c0.7,0,1.4,0.1,2.1,0.3c4.2,1.4,11.2,11.2,11.2,11.2c-2.3,2-5.3,3.1-8.3,3.1c-0.9,0-1.9-0.1-2.8-0.3
	C78,93.3,71,83.5,71,83.5S78.2,80.4,82.8,80.4 M82.8,79.4L82.8,79.4c-4.8,0-11.9,3-12.2,3.2l-1.2,0.5l0.7,1
	c0.3,0.4,7.3,10.1,14.6,11.6c1,0.2,2,0.3,3,0.3c3.3,0,6.5-1.2,9-3.4l0.6-0.6l-0.5-0.7c-0.7-1-7.3-10.1-11.6-11.5
	C84.4,79.5,83.6,79.4,82.8,79.4L82.8,79.4z"/>
<linearGradient id="SVGID_24_" gradientUnits="userSpaceOnUse" x1="99.5665" y1="43.2814" x2="75.8015" y2="55.0139" gradientTransform="matrix(1 0 0 -1 0 130)">
	<stop  offset="0" style="stop-color:#559F66"/>
	<stop  offset="1" style="stop-color:#7EDCA7"/>
</linearGradient>
<path class="st25" d="M95.7,92.2c-2.6-2.5-5.3-4.8-8.3-6.9c-4.2-2.8-10.9-9.5-11.2-9.8l-0.4-0.4l0.6-0.3c2.3-1.3,4.9-1.9,7.5-1.9
	c2.5,0,4.9,0.7,7,1.9c7.2,4.3,5.9,16.7,5.8,17.2l-0.1,1L95.7,92.2z"/>
<path class="st2" d="M83.8,73.3c2.4,0,4.7,0.6,6.7,1.9c7,4.2,5.6,16.7,5.6,16.7c-2.6-2.6-5.4-4.9-8.4-7c-4.2-2.8-11.2-9.8-11.2-9.8
	C78.8,73.9,81.3,73.3,83.8,73.3 M83.8,72.3c-2.7,0-5.4,0.7-7.7,2L75,75l0.9,0.9c0.3,0.3,7.1,7.1,11.3,9.9c2.9,2,5.7,4.3,8.2,6.8
	l1.5,1.5l0.2-2.1c0.1-0.5,1.4-13.2-6-17.7C88.9,73,86.4,72.3,83.8,72.3L83.8,72.3z"/>
<ellipse class="st0" cx="37" cy="102" rx="24" ry="15"/>
<linearGradient id="SVGID_25_" gradientUnits="userSpaceOnUse" x1="53.6758" y1="44.8618" x2="41.4137" y2="50.9228" gradientTransform="matrix(1 0 0 -1 0 130)">
	<stop  offset="0" style="stop-color:#559F66"/>
	<stop  offset="1" style="stop-color:#7EDCA7"/>
</linearGradient>
<path class="st26" d="M40,89.1c0-0.5,0.1-12.9,5.9-15.8c1.1-0.5,2.3-0.8,3.5-0.8c4.4,0,8,3.6,8.2,3.7l0.3,0.4l-0.3,0.3
	c-2.6,2.6-5.4,4.9-8.4,7L40,90V89.1z"/>
<path class="st2" d="M49.4,73c4.3,0,7.8,3.6,7.8,3.6c-2.6,2.6-5.4,4.9-8.4,7l-8.4,5.6c0,0,0-12.5,5.6-15.3
	C47.1,73.3,48.2,73,49.4,73 M49.4,72L49.4,72c-1.3,0-2.6,0.3-3.8,0.9c-6.1,3-6.1,15.7-6.1,16.2V91l1.6-1l8.4-5.6
	c3-2.1,5.9-4.5,8.5-7.1l0.7-0.7l-0.7-0.7C57.8,75.7,54,72,49.4,72L49.4,72z"/>
<linearGradient id="SVGID_26_" gradientUnits="userSpaceOnUse" x1="47.0254" y1="48.391" x2="33.1539" y2="55.2366" gradientTransform="matrix(1 0 0 -1 0 130)">
	<stop  offset="0" style="stop-color:#559F66"/>
	<stop  offset="1" style="stop-color:#7EDCA7"/>
</linearGradient>
<path class="st27" d="M34.5,83.8c-0.1-0.3-2.7-6.2,0-11.6c1.7-3.4,4.1-6.3,7.1-8.6l0.6-0.4l0.2,0.7c0.1,0.5,2.2,11.1,1.8,15.4
	S41.1,93,41,93.4l-0.3,1.1L34.5,83.8z"/>
<path class="st2" d="M41.9,64c0,0,2.2,11,1.8,15.2s-3.2,14-3.2,14l-5.6-9.8c0,0-2.7-5.9,0-11.2C36.5,69,38.9,66.2,41.9,64
	 M42.6,62.3l-1.2,0.8c-3.1,2.3-5.6,5.3-7.4,8.8c-2.8,5.7-0.1,11.8,0,12l0,0l0,0l5.6,9.8l1.2,2.1l0.7-2.3c0.1-0.4,2.8-9.9,3.2-14.2
	s-1.7-15-1.8-15.5L42.6,62.3L42.6,62.3z"/>
<linearGradient id="SVGID_27_" gradientUnits="userSpaceOnUse" x1="39.2588" y1="19.41" x2="39.2588" y2="38.67" gradientTransform="matrix(1 0 0 -1 0 130)">
	<stop  offset="0" style="stop-color:#61A14F"/>
	<stop  offset="1" style="stop-color:#2A6017"/>
</linearGradient>
<path class="st28" d="M37.4,110.4c-0.3-0.2-7.1-5.8-7.1-10.2s4.1-8.5,4.3-8.7l0.2-0.2l13,3l0.1,0.2c0.9,3,0.4,6.2-1.3,8.7
	c-2.8,4.2-8.3,7-8.6,7.1l-0.3,0.1L37.4,110.4z"/>
<path class="st2" d="M34.9,91.9l12.4,2.9c0.8,2.8,0.4,5.8-1.3,8.2c-2.8,4.2-8.4,7-8.4,7s-7-5.6-7-9.8S34.9,91.9,34.9,91.9
	 M34.6,90.8l-0.4,0.4c-0.2,0.2-4.5,4.5-4.5,9.1s6.6,9.9,7.3,10.5l0.5,0.4l0.6-0.3c0.2-0.1,5.8-3,8.8-7.3c1.8-2.7,2.3-6,1.4-9.2
	l-0.2-0.5l-0.5-0.1l-12.4-2.9C35.1,90.9,34.6,90.8,34.6,90.8z"/>
<linearGradient id="SVGID_28_" gradientUnits="userSpaceOnUse" x1="16.9461" y1="25.9565" x2="38.8961" y2="35.7965" gradientTransform="matrix(1 0 0 -1 0 130)">
	<stop  offset="0" style="stop-color:#61A14F"/>
	<stop  offset="1" style="stop-color:#2A6017"/>
</linearGradient>
<path class="st29" d="M25.4,104.2c-2,0-4-0.2-5.9-0.6l-0.6-0.2l0.3-0.6c0.2-0.3,4.4-8.6,10.1-10c1.1-0.3,2.2-0.4,3.3-0.4
	c2.4,0,4.8,0.6,6.9,1.9l0.3,0.2l-0.2,0.4c-0.1,0.3-3,7.2-8.7,8.7C29.1,104,27.2,104.2,25.4,104.2z"/>
<path class="st2" d="M32.5,92.9c2.3,0,4.6,0.6,6.6,1.8c0,0-2.8,7-8.4,8.4c-1.8,0.4-3.6,0.6-5.4,0.6c-1.9,0-3.9-0.2-5.8-0.6
	c0,0,4.2-8.4,9.8-9.8C30.4,93,31.4,92.9,32.5,92.9 M32.5,91.9L32.5,91.9c-1.1,0-2.3,0.1-3.4,0.4c-5.9,1.5-10.2,9.9-10.4,10.3
	l-0.6,1.1l1.2,0.3c2,0.4,4,0.7,6,0.7c1.9,0,3.8-0.2,5.7-0.7c6-1.5,8.9-8.7,9-9l0.3-0.8l-0.7-0.4C37.5,92.5,35,91.8,32.5,91.9
	L32.5,91.9z"/>
<linearGradient id="SVGID_29_" gradientUnits="userSpaceOnUse" x1="65.2818" y1="23.284" x2="40.9618" y2="34.454" gradientTransform="matrix(1 0 0 -1 0 130)">
	<stop  offset="0" style="stop-color:#61A14F"/>
	<stop  offset="1" style="stop-color:#2A6017"/>
</linearGradient>
<path class="st30" d="M50.8,104.2c-1.7,0-3.3-0.2-4.9-0.7c-4.3-1.4-8.5-8.3-8.6-8.6l-0.4-0.6l0.7-0.1c2.5-0.4,5-0.6,7.5-0.6
	c1.8-0.1,3.6,0.2,5.3,0.6c4.3,1.4,7.2,8.4,7.3,8.7l0.2,0.6l-0.6,0.1C55.2,103.9,53,104.1,50.8,104.2z"/>
<path class="st2" d="M45.1,94.1c1.7-0.1,3.4,0.2,5.1,0.6c4.2,1.4,7,8.4,7,8.4c-2.1,0.4-4.3,0.6-6.4,0.6c-1.6,0-3.2-0.2-4.8-0.6
	c-4.2-1.4-8.4-8.4-8.4-8.4C40.2,94.3,42.7,94.1,45.1,94.1 M45.2,93.1L45.2,93.1c-2.5,0-5.1,0.2-7.6,0.6l-1.5,0.2l0.8,1.3
	c0.2,0.3,4.4,7.3,8.9,8.8c1.6,0.5,3.4,0.7,5.1,0.7c2.2,0,4.4-0.2,6.6-0.6l1.2-0.2l-0.5-1.1c-0.1-0.3-3-7.4-7.6-8.9
	C48.8,93.2,47,93,45.2,93.1z"/>
<linearGradient id="SVGID_30_" gradientUnits="userSpaceOnUse" x1="37.0587" y1="35.0767" x2="60.0353" y2="45.3752" gradientTransform="matrix(1 0 0 -1 0 130)">
	<stop  offset="0" style="stop-color:#246525"/>
	<stop  offset="1" style="stop-color:#83CA99"/>
</linearGradient>
<path class="st31" d="M44.5,95.8c-2.3,0-4.6-0.2-6.9-0.6l-0.5-0.1l0.1-0.5c0-0.1,1.5-8.5,9.4-10c1.6-0.3,3.1-0.5,4.7-0.5
	c3-0.1,6.1,0.6,8.9,1.8l0.5,0.2l-0.3,0.5c-0.2,0.3-4.4,7.2-10.1,8.6C48.4,95.6,46.5,95.8,44.5,95.8z"/>
<path class="st2" d="M51.4,84.6c3,0,5.9,0.5,8.6,1.7c0,0-4.2,7-9.8,8.4c-1.9,0.4-3.8,0.6-5.7,0.6c-2.3,0-4.6-0.2-6.8-0.6
	c0,0,1.3-8.1,9-9.6C48.2,84.7,49.8,84.6,51.4,84.6 M51.3,83.6L51.3,83.6c-1.6,0-3.2,0.2-4.8,0.5c-8.3,1.6-9.8,10.3-9.8,10.4l-0.2,1
	l1,0.2c2.3,0.4,4.7,0.6,7,0.6c2,0,4-0.2,6-0.7c5.9-1.5,10.2-8.5,10.4-8.8l0.5-0.9l-1-0.5C57.6,84.2,54.5,83.6,51.3,83.6L51.3,83.6z"
	/>
<linearGradient id="SVGID_31_" gradientUnits="userSpaceOnUse" x1="38.4893" y1="36.9186" x2="14.2893" y2="48.8586" gradientTransform="matrix(1 0 0 -1 0 130)">
	<stop  offset="0" style="stop-color:#246525"/>
	<stop  offset="1" style="stop-color:#83CA99"/>
</linearGradient>
<path class="st32" d="M30.8,95.4c-1,0-2-0.1-2.9-0.3c-7.1-1.4-14-11-14.2-11.3l-0.4-0.5l0.6-0.2c0.3-0.1,7.3-3.1,12.1-3.1
	c0.8,0,1.5,0.1,2.2,0.3c4.3,1.4,11.1,10.9,11.4,11.3l0.2,0.3l-0.3,0.3C37,94.3,33.9,95.5,30.8,95.4z"/>
<path class="st2" d="M25.9,80.4c0.7,0,1.4,0.1,2.1,0.3c4.2,1.4,11.1,11.2,11.1,11.2c-2.3,2-5.3,3.1-8.3,3.1c-0.9,0-1.9-0.1-2.8-0.3
	C21,93.3,14,83.5,14,83.5S21.2,80.4,25.9,80.4 M25.9,79.4L25.9,79.4c-4.8,0-11.9,3-12.2,3.2l-1.1,0.5l0.7,1
	c0.3,0.4,7.3,10.1,14.6,11.6c1,0.2,2,0.3,3,0.3c3.3,0,6.5-1.2,9-3.4l0.6-0.6l-0.5-0.7c-0.7-1-7.3-10.1-11.6-11.5
	C27.4,79.5,26.6,79.4,25.9,79.4L25.9,79.4z"/>
<linearGradient id="SVGID_32_" gradientUnits="userSpaceOnUse" x1="42.5665" y1="43.2814" x2="18.8015" y2="55.0139" gradientTransform="matrix(1 0 0 -1 0 130)">
	<stop  offset="0" style="stop-color:#559F66"/>
	<stop  offset="1" style="stop-color:#7EDCA7"/>
</linearGradient>
<path class="st33" d="M38.7,92.2c-2.6-2.5-5.3-4.8-8.3-6.9c-4.2-2.8-10.9-9.5-11.2-9.8l-0.5-0.4l0.5-0.3c2.3-1.3,4.9-1.9,7.5-1.9
	c2.5,0,4.9,0.7,7,1.9c7.2,4.3,5.9,16.7,5.8,17.2l-0.1,1L38.7,92.2z"/>
<path class="st2" d="M26.8,73.3c2.4,0,4.7,0.6,6.7,1.9c7,4.2,5.6,16.7,5.6,16.7c-2.6-2.6-5.4-4.9-8.4-7c-4.2-2.8-11.1-9.8-11.1-9.8
	C21.8,73.9,24.3,73.3,26.8,73.3 M26.8,72.3c-2.7,0-5.4,0.7-7.7,2L18,75l0.9,0.9c0.3,0.3,7.1,7.1,11.3,9.9c2.9,2,5.7,4.3,8.2,6.8
	l1.5,1.5l0.2-2.1c0.1-0.5,1.4-13.2-6-17.7C31.9,73,29.4,72.3,26.8,72.3L26.8,72.3z"/>
</svg>
