<?xml version="1.0" encoding="utf-8"?>
<!-- Generator: Adobe Illustrator 24.2.3, SVG Export Plug-In . SVG Version: 6.00 Build 0)  -->
<svg version="1.1" id="Layer_1" xmlns="http://www.w3.org/2000/svg" xmlns:xlink="http://www.w3.org/1999/xlink" x="0px" y="0px"
	 viewBox="0 0 128 128" style="enable-background:new 0 0 128 128;" xml:space="preserve">
<style type="text/css">
	.st0{fill:#32E785;}
	.st1{fill:#7CFFA0;}
	.st2{fill:#6D5720;}
</style>
<path class="st0" d="M0,0h128l0,0v104c0,13.3-10.7,24-24,24H0l0,0V0L0,0z"/>
<path class="st1" d="M98.7,107.8c0.1-1.3,0.6-2.5,1.2-3.6c1.2-2.4,6.1-1.2,6.1-1.2c-1.1,1.3-2.3,2.5-3.6,3.6
	C101.2,107.1,100,107.5,98.7,107.8z"/>
<path class="st1" d="M46.1,38.8c0.1-1.3,0.6-2.5,1.2-3.6c1.2-2.4,6.1-1.2,6.1-1.2c-1.1,1.3-2.3,2.5-3.6,3.6
	C48.5,38.2,47.3,38.6,46.1,38.8z"/>
<path class="st1" d="M92.8,106.4c-0.3-1.6-0.1-3.2,0.6-4.7c0.6-1.2,1.6-2.2,2.9-2.7c0,0,0.7,3.7-0.5,5.1
	C94.9,105,93.9,105.8,92.8,106.4z"/>
<path class="st1" d="M45.5,80.2c0.1-1.3,0.6-2.5,1.2-3.6c1.2-2.4,6-1.2,6-1.2c-1.1,1.3-2.3,2.5-3.6,3.6
	C47.9,79.5,46.7,79.9,45.5,80.2z"/>
<path class="st1" d="M39.5,78.9c-0.3-1.6-0.1-3.2,0.5-4.7c0.6-1.2,1.6-2.2,2.9-2.7c0,0,0.7,3.8-0.5,5.1
	C41.6,77.5,40.6,78.3,39.5,78.9z"/>
<path class="st1" d="M91.4,106.4c-1.5-1.2-2.7-2.7-3.7-4.3c-0.7-1.8-1-3.7-1-5.6c0,0,3.7,2,4.1,3.9
	C91.2,102.4,91.4,104.4,91.4,106.4z"/>
<path class="st1" d="M87.6,106.4c-0.1-0.4-0.7-4.1-2.6-4.5c-1.9-0.2-3.8-0.2-5.7,0c1.2,1.2,2.6,2.4,4.1,3.3
	C84.8,105.7,86.2,106.1,87.6,106.4z"/>
<path class="st1" d="M104.7,23.7c-1.5-1.2-2.7-2.7-3.7-4.3c-0.7-1.8-1-3.7-1-5.6c0,0,3.7,1.9,4.1,3.9
	C104.5,19.7,104.7,21.7,104.7,23.7z"/>
<path class="st1" d="M100.9,23.7c-0.1-0.4-0.7-4.1-2.6-4.5c-1.9-0.2-3.8-0.2-5.7,0c1.2,1.2,2.6,2.4,4.1,3.3
	C98.1,23.1,99.5,23.5,100.9,23.7z"/>
<path class="st1" d="M38.6,38.6c-1.5-1.2-2.7-2.7-3.7-4.3c-0.7-1.8-1-3.7-1-5.6c0,0,3.7,2,4.2,3.9C38.4,34.6,38.6,36.6,38.6,38.6z"
	/>
<path class="st1" d="M34.8,38.6c-0.1-0.4-0.7-4.1-2.6-4.5c-1.9-0.2-3.8-0.2-5.7,0c1.2,1.2,2.6,2.4,4.1,3.3
	C32,38,33.4,38.4,34.8,38.6z"/>
<path class="st2" d="M104-244c6.6,0,12,5.4,12,12l0,0v336c0,6.6-5.4,12-12,12h-336c-6.6,0-12-5.4-12-12v-336c0-6.6,5.4-12,12-12l0,0
	H104 M104-256h-336c-13.3,0-24,10.7-24,24l0,0v336c0,13.3,10.7,24,24,24l360,0l0-360C128-245.3,117.3-256,104-256L104-256z"/>
<path class="st0" d="M94.6,107.9c0,0,2.7,4,2.5,8.2c-0.1,2.4-1.1,4.8-2.8,6.5c0,0-3.8-5.7-2.9-8.8C92.1,111.7,93.2,109.7,94.6,107.9
	z"/>
<path class="st0" d="M95.5,112.5c0.5,0.9,0.8,1.8,0.8,2.8c0,0.8-0.4,1.6-1,2.2c0,0-1.3-2-0.9-3.1C94.6,113.7,95,113.1,95.5,112.5z"
	/>
<path class="st0" d="M96.4,113.4c0.3,0.4,0.5,1,0.5,1.5c0,0.4-0.2,0.9-0.5,1.2c0,0-0.7-1-0.5-1.6C95.9,114.1,96.1,113.7,96.4,113.4z
	"/>
<path class="st0" d="M96.8,110.4c1.1,1.2,1.9,2.6,2.2,4.2c0.2,1.4-0.1,2.7-0.9,3.9c0,0-2.7-2.8-2.5-4.6
	C95.8,112.7,96.2,111.5,96.8,110.4z"/>
<path class="st0" d="M98.1,112.7c0.4,0.4,0.7,0.9,0.9,1.5c0.1,0.5,0,1-0.3,1.4c0,0-1-1-1-1.6C97.7,113.6,97.9,113.1,98.1,112.7z"/>
<path class="st0" d="M98.1,108.9c1.5,1.3,2.7,3.1,3.2,5c0.4,1.7,0.2,3.4-0.6,4.9c0,0-3.7-3.1-3.6-5.4
	C97.2,111.9,97.5,110.3,98.1,108.9z"/>
<path class="st0" d="M100.4,112.7c0.2,0.3,0.3,0.6,0.3,1c0,0.3-0.1,0.6-0.4,0.8c0,0-0.5-0.7-0.4-1.1
	C100.1,113.2,100.2,112.9,100.4,112.7z"/>
<path class="st0" d="M100.8,110.3c0.9,0.9,1.5,2,1.8,3.2c0.2,1,0,2.1-0.6,3c0,0-2.1-2.1-2-3.4C100.1,112.1,100.4,111.1,100.8,110.3z
	"/>
<path class="st0" d="M101.8,107.9c1.4,1.6,2.3,3.5,2.6,5.5c0.2,1.7-0.3,3.5-1.3,4.9c0,0-3.3-3.7-2.9-5.9
	C100.4,110.8,101,109.3,101.8,107.9z"/>
<path class="st0" d="M102.4,109.1c1.1,1,2,2.3,2.4,3.7c0.3,1.2,0.1,2.5-0.5,3.7c0,0-2.7-2.3-2.7-4
	C101.8,111.3,102,110.2,102.4,109.1z"/>
<path class="st0" d="M103.5,108.3c1.2,1.2,2.1,2.7,2.5,4.4c0.3,1.4,0,2.9-0.7,4.1c0,0-3-2.8-2.9-4.7
	C102.6,110.8,103,109.5,103.5,108.3z"/>
<path class="st0" d="M105.5,109c0.7,1.1,1.1,2.4,1.1,3.7c-0.1,1.1-0.5,2.1-1.3,2.9c0,0-1.7-2.6-1.3-4
	C104.4,110.7,104.9,109.8,105.5,109z"/>
<path class="st0" d="M102,105.6c0,0,4.4,1.8,6.6,5.3c1.3,2.1,1.7,4.5,1.3,6.9c0,0-6.3-2.6-7.3-5.7
	C102.1,110.1,101.8,107.8,102,105.6z"/>
<path class="st0" d="M104.8,107.5c1.4,0.7,2.5,1.9,3.3,3.2c0.6,1.2,0.7,2.5,0.4,3.8c0,0-3.3-1.7-3.7-3.4
	C104.7,109.9,104.7,108.7,104.8,107.5z"/>
<path class="st0" d="M103.1,105.9c2.4,0.5,4.6,1.6,6.3,3.3c1.4,1.5,2.2,3.5,2.2,5.5c0,0-5.7-1.1-7-3.4
	C103.9,109.5,103.3,107.7,103.1,105.9z"/>
<path class="st0" d="M106.3,107.1c1.1,0.4,2.2,1.1,2.9,2c0.6,0.8,0.9,1.9,0.8,2.9c0,0-2.7-0.9-3.2-2.1
	C106.5,109,106.3,108.1,106.3,107.1z"/>
<path class="st0" d="M108.1,107.9c0.5,0.1,0.9,0.4,1.2,0.8c0.3,0.3,0.4,0.7,0.4,1.2c0,0-1.1-0.3-1.4-0.8
	C108.2,108.6,108.1,108.3,108.1,107.9z"/>
<path class="st0" d="M107.2,105.5c1.4,0.3,2.6,1,3.6,2c0.8,0.9,1.2,2,1.2,3.2c0,0-3.2-0.7-3.9-2
	C107.6,107.7,107.3,106.6,107.2,105.5z"/>
<path class="st0" d="M109.2,105.9c0.7,0.2,1.3,0.7,1.8,1.2c0.4,0.5,0.5,1.1,0.5,1.7c0,0-1.7-0.5-2-1.3
	C109.3,107,109.2,106.4,109.2,105.9z"/>
<path class="st0" d="M106.9,102.3c2.3,0.5,4.5,1.6,6.2,3.2c1.4,1.4,2.2,3.3,2.2,5.3c0,0-5.5-1-6.8-3.3
	C107.7,105.9,107.1,104.1,106.9,102.3z"/>
<path class="st0" d="M108.2,102.2c2,0.4,3.8,1.4,5.3,2.8c1.2,1.2,1.8,2.9,1.9,4.6c0,0-4.7-0.9-5.8-2.9
	C108.9,105.2,108.4,103.7,108.2,102.2z"/>
<path class="st0" d="M111,103.3c0.9,0.2,1.8,0.8,2.4,1.5c0.5,0.6,0.8,1.4,0.8,2.2c0,0-2.2-0.6-2.7-1.5
	C111.2,104.8,111.1,104,111,103.3z"/>
<path class="st0" d="M109.5,98.7c0,0,4.2,1.6,6.3,4.9c1.2,1.9,1.7,4.2,1.4,6.5c0,0-6-2.3-6.9-5.2
	C109.6,102.9,109.4,100.8,109.5,98.7z"/>
<path class="st0" d="M106.9,101.3c0,0,4.4-1.2,8.2,0.2c2.2,0.8,3.9,2.5,5,4.5c0,0-6.4,1.7-8.9-0.1
	C109.5,104.7,108,103.1,106.9,101.3z"/>
<path class="st0" d="M112.6,102.2c0.5-0.1,1,0,1.4,0.1c0.4,0.2,0.7,0.5,0.8,0.9c0,0-1.2,0.2-1.6-0.1
	C113,102.9,112.8,102.6,112.6,102.2z"/>
<path class="st0" d="M107.5,99.3c0,0,4.4-1.2,8,0.3c2.2,0.8,3.9,2.4,5,4.5c0,0-6.3,1.7-8.7-0.1C110.1,102.6,108.7,101.1,107.5,99.3z
	"/>
<path class="st0" d="M112.2,99.4c1,0,1.9,0.2,2.8,0.7c0.7,0.5,1.2,1.1,1.4,1.9c0,0-2.3,0.1-3-0.7
	C112.9,100.7,112.5,100.1,112.2,99.4z"/>
<path class="st0" d="M109.4,96.6c2.4-0.2,4.8,0.3,6.9,1.5c1.7,1,3,2.7,3.6,4.6c0,0-5.6,0.5-7.5-1.4
	C111.1,99.9,110.1,98.3,109.4,96.6z"/>
<path class="st0" d="M109.7,96.1c2.3-0.3,4.5,0.1,6.6,1c1.7,0.9,3,2.4,3.7,4.2c0,0-5.3,0.8-7.2-0.9
	C111.5,99.1,110.5,97.7,109.7,96.1z"/>
<path class="st0" d="M112.6,96.6c1.1-0.2,2.2-0.1,3.2,0.3c0.8,0.4,1.5,1.1,1.9,1.9c0,0-2.6,0.5-3.5-0.3
	C113.5,98,113,97.3,112.6,96.6z"/>
<path class="st0" d="M111.3,95.5c1.6-0.5,3.3-0.6,4.9-0.2c1.3,0.4,2.5,1.3,3.2,2.5c0,0-3.7,1.3-5.3,0.3
	C113,97.4,112.1,96.5,111.3,95.5z"/>
<path class="st0" d="M112.4,93.9c1.5-0.1,3,0.1,4.3,0.8c1.1,0.6,1.9,1.6,2.3,2.8c0,0-3.5,0.4-4.7-0.8
	C113.5,95.9,112.9,94.9,112.4,93.9z"/>
<path class="st0" d="M109.5,90.9c0,0,4.8-0.4,8.4,1.8c2.1,1.3,3.7,3.3,4.4,5.7c0,0-6.9,0.6-9.2-1.8C111.6,94.9,110.4,93,109.5,90.9z
	"/>
<path class="st0" d="M110.1,91.2c0,0,4.2-1,7.6,0.5c2,0.9,3.6,2.4,4.6,4.4c0,0-6,1.4-8.3-0.4C112.5,94.4,111.1,92.9,110.1,91.2z"/>
<path class="st0" d="M109.8,92.5c2.2-1.3,4.8-2,7.3-2c2.2,0.1,4.2,1.1,5.8,2.7c0,0-5.2,3.3-7.9,2.4C113,94.8,111.3,93.8,109.8,92.5z
	"/>
<path class="st0" d="M111.1,91.7c1.7-1.2,3.7-1.8,5.8-1.9c1.7,0,3.4,0.7,4.7,1.9c0,0-4,2.8-6.2,2.2
	C113.8,93.4,112.3,92.7,111.1,91.7z"/>
<path class="st0" d="M112.7,90.2c1.3-0.6,2.7-0.9,4.2-0.8c1.2,0.2,2.2,0.8,3,1.8c0,0-3,1.6-4.5,0.9C114.4,91.6,113.5,91,112.7,90.2z
	"/>
<path class="st0" d="M113.5,88.9c1.1-0.4,2.3-0.4,3.4-0.2c0.9,0.3,1.7,0.9,2.2,1.7c0,0-2.6,0.9-3.7,0.2
	C114.7,90.2,114,89.6,113.5,88.9z"/>
<path class="st0" d="M111.6,87.9c1.7-0.8,3.6-1.1,5.5-0.9c1.6,0.3,3,1.1,4,2.3c0,0-4,2-5.9,1.1C113.8,89.8,112.6,88.9,111.6,87.9z"
	/>
<path class="st0" d="M114.5,87.2c0.7-0.3,1.4-0.3,2.1-0.2c0.6,0.1,1.1,0.5,1.4,1c0,0-1.6,0.6-2.3,0.2
	C115.3,88,114.9,87.6,114.5,87.2z"/>
<path class="st0" d="M112.3,85.4c1.6-0.5,3.2-0.6,4.8-0.2c1.3,0.4,2.5,1.3,3.2,2.4c0,0-3.7,1.3-5.2,0.4
	C114,87.3,113.1,86.4,112.3,85.4z"/>
<path class="st0" d="M113.7,85.1c0.9-0.5,2-0.7,3.1-0.6c0.9,0.1,1.7,0.6,2.3,1.3c0,0-2.2,1.1-3.3,0.7
	C114.9,86.2,114.3,85.7,113.7,85.1z"/>
<path class="st0" d="M112.2,83.8c1.5-0.7,3.2-1,4.8-0.8c1.4,0.2,2.6,0.9,3.4,2c0,0-3.5,1.7-5.2,1C114.1,85.5,113.1,84.7,112.2,83.8z
	"/>
<path class="st0" d="M111.1,83.3c1.7-1.1,3.7-1.7,5.8-1.7c1.7,0.1,3.4,0.8,4.6,2c0,0-4,2.7-6.2,2C113.8,85,112.4,84.2,111.1,83.3z"
	/>
<path class="st0" d="M114.7,82.3c0.5-0.3,1.1-0.5,1.8-0.5c0.5,0,1,0.3,1.4,0.6c0,0-1.2,0.8-1.9,0.6
	C115.5,82.9,115.1,82.6,114.7,82.3z"/>
<path class="st0" d="M109.7,80.7c0,0,3.8-2.2,7.5-1.7c2.2,0.2,4.2,1.3,5.7,2.9c0,0-5.4,3.1-8.1,2C112.9,83.1,111.2,82,109.7,80.7z"
	/>
<path class="st0" d="M110.5,79.3c2.1-1,4.4-1.4,6.7-1.1c1.9,0.3,3.6,1.4,4.8,2.9c0,0-4.9,2.4-7.2,1.3
	C113.2,81.7,111.8,80.6,110.5,79.3z"/>
<path class="st0" d="M111.5,79.2c1.6-1.1,3.4-1.7,5.3-1.7c1.6,0,3.1,0.7,4.3,1.8c0,0-3.7,2.6-5.8,2C114,80.8,112.6,80.1,111.5,79.2z
	"/>
<path class="st0" d="M111.4,77c1.9-0.7,3.9-0.9,5.9-0.5c1.6,0.4,3.1,1.4,4,2.8c0,0-4.4,1.8-6.4,0.7C113.5,79.2,112.4,78.2,111.4,77z
	"/>
<path class="st0" d="M113,77.1c1.1-0.7,2.4-1.1,3.7-1.1c1.1,0.1,2.1,0.5,2.9,1.3c0,0-2.6,1.7-4,1.2C114.7,78.2,113.8,77.7,113,77.1z
	"/>
<path class="st0" d="M113.8,76c0.8-0.5,1.8-0.8,2.8-0.8c0.8,0.1,1.6,0.4,2.2,1c0,0-2,1.3-3,0.9C115.1,76.9,114.4,76.5,113.8,76z"/>
<path class="st0" d="M111.6,75c1.6-1,3.4-1.6,5.2-1.6c1.6,0.1,3.1,0.7,4.2,1.8c0,0-3.7,2.4-5.7,1.8C114,76.6,112.7,75.9,111.6,75z"
	/>
<path class="st0" d="M111.5,73.5c1.7-0.9,3.6-1.3,5.5-1.2c1.6,0.2,3.1,1,4.1,2.2c0,0-4,2.2-5.9,1.4
	C113.8,75.3,112.6,74.5,111.5,73.5z"/>
<path class="st0" d="M110.2,72.9c2-1.4,4.4-2.1,6.8-2.2c2,0.1,3.9,0.9,5.4,2.2c0,0-4.7,3.3-7.3,2.5
	C113.3,74.9,111.7,74.1,110.2,72.9z"/>
<path class="st0" d="M112.3,70.9c1.6-0.5,3.2-0.6,4.8-0.3c1.3,0.4,2.5,1.2,3.2,2.4c0,0-3.7,1.3-5.2,0.4
	C114,72.7,113.1,71.9,112.3,70.9z"/>
<path class="st0" d="M113.7,70.8c0.9-0.5,1.9-0.8,2.9-0.8c0.9,0.1,1.7,0.4,2.3,1.1c0,0-2.1,1.3-3.2,0.9
	C115,71.7,114.3,71.3,113.7,70.8z"/>
<path class="st0" d="M114.6,69.4c0.7-0.2,1.3-0.2,2,0c0.6,0.2,1.1,0.5,1.4,1c0,0-1.6,0.5-2.2,0.1C115.3,70.2,115,69.8,114.6,69.4z"
	/>
<path class="st0" d="M108.9,68.8c0,0,4-2.8,8.2-2.7c2.5,0.1,4.8,1,6.6,2.7c0,0-5.7,4-8.8,3.1C112.7,71.2,110.7,70.1,108.9,68.8z"/>
<path class="st0" d="M110.5,66.5c2.2-0.9,4.6-1.1,6.9-0.7c1.9,0.5,3.6,1.6,4.8,3.2c0,0-5.2,2.2-7.5,0.9
	C113.1,69,111.7,67.9,110.5,66.5z"/>
<path class="st0" d="M111.1,65.7c1.9-0.8,4.1-1.1,6.1-0.7c1.7,0.4,3.2,1.4,4.3,2.8c0,0-4.6,2-6.6,0.9
	C113.5,67.9,112.2,66.9,111.1,65.7z"/>
<path class="st0" d="M114.2,65.2c0.8-0.3,1.7-0.4,2.6-0.2c0.7,0.2,1.3,0.6,1.7,1.2c0,0-1.9,0.8-2.8,0.3
	C115.1,66.2,114.6,65.7,114.2,65.2z"/>
<path class="st0" d="M113.2,64c1.2-0.5,2.5-0.6,3.7-0.4c1,0.2,1.9,0.9,2.5,1.7c0,0-2.8,1.2-4,0.5C114.6,65.4,113.8,64.7,113.2,64z"
	/>
<path class="st0" d="M112,62.3c1.7-0.5,3.6-0.6,5.3-0.1c1.4,0.5,2.7,1.5,3.4,2.8c0,0-4.1,1.3-5.8,0.2
	C113.8,64.4,112.8,63.4,112,62.3z"/>
<path class="st0" d="M113.3,62.2c1.1-0.5,2.3-0.8,3.5-0.7c1,0.2,1.9,0.7,2.6,1.5c0,0-2.5,1.3-3.8,0.8
	C114.7,63.4,114,62.8,113.3,62.2z"/>
<path class="st0" d="M109.4,60c0,0,4.2-1.8,8.1-0.9c2.3,0.5,4.3,1.9,5.7,3.8c0,0-6.1,2.6-8.8,1.2C112.5,63,110.8,61.6,109.4,60z"/>
<path class="st0" d="M111.2,59.7c1.8-0.9,3.9-1.2,5.9-0.9c1.7,0.3,3.2,1.2,4.2,2.6c0,0-4.4,2.1-6.4,1.1
	C113.6,61.7,112.3,60.8,111.2,59.7z"/>
<path class="st0" d="M115.4,59.3c0.3-0.1,0.7-0.2,1.1-0.1c0.3,0.1,0.6,0.3,0.8,0.5c0,0-0.8,0.3-1.2,0.1
	C115.8,59.7,115.6,59.5,115.4,59.3z"/>
<path class="st0" d="M114.2,58c0.8-0.3,1.6-0.4,2.4-0.3c0.7,0.2,1.3,0.6,1.7,1.1c0,0-1.8,0.8-2.6,0.4
	C115.2,58.9,114.7,58.5,114.2,58z"/>
<path class="st0" d="M110.8,56.8c1.9-1,4.1-1.5,6.3-1.3c1.8,0.2,3.5,1.1,4.7,2.5c0,0-4.6,2.5-6.8,1.6
	C113.4,58.9,112,57.9,110.8,56.8z"/>
<path class="st0" d="M108.6,55.3c0,0,4.5-2.4,8.8-1.7c2.6,0.4,4.9,1.7,6.5,3.7c0,0-6.4,3.3-9.6,2C112.3,58.3,110.3,56.9,108.6,55.3z
	"/>
<path class="st0" d="M114.1,55c0.8-0.4,1.7-0.6,2.5-0.5c0.7,0.1,1.4,0.4,1.9,1c0,0-1.8,1-2.7,0.6C115.2,55.8,114.6,55.5,114.1,55z"
	/>
<path class="st0" d="M111.6,53.1c1.8-0.7,3.8-0.8,5.7-0.4c1.6,0.4,2.9,1.4,3.8,2.8c0,0-4.3,1.7-6.1,0.6
	C113.6,55.2,112.5,54.2,111.6,53.1z"/>
<path class="st0" d="M112.4,52.7c1.4-0.7,2.9-1,4.4-0.9c1.3,0.2,2.5,0.8,3.3,1.8c0,0-3.2,1.7-4.8,1.1
	C114.3,54.2,113.3,53.6,112.4,52.7z"/>
<path class="st0" d="M113.2,51.4c1.2-0.4,2.5-0.5,3.8-0.3c1,0.3,2,0.9,2.5,1.8c0,0-2.8,1.1-4.1,0.4
	C114.5,52.8,113.8,52.1,113.2,51.4z"/>
<path class="st0" d="M111.5,49.8c1.9-0.7,3.9-0.8,5.8-0.3c1.6,0.5,3,1.5,3.9,2.9c0,0-4.4,1.6-6.3,0.5C113.6,52,112.4,51,111.5,49.8z
	"/>
<path class="st0" d="M111.3,49.2c1.8-0.9,3.8-1.2,5.8-0.9c1.7,0.3,3.2,1.2,4.2,2.5c0,0-4.3,2.1-6.3,1.2
	C113.6,51.3,112.4,50.4,111.3,49.2z"/>
<path class="st0" d="M111.4,47.7c1.9-0.7,3.9-0.8,5.8-0.4c1.6,0.4,3,1.5,3.9,2.9c0,0-4.4,1.6-6.3,0.5
	C113.6,50,112.4,48.9,111.4,47.7z"/>
<path class="st0" d="M113.3,47.3c1.1-0.4,2.3-0.5,3.5-0.3c1,0.2,1.8,0.8,2.4,1.7c0,0-2.6,1.1-3.8,0.4
	C114.7,48.6,113.9,48,113.3,47.3z"/>
<path class="st0" d="M112.6,45.8c1.5-0.5,3.1-0.5,4.6-0.1c1.2,0.4,2.3,1.3,2.9,2.4c0,0-3.5,1.1-4.9,0.2
	C114.1,47.6,113.3,46.8,112.6,45.8z"/>
<path class="st0" d="M109.3,44c0,0,4.4-1.7,8.4-0.5c2.3,0.7,4.3,2.2,5.6,4.2c0,0-6.3,2.3-9.1,0.7C112.3,47.2,110.7,45.7,109.3,44z"
	/>
<path class="st0" d="M114,44.4c0.9-0.4,1.8-0.5,2.7-0.4c0.8,0.2,1.4,0.6,1.9,1.2c0,0-2,0.9-2.9,0.5C115.1,45.4,114.5,45,114,44.4z"
	/>
<path class="st0" d="M114.9,43.6c0.5-0.2,1.1-0.3,1.7-0.3c0.5,0.1,0.9,0.3,1.2,0.7c0,0-1.2,0.6-1.8,0.3
	C115.6,44.2,115.2,43.9,114.9,43.6z"/>
<path class="st0" d="M110.1,41.2c2.4-0.9,4.9-1.1,7.4-0.6c2,0.6,3.8,1.8,5,3.6c0,0-5.6,2.2-8.1,0.8C112.8,44,111.3,42.8,110.1,41.2z
	"/>
<path class="st0" d="M112.9,41.3c1.2-0.6,2.6-0.9,3.9-0.8c1.1,0.2,2.1,0.7,2.9,1.6c0,0-2.8,1.5-4.2,0.9
	C114.5,42.6,113.7,42,112.9,41.3z"/>
<path class="st0" d="M112.3,40.4c1.4-0.8,2.9-1.2,4.5-1.2c1.3,0.1,2.6,0.7,3.5,1.7c0,0-3.2,2-4.8,1.4
	C114.3,41.9,113.2,41.2,112.3,40.4z"/>
<path class="st0" d="M109.3,39.4c0,0,3.8-2.5,7.8-2.3c2.3,0.1,4.5,1.1,6.2,2.7c0,0-5.5,3.6-8.4,2.7C112.9,41.8,111,40.7,109.3,39.4z
	"/>
<path class="st0" d="M115.1,38.6c0.4-0.3,0.9-0.4,1.4-0.4c0.4,0,0.8,0.2,1.1,0.5c0,0-1,0.6-1.5,0.5C115.7,39,115.4,38.8,115.1,38.6z
	"/>
<path class="st0" d="M109.4,35.8c0,0,4.4-1.7,8.3-0.7c2.3,0.6,4.3,2,5.6,4c0,0-6.2,2.4-9,0.9C112.4,38.9,110.7,37.5,109.4,35.8z"/>
<path class="st0" d="M111.4,36.2c1.7-1,3.6-1.5,5.6-1.5c1.6,0.1,3.2,0.8,4.3,2c0,0-3.9,2.4-6,1.7C113.8,37.9,112.5,37.2,111.4,36.2z
	"/>
<path class="st0" d="M114.5,35.3c0.6-0.4,1.4-0.5,2.1-0.5c0.6,0.1,1.2,0.4,1.6,0.8c0,0-1.5,0.8-2.3,0.6
	C115.4,36,114.9,35.7,114.5,35.3z"/>
<path class="st0" d="M109.8,33.1c2.4-1,5-1.4,7.6-1c2.1,0.5,4,1.7,5.3,3.5c0,0-5.7,2.5-8.2,1.2C112.8,35.9,111.2,34.6,109.8,33.1z"
	/>
<path class="st0" d="M114.7,33.2c0.6-0.3,1.2-0.4,1.8-0.4c0.5,0.1,1,0.3,1.4,0.7c0,0-1.3,0.7-2,0.5
	C115.5,33.8,115.1,33.6,114.7,33.2z"/>
<path class="st0" d="M113.4,32.3c1-0.6,2.1-0.9,3.2-0.9c1,0,1.9,0.4,2.5,1.1c0,0-2.2,1.5-3.4,1.1C114.9,33.2,114.1,32.8,113.4,32.3z
	"/>
<path class="st0" d="M112.3,31.1c1.4-0.8,2.9-1.2,4.5-1.2c1.3,0.1,2.6,0.7,3.5,1.7c0,0-3.2,2-4.9,1.4
	C114.3,32.5,113.2,31.9,112.3,31.1z"/>
<path class="st0" d="M109,28.4c0,0,4.6-1.8,8.7-0.7c2.4,0.6,4.5,2.2,5.9,4.3c0,0-6.6,2.5-9.5,0.9C112.2,31.7,110.5,30.2,109,28.4z"
	/>
<path class="st0" d="M110.5,29.2c1.9-1.3,4.1-2,6.4-2.1c1.9,0,3.8,0.8,5.2,2.1c0,0-4.5,3.1-6.9,2.4
	C113.5,31.1,111.9,30.3,110.5,29.2z"/>
<path class="st0" d="M113.1,27.5c1.2-0.5,2.5-0.7,3.8-0.5c1.1,0.2,2,0.8,2.6,1.7c0,0-2.8,1.2-4.1,0.6
	C114.6,28.9,113.8,28.3,113.1,27.5z"/>
<path class="st0" d="M111.4,26.3c1.8-0.8,3.7-1.2,5.7-0.9c1.6,0.3,3.1,1.2,4.1,2.5c0,0-4.2,2-6.1,1.1
	C113.7,28.3,112.5,27.4,111.4,26.3z"/>
<path class="st0" d="M114.8,25.7c0.6-0.2,1.2-0.3,1.8-0.1c0.5,0.1,1,0.4,1.3,0.9c0,0-1.4,0.5-2,0.2
	C115.4,26.4,115.1,26.1,114.8,25.7z"/>
<path class="st0" d="M110.9,25c1.8-1.2,3.9-1.9,6-2c1.8,0,3.5,0.7,4.8,2c0,0-4.1,2.9-6.4,2.3C113.7,26.8,112.2,26,110.9,25z"/>
<path class="st0" d="M115.1,23.8c0.5-0.2,1-0.2,1.5-0.1c0.4,0.1,0.8,0.4,1,0.7c0,0-1.1,0.5-1.6,0.2C115.6,24.3,115.3,24,115.1,23.8z
	"/>
<path class="st0" d="M113.4,22.4c1.1-0.4,2.2-0.6,3.4-0.4c1,0.2,1.8,0.8,2.3,1.6c0,0-2.5,1.1-3.7,0.5
	C114.7,23.6,114,23.1,113.4,22.4z"/>
<path class="st0" d="M111.6,21.2c1.7-0.8,3.6-1.2,5.4-1c1.6,0.2,3,1.1,4,2.3c0,0-4,2-5.9,1.2C113.8,23.1,112.6,22.3,111.6,21.2z"/>
<path class="st0" d="M114.3,20.8c0.7-0.4,1.5-0.6,2.3-0.6c0.7,0,1.3,0.3,1.8,0.8c0,0-1.6,1-2.5,0.8
	C115.3,21.5,114.8,21.2,114.3,20.8z"/>
<path class="st0" d="M112.4,18.8c1.5-0.5,3.2-0.6,4.8-0.2c1.3,0.4,2.4,1.2,3.1,2.4c0,0-3.6,1.3-5.2,0.4
	C114.1,20.6,113.1,19.7,112.4,18.8z"/>
<path class="st0" d="M113.3,18.5c1-0.6,2.2-0.8,3.4-0.8c1,0.1,1.9,0.6,2.6,1.3c0,0-2.4,1.4-3.7,0.9C114.8,19.6,114,19.1,113.3,18.5z
	"/>
<path class="st0" d="M109.6,16.4c0,0,4.1-1.8,8-1c2.2,0.5,4.2,1.8,5.6,3.7c0,0-5.9,2.6-8.6,1.2C112.6,19.2,111,17.9,109.6,16.4z"/>
<path class="st0" d="M113.2,15.8c1.2-0.4,2.5-0.4,3.8-0.1c1,0.3,1.9,1.1,2.4,2c0,0-2.9,1-4.1,0.2C114.5,17.3,113.8,16.6,113.2,15.8z
	"/>
<path class="st0" d="M110.8,13.8c2.2-0.6,4.5-0.6,6.7,0c1.8,0.6,3.3,1.9,4.3,3.6c0,0-5.2,1.6-7.3,0.1
	C113.1,16.6,111.8,15.3,110.8,13.8z"/>
<path class="st0" d="M112.1,13.2c1.7-0.5,3.4-0.5,5.1,0c1.4,0.5,2.5,1.5,3.2,2.8c0,0-4,1.2-5.6,0.1
	C113.8,15.3,112.9,14.3,112.1,13.2z"/>
<path class="st0" d="M108.6,13.4c0,0,4.2-2.8,8.6-2.6c2.6,0.1,5,1.2,6.8,3c0,0-6,4-9.3,3C112.5,16,110.4,14.8,108.6,13.4z"/>
<path class="st0" d="M108.6,11.9c0,0,4.3-2.6,8.7-2.1c2.6,0.2,4.9,1.4,6.7,3.3c0,0-6.2,3.7-9.4,2.5
	C112.4,14.7,110.4,13.5,108.6,11.9z"/>
<path class="st0" d="M110.4,10.7c2.1-1.1,4.5-1.5,6.8-1.2c2,0.3,3.7,1.3,5,2.9c0,0-5,2.5-7.4,1.5C113.2,13,111.7,11.9,110.4,10.7z"
	/>
<path class="st0" d="M110.3,10.4c2-1.3,4.3-2.1,6.7-2.1c2,0.1,3.9,0.8,5.4,2.2c0,0-4.6,3.2-7.2,2.5
	C113.4,12.4,111.8,11.5,110.3,10.4z"/>
<path class="st0" d="M113.6,9.4c0.9-0.6,1.9-0.9,3-0.9c0.9,0,1.7,0.4,2.4,1c0,0-2.1,1.4-3.2,1.1C115,10.3,114.3,9.9,113.6,9.4z"/>
<path class="st0" d="M114.8,8.2c0.6-0.3,1.2-0.4,1.8-0.4c0.5,0.1,1,0.3,1.3,0.7c0,0-1.3,0.7-1.9,0.4C115.5,8.8,115.1,8.5,114.8,8.2z
	"/>
<path class="st0" d="M110.6,6c2.2-0.8,4.5-1,6.8-0.6c1.9,0.5,3.5,1.6,4.6,3.2c0,0-5.1,2-7.3,0.8C113.2,8.5,111.8,7.4,110.6,6z"/>
<path class="st0" d="M110,5.6c2.2-1.2,4.7-1.7,7.2-1.6c2.1,0.3,4,1.3,5.4,2.8c0,0-5.2,2.9-7.7,1.9C113,8,111.4,6.9,110,5.6z"/>
<path class="st0" d="M113.9,4.8c0.9-0.4,1.9-0.5,2.8-0.4c0.8,0.2,1.5,0.6,2,1.2c0,0-2.1,1-3.1,0.5C115,5.8,114.4,5.4,113.9,4.8z"/>
<path class="st0" d="M114.6,3.8c0.7-0.3,1.4-0.3,2.1-0.2c0.6,0.1,1.1,0.5,1.4,1c0,0-1.6,0.6-2.3,0.3C115.3,4.6,114.9,4.2,114.6,3.8z
	"/>
<path class="st0" d="M112.2,2.7c1.5-0.8,3.1-1.1,4.7-0.9c1.4,0.2,2.6,0.9,3.5,1.9c0,0-3.4,1.8-5.1,1.1
	C114.2,4.2,113.1,3.5,112.2,2.7z"/>
<path class="st0" d="M115,1.7c0.5-0.2,1.1-0.2,1.6,0c0.4,0.1,0.8,0.5,1.1,0.9c0,0-1.3,0.4-1.8,0.1C115.6,2.4,115.3,2.1,115,1.7z"/>
<path class="st0" d="M110.1,1c2.1-1.4,4.5-2.1,6.9-2.2c2.1,0,4.1,0.9,5.6,2.3c0,0-4.8,3.3-7.4,2.6C113.3,3.1,111.6,2.2,110.1,1z"/>
<path class="st0" d="M109.5-0.8c0,0,3.9-2.1,7.8-1.5c2.2,0.3,4.3,1.5,5.8,3.2c0,0-5.7,3-8.4,1.8C112.8,1.8,111,0.6,109.5-0.8z"/>
<path class="st0" d="M109.9-2.5c2.2-1.3,4.7-1.9,7.2-1.9c2.1,0.2,4.1,1.1,5.6,2.7c0,0-5.1,3.1-7.8,2.2
	C113.1-0.2,111.4-1.2,109.9-2.5z"/>
<path class="st0" d="M0.9,109.5c0.8,2.2,1.1,4.6,0.6,6.9c-0.5,1.9-1.7,3.6-3.3,4.7c0,0-2.1-5.2-0.8-7.5
	C-1.7,112.1-0.5,110.7,0.9,109.5z"/>
<path class="st0" d="M0.6,114.2c0.2,0.4,0.4,0.8,0.4,1.3c0,0.4-0.2,0.7-0.5,1c0,0-0.5-0.9-0.4-1.4C0.2,114.7,0.4,114.4,0.6,114.2z"
	/>
<path class="st0" d="M2,109.2c1.2,2.1,1.8,4.4,1.8,6.8c-0.2,2-1.1,3.9-2.6,5.3c0,0-2.9-4.9-2-7.4C-0.2,112.3,0.8,110.7,2,109.2z"/>
<path class="st0" d="M3,109.9c1.1,1.8,1.7,3.9,1.6,6c-0.1,1.8-0.9,3.5-2.2,4.7c0,0-2.7-4.3-1.9-6.5C1.1,112.6,1.9,111.2,3,109.9z"/>
<path class="st0" d="M4.4,109.3c1.1,2.1,1.6,4.5,1.4,6.8c-0.3,2-1.2,3.8-2.8,5.1c0,0-2.7-4.9-1.7-7.4C2.1,112.2,3.1,110.7,4.4,109.3
	z"/>
<path class="st0" d="M5.4,111.9c0.5,1.3,0.7,2.6,0.5,4C5.7,117,5,118,4.1,118.7c0,0-1.3-3-0.6-4.3C3.9,113.4,4.6,112.6,5.4,111.9z"
	/>
<path class="st0" d="M6.7,111.1c0.6,1.6,0.8,3.3,0.5,5c-0.3,1.4-1.2,2.6-2.4,3.4c0,0-1.5-3.8-0.6-5.4C4.9,112.9,5.7,111.9,6.7,111.1
	z"/>
<path class="st0" d="M7.9,109.3c1,2.2,1.3,4.6,1,7c-0.4,2-1.5,3.8-3.1,5c0,0-2.4-5.2-1.2-7.6C5.4,112.1,6.6,110.6,7.9,109.3z"/>
<path class="st0" d="M7.8,114c0.3,0.4,0.5,0.9,0.5,1.4c0,0.4-0.2,0.9-0.5,1.2c0,0-0.7-1-0.6-1.6C7.4,114.7,7.6,114.3,7.8,114z"/>
<path class="st0" d="M9.1,113.2c0.4,0.7,0.6,1.5,0.6,2.4c-0.1,0.7-0.4,1.3-0.9,1.8c0,0-1-1.7-0.7-2.6C8.3,114.3,8.6,113.7,9.1,113.2
	z"/>
<path class="st0" d="M10.3,111.9c0.6,1.2,0.9,2.6,0.8,3.9c-0.2,1.1-0.7,2.2-1.6,2.9c0,0-1.6-2.8-1-4.3C9,113.5,9.6,112.6,10.3,111.9
	z"/>
<path class="st0" d="M12,111c0.6,1.6,0.8,3.4,0.4,5.1c-0.4,1.4-1.2,2.7-2.4,3.5c0,0-1.5-3.8-0.6-5.5C10.1,112.9,11,111.9,12,111z"/>
<path class="st0" d="M12.3,114.2c0.1,0.4,0.2,0.9,0.1,1.3c-0.1,0.4-0.4,0.7-0.7,0.9c0,0-0.4-1-0.1-1.5
	C11.8,114.7,12,114.4,12.3,114.2z"/>
<path class="st0" d="M13.2,112.4c0.6,1,0.9,2.1,0.9,3.3c-0.1,1-0.5,1.9-1.2,2.5c0,0-1.4-2.3-1-3.5C12.2,113.9,12.7,113.1,13.2,112.4
	z"/>
<path class="st0" d="M14.8,112.8c0.3,1,0.4,2,0.2,3c-0.2,0.8-0.8,1.5-1.5,2c0,0-0.9-2.3-0.3-3.3C13.6,113.8,14.1,113.3,14.8,112.8z"
	/>
<path class="st0" d="M15.2,113.5c0.4,0.6,0.5,1.3,0.5,2c0,0.6-0.3,1.2-0.8,1.6c0,0-0.9-1.4-0.6-2.2
	C14.6,114.4,14.9,113.9,15.2,113.5z"/>
<path class="st0" d="M16.4,111.8c0.7,1.2,1.1,2.6,1.1,3.9c-0.1,1.2-0.6,2.3-1.4,3.1c0,0-1.7-2.8-1.2-4.3
	C15.1,113.5,15.7,112.6,16.4,111.8z"/>
<path class="st0" d="M17.7,107.7c0,0,2.7,4.2,2.3,8.5c-0.2,2.5-1.3,4.9-3.1,6.7c0,0-3.8-6.1-2.7-9.2C15,111.5,16.2,109.5,17.7,107.7
	z"/>
<path class="st0" d="M20,109.7c0.7,2.2,0.8,4.5,0.2,6.8c-0.6,1.8-1.8,3.4-3.5,4.4c0,0-1.7-5.2-0.4-7.3
	C17.3,112.1,18.6,110.8,20,109.7z"/>
<path class="st0" d="M19.4,111.9c0.7,1.2,1.1,2.5,1.1,3.8c-0.1,1.1-0.5,2.2-1.4,3c0,0-1.8-2.7-1.3-4.1
	C18.3,113.6,18.8,112.7,19.4,111.9z"/>
<path class="st0" d="M21,111.4c0.7,1.4,1,3,0.8,4.6c-0.2,1.3-0.9,2.5-2,3.3c0,0-1.7-3.3-1-5C19.4,113.2,20.1,112.2,21,111.4z"/>
<path class="st0" d="M23,110.5c0.5,1.9,0.5,3.9,0,5.8c-0.5,1.6-1.6,2.9-3.1,3.7c0,0-1.4-4.5-0.2-6.3C20.6,112.5,21.7,111.4,23,110.5
	z"/>
<path class="st0" d="M24,108.6c0,0,1.7,4.2,0.7,8c-0.5,2.2-1.9,4.1-3.7,5.4c0,0-2.4-6-1-8.7C21.1,111.5,22.4,109.9,24,108.6z"/>
<path class="st0" d="M23.8,113.9c0.2,0.5,0.3,1.1,0.1,1.7c-0.1,0.5-0.4,0.9-0.8,1.1c0,0-0.5-1.2-0.2-1.8
	C23.2,114.5,23.5,114.2,23.8,113.9z"/>
<path class="st0" d="M24.7,112.8c0.5,0.9,0.7,1.9,0.7,2.9c-0.1,0.8-0.5,1.6-1.1,2.2c0,0-1.2-2.1-0.8-3.1
	C23.8,114,24.2,113.3,24.7,112.8z"/>
<path class="st0" d="M25.8,113.6c0.3,0.6,0.4,1.3,0.3,2c-0.1,0.6-0.4,1-0.9,1.4c0,0-0.7-1.4-0.4-2.1C25.1,114.5,25.5,114,25.8,113.6
	z"/>
<path class="st0" d="M26.7,113.9c0.3,0.5,0.4,1,0.4,1.6c0,0.5-0.3,0.9-0.6,1.2c0,0-0.7-1.1-0.5-1.7
	C26.2,114.6,26.4,114.2,26.7,113.9z"/>
<path class="st0" d="M28.2,110.2c1,1.8,1.4,3.8,1.2,5.8c-0.2,1.7-1,3.2-2.3,4.3c0,0-2.3-4.2-1.5-6.2
	C26.3,112.7,27.2,111.4,28.2,110.2z"/>
<path class="st0" d="M29.3,108.9c1.2,2.2,1.8,4.8,1.7,7.3c-0.2,2.1-1.3,4.1-2.9,5.5c0,0-3-5.2-2-7.9C27,112,28,110.4,29.3,108.9z"/>
<path class="st0" d="M29.8,114.3c0.2,0.3,0.3,0.7,0.3,1.1c0,0.3-0.2,0.6-0.4,0.8c0,0-0.5-0.8-0.3-1.2
	C29.4,114.8,29.6,114.6,29.8,114.3z"/>
<path class="st0" d="M31.4,112.8c0.4,1,0.4,2,0.2,3c-0.2,0.8-0.7,1.5-1.5,2c0,0-0.9-2.3-0.3-3.2C30.3,113.9,30.8,113.3,31.4,112.8z"
	/>
<path class="st0" d="M32.5,113.1c0.3,0.9,0.3,1.9,0,2.8c-0.3,0.7-0.8,1.4-1.5,1.8c0,0-0.7-2.1-0.1-3C31.4,114,31.9,113.5,32.5,113.1
	z"/>
<path class="st0" d="M33,108.2c0,0,2.7,3.8,2.5,7.8c-0.1,2.4-1,4.6-2.6,6.3c0,0-3.8-5.5-2.9-8.5C30.7,111.9,31.7,109.9,33,108.2z"/>
<path class="st0" d="M34.4,112.4c0.5,1.1,0.7,2.2,0.5,3.4c-0.2,1-0.7,1.8-1.5,2.4c0,0-1.2-2.5-0.6-3.7
	C33.2,113.7,33.7,113,34.4,112.4z"/>
<path class="st0" d="M35.5,111.5c0.7,1.4,0.9,2.9,0.7,4.5c-0.2,1.3-0.9,2.4-1.9,3.2c0,0-1.6-3.3-0.9-4.8
	C34,113.3,34.7,112.3,35.5,111.5z"/>
<path class="st0" d="M37.8,108.7c0,0,1.6,4.2,0.5,7.9c-0.6,2.2-2.1,4.1-4,5.3c0,0-2.2-6-0.7-8.6C34.7,111.6,36.1,110,37.8,108.7z"/>
<path class="st0" d="M37.4,111.4c0.8,1.4,1.1,2.9,1,4.5c-0.2,1.3-0.8,2.5-1.8,3.4c0,0-1.8-3.2-1.2-4.9
	C36,113.3,36.6,112.3,37.4,111.4z"/>
<path class="st0" d="M38.3,114.4c0.1,0.4,0.1,0.8,0,1.2c-0.1,0.3-0.3,0.6-0.6,0.8c0,0-0.3-0.9,0-1.3
	C37.9,114.8,38.1,114.5,38.3,114.4z"/>
<path class="st0" d="M39.8,111.5c0.6,1.4,0.9,2.9,0.7,4.4c-0.2,1.3-0.9,2.4-2,3.2c0,0-1.6-3.3-0.8-4.8
	C38.2,113.3,38.9,112.3,39.8,111.5z"/>
<path class="st0" d="M41.1,111.1c0.6,1.6,0.8,3.3,0.5,5c-0.3,1.4-1.2,2.6-2.3,3.4c0,0-1.5-3.7-0.7-5.4C39.2,113,40.1,112,41.1,111.1
	z"/>
<path class="st0" d="M41.2,110.2c1.1,1.7,1.8,3.6,1.8,5.6c0,1.7-0.7,3.3-1.8,4.5c0,0-2.7-3.9-2.1-6
	C39.6,112.9,40.3,111.5,41.2,110.2z"/>
<path class="st0" d="M42.5,108.1c0,0,2.7,3.9,2.4,8.1c-0.1,2.4-1.1,4.7-2.8,6.4c0,0-3.8-5.7-2.8-8.7C40,111.7,41.1,109.8,42.5,108.1
	z"/>
<path class="st0" d="M44.3,111.2c0.6,1.6,0.7,3.3,0.3,5c-0.4,1.4-1.2,2.6-2.5,3.3c0,0-1.4-3.8-0.5-5.4C42.4,113,43.3,112,44.3,111.2
	z"/>
<path class="st0" d="M44.4,114.1c0.3,0.4,0.4,0.9,0.4,1.4c0,0.4-0.2,0.8-0.5,1.1c0,0-0.6-1-0.5-1.5
	C43.9,114.7,44.1,114.4,44.4,114.1z"/>
<path class="st0" d="M45.8,111.1c0.8,1.5,1.2,3.1,1.1,4.8c-0.2,1.4-0.8,2.7-1.9,3.6c0,0-1.9-3.4-1.3-5.2
	C44.2,113.1,44.9,112.1,45.8,111.1z"/>
<path class="st0" d="M47.3,112c0.5,1.3,0.6,2.7,0.3,4c-0.3,1.1-1,2.1-2,2.7c0,0-1.2-3-0.4-4.4C45.7,113.4,46.5,112.7,47.3,112z"/>
<path class="st0" d="M47.7,114.1c0.2,0.4,0.2,0.9,0.1,1.4c-0.1,0.4-0.3,0.8-0.7,1c0,0-0.4-1-0.2-1.5
	C47.2,114.7,47.4,114.4,47.7,114.1z"/>
<path class="st0" d="M48.5,114.4c0.2,0.3,0.3,0.7,0.3,1.1c0,0.3-0.2,0.6-0.4,0.8c0,0-0.5-0.8-0.3-1.2
	C48.2,114.8,48.4,114.6,48.5,114.4z"/>
<path class="st0" d="M50,113.8c0.2,0.6,0.2,1.3,0,1.9c-0.2,0.5-0.5,0.9-1,1.2c0,0-0.5-1.5,0-2.1C49.2,114.4,49.6,114,50,113.8z"/>
<path class="st0" d="M50.7,113.6c0.3,0.6,0.5,1.2,0.5,1.9c0,0.6-0.3,1.1-0.7,1.5c0,0-0.8-1.3-0.6-2C50.1,114.5,50.3,114,50.7,113.6z
	"/>
<path class="st0" d="M51.8,107.8c0,0,2.8,4,2.6,8.3c-0.1,2.5-1.1,4.9-2.8,6.7c0,0-4-5.8-3-9C49.3,111.6,50.4,109.6,51.8,107.8z"/>
<path class="st0" d="M54.5,109.5c0.7,2.3,0.7,4.8,0.1,7.1c-0.7,1.9-2,3.5-3.8,4.6c0,0-1.7-5.5-0.2-7.7
	C51.7,111.9,53,110.6,54.5,109.5z"/>
<path class="st0" d="M53.8,111.4c0.8,1.3,1.3,2.8,1.3,4.3c-0.1,1.3-0.6,2.5-1.5,3.4c0,0-2-3-1.5-4.6
	C52.5,113.4,53.1,112.4,53.8,111.4z"/>
<path class="st0" d="M54.8,113.7c0.3,0.5,0.5,1.2,0.5,1.8c0,0.5-0.3,1.1-0.6,1.4c0,0-0.8-1.3-0.6-2
	C54.2,114.5,54.5,114.1,54.8,113.7z"/>
<path class="st0" d="M55.9,114.1c0.2,0.4,0.3,0.9,0.3,1.4c-0.1,0.4-0.3,0.8-0.6,1.1c0,0-0.6-1-0.4-1.6
	C55.4,114.7,55.7,114.3,55.9,114.1z"/>
<path class="st0" d="M56.8,113.6c0.4,0.6,0.6,1.2,0.6,1.9c0,0.6-0.3,1.1-0.7,1.5c0,0-0.9-1.3-0.7-2.1
	C56.3,114.5,56.5,114,56.8,113.6z"/>
<path class="st0" d="M58.4,111.2c0.7,1.4,1.1,3.1,0.9,4.7c-0.2,1.4-0.9,2.6-1.9,3.5c0,0-1.8-3.4-1.1-5.1
	C56.8,113.2,57.5,112.1,58.4,111.2z"/>
<path class="st0" d="M59.9,111.7c0.5,1.4,0.5,2.9,0.2,4.3c-0.4,1.2-1.1,2.2-2.2,2.9c0,0-1.2-3.3-0.3-4.7
	C58.2,113.2,59,112.4,59.9,111.7z"/>
<path class="st0" d="M60.3,113.2c0.3,0.8,0.5,1.6,0.3,2.4c-0.1,0.7-0.5,1.3-1.1,1.7c0,0-0.8-1.8-0.4-2.7
	C59.5,114.2,59.9,113.7,60.3,113.2z"/>
<path class="st0" d="M63,108.6c0,0,1.5,4.3,0.3,8.1c-0.7,2.2-2.2,4.1-4.2,5.3c0,0-2.1-6.2-0.5-8.8C59.8,111.4,61.3,109.9,63,108.6z"
	/>
<path class="st0" d="M63,110c0.9,1.9,1.2,4.1,0.9,6.2c-0.3,1.8-1.3,3.3-2.7,4.4c0,0-2.2-4.6-1.2-6.7C60.8,112.4,61.8,111.1,63,110z"
	/>
<path class="st0" d="M63.8,113c0.3,0.9,0.3,1.9,0.1,2.8c-0.2,0.8-0.8,1.4-1.4,1.8c0,0-0.7-2.1-0.2-3C62.7,114,63.2,113.4,63.8,113z"
	/>
<path class="st0" d="M66,108.6c0,0,1.5,4.3,0.3,8.1c-0.7,2.2-2.1,4.1-4,5.3c0,0-2.2-6.1-0.6-8.7C62.9,111.5,64.3,109.9,66,108.6z"/>
<path class="st0" d="M65.4,114.4c0.1,0.4,0.2,0.8,0.1,1.1c-0.1,0.3-0.3,0.6-0.6,0.8c0,0-0.3-0.9-0.1-1.2
	C65,114.8,65.2,114.6,65.4,114.4z"/>
<path class="st0" d="M66.5,113.9c0.2,0.5,0.3,1.1,0.2,1.6c-0.1,0.5-0.3,0.9-0.7,1.1c0,0-0.6-1.2-0.3-1.8
	C65.9,114.6,66.1,114.2,66.5,113.9z"/>
<path class="st0" d="M69.1,108.7c0,0,1.5,4.2,0.4,7.9c-0.6,2.2-2.1,4-4,5.2c0,0-2.1-6-0.6-8.6C66,111.5,67.5,110,69.1,108.7z"/>
<path class="st0" d="M69.2,108.7c0,0,2.1,3.8,1.5,7.6c-0.3,2.2-1.4,4.2-3.1,5.6c0,0-2.9-5.5-1.8-8.2
	C66.6,111.8,67.7,110.2,69.2,108.7z"/>
<path class="st0" d="M71.5,109.1c0,0,1.2,4.2-0.1,7.7c-0.7,2.1-2.2,3.8-4.2,4.8c0,0-1.7-5.9-0.1-8.3
	C68.4,111.6,69.8,110.2,71.5,109.1z"/>
<path class="st0" d="M70.7,111.8c0.7,1.2,1,2.6,0.9,4c-0.1,1.2-0.7,2.2-1.6,3c0,0-1.6-2.8-1.1-4.3C69.4,113.5,70,112.6,70.7,111.8z"
	/>
<path class="st0" d="M72.5,110.5c0.7,1.8,0.9,3.8,0.6,5.7c-0.4,1.6-1.3,3-2.7,3.9c0,0-1.8-4.3-0.8-6.2
	C70.4,112.6,71.4,111.5,72.5,110.5z"/>
<path class="st0" d="M74,108.2c0,0,1.9,4.4,0.9,8.4c-0.5,2.3-1.9,4.4-3.9,5.8c0,0-2.6-6.2-1.2-9.1C70.9,111.4,72.3,109.7,74,108.2z"
	/>
<path class="st0" d="M73.8,113.7c0.3,0.6,0.4,1.3,0.3,1.9c-0.1,0.5-0.4,1-0.9,1.4c0,0-0.7-1.4-0.3-2.1
	C73.1,114.4,73.4,114,73.8,113.7z"/>
<path class="st0" d="M76.1,109.2c0.9,2.3,1,4.8,0.5,7.3c-0.5,2-1.8,3.8-3.6,4.9c0,0-2.1-5.5-0.7-7.9
	C73.3,111.9,74.6,110.4,76.1,109.2z"/>
<path class="st0" d="M75.9,111.1c0.8,1.5,1.2,3.1,1.2,4.8c-0.1,1.4-0.8,2.7-1.8,3.7c0,0-2-3.4-1.4-5.2
	C74.4,113.2,75.1,112.1,75.9,111.1z"/>
<path class="st0" d="M77.1,112.6c0.5,1,0.6,2.1,0.5,3.2c-0.2,0.9-0.7,1.7-1.4,2.2c0,0-1.1-2.3-0.6-3.4
	C76,113.8,76.5,113.2,77.1,112.6z"/>
<path class="st0" d="M78.8,111.7c0.4,1.4,0.4,3,0,4.4c-0.4,1.2-1.2,2.2-2.3,2.8c0,0-1-3.4-0.1-4.8C77.1,113.2,77.9,112.4,78.8,111.7
	z"/>
<path class="st0" d="M79.3,112.9c0.3,0.9,0.4,1.9,0.2,2.9c-0.2,0.8-0.7,1.5-1.4,2c0,0-0.9-2.2-0.3-3.2
	C78.2,114,78.7,113.4,79.3,112.9z"/>
<path class="st0" d="M80.1,112.9c0.4,0.9,0.6,1.8,0.5,2.8c-0.1,0.8-0.5,1.5-1.2,2.1c0,0-1.1-2-0.6-3C79.1,114,79.5,113.4,80.1,112.9
	z"/>
<path class="st0" d="M81.2,114c0.2,0.5,0.2,1.1,0,1.6c-0.2,0.4-0.5,0.8-0.9,1c0,0-0.4-1.2,0-1.7C80.6,114.5,80.9,114.2,81.2,114z"/>
<path class="st0" d="M81.8,114.2c0.3,0.4,0.4,0.8,0.4,1.3c0,0.4-0.2,0.7-0.4,1c0,0-0.6-0.9-0.5-1.4
	C81.5,114.7,81.6,114.4,81.8,114.2z"/>
<path class="st0" d="M83.3,111.6c0.7,1.3,1,2.8,0.8,4.3c-0.2,1.2-0.8,2.3-1.8,3.1c0,0-1.7-3.1-1-4.6
	C81.9,113.3,82.6,112.4,83.3,111.6z"/>
<path class="st0" d="M84.5,112.9c0.4,0.9,0.5,1.9,0.3,2.8c-0.2,0.8-0.7,1.5-1.3,1.9c0,0-0.9-2.1-0.4-3.1
	C83.4,114,83.9,113.4,84.5,112.9z"/>
<path class="st0" d="M85.1,113.8c0.3,0.5,0.4,1.1,0.4,1.7c-0.1,0.5-0.3,0.9-0.7,1.3c0,0-0.7-1.2-0.4-1.8
	C84.6,114.5,84.8,114.2,85.1,113.8z"/>
<path class="st0" d="M88.2,109c0,0,1.3,4.2-0.1,7.7c-0.7,2.1-2.2,3.8-4.2,4.9c0,0-1.8-6-0.1-8.4C85,111.6,86.5,110.2,88.2,109z"/>
<path class="st0" d="M87.7,113.1c0.3,0.9,0.3,1.8,0.1,2.7c-0.2,0.7-0.7,1.4-1.4,1.8c0,0-0.7-2.1-0.2-2.9
	C86.6,114,87.1,113.5,87.7,113.1z"/>
<path class="st0" d="M89.1,110.9c0.7,1.7,0.9,3.5,0.6,5.2c-0.3,1.5-1.2,2.8-2.5,3.6c0,0-1.7-3.9-0.7-5.7
	C87.1,112.9,88,111.8,89.1,110.9z"/>
<path class="st0" d="M89.2,113.1c0.5,0.8,0.7,1.6,0.7,2.5c0,0.8-0.4,1.5-0.9,2c0,0-1.1-1.8-0.8-2.7
	C88.4,114.2,88.8,113.6,89.2,113.1z"/>
<path class="st0" d="M91.3,108.2c0,0,2.1,4.2,1.4,8.2c-0.4,2.3-1.7,4.5-3.5,5.9c0,0-3-6-1.7-8.9C88.5,111.5,89.7,109.8,91.3,108.2z"
	/>
<path class="st0" d="M91.3,114.2c0.2,0.4,0.3,0.8,0.3,1.3c0,0.4-0.2,0.7-0.5,1c0,0-0.5-0.9-0.3-1.4
	C90.9,114.8,91.1,114.5,91.3,114.2z"/>
<path class="st0" d="M92.4,113.9c0.3,0.5,0.4,1.1,0.3,1.6c-0.1,0.5-0.3,0.9-0.7,1.2c0,0-0.6-1.2-0.4-1.8
	C91.9,114.6,92.1,114.2,92.4,113.9z"/>
<path class="st0" d="M95,107.9c0,0,1.9,4.6,0.9,8.8c-0.6,2.4-2.1,4.6-4.2,6c0,0-2.7-6.6-1.1-9.5C91.7,111.2,93.2,109.4,95,107.9z"/>
<path class="st0" d="M96.7,108c0,0,1.5,4.8,0.1,8.9c-0.8,2.4-2.5,4.4-4.7,5.7c0,0-2.1-6.8-0.3-9.6C93.1,111.1,94.8,109.4,96.7,108z"
	/>
</svg>
