<?xml version="1.0" encoding="utf-8"?>
<!-- Generator: Adobe Illustrator 24.2.3, SVG Export Plug-In . SVG Version: 6.00 Build 0)  -->
<svg version="1.1" id="Layer_1" xmlns="http://www.w3.org/2000/svg" xmlns:xlink="http://www.w3.org/1999/xlink" x="0px" y="0px"
	 viewBox="0 0 128 128" style="enable-background:new 0 0 128 128;" xml:space="preserve">
<style type="text/css">
	.st0{fill:#32E785;}
	.st1{fill:#7CFFA0;}
	.st2{fill:#6D5720;}
</style>
<path class="st0" d="M0,0h128l0,0v128l0,0H24c-13.3,0-24-10.7-24-24V0L0,0z"/>
<path class="st1" d="M98.7,107.8c0.1-1.3,0.6-2.5,1.2-3.6c1.2-2.4,6.1-1.2,6.1-1.2c-1.1,1.3-2.3,2.5-3.6,3.6
	C101.2,107.1,100,107.5,98.7,107.8z"/>
<path class="st1" d="M46.1,38.8c0.1-1.3,0.6-2.5,1.2-3.6c1.2-2.4,6.1-1.2,6.1-1.2c-1.1,1.3-2.3,2.5-3.6,3.6
	C48.5,38.2,47.3,38.6,46.1,38.8z"/>
<path class="st1" d="M92.8,106.4c-0.3-1.6-0.1-3.2,0.6-4.7c0.6-1.2,1.6-2.2,2.9-2.7c0,0,0.7,3.7-0.5,5.1
	C94.9,105,93.9,105.8,92.8,106.4z"/>
<path class="st1" d="M45.5,80.2c0.1-1.3,0.6-2.5,1.2-3.6c1.2-2.4,6-1.2,6-1.2c-1.1,1.3-2.3,2.5-3.6,3.6
	C47.9,79.5,46.7,79.9,45.5,80.2z"/>
<path class="st1" d="M39.5,78.9c-0.3-1.6-0.1-3.2,0.5-4.7c0.6-1.2,1.6-2.2,2.9-2.7c0,0,0.7,3.8-0.5,5.1
	C41.6,77.5,40.6,78.3,39.5,78.9z"/>
<path class="st1" d="M91.4,106.4c-1.5-1.2-2.7-2.7-3.7-4.3c-0.7-1.8-1-3.7-1-5.6c0,0,3.7,2,4.1,3.9
	C91.2,102.4,91.4,104.4,91.4,106.4z"/>
<path class="st1" d="M87.6,106.4c-0.1-0.4-0.7-4.1-2.6-4.5c-1.9-0.2-3.8-0.2-5.7,0c1.2,1.2,2.6,2.4,4.1,3.3
	C84.8,105.7,86.2,106.1,87.6,106.4z"/>
<path class="st1" d="M104.7,23.7c-1.5-1.2-2.7-2.7-3.7-4.3c-0.7-1.8-1-3.7-1-5.6c0,0,3.7,1.9,4.1,3.9
	C104.5,19.7,104.7,21.7,104.7,23.7z"/>
<path class="st1" d="M100.9,23.7c-0.1-0.4-0.7-4.1-2.6-4.5c-1.9-0.2-3.8-0.2-5.7,0c1.2,1.2,2.6,2.4,4.1,3.3
	C98.1,23.1,99.5,23.5,100.9,23.7z"/>
<path class="st1" d="M38.6,38.6c-1.5-1.2-2.7-2.7-3.7-4.3c-0.7-1.8-1-3.7-1-5.6c0,0,3.7,2,4.2,3.9C38.4,34.6,38.6,36.6,38.6,38.6z"
	/>
<path class="st1" d="M34.8,38.6c-0.1-0.4-0.7-4.1-2.6-4.5c-1.9-0.2-3.8-0.2-5.7,0c1.2,1.2,2.6,2.4,4.1,3.3
	C32,38,33.4,38.4,34.8,38.6z"/>
<rect x="128" class="st0" width="128" height="128"/>
<path class="st2" d="M360-244c6.6,0,12,5.4,12,12l0,0v336c0,6.6-5.4,12-12,12H24c-6.6,0-12-5.4-12-12v-336c0-6.6,5.4-12,12-12l0,0
	H360 M360-256H24c-13.3,0-24,10.7-24,24l0,0l0,360l360,0c13.3,0,24-10.7,24-24v-336C384-245.3,373.3-256,360-256L360-256z"/>
<path class="st0" d="M18.5,0.2c0,0-4.4,1.5-8.3,0.2C8-0.4,6.1-1.9,4.9-4c0,0,6.4-2.1,9-0.3C15.7-3.1,17.2-1.6,18.5,0.2z"/>
<path class="st0" d="M18.8-0.7c0,0-3.9,2.6-7.9,2.3C8.5,1.5,6.3,0.6,4.7-1.1c0,0,5.5-3.6,8.5-2.7C15.2-3.1,17.1-2,18.8-0.7z"/>
<path class="st0" d="M13.7,0.6C13,0.9,12.1,1,11.3,0.8C10.6,0.6,10,0.2,9.6-0.4c0,0,1.9-0.7,2.7-0.2C12.8-0.3,13.3,0.1,13.7,0.6z"/>
<path class="st0" d="M13.6,1.5c-0.7,0.3-1.5,0.4-2.3,0.3c-0.6-0.1-1.2-0.5-1.6-1c0,0,1.7-0.8,2.4-0.4C12.7,0.7,13.2,1.1,13.6,1.5z"
	/>
<path class="st0" d="M15.9,2.8c-1.5,0.8-3.2,1.1-4.9,0.9c-1.4-0.2-2.7-1-3.6-2.1c0,0,3.6-1.8,5.3-1.1C13.9,1.1,15,1.9,15.9,2.8z"/>
<path class="st0" d="M12.9,3.5c-0.4,0.2-0.9,0.2-1.4,0.2c-0.4-0.1-0.8-0.3-1-0.6c0,0,1-0.4,1.5-0.2C12.3,3,12.6,3.2,12.9,3.5z"/>
<path class="st0" d="M19.3,4.7c0,0-4.2,2.7-8.6,2.4C8.3,6.9,5.9,5.8,4.1,4c0,0,6-3.8,9.2-2.8C15.5,2,17.5,3.2,19.3,4.7z"/>
<path class="st0" d="M18,6.7c-2.4,1-5,1.3-7.5,0.9c-2.1-0.5-4-1.7-5.2-3.5c0,0,5.6-2.4,8.1-1.1C15.2,4,16.7,5.2,18,6.7z"/>
<path class="st0" d="M17.2,6.6c-1.9,1.2-4,1.8-6.2,1.8C9.2,8.3,7.5,7.5,6.2,6.2c0,0,4.4-2.8,6.7-2C14.4,4.7,15.9,5.6,17.2,6.6z"/>
<path class="st0" d="M18.9,8.2c0,0-4.1,2.3-8.2,1.8C8.3,9.7,6.1,8.5,4.5,6.7c0,0,6-3.3,8.9-2.1C15.4,5.5,17.3,6.7,18.9,8.2z"/>
<path class="st0" d="M16.2,9.5c-1.7,0.7-3.6,0.8-5.4,0.5C9.3,9.6,8,8.7,7.2,7.4c0,0,4.1-1.6,5.8-0.6C14.2,7.5,15.3,8.4,16.2,9.5z"/>
<path class="st0" d="M16.3,10.7c-1.8,0.6-3.7,0.8-5.6,0.4c-1.5-0.4-2.9-1.4-3.7-2.8c0,0,4.2-1.6,6-0.5C14.3,8.6,15.4,9.6,16.3,10.7z
	"/>
<path class="st0" d="M18.2,12.8c0,0-4.3,1.3-8-0.1c-2.1-0.8-3.9-2.3-5-4.4c0,0,6.2-1.8,8.7-0.1C15.6,9.5,17.1,11.1,18.2,12.8z"/>
<path class="st0" d="M16.6,12.4c-1.8,0.8-3.7,1.2-5.7,0.9c-1.6-0.3-3.1-1.2-4.1-2.5c0,0,4.2-2,6.2-1.1
	C14.3,10.4,15.5,11.3,16.6,12.4z"/>
<path class="st0" d="M13.2,12.7c-0.5,0.3-1.1,0.5-1.7,0.5c-0.5,0-1-0.2-1.3-0.6c0,0,1.2-0.8,1.8-0.6C12.4,12.2,12.8,12.4,13.2,12.7z
	"/>
<path class="st0" d="M19.4,14.4c0,0-4.4,2.6-8.7,2C8.1,16.1,5.7,14.9,4,13c0,0,6.3-3.6,9.4-2.4C15.6,11.5,17.6,12.8,19.4,14.4z"/>
<path class="st0" d="M14.4,14.8c-0.9,0.6-1.9,0.8-3,0.8c-0.9-0.1-1.7-0.4-2.4-1.1c0,0,2.1-1.3,3.2-1C13,13.9,13.7,14.3,14.4,14.8z"
	/>
<path class="st0" d="M16.3,17.2c-1.8,0.6-3.8,0.6-5.6,0.1c-1.5-0.5-2.8-1.6-3.6-3c0,0,4.3-1.4,6.1-0.2C14.4,14.9,15.5,16,16.3,17.2z
	"/>
<path class="st0" d="M15,17.9c-1.3,0.4-2.7,0.4-4,0c-1.1-0.4-2-1.1-2.6-2.1c0,0,3.1-0.9,4.3-0.1C13.7,16.2,14.4,17,15,17.9z"/>
<path class="st0" d="M12.8,18c-0.4,0.2-0.8,0.3-1.2,0.2c-0.4-0.1-0.7-0.2-0.9-0.5c0,0,0.9-0.5,1.3-0.3C12.2,17.6,12.5,17.8,12.8,18z
	"/>
<path class="st0" d="M16.7,19.1c-1.7,1-3.6,1.6-5.6,1.6c-1.7-0.1-3.2-0.8-4.4-2c0,0,3.9-2.5,6-1.8C14.2,17.4,15.5,18.1,16.7,19.1z"
	/>
<path class="st0" d="M13.6,20.3c-0.7,0.3-1.5,0.4-2.3,0.3c-0.6-0.1-1.2-0.5-1.6-1c0,0,1.7-0.8,2.5-0.4
	C12.8,19.5,13.2,19.9,13.6,20.3z"/>
<path class="st0" d="M13.5,21.1c-0.6,0.4-1.4,0.5-2.1,0.5c-0.6-0.1-1.2-0.3-1.6-0.8c0,0,1.5-0.9,2.2-0.6
	C12.6,20.4,13.1,20.7,13.5,21.1z"/>
<path class="st0" d="M16.1,22.1c-1.5,1-3.2,1.5-4.9,1.5c-1.5-0.1-2.9-0.7-3.9-1.7c0,0,3.5-2.3,5.3-1.8
	C13.9,20.6,15.1,21.3,16.1,22.1z"/>
<path class="st0" d="M13.1,23.1c-0.5,0.3-1,0.4-1.6,0.4c-0.4,0-0.9-0.2-1.2-0.5c0,0,1.1-0.7,1.7-0.5C12.4,22.7,12.7,22.9,13.1,23.1z
	"/>
<path class="st0" d="M16.8,25.6c-2,0.7-4.1,0.7-6.1,0.2c-1.7-0.5-3.1-1.6-4-3.1c0,0,4.7-1.6,6.7-0.4C14.6,23.2,15.8,24.3,16.8,25.6z
	"/>
<path class="st0" d="M17.8,26.7c-2.3,0.9-4.9,1.1-7.3,0.5c-2-0.5-3.8-1.8-4.9-3.6c0,0,5.5-2.1,7.9-0.8
	C15.1,23.9,16.6,25.2,17.8,26.7z"/>
<path class="st0" d="M15.8,26.7c-1.5,0.8-3.1,1.1-4.8,0.9c-1.4-0.2-2.6-0.9-3.5-2c0,0,3.4-1.8,5.1-1.1
	C13.9,25.1,14.9,25.8,15.8,26.7z"/>
<path class="st0" d="M17.8,27.9c-2.1,1.2-4.6,1.7-7,1.5c-2-0.2-3.9-1.2-5.3-2.8c0,0,5.1-2.8,7.6-1.8C14.9,25.6,16.5,26.6,17.8,27.9z
	"/>
<path class="st0" d="M15.5,29.4c-1.5,0.5-3.1,0.6-4.6,0.2c-1.3-0.4-2.3-1.2-3-2.3c0,0,3.5-1.2,5-0.3C13.9,27.6,14.8,28.4,15.5,29.4z
	"/>
<path class="st0" d="M14.6,29.9c-1.1,0.5-2.3,0.6-3.5,0.4c-1-0.2-1.8-0.8-2.4-1.6c0,0,2.6-1.1,3.7-0.5C13.3,28.6,14,29.2,14.6,29.9z
	"/>
<path class="st0" d="M16.5,31.8c-1.9,0.6-3.9,0.6-5.9,0.1c-1.6-0.5-2.9-1.6-3.8-3.1c0,0,4.5-1.5,6.4-0.3
	C14.5,29.5,15.6,30.6,16.5,31.8z"/>
<path class="st0" d="M19.1,32.8c0,0-4.4,2.1-8.6,1.2c-2.4-0.5-4.6-1.9-6.1-3.9c0,0,6.4-2.9,9.3-1.5C15.7,29.7,17.5,31.1,19.1,32.8z"
	/>
<path class="st0" d="M16.8,33C15,34,13,34.4,11,34.2c-1.7-0.2-3.3-1-4.4-2.3c0,0,4.2-2.3,6.3-1.5C14.4,31.1,15.7,31.9,16.8,33z"/>
<path class="st0" d="M14.8,34.1c-1.1,0.5-2.4,0.6-3.6,0.4c-1-0.2-1.9-0.8-2.5-1.7c0,0,2.7-1.2,3.9-0.5
	C13.4,32.8,14.1,33.4,14.8,34.1z"/>
<path class="st0" d="M17.3,35.2c-2,1-4.2,1.5-6.5,1.3c-1.9-0.3-3.6-1.2-4.8-2.6c0,0,4.7-2.5,7-1.6C14.6,33,16.1,34,17.3,35.2z"/>
<path class="st0" d="M15.2,35.7c-1.2,0.8-2.6,1.2-4,1.2c-1.2-0.1-2.3-0.5-3.1-1.4c0,0,2.8-1.8,4.2-1.4C13.4,34.5,14.4,35,15.2,35.7z
	"/>
<path class="st0" d="M17.5,36.7c-1.9,1.3-4.1,2-6.4,2c-1.9-0.1-3.8-0.8-5.2-2.1c0,0,4.5-3.1,6.9-2.4C14.5,34.7,16.1,35.6,17.5,36.7z
	"/>
<path class="st0" d="M12.8,37.8c-0.4,0.2-0.9,0.2-1.3,0.2c-0.4-0.1-0.7-0.3-0.9-0.6c0,0,1-0.4,1.4-0.2
	C12.3,37.4,12.6,37.6,12.8,37.8z"/>
<path class="st0" d="M18.1,40.3c-2.4,0.9-5.1,1.1-7.6,0.5c-2.1-0.6-3.9-1.9-5.1-3.8c0,0,5.8-2.2,8.3-0.8
	C15.3,37.4,16.8,38.8,18.1,40.3z"/>
<path class="st0" d="M15.6,40c-1.4,0.8-2.9,1.2-4.4,1.1c-1.3-0.1-2.5-0.7-3.4-1.7c0,0,3.2-1.9,4.8-1.3C13.7,38.6,14.7,39.2,15.6,40z
	"/>
<path class="st0" d="M17.2,42.5c-2.2,0.7-4.5,0.7-6.7,0.2c-1.8-0.6-3.4-1.8-4.3-3.5c0,0,5.2-1.7,7.3-0.3
	C14.9,39.8,16.2,41.1,17.2,42.5z"/>
<path class="st0" d="M14.1,42.5c-1,0.3-2,0.3-3,0.1c-0.8-0.3-1.5-0.8-1.9-1.5c0,0,2.3-0.7,3.2-0.1C13.1,41.4,13.7,41.9,14.1,42.5z"
	/>
<path class="st0" d="M15.3,43.9c-1.4,0.5-2.9,0.5-4.4,0.2c-1.2-0.4-2.2-1.2-2.9-2.3c0,0,3.4-1.2,4.8-0.3
	C13.8,42.2,14.6,43,15.3,43.9z"/>
<path class="st0" d="M12.8,44c-0.4,0.2-0.8,0.3-1.2,0.3c-0.4,0-0.7-0.2-0.9-0.5c0,0,0.9-0.5,1.3-0.3C12.2,43.6,12.5,43.8,12.8,44z"
	/>
<path class="st0" d="M17.8,46.3c-2.3,0.9-4.8,1.2-7.3,0.7c-2-0.5-3.8-1.7-5-3.5c0,0,5.4-2.2,7.9-0.9C15.1,43.6,16.6,44.9,17.8,46.3z
	"/>
<path class="st0" d="M14.3,46c-0.8,0.6-1.9,0.9-2.9,1c-0.9,0-1.7-0.4-2.4-1c0,0,2-1.4,3.1-1.1C13,45.1,13.7,45.5,14.3,46z"/>
<path class="st0" d="M18.1,48.2c-2.3,1-4.9,1.4-7.5,1c-2.1-0.4-4-1.6-5.3-3.3c0,0,5.5-2.5,8.1-1.3C15.2,45.5,16.7,46.7,18.1,48.2z"
	/>
<path class="st0" d="M19,48.6c0,0-4.1,2.5-8.3,2.1c-2.4-0.2-4.7-1.3-6.4-3.1c0,0,5.9-3.5,9-2.5C15.4,46,17.4,47.2,19,48.6z"/>
<path class="st0" d="M15.4,49.8c-1.4,0.6-2.9,0.8-4.3,0.5c-1.2-0.3-2.3-1-3-2c0,0,3.2-1.4,4.7-0.7C13.7,48.2,14.6,49,15.4,49.8z"/>
<path class="st0" d="M17.2,50.8c-2,1-4.2,1.5-6.4,1.3c-1.8-0.3-3.5-1.2-4.7-2.6c0,0,4.6-2.5,6.8-1.5C14.6,48.7,16,49.7,17.2,50.8z"
	/>
<path class="st0" d="M18.2,53.1c0,0-4.2,1.5-7.8,0.3c-2.1-0.7-4-2.1-5.1-4c0,0,6-2,8.5-0.5C15.4,50,16.9,51.5,18.2,53.1z"/>
<path class="st0" d="M15.4,53.4c-1.5,0.4-3,0.5-4.5,0C9.7,53,8.6,52.2,8,51.1c0,0,3.4-1.1,4.9-0.2C13.8,51.6,14.7,52.4,15.4,53.4z"
	/>
<path class="st0" d="M19.2,54.2c0,0-4.4,2.4-8.7,1.7c-2.5-0.4-4.8-1.6-6.4-3.6c0,0,6.3-3.3,9.4-2C15.6,51.3,17.6,52.7,19.2,54.2z"/>
<path class="st0" d="M18.8,55c0,0-4.1,2.3-8.1,1.8c-2.4-0.3-4.6-1.4-6.1-3.2c0,0,5.9-3.3,8.8-2.2C15.4,52.4,17.2,53.6,18.8,55z"/>
<path class="st0" d="M17.4,56.2c-2,1-4.3,1.4-6.6,1.1C8.9,57,7.2,56,6,54.5c0,0,4.8-2.4,7.1-1.3C14.7,54,16.1,55,17.4,56.2z"/>
<path class="st0" d="M15.8,57.5c-1.6,0.6-3.3,0.6-5,0.2c-1.4-0.4-2.5-1.3-3.3-2.5c0,0,3.8-1.3,5.4-0.4C14,55.6,15,56.5,15.8,57.5z"
	/>
<path class="st0" d="M16.8,57.7c-1.7,1.1-3.7,1.6-5.7,1.6c-1.7-0.1-3.3-0.9-4.5-2.1c0,0,4.1-2.5,6.2-1.8
	C14.2,55.9,15.6,56.7,16.8,57.7z"/>
<path class="st0" d="M19.3,59.2c0,0-4.3,2.5-8.7,2c-2.5-0.3-4.9-1.5-6.6-3.4c0,0,6.2-3.6,9.4-2.4C15.6,56.4,17.6,57.7,19.3,59.2z"/>
<path class="st0" d="M16.6,60.1c-1.7,0.9-3.7,1.3-5.6,1.2c-1.6-0.2-3.1-1-4.2-2.3c0,0,4.1-2.2,6.1-1.4
	C14.3,58.2,15.5,59.1,16.6,60.1z"/>
<path class="st0" d="M14.8,60.9c-1.1,0.6-2.3,0.9-3.6,0.8c-1-0.1-2-0.6-2.7-1.4c0,0,2.6-1.4,3.9-0.9C13.3,59.7,14.1,60.2,14.8,60.9z
	"/>
<path class="st0" d="M15,61.8c-1.1,0.7-2.4,1-3.7,1c-1.1-0.1-2.1-0.6-2.9-1.4c0,0,2.6-1.6,4-1.1C13.4,60.7,14.2,61.2,15,61.8z"/>
<path class="st0" d="M16.3,62.9c-1.6,1-3.4,1.5-5.2,1.5c-1.5-0.1-3-0.8-4.1-1.8c0,0,3.7-2.3,5.6-1.7C14,61.3,15.2,62,16.3,62.9z"/>
<path class="st0" d="M17.6,65.5c-2.3,0.7-4.8,0.8-7.1,0.2c-1.9-0.6-3.6-1.9-4.6-3.7c0,0,5.5-1.8,7.7-0.4
	C15.1,62.7,16.4,64,17.6,65.5z"/>
<path class="st0" d="M15.4,65.8c-1.4,0.5-3,0.6-4.5,0.2c-1.2-0.4-2.3-1.2-2.9-2.3c0,0,3.4-1.2,4.8-0.3C13.8,64,14.7,64.8,15.4,65.8z
	"/>
<path class="st0" d="M18.3,67c0,0-4,1.9-7.7,1.1c-2.2-0.4-4.2-1.6-5.5-3.4c0,0,5.7-2.7,8.4-1.4C15.3,64.3,16.9,65.5,18.3,67z"/>
<path class="st0" d="M15.9,67.6c-1.5,0.7-3.2,0.9-4.9,0.6C9.6,68,8.4,67.2,7.5,66c0,0,3.6-1.6,5.3-0.8C14,65.8,15,66.7,15.9,67.6z"
	/>
<path class="st0" d="M15.5,68.4c-1.4,0.7-2.9,0.9-4.4,0.8c-1.3-0.2-2.4-0.9-3.2-1.8c0,0,3.2-1.6,4.7-1
	C13.7,66.9,14.7,67.6,15.5,68.4z"/>
<path class="st0" d="M17.3,70.3c-2.1,0.8-4.5,1-6.7,0.5c-1.9-0.5-3.5-1.7-4.5-3.3c0,0,5.1-1.9,7.3-0.7C14.9,67.8,16.2,69,17.3,70.3z
	"/>
<path class="st0" d="M13.4,70.5c-0.7,0.2-1.4,0.2-2.1,0c-0.6-0.2-1-0.6-1.3-1.1c0,0,1.6-0.5,2.3-0.1C12.7,69.7,13.1,70,13.4,70.5z"
	/>
<path class="st0" d="M18.1,73.1c0,0-4.2,1.3-7.8,0c-2.1-0.7-3.9-2.2-4.9-4.1c0,0,6-1.8,8.5-0.2C15.4,70,16.9,71.4,18.1,73.1z"/>
<path class="st0" d="M14,72.5c-0.9,0.4-1.8,0.5-2.7,0.3c-0.8-0.2-1.4-0.6-1.9-1.3c0,0,2.1-0.9,3-0.4C13,71.5,13.5,72,14,72.5z"/>
<path class="st0" d="M18.2,74.4c0,0-4,1.8-7.7,1c-2.2-0.5-4.1-1.7-5.4-3.5c0,0,5.7-2.6,8.3-1.2C15.3,71.6,16.9,72.9,18.2,74.4z"/>
<path class="st0" d="M14.6,74.7c-1.1,0.5-2.3,0.6-3.4,0.5c-1-0.2-1.8-0.7-2.4-1.6c0,0,2.6-1.2,3.7-0.6C13.3,73.4,14,74,14.6,74.7z"
	/>
<path class="st0" d="M16.3,75.4c-1.6,0.9-3.4,1.4-5.2,1.4c-1.5-0.1-2.9-0.8-4-1.9c0,0,3.7-2.3,5.6-1.6C14,73.8,15.2,74.5,16.3,75.4z
	"/>
<path class="st0" d="M17.6,76.6c-2,1.2-4.3,1.8-6.6,1.7c-2-0.2-3.8-1.1-5.1-2.5c0,0,4.7-2.8,7.2-2C14.7,74.5,16.2,75.4,17.6,76.6z"
	/>
<path class="st0" d="M18.8,79c0,0-4.4,1.8-8.4,0.6C8,79,6,77.5,4.6,75.5c0,0,6.4-2.5,9.1-0.9C15.7,75.8,17.3,77.3,18.8,79z"/>
<path class="st0" d="M14.2,78.4c-0.8,0.5-1.8,0.8-2.8,0.8c-0.8,0-1.6-0.4-2.2-1c0,0,2-1.3,3.1-1C12.9,77.5,13.6,77.9,14.2,78.4z"/>
<path class="st0" d="M13.7,79.8c-0.8,0.3-1.6,0.4-2.4,0.2c-0.7-0.2-1.3-0.6-1.6-1.2c0,0,1.8-0.7,2.6-0.3
	C12.8,78.9,13.3,79.3,13.7,79.8z"/>
<path class="st0" d="M16.2,81.8c-1.8,0.5-3.7,0.6-5.4,0.1C9.2,81.4,8,80.4,7.2,79c0,0,4.2-1.3,5.9-0.2
	C14.3,79.6,15.3,80.6,16.2,81.8z"/>
<path class="st0" d="M15.9,82.3c-1.6,0.6-3.3,0.8-4.9,0.5c-1.4-0.3-2.6-1.2-3.4-2.3c0,0,3.7-1.5,5.3-0.6C14,80.5,15,81.4,15.9,82.3z
	"/>
<path class="st0" d="M17.2,82.9c-1.9,1.1-4,1.6-6.2,1.5c-1.9-0.2-3.6-1-4.8-2.4c0,0,4.5-2.6,6.8-1.8C14.5,80.9,16,81.8,17.2,82.9z"
	/>
<path class="st0" d="M19,85.3c0,0-4.6,1.8-8.7,0.7c-2.4-0.6-4.5-2.2-5.8-4.2c0,0,6.6-2.5,9.4-0.9C15.8,82,17.6,83.6,19,85.3z"/>
<path class="st0" d="M14,84.6c-0.8,0.5-1.7,0.7-2.6,0.7c-0.8,0-1.5-0.4-2.1-0.9c0,0,1.8-1.2,2.8-0.9C12.8,83.8,13.5,84.2,14,84.6z"
	/>
<path class="st0" d="M18,86.1c-2.2,1.3-4.6,1.9-7.1,1.8c-2.1-0.2-4-1.1-5.5-2.7c0,0,5.1-3,7.7-2.1C14.9,83.8,16.5,84.8,18,86.1z"/>
<path class="st0" d="M12.7,86.8C12.3,87,11.9,87,11.5,87c-0.3-0.1-0.7-0.3-0.9-0.5c0,0,0.9-0.4,1.3-0.2
	C12.2,86.4,12.5,86.6,12.7,86.8z"/>
<path class="st0" d="M15.1,88.8c-1.4,0.4-2.8,0.4-4.2,0c-1.1-0.4-2.1-1.2-2.6-2.3c0,0,3.2-1,4.6-0.1C13.7,87.1,14.5,87.9,15.1,88.8z
	"/>
<path class="st0" d="M16.3,88.9c-1.5,1-3.3,1.5-5.1,1.4c-1.5-0.1-2.9-0.8-4-1.8c0,0,3.6-2.3,5.5-1.7C14,87.3,15.2,88,16.3,88.9z"/>
<path class="st0" d="M17.2,91.6c-2.2,0.6-4.5,0.6-6.7,0c-1.8-0.6-3.3-1.9-4.2-3.6c0,0,5.2-1.6,7.3-0.2
	C14.9,88.9,16.2,90.1,17.2,91.6z"/>
<path class="st0" d="M15,91.4c-1.2,0.5-2.5,0.7-3.8,0.5c-1.1-0.2-2-0.9-2.7-1.8c0,0,2.8-1.3,4.1-0.6C13.5,90,14.3,90.7,15,91.4z"/>
<path class="st0" d="M19.4,92.1c0,0-4.2,2.8-8.6,2.5c-2.6-0.1-5-1.2-6.8-3c0,0,6-3.9,9.2-2.9C15.5,89.5,17.6,90.7,19.4,92.1z"/>
<path class="st0" d="M12.8,93.1c-0.4,0.2-0.9,0.2-1.3,0.2c-0.4-0.1-0.7-0.3-0.9-0.6c0,0,1-0.4,1.4-0.2
	C12.3,92.6,12.6,92.8,12.8,93.1z"/>
<path class="st0" d="M13.3,93.3c-0.4,0.5-0.9,0.8-1.5,1c-0.5,0.1-1,0-1.4-0.2c0,0,0.9-1.1,1.6-1.1C12.4,93,12.9,93.2,13.3,93.3z"/>
<path class="st0" d="M18.5,94c-1.9,1.7-4.2,2.8-6.7,3.2c-2.1,0.2-4.3-0.3-6-1.6c0,0,4.4-4.1,7.2-3.6C14.9,92.4,16.8,93,18.5,94z"/>
<path class="st0" d="M15.5,95c-0.9,1-2,1.7-3.2,2c-1.1,0.2-2.2,0.1-3.1-0.5c0,0,2-2.3,3.5-2.2C13.7,94.4,14.6,94.6,15.5,95z"/>
<path class="st0" d="M16.5,96.7c-1.3,0.9-2.8,1.4-4.3,1.4c-1.3,0-2.5-0.5-3.5-1.4c0,0,3-2.1,4.6-1.7C14.5,95.5,15.6,96,16.5,96.7z"
	/>
<path class="st0" d="M14.4,97.5c-0.4,0.4-1,0.7-1.6,0.8c-0.5,0.1-1,0-1.5-0.3c0,0,1-1,1.7-0.9C13.6,97.1,14,97.3,14.4,97.5z"/>
<path class="st0" d="M16.4,98.4c-0.9,0.9-2.1,1.4-3.4,1.6c-1.1,0.1-2.1-0.2-3-0.8c0,0,2.2-2,3.6-1.8C14.6,97.6,15.5,97.9,16.4,98.4z
	"/>
<path class="st0" d="M15.4,99.4c-0.5,0.6-1.2,0.9-2,1.1c-0.6,0.1-1.3,0-1.9-0.4c0,0,1.3-1.3,2.1-1.3C14.3,98.9,14.8,99.1,15.4,99.4z
	"/>
<path class="st0" d="M19.1,101c-1.8,1.1-3.9,1.7-6,1.7c-1.8-0.1-3.4-0.9-4.7-2.1c0,0,4.2-2.7,6.4-2C16.4,99.1,17.8,99.9,19.1,101z"
	/>
<path class="st0" d="M15.6,101.6c-0.5,0.4-1.1,0.7-1.7,0.8c-0.5,0-1.1-0.1-1.5-0.4c0,0,1.1-1,1.8-0.9
	C14.7,101.2,15.2,101.4,15.6,101.6z"/>
<path class="st0" d="M18.5,102.6c-1.3,1-2.9,1.6-4.6,1.8c-1.4,0-2.8-0.4-3.8-1.3c0,0,3.1-2.4,4.9-2
	C16.2,101.3,17.4,101.9,18.5,102.6z"/>
<path class="st0" d="M21.8,104.2c0,0-4,2.6-8.1,2.2c-2.4-0.2-4.6-1.2-6.3-2.9c0,0,5.7-3.6,8.7-2.6C18.1,101.6,20.1,102.8,21.8,104.2
	z"/>
<path class="st0" d="M18,103c-0.7,1.2-1.7,2.2-3,2.9c-1.1,0.5-2.3,0.6-3.4,0.3c0,0,1.6-2.9,3.1-3.2C15.9,102.8,17,102.8,18,103z"/>
<path class="st0" d="M18.5,103.6c-0.6,1.2-1.6,2.2-2.7,2.8c-1,0.5-2.2,0.6-3.3,0.3c0,0,1.5-2.8,2.9-3.1
	C16.4,103.5,17.5,103.5,18.5,103.6z"/>
<path class="st0" d="M19,104.1c-0.5,1.2-1.3,2.2-2.4,3c-0.9,0.6-2.1,0.8-3.1,0.6c0,0,1.1-2.9,2.5-3.3C17,104.1,18,104,19,104.1z"/>
<path class="st0" d="M18.8,105.6c-0.4,0.8-0.9,1.4-1.6,1.9c-0.6,0.3-1.3,0.5-2,0.3c0,0,0.8-1.8,1.7-2.1
	C17.5,105.5,18.2,105.5,18.8,105.6z"/>
<path class="st0" d="M20.2,105.7c-0.4,1.1-1.2,2.1-2.1,2.8c-0.8,0.6-1.8,0.8-2.8,0.6c0,0,1-2.6,2.2-3.1
	C18.3,105.8,19.3,105.7,20.2,105.7z"/>
<path class="st0" d="M22.4,105.4c-0.7,1.8-1.9,3.3-3.4,4.5c-1.3,0.9-3,1.2-4.6,1c0,0,1.6-4.3,3.6-5
	C19.5,105.5,20.9,105.3,22.4,105.4z"/>
<path class="st0" d="M23.4,104.8c-0.5,2.3-1.6,4.3-3.2,6c-1.4,1.3-3.3,2-5.2,2.1c0,0,1.1-5.4,3.3-6.6
	C19.9,105.6,21.6,105.1,23.4,104.8z"/>
<path class="st0" d="M23.6,107.8c-0.8,1.4-2,2.6-3.4,3.4c-1.2,0.6-2.7,0.7-4,0.3c0,0,1.8-3.4,3.6-3.7
	C21.1,107.5,22.3,107.6,23.6,107.8z"/>
<path class="st0" d="M24.8,106.9c-0.6,2-1.7,3.9-3.3,5.3c-1.4,1.1-3.1,1.7-4.9,1.6c0,0,1.3-4.8,3.4-5.8
	C21.5,107.4,23.1,107,24.8,106.9z"/>
<path class="st0" d="M22.6,110.2c-0.2,0.6-0.5,1-1,1.4c-0.4,0.3-0.9,0.4-1.4,0.3c0,0,0.4-1.3,1-1.5
	C21.6,110.3,22.1,110.2,22.6,110.2z"/>
<path class="st0" d="M26.1,109.9c-0.8,1.5-2.1,2.7-3.6,3.6c-1.3,0.6-2.8,0.7-4.2,0.3c0,0,2-3.6,3.9-3.9
	C23.4,109.6,24.7,109.7,26.1,109.9z"/>
<path class="st0" d="M25.7,109.3c-0.3,1.6-1,3.2-2.1,4.4c-1,1-2.3,1.6-3.7,1.7c0,0,0.6-3.9,2.2-4.8C23.2,110,24.4,109.5,25.7,109.3z
	"/>
<path class="st0" d="M25.8,106.2c0,0,1.2,4.2-0.1,7.8c-0.8,2.1-2.3,3.8-4.2,4.9c0,0-1.7-6-0.1-8.4C22.7,108.8,24.2,107.4,25.8,106.2
	z"/>
<path class="st0" d="M25.5,111c0.1,0.8,0,1.6-0.3,2.3c-0.3,0.6-0.8,1.1-1.4,1.3c0,0-0.3-1.8,0.2-2.5C24.5,111.7,24.9,111.3,25.5,111
	z"/>
<path class="st0" d="M26.3,112c0,0.5-0.1,1-0.4,1.4c-0.2,0.4-0.6,0.6-1,0.7c0,0-0.1-1.2,0.4-1.6C25.6,112.3,25.9,112.1,26.3,112z"/>
<path class="st0" d="M29,106.4c0,0,1.4,4.6,0,8.6c-0.8,2.3-2.4,4.3-4.6,5.4c0,0-2-6.6-0.2-9.3C25.5,109.3,27.1,107.7,29,106.4z"/>
<path class="st0" d="M32,107.3c0,0,0.1,5-2.4,8.6c-1.5,2.1-3.6,3.6-6.1,4.2c0,0-0.1-7.2,2.4-9.4C27.7,109.2,29.8,108.1,32,107.3z"/>
<path class="st0" d="M30.4,110.9c0.1,1.4-0.1,2.8-0.8,4c-0.6,1-1.5,1.7-2.6,2.1c0,0-0.3-3.2,0.7-4.3C28.5,112,29.4,111.4,30.4,110.9
	z"/>
<path class="st0" d="M30.1,112.8c0.2,0.5,0.2,1.1,0,1.7c-0.2,0.5-0.5,0.8-0.9,1.1c0,0-0.4-1.3,0-1.8
	C29.5,113.4,29.8,113.1,30.1,112.8z"/>
<path class="st0" d="M31.6,113c0,0.7-0.2,1.4-0.5,2c-0.3,0.5-0.8,0.8-1.4,1c0,0-0.1-1.7,0.5-2.2C30.7,113.4,31.1,113.2,31.6,113z"/>
<path class="st0" d="M33.5,110.5c0.4,1.8,0.2,3.7-0.5,5.4c-0.6,1.4-1.8,2.5-3.2,3.1c0,0-0.9-4.3,0.4-5.8
	C31.2,112.1,32.3,111.2,33.5,110.5z"/>
<path class="st0" d="M33.3,113.6c0.1,0.6,0.1,1.2-0.1,1.8c-0.2,0.5-0.5,0.9-1,1.1c0,0-0.3-1.4,0.1-2
	C32.5,114.1,32.9,113.8,33.3,113.6z"/>
<path class="st0" d="M35.3,110.9c0.4,1.8,0.4,3.7-0.2,5.4c-0.6,1.4-1.6,2.6-3,3.3c0,0-1.1-4.2,0.1-5.9
	C33.1,112.7,34.2,111.7,35.3,110.9z"/>
<path class="st0" d="M35.5,112.4c0.3,1.2,0.3,2.4,0,3.6c-0.3,1-1,1.8-1.9,2.3c0,0-0.8-2.8-0.1-3.9C34.1,113.6,34.8,112.9,35.5,112.4
	z"/>
<path class="st0" d="M36.2,111.9c0.6,1.2,0.8,2.6,0.6,3.9c-0.2,1.1-0.8,2.1-1.7,2.8c0,0-1.4-2.9-0.8-4.2
	C34.8,113.5,35.4,112.7,36.2,111.9z"/>
<path class="st0" d="M36.7,113.3c0.4,0.7,0.6,1.4,0.6,2.2c0,0.7-0.3,1.3-0.8,1.8c0,0-1-1.6-0.7-2.4C36,114.3,36.4,113.8,36.7,113.3z
	"/>
<path class="st0" d="M37.8,111.4c0.8,1.3,1.3,2.8,1.3,4.3c0,1.3-0.6,2.5-1.5,3.4c0,0-2-3-1.5-4.7C36.5,113.4,37.1,112.4,37.8,111.4z
	"/>
<path class="st0" d="M39.8,110.7c0.7,1.7,0.8,3.6,0.5,5.5c-0.4,1.5-1.3,2.9-2.6,3.7c0,0-1.7-4.1-0.7-5.9
	C37.8,112.7,38.7,111.6,39.8,110.7z"/>
<path class="st0" d="M40.4,110.7c0.8,1.6,1.2,3.5,1,5.3c-0.2,1.5-1,2.9-2.2,3.9c0,0-2-3.8-1.2-5.7C38.6,112.9,39.4,111.7,40.4,110.7
	z"/>
<path class="st0" d="M42.1,111.4c0.5,1.6,0.5,3.2,0,4.8c-0.5,1.3-1.4,2.4-2.6,3.1c0,0-1.1-3.7-0.1-5.2
	C40.2,113,41.1,112.1,42.1,111.4z"/>
<path class="st0" d="M42.6,110.3c0.9,1.8,1.2,3.8,1,5.8c-0.3,1.7-1.2,3.2-2.5,4.2c0,0-2.1-4.3-1.2-6.3
	C40.6,112.6,41.5,111.4,42.6,110.3z"/>
<path class="st0" d="M43.4,110.2c1,1.8,1.4,3.8,1.3,5.8c-0.2,1.7-1,3.2-2.3,4.3c0,0-2.3-4.2-1.5-6.2
	C41.5,112.7,42.4,111.4,43.4,110.2z"/>
<path class="st0" d="M44.9,110.1c0.8,1.9,1.1,4,0.8,6.1c-0.3,1.7-1.3,3.3-2.7,4.3c0,0-2-4.5-1-6.6C42.8,112.5,43.7,111.2,44.9,110.1
	z"/>
<path class="st0" d="M46.2,110.2c0.7,1.9,0.9,4,0.5,6c-0.4,1.7-1.5,3.1-2.9,4.1c0,0-1.8-4.5-0.7-6.5C44,112.5,45,111.3,46.2,110.2z"
	/>
<path class="st0" d="M46.1,111.1c0.9,1.4,1.5,3,1.5,4.7c0,1.4-0.6,2.8-1.6,3.8c0,0-2.3-3.3-1.8-5.1
	C44.6,113.3,45.3,112.1,46.1,111.1z"/>
<path class="st0" d="M47.6,110.7c0.9,1.6,1.2,3.5,1.1,5.3c-0.2,1.5-1,2.9-2.1,3.9c0,0-2.1-3.8-1.3-5.7
	C45.8,113,46.6,111.8,47.6,110.7z"/>
<path class="st0" d="M49.7,110.4c0.6,1.9,0.7,4,0.1,6c-0.5,1.6-1.6,3-3.1,3.9c0,0-1.5-4.6-0.3-6.5C47.3,112.5,48.4,111.3,49.7,110.4
	z"/>
<path class="st0" d="M49.5,111.2c0.8,1.4,1.3,3,1.2,4.7c-0.1,1.4-0.7,2.7-1.7,3.6c0,0-2-3.3-1.4-5C48,113.2,48.6,112.1,49.5,111.2z"
	/>
<path class="st0" d="M50.2,109.9c1.2,1.8,1.9,3.8,1.9,5.9c-0.1,1.8-0.8,3.5-2,4.8c0,0-2.9-4.1-2.2-6.4
	C48.5,112.7,49.2,111.2,50.2,109.9z"/>
<path class="st0" d="M51.7,109.4c1.2,2,1.8,4.4,1.7,6.7c-0.2,2-1.1,3.8-2.5,5.2c0,0-2.9-4.8-2-7.2C49.5,112.3,50.5,110.7,51.7,109.4
	z"/>
<path class="st0" d="M53.7,110.9c0.5,1.7,0.6,3.6,0.1,5.4c-0.5,1.5-1.5,2.7-2.8,3.4c0,0-1.3-4.1-0.2-5.8
	C51.5,112.7,52.5,111.7,53.7,110.9z"/>
<path class="st0" d="M55,109.2c0.8,2.4,1,4.9,0.4,7.4c-0.6,2-1.9,3.8-3.7,4.9c0,0-2-5.6-0.6-8C52.1,111.8,53.5,110.4,55,109.2z"/>
<path class="st0" d="M56.2,109.7c0.6,2.2,0.6,4.6,0,6.8c-0.6,1.8-1.9,3.4-3.7,4.3c0,0-1.6-5.3-0.2-7.4
	C53.5,112,54.8,110.8,56.2,109.7z"/>
<path class="st0" d="M56.7,111.4c0.4,1.5,0.4,3.2,0,4.7c-0.5,1.3-1.4,2.3-2.5,3c0,0-1.1-3.7-0.1-5.1C54.8,113,55.7,112.2,56.7,111.4
	z"/>
<path class="st0" d="M58.4,108c0,0,1.8,4.6,0.6,8.8c-0.7,2.4-2.2,4.5-4.3,5.9c0,0-2.5-6.6-0.8-9.5C55,111.2,56.6,109.4,58.4,108z"/>
<path class="st0" d="M58.2,113.1c0.3,0.9,0.3,1.8,0,2.7c-0.2,0.7-0.8,1.4-1.4,1.8c0,0-0.7-2.1-0.1-3C57.1,114,57.6,113.5,58.2,113.1
	z"/>
<path class="st0" d="M59,113.4c0.3,0.7,0.3,1.5,0.2,2.2c-0.2,0.6-0.5,1.2-1.1,1.5c0,0-0.7-1.7-0.3-2.4
	C58.2,114.3,58.5,113.8,59,113.4z"/>
<path class="st0" d="M60.2,112.6c0.4,1,0.6,2.1,0.4,3.2c-0.2,0.9-0.7,1.7-1.5,2.2c0,0-1-2.4-0.5-3.5C59,113.8,59.5,113.1,60.2,112.6
	z"/>
<path class="st0" d="M62.2,110.7c0.5,1.8,0.5,3.8,0,5.6c-0.5,1.5-1.6,2.8-3,3.6c0,0-1.3-4.3-0.1-6.1C59.9,112.6,61,111.6,62.2,110.7
	z"/>
<path class="st0" d="M62.9,109.8c0.8,2.1,1.1,4.4,0.7,6.6c-0.4,1.8-1.5,3.5-3.1,4.5c0,0-2-4.9-0.9-7.1
	C60.5,112.2,61.6,110.9,62.9,109.8z"/>
<path class="st0" d="M63.2,112.8c0.4,0.9,0.5,2,0.3,3c-0.2,0.8-0.7,1.5-1.4,2c0,0-0.9-2.2-0.4-3.2C62.2,113.9,62.7,113.3,63.2,112.8
	z"/>
<path class="st0" d="M63.9,109.1c1.3,2.1,2.1,4.4,2.1,6.9c-0.1,2.1-0.9,4-2.3,5.5c0,0-3.2-4.8-2.5-7.4
	C61.8,112.3,62.7,110.6,63.9,109.1z"/>
<path class="st0" d="M65.1,112.8c0.5,0.9,0.7,1.9,0.6,2.9c-0.1,0.8-0.5,1.6-1.2,2.2c0,0-1.1-2.1-0.7-3.1
	C64.1,114,64.6,113.4,65.1,112.8z"/>
<path class="st0" d="M65.9,112.3c0.6,1,1,2.1,1,3.3c0,1-0.4,1.9-1.1,2.6c0,0-1.6-2.3-1.2-3.5C64.9,113.9,65.3,113.1,65.9,112.3z"/>
<path class="st0" d="M67.7,107.8c0,0,2.4,4.3,1.9,8.5c-0.3,2.5-1.5,4.8-3.3,6.4c0,0-3.5-6.1-2.3-9.2
	C64.8,111.5,66.1,109.5,67.7,107.8z"/>
<path class="st0" d="M68.3,114.1c0.1,0.5,0.1,1,0,1.5c-0.1,0.4-0.4,0.8-0.8,1c0,0-0.4-1.1,0-1.6C67.7,114.6,68,114.3,68.3,114.1z"/>
<path class="st0" d="M70.7,108.2c0,0,1.8,4.4,0.8,8.5c-0.6,2.4-2,4.4-4.1,5.8c0,0-2.6-6.3-1-9.2C67.5,111.3,69,109.6,70.7,108.2z"/>
<path class="st0" d="M72,108.2c0,0,1.6,4.5,0.4,8.6c-0.7,2.3-2.3,4.3-4.3,5.6c0,0-2.3-6.5-0.6-9.3C68.7,111.2,70.2,109.6,72,108.2z"
	/>
<path class="st0" d="M71.6,113.3c0.3,0.8,0.3,1.6,0.1,2.4c-0.2,0.7-0.6,1.2-1.2,1.6c0,0-0.7-1.8-0.2-2.6
	C70.7,114.2,71.1,113.7,71.6,113.3z"/>
<path class="st0" d="M72.1,114.1c0.3,0.4,0.4,0.9,0.4,1.4c0,0.4-0.2,0.8-0.4,1.1c0,0-0.7-1-0.5-1.5
	C71.7,114.7,71.8,114.4,72.1,114.1z"/>
<path class="st0" d="M74,110.9c0.7,1.6,0.9,3.4,0.6,5.2c-0.3,1.5-1.2,2.7-2.4,3.6c0,0-1.7-3.9-0.8-5.6C72.1,112.9,73,111.8,74,110.9
	z"/>
<path class="st0" d="M75,109.7c1,2,1.4,4.3,1.2,6.5c-0.3,1.9-1.3,3.5-2.7,4.7c0,0-2.4-4.7-1.4-7C72.8,112.3,73.8,110.9,75,109.7z"/>
<path class="st0" d="M75.6,113.1c0.4,0.8,0.5,1.7,0.4,2.6c-0.1,0.7-0.5,1.4-1.1,1.9c0,0-0.9-1.9-0.5-2.8
	C74.7,114.1,75.1,113.6,75.6,113.1z"/>
<path class="st0" d="M76.7,110.6c0.9,1.6,1.4,3.5,1.3,5.3c-0.1,1.6-0.9,3-2,4.1c0,0-2.3-3.8-1.5-5.8
	C74.9,112.9,75.7,111.7,76.7,110.6z"/>
<path class="st0" d="M78.2,112.2c0.4,1.2,0.5,2.5,0.2,3.8c-0.3,1-1,1.9-1.9,2.5c0,0-1-2.9-0.3-4.1C76.7,113.5,77.4,112.8,78.2,112.2
	z"/>
<path class="st0" d="M78.7,111.2c0.8,1.4,1.2,3,1.1,4.6c-0.1,1.3-0.8,2.6-1.8,3.5c0,0-1.9-3.3-1.3-5
	C77.2,113.2,77.9,112.2,78.7,111.2z"/>
<path class="st0" d="M80,112c0.5,1.2,0.7,2.5,0.5,3.8c-0.2,1.1-0.9,2-1.8,2.7c0,0-1.3-2.9-0.6-4.2C78.6,113.5,79.2,112.7,80,112z"/>
<path class="st0" d="M81.3,111.3c0.6,1.5,0.8,3.2,0.5,4.8c-0.3,1.3-1.1,2.5-2.2,3.3c0,0-1.5-3.6-0.7-5.2
	C79.5,113.1,80.4,112.1,81.3,111.3z"/>
<path class="st0" d="M82.3,110.3c0.8,1.8,1.1,3.8,0.9,5.8c-0.3,1.7-1.2,3.1-2.6,4.2c0,0-2-4.3-1.1-6.3
	C80.3,112.6,81.2,111.4,82.3,110.3z"/>
<path class="st0" d="M82.6,113.8c0.3,0.5,0.4,1.1,0.4,1.7c0,0.5-0.3,0.9-0.6,1.3c0,0-0.7-1.2-0.5-1.8
	C82.1,114.6,82.3,114.2,82.6,113.8z"/>
<path class="st0" d="M85.7,108.1c0,0,1.6,4.7,0.3,8.8c-0.8,2.4-2.4,4.4-4.5,5.7c0,0-2.3-6.7-0.5-9.6
	C82.3,111.1,83.9,109.4,85.7,108.1z"/>
<path class="st0" d="M85.9,107.8c0,0,2.2,4.5,1.4,8.8c-0.5,2.5-1.8,4.7-3.8,6.3c0,0-3.1-6.4-1.7-9.5
	C82.8,111.3,84.2,109.4,85.9,107.8z"/>
<path class="st0" d="M86.3,111.1c0.7,1.5,1,3.2,0.8,4.9c-0.2,1.4-1,2.6-2.1,3.5c0,0-1.7-3.6-1-5.2C84.6,113.1,85.4,112,86.3,111.1z"
	/>
<path class="st0" d="M87.3,111.3c0.7,1.4,0.9,3.1,0.8,4.6c-0.2,1.3-0.9,2.5-2,3.3c0,0-1.7-3.4-0.9-5
	C85.7,113.2,86.4,112.2,87.3,111.3z"/>
<path class="st0" d="M88,108.6c0,0,2.4,3.7,2.2,7.4c-0.1,2.2-1.1,4.3-2.6,5.9c0,0-3.4-5.2-2.5-8C85.7,112,86.7,110.2,88,108.6z"/>
<path class="st0" d="M90.4,109.7c0.7,2.2,0.8,4.6,0.3,6.8c-0.5,1.9-1.8,3.5-3.5,4.5c0,0-1.8-5.2-0.5-7.4
	C87.7,112.1,89,110.8,90.4,109.7z"/>
<path class="st0" d="M90,112.4c0.6,1,0.9,2.1,0.9,3.3c-0.1,1-0.5,1.9-1.2,2.6c0,0-1.4-2.3-1-3.6C89,113.8,89.4,113.1,90,112.4z"/>
<path class="st0" d="M90.9,114.4c0.2,0.3,0.3,0.7,0.2,1.1c0,0.3-0.2,0.6-0.4,0.8c0,0-0.4-0.8-0.3-1.2
	C90.6,114.8,90.7,114.6,90.9,114.4z"/>
<path class="st0" d="M93.6,108c0,0,1.9,4.5,0.8,8.6c-0.6,2.4-2.1,4.5-4.1,5.9c0,0-2.7-6.5-1.1-9.3C90.4,111.2,91.8,109.5,93.6,108z"
	/>
<path class="st0" d="M93.1,114.1c0.2,0.4,0.3,0.9,0.2,1.4c-0.1,0.4-0.3,0.8-0.6,1c0,0-0.5-1-0.2-1.5
	C92.6,114.7,92.9,114.4,93.1,114.1z"/>
<path class="st0" d="M94,114.1c0.2,0.4,0.4,0.9,0.4,1.3c0,0.4-0.2,0.7-0.5,1c0,0-0.6-0.9-0.4-1.4C93.6,114.7,93.8,114.4,94,114.1z"
	/>
<path class="st0" d="M95,114c0.3,0.4,0.4,0.9,0.4,1.5c0,0.4-0.2,0.8-0.5,1.2c0,0-0.7-1-0.5-1.6C94.6,114.7,94.8,114.3,95,114z"/>
<path class="st0" d="M96.4,113.4c0.3,0.7,0.4,1.5,0.3,2.2c-0.1,0.6-0.5,1.2-1,1.6c0,0-0.8-1.6-0.4-2.4
	C95.6,114.3,96,113.8,96.4,113.4z"/>
<path class="st0" d="M97.4,110.1c1.1,1.8,1.6,3.8,1.6,5.9c-0.1,1.7-0.9,3.3-2.2,4.5c0,0-2.6-4.2-1.8-6.3
	C95.6,112.7,96.4,111.3,97.4,110.1z"/>
<path class="st0" d="M99.8,108.7c0,0,1.6,4.1,0.6,7.8c-0.6,2.2-1.9,4.1-3.8,5.3c0,0-2.3-5.9-0.9-8.5C96.8,111.6,98.2,110,99.8,108.7
	z"/>
<path class="st0" d="M99.2,109.3c1.3,1.9,2.1,4.2,2.2,6.6c0,2-0.8,3.9-2.2,5.3c0,0-3.2-4.6-2.5-7.1
	C97.3,112.4,98.1,110.8,99.2,109.3z"/>
<path class="st0" d="M100.6,113.2c0.3,0.8,0.5,1.6,0.3,2.4c-0.1,0.7-0.5,1.3-1.1,1.7c0,0-0.8-1.8-0.4-2.6
	C99.7,114.2,100.1,113.7,100.6,113.2z"/>
<path class="st0" d="M101.4,114.4c0.2,0.3,0.2,0.7,0.2,1.1c-0.1,0.3-0.2,0.6-0.5,0.8c0,0-0.4-0.8-0.2-1.2
	C101,114.8,101.2,114.6,101.4,114.4z"/>
<path class="st0" d="M102.6,108.1c0,0,2.6,3.9,2.3,8c-0.1,2.4-1.1,4.6-2.8,6.3c0,0-3.7-5.6-2.7-8.6
	C100.1,111.8,101.2,109.8,102.6,108.1z"/>
<path class="st0" d="M103.8,109.4c1.2,2,1.8,4.3,1.7,6.6c-0.2,2-1.1,3.8-2.5,5.1c0,0-2.9-4.7-2-7.2
	C101.7,112.3,102.6,110.8,103.8,109.4z"/>
<path class="st0" d="M105.4,109.9c0.9,2,1.2,4.2,0.9,6.3c-0.4,1.8-1.4,3.4-2.8,4.5c0,0-2.2-4.7-1.1-6.9
	C103.1,112.4,104.2,111,105.4,109.9z"/>
<path class="st0" d="M105.8,111.9c0.6,1.2,0.9,2.6,0.8,3.9c-0.2,1.1-0.7,2.2-1.6,2.9c0,0-1.5-2.8-1-4.2
	C104.5,113.5,105.1,112.6,105.8,111.9z"/>
<path class="st0" d="M106.7,111.2c0.8,1.4,1.3,3,1.2,4.6c-0.1,1.4-0.7,2.6-1.7,3.6c0,0-2-3.3-1.4-5
	C105.3,113.2,105.9,112.2,106.7,111.2z"/>
<path class="st0" d="M108.1,107.9c0,0,2.5,4.2,2.1,8.4c-0.2,2.5-1.3,4.8-3.2,6.5c0,0-3.6-6-2.5-9
	C105.4,111.6,106.6,109.6,108.1,107.9z"/>
<path class="st0" d="M109.8,110.6c0.7,1.8,0.8,3.8,0.3,5.7c-0.4,1.6-1.4,2.9-2.8,3.8c0,0-1.6-4.3-0.5-6.2
	C107.6,112.6,108.7,111.5,109.8,110.6z"/>
<path class="st0" d="M111.2,110.2c0.6,2,0.6,4.2,0.1,6.2c-0.6,1.7-1.7,3.1-3.3,4c0,0-1.5-4.8-0.2-6.7
	C108.7,112.4,109.9,111.2,111.2,110.2z"/>
<path class="st0" d="M111.8,111.8c0.4,1.4,0.4,2.9,0,4.3c-0.4,1.2-1.2,2.2-2.3,2.8c0,0-1-3.3-0.2-4.7
	C110,113.2,110.8,112.4,111.8,111.8z"/>
<path class="st0" d="M112.3,112.5c0.4,1,0.6,2.2,0.4,3.3c-0.2,0.9-0.8,1.7-1.5,2.3c0,0-1-2.4-0.5-3.5
	C111.1,113.8,111.6,113.1,112.3,112.5z"/>
<path class="st0" d="M113.8,108.5c0,0,2,4,1.3,7.9c-0.4,2.3-1.6,4.3-3.4,5.7c0,0-2.8-5.8-1.6-8.5C111.1,111.7,112.3,110,113.8,108.5
	z"/>
<path class="st0" d="M116,108c0,0,1.6,4.7,0.2,8.8c-0.8,2.4-2.4,4.4-4.6,5.7c0,0-2.2-6.8-0.4-9.6C112.5,111.1,114.1,109.4,116,108z"
	/>
<path class="st0" d="M115.2,112.2c0.6,1.1,0.8,2.3,0.7,3.5c-0.1,1-0.6,2-1.4,2.6c0,0-1.4-2.6-0.9-3.8
	C114,113.7,114.5,112.9,115.2,112.2z"/>
<path class="st0" d="M115.9,110.8c1,1.5,1.5,3.2,1.6,4.9c0,1.5-0.6,2.9-1.6,4c0,0-2.4-3.4-1.8-5.3
	C114.4,113.2,115.1,111.9,115.9,110.8z"/>
<path class="st0" d="M117.8,109.9c0.9,1.9,1.3,4.1,1,6.2c-0.3,1.8-1.3,3.4-2.7,4.5c0,0-2.2-4.6-1.2-6.8
	C115.6,112.4,116.6,111.1,117.8,109.9z"/>
<path class="st0" d="M118.8,111c0.7,1.6,0.9,3.4,0.6,5.1c-0.3,1.4-1.2,2.7-2.4,3.5c0,0-1.6-3.8-0.8-5.5
	C117,112.9,117.8,111.9,118.8,111z"/>
<path class="st0" d="M120.2,111.4c0.5,1.5,0.5,3.2,0.1,4.7c-0.4,1.3-1.3,2.4-2.5,3.1c0,0-1.2-3.6-0.2-5.2
	C118.3,113,119.2,112.1,120.2,111.4z"/>
<path class="st0" d="M120.5,111.2c0.8,1.5,1.1,3.1,1,4.8c-0.2,1.4-0.9,2.6-1.9,3.6c0,0-1.9-3.4-1.2-5.1
	C118.9,113.2,119.6,112.1,120.5,111.2z"/>
<path class="st0" d="M121.3,114.4c0.1,0.4,0.2,0.7,0.1,1.1c-0.1,0.3-0.3,0.6-0.5,0.8c0,0-0.3-0.8-0.2-1.2
	C120.9,114.8,121,114.6,121.3,114.4z"/>
<path class="st0" d="M122.2,112.9c0.5,0.8,0.8,1.7,0.8,2.7c0,0.8-0.3,1.5-0.9,2.1c0,0-1.2-1.8-0.9-2.9
	C121.4,114.1,121.7,113.5,122.2,112.9z"/>
<path class="st0" d="M123.2,112.6c0.6,0.9,0.9,1.9,0.9,3c0,0.9-0.4,1.7-1,2.4c0,0-1.4-2.1-1-3.2C122.4,114,122.7,113.3,123.2,112.6z
	"/>
<path class="st0" d="M124.7,113.6c0.2,0.7,0.3,1.4,0.1,2.1c-0.2,0.6-0.5,1.1-1.1,1.4c0,0-0.6-1.6-0.2-2.3
	C123.9,114.3,124.2,113.9,124.7,113.6z"/>
<path class="st0" d="M126.7,110.7c0.6,1.8,0.6,3.8,0.1,5.6c-0.5,1.5-1.6,2.8-3,3.6c0,0-1.4-4.3-0.2-6.1
	C124.4,112.6,125.5,111.5,126.7,110.7z"/>
<path class="st0" d="M126.7,108.8c1.3,2.2,2,4.7,1.9,7.3c-0.2,2.2-1.1,4.2-2.7,5.7c0,0-3.2-5.2-2.2-7.9
	C124.4,112,125.4,110.3,126.7,108.8z"/>
<path class="st0" d="M128.6,109.8c0.8,2.1,1.1,4.4,0.7,6.6c-0.4,1.8-1.5,3.4-3.1,4.5c0,0-2-4.9-0.9-7.1
	C126.1,112.2,127.3,110.9,128.6,109.8z"/>
<path class="st0" d="M129.5,109.3c1,2.2,1.3,4.7,1,7.1c-0.4,2-1.5,3.8-3.2,5c0,0-2.4-5.2-1.2-7.6C127,112,128.1,110.5,129.5,109.3z"
	/>
<path class="st0" d="M130.4,111.2c0.6,1.6,0.8,3.3,0.5,4.9c-0.3,1.4-1.2,2.6-2.3,3.4c0,0-1.5-3.7-0.6-5.3
	C128.5,113,129.4,112,130.4,111.2z"/>
</svg>
