<svg id="Layer_1" data-name="Layer 1" xmlns="http://www.w3.org/2000/svg" viewBox="0 0 128 128"><defs><style>.cls-1{fill:#32e785;}.cls-2{fill:#7cffa0;}.cls-3{fill:#6d5720;}</style></defs><rect class="cls-1" width="128" height="128"/><path class="cls-2" d="M98.74,107.76a9.36,9.36,0,0,1,1.21-3.63c1.21-2.42,6.06-1.21,6.06-1.21a28.32,28.32,0,0,1-3.64,3.63A17.37,17.37,0,0,1,98.74,107.76Z"/><path class="cls-2" d="M46.06,38.84a9.36,9.36,0,0,1,1.21-3.63C48.49,32.79,53.33,34,53.33,34a28.11,28.11,0,0,1-3.63,3.63A17.58,17.58,0,0,1,46.06,38.84Z"/><path class="cls-2" d="M92.82,106.4a8.56,8.56,0,0,1,.55-4.69A5.46,5.46,0,0,1,96.24,99s.67,3.74-.49,5.1A11.32,11.32,0,0,1,92.82,106.4Z"/><path class="cls-2" d="M45.45,80.22a9.36,9.36,0,0,1,1.21-3.63c1.21-2.42,6.05-1.21,6.05-1.21A28.11,28.11,0,0,1,49.08,79,17.37,17.37,0,0,1,45.45,80.22Z"/><path class="cls-2" d="M39.53,78.86a8.45,8.45,0,0,1,.55-4.69,5.47,5.47,0,0,1,2.86-2.68s.67,3.75-.49,5.1A10.93,10.93,0,0,1,39.53,78.86Z"/><path class="cls-2" d="M91.36,106.4a16.79,16.79,0,0,1-3.65-4.33,14.5,14.5,0,0,1-1-5.6s3.66,2,4.14,3.9A37,37,0,0,1,91.36,106.4Z"/><path class="cls-2" d="M87.58,106.4c-.06-.37-.73-4.08-2.56-4.51a23.48,23.48,0,0,0-5.66,0,23.7,23.7,0,0,0,4.11,3.3A20.88,20.88,0,0,0,87.58,106.4Z"/><path class="cls-2" d="M104.71,23.74a16.6,16.6,0,0,1-3.65-4.33,14.5,14.5,0,0,1-1-5.6s3.66,1.95,4.14,3.9A37,37,0,0,1,104.71,23.74Z"/><path class="cls-2" d="M100.93,23.74c-.06-.36-.73-4.08-2.55-4.51a24.11,24.11,0,0,0-5.67,0,23.7,23.7,0,0,0,4.11,3.3A20.88,20.88,0,0,0,100.93,23.74Z"/><path class="cls-2" d="M38.58,38.62a16.67,16.67,0,0,1-3.65-4.32,14.56,14.56,0,0,1-1-5.61s3.66,1.95,4.15,3.9A37.8,37.8,0,0,1,38.58,38.62Z"/><path class="cls-2" d="M34.81,38.62c-.06-.36-.74-4.08-2.56-4.51a24.11,24.11,0,0,0-5.67,0,23.7,23.7,0,0,0,4.11,3.3A21.1,21.1,0,0,0,34.81,38.62Z"/><path class="cls-3" d="M104-116a12,12,0,0,1,12,12V232a12,12,0,0,1-12,12H-232a12,12,0,0,1-12-12V-104a12,12,0,0,1,12-12H104m0-12H-232a24,24,0,0,0-24,24V232a24,24,0,0,0,24,24H104a24,24,0,0,0,24-24V-104a24,24,0,0,0-24-24Z"/><path class="cls-1" d="M110.08,129a13,13,0,0,1,6.87-2.23,8.38,8.38,0,0,1,5.56,2.27s-4.79,3.32-7.41,2.58A17.22,17.22,0,0,1,110.08,129Z"/><path class="cls-1" d="M109.53,127.16s3.94-2.12,7.79-1.52a9.22,9.22,0,0,1,5.75,3.22s-5.66,3-8.42,1.82A18.67,18.67,0,0,1,109.53,127.16Z"/><path class="cls-1" d="M115,126.9a2.7,2.7,0,0,1,1.46-.33,1.68,1.68,0,0,1,1.1.56s-1,.6-1.57.4A3.49,3.49,0,0,1,115,126.9Z"/><path class="cls-1" d="M109.93,125.51a13.3,13.3,0,0,1,7.19-1.85,8.64,8.64,0,0,1,5.55,2.69s-5.13,3.1-7.77,2.17A17.6,17.6,0,0,1,109.93,125.51Z"/><path class="cls-1" d="M113,124.89a6.94,6.94,0,0,1,3.67-1.17,4.48,4.48,0,0,1,3,1.22s-2.56,1.76-4,1.36A9.09,9.09,0,0,1,113,124.89Z"/><path class="cls-1" d="M111.2,123.68a10.69,10.69,0,0,1,5.7-1.65,6.87,6.87,0,0,1,4.49,2s-4,2.6-6.14,1.92A14,14,0,0,1,111.2,123.68Z"/><path class="cls-1" d="M112.62,122.52a7.71,7.71,0,0,1,4.18-1,5,5,0,0,1,3.2,1.62s-3,1.74-4.53,1.17A10,10,0,0,1,112.62,122.52Z"/><path class="cls-1" d="M115.34,121.54a2.12,2.12,0,0,1,1.18-.06,1.34,1.34,0,0,1,.77.6s-.89.31-1.27.08A2.67,2.67,0,0,1,115.34,121.54Z"/><path class="cls-1" d="M109.2,119.54s4.24-2.07,8.27-1.28a9.71,9.71,0,0,1,5.93,3.61s-6.08,2.92-8.94,1.59A19.7,19.7,0,0,1,109.2,119.54Z"/><path class="cls-1" d="M113.14,119.35a6.72,6.72,0,0,1,3.63-.76,4.33,4.33,0,0,1,2.71,1.47s-2.63,1.43-3.92.91A8.81,8.81,0,0,1,113.14,119.35Z"/><path class="cls-1" d="M110,117.13a13.61,13.61,0,0,1,7.56-.64,8.81,8.81,0,0,1,5.13,3.65s-5.68,2.25-8.18.86A17.89,17.89,0,0,1,110,117.13Z"/><path class="cls-1" d="M114,117.59a4.8,4.8,0,0,1,2.59-.8,3.12,3.12,0,0,1,2.07.88s-1.81,1.22-2.79.93A6.31,6.31,0,0,1,114,117.59Z"/><path class="cls-1" d="M110.79,116.26a11.57,11.57,0,0,1,6.19-1.67,7.5,7.5,0,0,1,4.83,2.26s-4.39,2.74-6.69,2A15.15,15.15,0,0,1,110.79,116.26Z"/><path class="cls-1" d="M115.21,115.45a2.33,2.33,0,0,1,1.26-.28,1.5,1.5,0,0,1,1,.49s-.91.51-1.36.34A3,3,0,0,1,115.21,115.45Z"/><path class="cls-1" d="M112.6,113.48a8,8,0,0,1,4.47-.23,5.21,5.21,0,0,1,3,2.25s-3.39,1.21-4.84.35A10.82,10.82,0,0,1,112.6,113.48Z"/><path class="cls-1" d="M114.6,113.41a3.6,3.6,0,0,1,1.91-.56,2.31,2.31,0,0,1,1.52.68s-1.35.87-2.07.64A4.73,4.73,0,0,1,114.6,113.41Z"/><path class="cls-1" d="M110,112.36a13.19,13.19,0,0,1,7-2.26,8.5,8.5,0,0,1,5.64,2.31s-4.86,3.37-7.52,2.61A17.36,17.36,0,0,1,110,112.36Z"/><path class="cls-1" d="M109.91,109.48s4.13-1.44,7.74-.27a9,9,0,0,1,5,4s-5.91,2-8.39.47A18.31,18.31,0,0,1,109.91,109.48Z"/><path class="cls-1" d="M115,110a2.84,2.84,0,0,1,1.59-.08,1.83,1.83,0,0,1,1,.81s-1.2.42-1.72.11A3.81,3.81,0,0,1,115,110Z"/><path class="cls-1" d="M110.6,109a11.87,11.87,0,0,1,6.41-1.72,7.71,7.71,0,0,1,5,2.34s-4.55,2.83-6.92,2A15.72,15.72,0,0,1,110.6,109Z"/><path class="cls-1" d="M109.36,106.06s4.53-1.49,8.45-.15a9.78,9.78,0,0,1,5.44,4.43s-6.48,2.09-9.16.36A20.1,20.1,0,0,1,109.36,106.06Z"/><path class="cls-1" d="M114.93,106.77a3,3,0,0,1,1.69,0,2,2,0,0,1,1.09.9s-1.31.41-1.85,0A3.94,3.94,0,0,1,114.93,106.77Z"/><path class="cls-1" d="M109.15,104.58s4.41-1.9,8.46-.9a9.91,9.91,0,0,1,5.85,4s-6.33,2.67-9.17,1.17A20.07,20.07,0,0,1,109.15,104.58Z"/><path class="cls-1" d="M110.45,104.05a12.4,12.4,0,0,1,6.85-1,8,8,0,0,1,4.85,3s-5.05,2.34-7.4,1.21A16.24,16.24,0,0,1,110.45,104.05Z"/><path class="cls-1" d="M111,103.39a11.12,11.12,0,0,1,6.09-1.19,7.2,7.2,0,0,1,4.5,2.52s-4.43,2.33-6.59,1.42A14.55,14.55,0,0,1,111,103.39Z"/><path class="cls-1" d="M114,102.29a5.09,5.09,0,0,1,2.85,0,3.28,3.28,0,0,1,1.82,1.52s-2.2.68-3.09.08A6.7,6.7,0,0,1,114,102.29Z"/><path class="cls-1" d="M110.4,101.49a12.39,12.39,0,0,1,6.69-1.62,8,8,0,0,1,5.11,2.57s-4.79,2.81-7.23,1.9A16.33,16.33,0,0,1,110.4,101.49Z"/><path class="cls-1" d="M110.87,100.47A11.42,11.42,0,0,1,117,99a7.4,7.4,0,0,1,4.69,2.38s-4.42,2.57-6.66,1.73A14.79,14.79,0,0,1,110.87,100.47Z"/><path class="cls-1" d="M114.66,99.57a3.58,3.58,0,0,1,2-.22,2.3,2.3,0,0,1,1.36.92s-1.46.62-2.12.27A4.72,4.72,0,0,1,114.66,99.57Z"/><path class="cls-1" d="M112.54,97.85a8.23,8.23,0,0,1,4.53-.26,5.29,5.29,0,0,1,3,2.27s-3.43,1.25-4.91.38A10.77,10.77,0,0,1,112.54,97.85Z"/><path class="cls-1" d="M109.72,97.22s3.74-2.19,7.47-1.75a8.88,8.88,0,0,1,5.68,2.89s-5.36,3.09-8.06,2.07A18.26,18.26,0,0,1,109.72,97.22Z"/><path class="cls-1" d="M111.17,96.06A10.8,10.8,0,0,1,117.1,95a7,7,0,0,1,4.34,2.49s-4.32,2.22-6.41,1.32A14.24,14.24,0,0,1,111.17,96.06Z"/><path class="cls-1" d="M109.09,95.05s4.1-2.39,8.2-1.9a9.8,9.8,0,0,1,6.21,3.2s-5.88,3.37-8.85,2.24A19.64,19.64,0,0,1,109.09,95.05Z"/><path class="cls-1" d="M108.6,94.51s4.17-2.84,8.55-2.63A10.42,10.42,0,0,1,124,94.8s-6,4-9.22,3A21,21,0,0,1,108.6,94.51Z"/><path class="cls-1" d="M111.87,93.16a9.43,9.43,0,0,1,5.07-1.08,6,6,0,0,1,3.79,2s-3.66,2-5.47,1.28A12.24,12.24,0,0,1,111.87,93.16Z"/><path class="cls-1" d="M113.54,92.39a5.83,5.83,0,0,1,3.14-.76,3.72,3.72,0,0,1,2.4,1.2s-2.25,1.32-3.39.9A7.49,7.49,0,0,1,113.54,92.39Z"/><path class="cls-1" d="M110.54,89.69a12.71,12.71,0,0,1,7,0,8.19,8.19,0,0,1,4.49,3.74s-5.42,1.69-7.64.22A16.58,16.58,0,0,1,110.54,89.69Z"/><path class="cls-1" d="M113.39,89.72a6.33,6.33,0,0,1,3.52-.17,4.09,4.09,0,0,1,2.33,1.78s-2.68,1-3.82.27A8.38,8.38,0,0,1,113.39,89.72Z"/><path class="cls-1" d="M111.74,88.69a9.7,9.7,0,0,1,5.33-.8,6.23,6.23,0,0,1,3.8,2.35s-3.92,1.86-5.76,1A12.68,12.68,0,0,1,111.74,88.69Z"/><path class="cls-1" d="M112.83,88.28a7.3,7.3,0,0,1,3.9-1.08,4.68,4.68,0,0,1,3,1.39s-2.75,1.75-4.2,1.27A9.4,9.4,0,0,1,112.83,88.28Z"/><path class="cls-1" d="M110.6,86.75a12,12,0,0,1,6.52-1.38A7.78,7.78,0,0,1,122,88s-4.71,2.58-7,1.64A15.83,15.83,0,0,1,110.6,86.75Z"/><path class="cls-1" d="M109.51,85.58s3.91-2.18,7.77-1.64a9.22,9.22,0,0,1,5.81,3.13s-5.62,3.07-8.4,2A18.78,18.78,0,0,1,109.51,85.58Z"/><path class="cls-1" d="M115.06,85.18a2.72,2.72,0,0,1,1.44-.29,1.74,1.74,0,0,1,1.07.59s-1,.56-1.56.35A3.4,3.4,0,0,1,115.06,85.18Z"/><path class="cls-1" d="M109.41,83.61s3.92-2.28,7.84-1.8a9.31,9.31,0,0,1,5.93,3s-5.63,3.22-8.46,2.14A19.05,19.05,0,0,1,109.41,83.61Z"/><path class="cls-1" d="M112.17,82.67a8.68,8.68,0,0,1,4.77-.89,5.65,5.65,0,0,1,3.5,2s-3.47,1.8-5.15,1.08A11.7,11.7,0,0,1,112.17,82.67Z"/><path class="cls-1" d="M114.53,82.17a3.7,3.7,0,0,1,2-.61,2.43,2.43,0,0,1,1.58.67s-1.38.93-2.13.71A4.79,4.79,0,0,1,114.53,82.17Z"/><path class="cls-1" d="M111.49,80.29a10.21,10.21,0,0,1,5.62-.82,6.63,6.63,0,0,1,4,2.49s-4.16,2-6.09,1A13.46,13.46,0,0,1,111.49,80.29Z"/><path class="cls-1" d="M112.93,79.4a7.21,7.21,0,0,1,4-.45,4.65,4.65,0,0,1,2.77,1.85s-3,1.28-4.32.58A9.65,9.65,0,0,1,112.93,79.4Z"/><path class="cls-1" d="M110.18,77.45a13.27,13.27,0,0,1,7.34-.48,8.58,8.58,0,0,1,4.92,3.64s-5.56,2.08-8,.69A17.55,17.55,0,0,1,110.18,77.45Z"/><path class="cls-1" d="M114.91,77.63a3,3,0,0,1,1.7-.06,2,2,0,0,1,1.11.87s-1.3.44-1.84.11A4,4,0,0,1,114.91,77.63Z"/><path class="cls-1" d="M114,76.85a4.94,4.94,0,0,1,2.62-.7,3.16,3.16,0,0,1,2,1s-1.86,1.15-2.83.81A6.35,6.35,0,0,1,114,76.85Z"/><path class="cls-1" d="M111.13,74.51a11.29,11.29,0,0,1,6.23-.33,7.26,7.26,0,0,1,4.13,3.13s-4.73,1.71-6.75.5A14.75,14.75,0,0,1,111.13,74.51Z"/><path class="cls-1" d="M109.31,72.53s4.63-1.41,8.57,0a10,10,0,0,1,5.43,4.61s-6.62,2-9.3.17A20.17,20.17,0,0,1,109.31,72.53Z"/><path class="cls-1" d="M109.09,72.65s4.3-2.12,8.39-1.33a9.87,9.87,0,0,1,6,3.65s-6.16,3-9.07,1.64A20.14,20.14,0,0,1,109.09,72.65Z"/><path class="cls-1" d="M109.29,71.12s4.38-1.79,8.35-.72a9.73,9.73,0,0,1,5.68,4s-6.28,2.5-9,1A19.92,19.92,0,0,1,109.29,71.12Z"/><path class="cls-1" d="M112.67,70.84a7.85,7.85,0,0,1,4.36-.3A5,5,0,0,1,120,72.68s-3.29,1.25-4.72.43A10.26,10.26,0,0,1,112.67,70.84Z"/><path class="cls-1" d="M114.12,70.63a4.55,4.55,0,0,1,2.46-.68,3,3,0,0,1,1.92.88s-1.74,1.1-2.65.8A6,6,0,0,1,114.12,70.63Z"/><path class="cls-1" d="M109.91,69.6A13.39,13.39,0,0,1,117,67.35a8.6,8.6,0,0,1,5.69,2.36s-4.93,3.39-7.62,2.61A17.64,17.64,0,0,1,109.91,69.6Z"/><path class="cls-1" d="M109.34,67.91s4-2.27,7.94-1.75a9.41,9.41,0,0,1,6,3.14s-5.71,3.2-8.57,2.09A19.16,19.16,0,0,1,109.34,67.91Z"/><path class="cls-1" d="M113.57,67.41a5.67,5.67,0,0,1,3.09-.78,3.67,3.67,0,0,1,2.39,1.16s-2.21,1.33-3.34.92A7.37,7.37,0,0,1,113.57,67.41Z"/><path class="cls-1" d="M109.2,65.43s4.21-2.11,8.24-1.37a9.73,9.73,0,0,1,6,3.54s-6,3-8.91,1.68A19.73,19.73,0,0,1,109.2,65.43Z"/><path class="cls-1" d="M108.9,63.78s4.61-1.91,8.79-.82a10.29,10.29,0,0,1,6,4.2s-6.59,2.68-9.52,1.09A21.13,21.13,0,0,1,108.9,63.78Z"/><path class="cls-1" d="M109.09,63.78s4.1-2.39,8.2-1.89a9.71,9.71,0,0,1,6.21,3.2s-5.89,3.37-8.85,2.24A19.8,19.8,0,0,1,109.09,63.78Z"/><path class="cls-1" d="M114.67,63.17a3.52,3.52,0,0,1,1.91-.29,2.24,2.24,0,0,1,1.37.83s-1.4.68-2.06.37A4.66,4.66,0,0,1,114.67,63.17Z"/><path class="cls-1" d="M108.74,60.85s4.61-2.07,8.89-1.09a10.4,10.4,0,0,1,6.23,4.08s-6.61,2.91-9.63,1.38A21.13,21.13,0,0,1,108.74,60.85Z"/><path class="cls-1" d="M111.24,60.42a10.8,10.8,0,0,1,5.93-.84,7,7,0,0,1,4.2,2.65s-4.38,2-6.41,1A14.14,14.14,0,0,1,111.24,60.42Z"/><path class="cls-1" d="M115,60.26a2.74,2.74,0,0,1,1.43-.4,1.73,1.73,0,0,1,1.12.52s-1,.64-1.55.46A3.56,3.56,0,0,1,115,60.26Z"/><path class="cls-1" d="M109.12,57.31s4.57-1.71,8.63-.5a10.06,10.06,0,0,1,5.74,4.31s-6.54,2.4-9.35.74A20.31,20.31,0,0,1,109.12,57.31Z"/><path class="cls-1" d="M115,58.17a2.63,2.63,0,0,1,1.43-.39,1.73,1.73,0,0,1,1.12.52s-1,.64-1.55.46A3.47,3.47,0,0,1,115,58.17Z"/><path class="cls-1" d="M109.86,55.86a13.76,13.76,0,0,1,7.59-.92,8.85,8.85,0,0,1,5.3,3.49s-5.64,2.48-8.21,1.17A18,18,0,0,1,109.86,55.86Z"/><path class="cls-1" d="M110.09,54.25a13.58,13.58,0,0,1,7.54-.21,8.79,8.79,0,0,1,4.9,3.91s-5.77,1.92-8.18.4A17.83,17.83,0,0,1,110.09,54.25Z"/><path class="cls-1" d="M115.06,55.08a2.61,2.61,0,0,1,1.4-.42,1.71,1.71,0,0,1,1.11.48s-1,.65-1.51.49A3.32,3.32,0,0,1,115.06,55.08Z"/><path class="cls-1" d="M112.55,53.92a7.85,7.85,0,0,1,4.2-1.22,5.05,5.05,0,0,1,3.31,1.47s-3,1.92-4.53,1.42A10.34,10.34,0,0,1,112.55,53.92Z"/><path class="cls-1" d="M110.22,52.79a12.64,12.64,0,0,1,6.78-2,8.19,8.19,0,0,1,5.37,2.38s-4.77,3.11-7.31,2.31A16.6,16.6,0,0,1,110.22,52.79Z"/><path class="cls-1" d="M111.78,51.93a9.48,9.48,0,0,1,5-1.61,6.1,6.1,0,0,1,4,1.66s-3.48,2.41-5.39,1.86A12.26,12.26,0,0,1,111.78,51.93Z"/><path class="cls-1" d="M114.7,50.91a3.31,3.31,0,0,1,1.79-.55,2.18,2.18,0,0,1,1.44.61s-1.26.84-1.94.64A4.52,4.52,0,0,1,114.7,50.91Z"/><path class="cls-1" d="M112.93,49.87a7,7,0,0,1,3.73-1.21,4.53,4.53,0,0,1,3,1.23s-2.6,1.81-4,1.4A9.12,9.12,0,0,1,112.93,49.87Z"/><path class="cls-1" d="M108.82,48.69s4-2.78,8.29-2.59a10.12,10.12,0,0,1,6.65,2.82s-5.8,3.92-8.94,3A20.59,20.59,0,0,1,108.82,48.69Z"/><path class="cls-1" d="M115.34,47.76a2,2,0,0,1,1.1-.29,1.34,1.34,0,0,1,.85.4s-.78.48-1.18.34A2.71,2.71,0,0,1,115.34,47.76Z"/><path class="cls-1" d="M111.72,46.26A9.69,9.69,0,0,1,117,45.13a6.19,6.19,0,0,1,3.92,2.09s-3.77,2.09-5.65,1.35A12.75,12.75,0,0,1,111.72,46.26Z"/><path class="cls-1" d="M113.84,45.29a5.22,5.22,0,0,1,2.88-.42,3.39,3.39,0,0,1,2.06,1.27s-2.12,1-3.12.53A6.86,6.86,0,0,1,113.84,45.29Z"/><path class="cls-1" d="M109.55,44s3.84-2.23,7.68-1.76a9.16,9.16,0,0,1,5.81,3s-5.51,3.15-8.29,2.08A18.56,18.56,0,0,1,109.55,44Z"/><path class="cls-1" d="M114.79,43.44a3.23,3.23,0,0,1,1.76-.33,2.08,2.08,0,0,1,1.29.74s-1.28.66-1.9.39A4.35,4.35,0,0,1,114.79,43.44Z"/><path class="cls-1" d="M110.31,42.46A12.52,12.52,0,0,1,117,40.4a8.12,8.12,0,0,1,5.32,2.27s-4.66,3.13-7.17,2.38A16.72,16.72,0,0,1,110.31,42.46Z"/><path class="cls-1" d="M114.15,41a4.66,4.66,0,0,1,2.61-.13,3.06,3.06,0,0,1,1.72,1.31s-2,.71-2.83.2A6.09,6.09,0,0,1,114.15,41Z"/><path class="cls-1" d="M113.53,39.57a6.14,6.14,0,0,1,3.42,0,4,4,0,0,1,2.15,1.84s-2.64.78-3.71.06A8.08,8.08,0,0,1,113.53,39.57Z"/><path class="cls-1" d="M109.18,38.09s4.31-2,8.35-1.11a9.76,9.76,0,0,1,5.89,3.77s-6.19,2.81-9,1.4A19.9,19.9,0,0,1,109.18,38.09Z"/><path class="cls-1" d="M115.22,38.18a2.36,2.36,0,0,1,1.3-.12,1.55,1.55,0,0,1,.89.63s-1,.39-1.41.16A3.17,3.17,0,0,1,115.22,38.18Z"/><path class="cls-1" d="M110.53,36.92a12.13,12.13,0,0,1,6.53-1.62,7.85,7.85,0,0,1,5,2.48s-4.66,2.77-7,1.91A15.9,15.9,0,0,1,110.53,36.92Z"/><path class="cls-1" d="M111.66,36.28a9.69,9.69,0,0,1,5.14-1.64,6.24,6.24,0,0,1,4.14,1.72s-3.58,2.46-5.54,1.9A12.73,12.73,0,0,1,111.66,36.28Z"/><path class="cls-1" d="M115.28,35.13a2.18,2.18,0,0,1,1.21-.18,1.44,1.44,0,0,1,.86.54s-.89.42-1.31.22A3,3,0,0,1,115.28,35.13Z"/><path class="cls-1" d="M112.93,33.93a7.11,7.11,0,0,1,3.85-.87,4.59,4.59,0,0,1,2.9,1.51s-2.76,1.56-4.15,1A9.45,9.45,0,0,1,112.93,33.93Z"/><path class="cls-1" d="M115.45,33a1.89,1.89,0,0,1,1-.07,1.26,1.26,0,0,1,.7.53s-.8.29-1.14.09A2.36,2.36,0,0,1,115.45,33Z"/><path class="cls-1" d="M112.46,32a8,8,0,0,1,4.32-1.18,5.16,5.16,0,0,1,3.36,1.56s-3,1.92-4.65,1.38A10.46,10.46,0,0,1,112.46,32Z"/><path class="cls-1" d="M114.46,30.61a4.05,4.05,0,0,1,2.24-.09,2.6,2.6,0,0,1,1.47,1.13s-1.71.6-2.43.16A5.28,5.28,0,0,1,114.46,30.61Z"/><path class="cls-1" d="M113.4,30a6,6,0,0,1,3.25-.95,4,4,0,0,1,2.57,1.13s-2.29,1.5-3.51,1.11A7.82,7.82,0,0,1,113.4,30Z"/><path class="cls-1" d="M110.59,28.68A12,12,0,0,1,117,27a7.73,7.73,0,0,1,5,2.37s-4.57,2.81-6.94,2A15.63,15.63,0,0,1,110.59,28.68Z"/><path class="cls-1" d="M112,27a9.32,9.32,0,0,1,5.11-.44A5.93,5.93,0,0,1,120.59,29s-3.83,1.53-5.52.59A12.08,12.08,0,0,1,112,27Z"/><path class="cls-1" d="M111.41,25.66a10.61,10.61,0,0,1,5.88-.37,6.82,6.82,0,0,1,3.91,2.92s-4.44,1.65-6.36.53A14.11,14.11,0,0,1,111.41,25.66Z"/><path class="cls-1" d="M113.76,25.64a5.38,5.38,0,0,1,2.92-.62,3.45,3.45,0,0,1,2.18,1.17s-2.11,1.16-3.15.74A7,7,0,0,1,113.76,25.64Z"/><path class="cls-1" d="M109.59,24.71s3.64-2.48,7.45-2.29A9,9,0,0,1,123,25s-5.22,3.5-8,2.65A18.54,18.54,0,0,1,109.59,24.71Z"/><path class="cls-1" d="M111.89,23a9.44,9.44,0,0,1,5.16-.75,6,6,0,0,1,3.67,2.3s-3.81,1.78-5.58.93A12.35,12.35,0,0,1,111.89,23Z"/><path class="cls-1" d="M113.34,22.67a6.17,6.17,0,0,1,3.32-1,4,4,0,0,1,2.62,1.19s-2.35,1.5-3.59,1.1A8.32,8.32,0,0,1,113.34,22.67Z"/><path class="cls-1" d="M110.92,21.46a11.3,11.3,0,0,1,6-1.66A7.24,7.24,0,0,1,121.67,22s-4.27,2.69-6.51,1.94A14.76,14.76,0,0,1,110.92,21.46Z"/><path class="cls-1" d="M113.92,20.5a5,5,0,0,1,2.72-.64,3.23,3.23,0,0,1,2.06,1.05s-2,1.13-2.93.76A6.5,6.5,0,0,1,113.92,20.5Z"/><path class="cls-1" d="M113.32,19.55a6.3,6.3,0,0,1,3.34-1,4,4,0,0,1,2.63,1.18s-2.35,1.52-3.6,1.12A8.16,8.16,0,0,1,113.32,19.55Z"/><path class="cls-1" d="M108.77,17.62s4.39-2.35,8.66-1.68a10.29,10.29,0,0,1,6.4,3.59s-6.3,3.31-9.37,2A20.82,20.82,0,0,1,108.77,17.62Z"/><path class="cls-1" d="M114.58,17.41a3.68,3.68,0,0,1,2-.43,2.33,2.33,0,0,1,1.48.79s-1.42.79-2.13.51A4.81,4.81,0,0,1,114.58,17.41Z"/><path class="cls-1" d="M109.35,14.12s4.62-1.38,8.55.09a10,10,0,0,1,5.37,4.65s-6.62,1.92-9.28.09A20.06,20.06,0,0,1,109.35,14.12Z"/><path class="cls-1" d="M111,15.18A11,11,0,0,1,117,13.59a7.12,7.12,0,0,1,4.61,2.18s-4.21,2.6-6.4,1.85A14.57,14.57,0,0,1,111,15.18Z"/><path class="cls-1" d="M111.24,12.72a11.15,11.15,0,0,1,6.22,0,7.27,7.27,0,0,1,3.93,3.37s-4.82,1.42-6.76.09A14.69,14.69,0,0,1,111.24,12.72Z"/><path class="cls-1" d="M111.43,12a10.63,10.63,0,0,1,5.89-.26,6.82,6.82,0,0,1,3.87,3s-4.48,1.58-6.38.42A13.83,13.83,0,0,1,111.43,12Z"/><path class="cls-1" d="M111.77,12.11a9.54,9.54,0,0,1,5.09-1.38,6.16,6.16,0,0,1,4,1.86s-3.61,2.25-5.49,1.61A12.49,12.49,0,0,1,111.77,12.11Z"/><path class="cls-1" d="M113.15,10.86a6.75,6.75,0,0,1,3.66-.64,4.33,4.33,0,0,1,2.66,1.56s-2.68,1.34-4,.77A9,9,0,0,1,113.15,10.86Z"/><path class="cls-1" d="M110.73,10A11.61,11.61,0,0,1,117,8.27a7.56,7.56,0,0,1,4.88,2.29s-4.44,2.76-6.76,2A15.12,15.12,0,0,1,110.73,10Z"/><path class="cls-1" d="M109.14,8.39s4.13-2.29,8.2-1.7A9.72,9.72,0,0,1,123.46,10s-5.94,3.23-8.87,2A19.7,19.7,0,0,1,109.14,8.39Z"/><path class="cls-1" d="M109.93,6.56A13.75,13.75,0,0,1,117.56,6a8.91,8.91,0,0,1,5.13,3.75s-5.77,2.2-8.27.77A18.07,18.07,0,0,1,109.93,6.56Z"/><path class="cls-1" d="M114,6.61a5,5,0,0,1,2.79-.25,3.27,3.27,0,0,1,1.9,1.35s-2.1.84-3,.33A6.53,6.53,0,0,1,114,6.61Z"/><path class="cls-1" d="M111.6,5.92a9.88,9.88,0,0,1,5.26-1.51A6.4,6.4,0,0,1,121,6.28S117.29,8.66,115.33,8A13,13,0,0,1,111.6,5.92Z"/><path class="cls-1" d="M111.61,4.94a9.77,9.77,0,0,1,5.22-1.57A6.33,6.33,0,0,1,121,5.17S117.33,7.6,115.36,7A13,13,0,0,1,111.61,4.94Z"/><path class="cls-1" d="M114.47,3.74a3.91,3.91,0,0,1,2.14-.34,2.49,2.49,0,0,1,1.54.93s-1.57.76-2.31.42A5.16,5.16,0,0,1,114.47,3.74Z"/><path class="cls-1" d="M111.13,2.05a11,11,0,0,1,6.05-.87,7.16,7.16,0,0,1,4.3,2.7S117,6,114.93,5A14.74,14.74,0,0,1,111.13,2.05Z"/><path class="cls-1" d="M109.85,1.14a13.57,13.57,0,0,1,7.41-1.49,8.76,8.76,0,0,1,5.49,3s-5.37,2.87-8,1.78A18,18,0,0,1,109.85,1.14Z"/><path class="cls-1" d="M113.24.46a6.51,6.51,0,0,1,3.55-.63,4.18,4.18,0,0,1,2.59,1.51s-2.59,1.31-3.84.76A8.62,8.62,0,0,1,113.24.46Z"/><path class="cls-1" d="M108.7-1.48s4.55-2.19,8.86-1.33A10.46,10.46,0,0,1,123.9,1.1s-6.53,3.1-9.59,1.65A21,21,0,0,1,108.7-1.48Z"/><path class="cls-1" d="M109.47-1.57s3.78-2.41,7.67-2.09a9.24,9.24,0,0,1,6,2.8s-5.44,3.39-8.28,2.43A18.55,18.55,0,0,1,109.47-1.57Z"/><path class="cls-1" d="M109.81-4.27s4.24-1.39,7.91-.14a9.17,9.17,0,0,1,5.09,4.15s-6.07,2-8.58.34A18.65,18.65,0,0,1,109.81-4.27Z"/></svg>