<svg id="Layer_1" data-name="Layer 1" xmlns="http://www.w3.org/2000/svg" viewBox="0 0 128 128"><defs><style>.cls-1{fill:#32e785;}.cls-2{fill:#7cffa0;}.cls-3{fill:#6d5720;}</style></defs><rect class="cls-1" width="128" height="128"/><path class="cls-2" d="M98.74,107.76a9.36,9.36,0,0,1,1.21-3.63c1.21-2.42,6.06-1.21,6.06-1.21a28.32,28.32,0,0,1-3.64,3.63A17.37,17.37,0,0,1,98.74,107.76Z"/><path class="cls-2" d="M46.06,38.84a9.36,9.36,0,0,1,1.21-3.63C48.49,32.79,53.33,34,53.33,34a28.11,28.11,0,0,1-3.63,3.63A17.58,17.58,0,0,1,46.06,38.84Z"/><path class="cls-2" d="M92.82,106.4a8.56,8.56,0,0,1,.55-4.69A5.46,5.46,0,0,1,96.24,99s.67,3.74-.49,5.1A11.32,11.32,0,0,1,92.82,106.4Z"/><path class="cls-2" d="M45.45,80.22a9.36,9.36,0,0,1,1.21-3.63c1.21-2.42,6.05-1.21,6.05-1.21A28.11,28.11,0,0,1,49.08,79,17.37,17.37,0,0,1,45.45,80.22Z"/><path class="cls-2" d="M39.53,78.86a8.45,8.45,0,0,1,.55-4.69,5.47,5.47,0,0,1,2.86-2.68s.67,3.75-.49,5.1A10.93,10.93,0,0,1,39.53,78.86Z"/><path class="cls-2" d="M91.36,106.4a16.79,16.79,0,0,1-3.65-4.33,14.5,14.5,0,0,1-1-5.6s3.66,2,4.14,3.9A37,37,0,0,1,91.36,106.4Z"/><path class="cls-2" d="M87.58,106.4c-.06-.37-.73-4.08-2.56-4.51a23.48,23.48,0,0,0-5.66,0,23.7,23.7,0,0,0,4.11,3.3A20.88,20.88,0,0,0,87.58,106.4Z"/><path class="cls-2" d="M104.71,23.74a16.6,16.6,0,0,1-3.65-4.33,14.5,14.5,0,0,1-1-5.6s3.66,1.95,4.14,3.9A37,37,0,0,1,104.71,23.74Z"/><path class="cls-2" d="M100.93,23.74c-.06-.36-.73-4.08-2.55-4.51a24.11,24.11,0,0,0-5.67,0,23.7,23.7,0,0,0,4.11,3.3A20.88,20.88,0,0,0,100.93,23.74Z"/><path class="cls-2" d="M38.58,38.62a16.67,16.67,0,0,1-3.65-4.32,14.56,14.56,0,0,1-1-5.61s3.66,1.95,4.15,3.9A37.8,37.8,0,0,1,38.58,38.62Z"/><path class="cls-2" d="M34.81,38.62c-.06-.36-.74-4.08-2.56-4.51a24.11,24.11,0,0,0-5.67,0,23.7,23.7,0,0,0,4.11,3.3A21.1,21.1,0,0,0,34.81,38.62Z"/><path class="cls-3" d="M360-116a12,12,0,0,1,12,12V232a12,12,0,0,1-12,12H24a12,12,0,0,1-12-12V-104a12,12,0,0,1,12-12H360m0-12H24A24,24,0,0,0,0-104V232a24,24,0,0,0,24,24H360a24,24,0,0,0,24-24V-104a24,24,0,0,0-24-24Z"/><path class="cls-1" d="M18-.77A13.54,13.54,0,0,1,10.55,0,8.75,8.75,0,0,1,5.37-3.45s5.58-2.37,8.09-1A17.54,17.54,0,0,1,18-.77Z"/><path class="cls-1" d="M16.49.88a10.2,10.2,0,0,1-5.63.72A6.6,6.6,0,0,1,6.9-1s4.18-1.86,6.1-.9A13.55,13.55,0,0,1,16.49.88Z"/><path class="cls-1" d="M18.6,1.47s-3.86,2.37-7.78,2a9.34,9.34,0,0,1-6-2.9s5.53-3.36,8.39-2.35A19,19,0,0,1,18.6,1.47Z"/><path class="cls-1" d="M17.2,3a11.62,11.62,0,0,1-6.43.93A7.5,7.5,0,0,1,6.2,1.08s4.74-2.21,7-1.15A15.4,15.4,0,0,1,17.2,3Z"/><path class="cls-1" d="M17.7,4.68a13,13,0,0,1-7.21.43,8.38,8.38,0,0,1-4.8-3.6s5.46-2,7.81-.62A17.11,17.11,0,0,1,17.7,4.68Z"/><path class="cls-1" d="M17.25,5.88A12.19,12.19,0,0,1,10.47,6,7.9,7.9,0,0,1,6.13,2.39s5.21-1.64,7.35-.25A16.15,16.15,0,0,1,17.25,5.88Z"/><path class="cls-1" d="M17.82,6.05a12.9,12.9,0,0,1-7.07,1.26,8.36,8.36,0,0,1-5.17-3s5.17-2.63,7.65-1.54A17,17,0,0,1,17.82,6.05Z"/><path class="cls-1" d="M14.58,6.57a6.15,6.15,0,0,1-3.33.63A3.92,3.92,0,0,1,8.81,5.81s2.42-1.26,3.59-.75A8.11,8.11,0,0,1,14.58,6.57Z"/><path class="cls-1" d="M19.1,7.77S15,10.31,10.75,9.9A10,10,0,0,1,4.32,6.78s5.94-3.59,9-2.51A20.39,20.39,0,0,1,19.1,7.77Z"/><path class="cls-1" d="M17.81,10.21a13.38,13.38,0,0,1-7.45.12A8.65,8.65,0,0,1,5.58,6.41s5.72-1.83,8.07-.3A17.69,17.69,0,0,1,17.81,10.21Z"/><path class="cls-1" d="M19.26,9.87S15,12.46,10.73,12.05A10.23,10.23,0,0,1,4.16,8.86s6.07-3.67,9.2-2.57A20.75,20.75,0,0,1,19.26,9.87Z"/><path class="cls-1" d="M15.25,10.59a7.42,7.42,0,0,1-4,1,4.79,4.79,0,0,1-3.1-1.48S11,8.4,12.47,8.92A9.68,9.68,0,0,1,15.25,10.59Z"/><path class="cls-1" d="M18.89,12.82s-4.37,2-8.44,1.09a9.89,9.89,0,0,1-5.94-3.84s6.26-2.81,9.14-1.37A20.1,20.1,0,0,1,18.89,12.82Z"/><path class="cls-1" d="M19,13.59S14.67,15.77,10.54,15a9.9,9.9,0,0,1-6.12-3.63s6.19-3.06,9.14-1.73A20.35,20.35,0,0,1,19,13.59Z"/><path class="cls-1" d="M15.13,13.6a7.12,7.12,0,0,1-3.83,1.12,4.65,4.65,0,0,1-3-1.34s2.7-1.76,4.14-1.3A9.5,9.5,0,0,1,15.13,13.6Z"/><path class="cls-1" d="M16.39,14.72a9.78,9.78,0,0,1-5.24,1.51A6.36,6.36,0,0,1,7,14.37s3.7-2.39,5.66-1.76A12.83,12.83,0,0,1,16.39,14.72Z"/><path class="cls-1" d="M18,15.94a13.17,13.17,0,0,1-7.08,1.91,8.52,8.52,0,0,1-5.51-2.58s5-3.13,7.64-2.24A17.46,17.46,0,0,1,18,15.94Z"/><path class="cls-1" d="M16.9,17.5a11.07,11.07,0,0,1-6.06.93A7.1,7.1,0,0,1,6.5,15.77s4.46-2.13,6.55-1.15A14.79,14.79,0,0,1,16.9,17.5Z"/><path class="cls-1" d="M12.67,17.72a2.07,2.07,0,0,1-1.12.27,1.31,1.31,0,0,1-.85-.43s.8-.47,1.21-.32A2.58,2.58,0,0,1,12.67,17.72Z"/><path class="cls-1" d="M18.9,20.9s-4.67,1.59-8.75.23a10.11,10.11,0,0,1-5.66-4.55s6.69-2.21,9.48-.44A20.55,20.55,0,0,1,18.9,20.9Z"/><path class="cls-1" d="M14.72,20a6.39,6.39,0,0,1-3.45.79,4.06,4.06,0,0,1-2.6-1.35s2.47-1.41,3.72-.93A8.28,8.28,0,0,1,14.72,20Z"/><path class="cls-1" d="M15.7,21.81a8.64,8.64,0,0,1-4.8.33,5.63,5.63,0,0,1-3.22-2.36s3.63-1.37,5.2-.47A11.35,11.35,0,0,1,15.7,21.81Z"/><path class="cls-1" d="M17,23a11.42,11.42,0,0,1-6.31.61,7.33,7.33,0,0,1-4.32-3s4.72-1.94,6.83-.81A14.94,14.94,0,0,1,17,23Z"/><path class="cls-1" d="M14.75,23.52a6.58,6.58,0,0,1-3.62.39,4.21,4.21,0,0,1-2.5-1.69s2.7-1.15,3.92-.51A8.69,8.69,0,0,1,14.75,23.52Z"/><path class="cls-1" d="M18.5,24.45s-3.82,2.31-7.69,1.91a9.21,9.21,0,0,1-5.9-2.92s5.49-3.27,8.3-2.25A18.56,18.56,0,0,1,18.5,24.45Z"/><path class="cls-1" d="M18.77,27.32s-4.67,1.45-8.66,0a10,10,0,0,1-5.49-4.65s6.68-2,9.4-.19A20.5,20.5,0,0,1,18.77,27.32Z"/><path class="cls-1" d="M19,26.12s-3.9,2.7-8,2.53A9.81,9.81,0,0,1,4.47,26s5.61-3.83,8.66-2.94A19.88,19.88,0,0,1,19,26.12Z"/><path class="cls-1" d="M13,27.05a2.67,2.67,0,0,1-1.44.44,1.75,1.75,0,0,1-1.15-.5s1-.67,1.56-.51A3.61,3.61,0,0,1,13,27.05Z"/><path class="cls-1" d="M16.15,28.54a9.36,9.36,0,0,1-5.08,1.12,6,6,0,0,1-3.82-2s3.66-2,5.48-1.33A12.36,12.36,0,0,1,16.15,28.54Z"/><path class="cls-1" d="M17.06,30.92a11.83,11.83,0,0,1-6.57,0,7.66,7.66,0,0,1-4.17-3.53s5.08-1.53,7.13-.14A15.5,15.5,0,0,1,17.06,30.92Z"/><path class="cls-1" d="M15.33,30.82a7.74,7.74,0,0,1-4.25.6,5,5,0,0,1-3-1.9s3.14-1.45,4.6-.75A10.21,10.21,0,0,1,15.33,30.82Z"/><path class="cls-1" d="M17.88,31.28A12.93,12.93,0,0,1,11,33.47a8.38,8.38,0,0,1-5.51-2.28s4.77-3.29,7.37-2.54A16.78,16.78,0,0,1,17.88,31.28Z"/><path class="cls-1" d="M17,32.46a11.08,11.08,0,0,1-5.91,1.7,7.19,7.19,0,0,1-4.67-2.08s4.17-2.7,6.38-2A14.61,14.61,0,0,1,17,32.46Z"/><path class="cls-1" d="M16.17,33.4a9.35,9.35,0,0,1-5,1.51,6,6,0,0,1-4-1.7s3.48-2.33,5.36-1.76A12.25,12.25,0,0,1,16.17,33.4Z"/><path class="cls-1" d="M19,36.21s-4.58,1.78-8.68.6a10.09,10.09,0,0,1-5.83-4.27s6.56-2.49,9.41-.85A20.36,20.36,0,0,1,19,36.21Z"/><path class="cls-1" d="M19.32,36.58s-4.52,2.27-8.84,1.48a10.46,10.46,0,0,1-6.39-3.8s6.47-3.2,9.55-1.81A21.11,21.11,0,0,1,19.32,36.58Z"/><path class="cls-1" d="M13.5,36.9a3.86,3.86,0,0,1-2.18.11,2.53,2.53,0,0,1-1.45-1.1s1.66-.59,2.37-.17A5,5,0,0,1,13.5,36.9Z"/><path class="cls-1" d="M15,38.55a7.18,7.18,0,0,1-4,0,4.68,4.68,0,0,1-2.54-2.17s3.1-.92,4.36-.07A9.48,9.48,0,0,1,15,38.55Z"/><path class="cls-1" d="M13.17,38.85A3.2,3.2,0,0,1,11.4,39a2.07,2.07,0,0,1-1.2-.86s1.33-.52,1.92-.2A4.28,4.28,0,0,1,13.17,38.85Z"/><path class="cls-1" d="M15.31,39.86a7.57,7.57,0,0,1-4.11,1,4.91,4.91,0,0,1-3.12-1.59s2.95-1.71,4.44-1.15A9.86,9.86,0,0,1,15.31,39.86Z"/><path class="cls-1" d="M15.86,41.18a8.75,8.75,0,0,1-4.81.86,5.66,5.66,0,0,1-3.52-2s3.51-1.79,5.2-1A11.57,11.57,0,0,1,15.86,41.18Z"/><path class="cls-1" d="M18.38,42.57s-3.92,2-7.71,1.42A9.07,9.07,0,0,1,5,40.76s5.61-2.9,8.33-1.72A18.4,18.4,0,0,1,18.38,42.57Z"/><path class="cls-1" d="M18.89,43.92s-4.3,2.08-8.38,1.27a9.84,9.84,0,0,1-6-3.69s6.18-2.94,9.07-1.57A20,20,0,0,1,18.89,43.92Z"/><path class="cls-1" d="M16.38,44.19A9.8,9.8,0,0,1,11,45.37a6.33,6.33,0,0,1-4-2.11s3.85-2.16,5.77-1.4A12.94,12.94,0,0,1,16.38,44.19Z"/><path class="cls-1" d="M16.63,45.49a10.38,10.38,0,0,1-5.71,1,6.7,6.7,0,0,1-4.15-2.42s4.17-2.1,6.17-1.22A13.67,13.67,0,0,1,16.63,45.49Z"/><path class="cls-1" d="M15.18,46.8A7.5,7.5,0,0,1,11,47,4.91,4.91,0,0,1,8.19,44.8s3.23-1.11,4.59-.27A10.1,10.1,0,0,1,15.18,46.8Z"/><path class="cls-1" d="M14.79,47.1a6.42,6.42,0,0,1-3.52.83A4.17,4.17,0,0,1,8.6,46.58s2.52-1.47,3.79-1A8.58,8.58,0,0,1,14.79,47.1Z"/><path class="cls-1" d="M18.48,48.06S14.8,50.55,11,50.35a9.14,9.14,0,0,1-6-2.59s5.28-3.52,8.12-2.65A18.59,18.59,0,0,1,18.48,48.06Z"/><path class="cls-1" d="M16.48,49.81a10.16,10.16,0,0,1-5.6.77,6.52,6.52,0,0,1-4-2.51s4.14-1.9,6.06-1A13.46,13.46,0,0,1,16.48,49.81Z"/><path class="cls-1" d="M16.43,50.2a9.87,9.87,0,0,1-5.31,1.47A6.41,6.41,0,0,1,7,49.76S10.72,47.38,12.7,48A12.86,12.86,0,0,1,16.43,50.2Z"/><path class="cls-1" d="M14.93,52a7.12,7.12,0,0,1-3.95.06A4.6,4.6,0,0,1,8.44,50s3-1,4.29-.16A9.47,9.47,0,0,1,14.93,52Z"/><path class="cls-1" d="M19.08,52.23s-4,2.72-8.19,2.51a9.93,9.93,0,0,1-6.55-2.8s5.74-3.85,8.84-2.91A20.2,20.2,0,0,1,19.08,52.23Z"/><path class="cls-1" d="M15.3,53.45a7.59,7.59,0,0,1-4.11.92,4.92,4.92,0,0,1-3.1-1.63s3-1.67,4.44-1.09A10,10,0,0,1,15.3,53.45Z"/><path class="cls-1" d="M15.6,54.38a8.12,8.12,0,0,1-4.4,1.15A5.28,5.28,0,0,1,7.79,53.9s3.13-1.92,4.75-1.35A10.74,10.74,0,0,1,15.6,54.38Z"/><path class="cls-1" d="M19.05,55.65s-4.1,2.56-8.27,2.18a9.93,9.93,0,0,1-6.41-3.06s5.88-3.6,8.92-2.55A20.33,20.33,0,0,1,19.05,55.65Z"/><path class="cls-1" d="M17.91,56.82a13.07,13.07,0,0,1-7.07,1.62,8.49,8.49,0,0,1-5.35-2.77s5.08-2.89,7.64-1.92A17.15,17.15,0,0,1,17.91,56.82Z"/><path class="cls-1" d="M14.5,57.7a5.94,5.94,0,0,1-3.26.53,3.83,3.83,0,0,1-2.36-1.42s2.4-1.16,3.53-.64A8,8,0,0,1,14.5,57.7Z"/><path class="cls-1" d="M13.28,58.76a3.42,3.42,0,0,1-1.93.06,2.28,2.28,0,0,1-1.26-1s1.48-.5,2.1-.11A4.51,4.51,0,0,1,13.28,58.76Z"/><path class="cls-1" d="M14,59.36a4.85,4.85,0,0,1-2.56.81,3.14,3.14,0,0,1-2.06-.85s1.79-1.23,2.76-1A6.12,6.12,0,0,1,14,59.36Z"/><path class="cls-1" d="M16.72,61.49a10.72,10.72,0,0,1-5.95.62,6.93,6.93,0,0,1-4.1-2.79s4.44-1.86,6.44-.81A14.1,14.1,0,0,1,16.72,61.49Z"/><path class="cls-1" d="M13.55,61.58a3.89,3.89,0,0,1-2.12.49,2.5,2.5,0,0,1-1.6-.82s1.52-.87,2.28-.58A5.13,5.13,0,0,1,13.55,61.58Z"/><path class="cls-1" d="M15.92,63.47a9,9,0,0,1-5,.44A5.83,5.83,0,0,1,7.47,61.5s3.77-1.52,5.44-.6A12,12,0,0,1,15.92,63.47Z"/><path class="cls-1" d="M16,64.2A9.23,9.23,0,0,1,11,65a5.91,5.91,0,0,1-3.62-2.17s3.68-1.8,5.42-1A11.93,11.93,0,0,1,16,64.2Z"/><path class="cls-1" d="M17.2,65.78a11.77,11.77,0,0,1-6.52.67,7.64,7.64,0,0,1-4.49-3.07s4.87-2,7.06-.88A15.49,15.49,0,0,1,17.2,65.78Z"/><path class="cls-1" d="M17,66.21a11.05,11.05,0,0,1-6,1.26A7.17,7.17,0,0,1,6.42,65s4.38-2.37,6.53-1.5A14.63,14.63,0,0,1,17,66.21Z"/><path class="cls-1" d="M13.85,67.32a4.76,4.76,0,0,1-2.64,0,3.09,3.09,0,0,1-1.69-1.4s2-.63,2.87-.08A6.32,6.32,0,0,1,13.85,67.32Z"/><path class="cls-1" d="M17.37,68.43a12,12,0,0,1-6.53,1.25A7.7,7.7,0,0,1,6,67s4.74-2.49,7.05-1.51A15.8,15.8,0,0,1,17.37,68.43Z"/><path class="cls-1" d="M19,71.09s-4.78,1.53-8.9.08a10.31,10.31,0,0,1-5.7-4.72s6.86-2.14,9.67-.3A21,21,0,0,1,19,71.09Z"/><path class="cls-1" d="M12.81,70.1a2.45,2.45,0,0,1-1.37,0,1.62,1.62,0,0,1-.89-.72s1.06-.34,1.5-.06A3.21,3.21,0,0,1,12.81,70.1Z"/><path class="cls-1" d="M18.39,72.44s-4.19,1.69-8,.66A9.3,9.3,0,0,1,5,69.25s6-2.37,8.64-.91A18.9,18.9,0,0,1,18.39,72.44Z"/><path class="cls-1" d="M14.74,72.05a6.38,6.38,0,0,1-3.44.88,4.09,4.09,0,0,1-2.65-1.28s2.45-1.48,3.71-1A8.51,8.51,0,0,1,14.74,72.05Z"/><path class="cls-1" d="M19.05,73.38s-4.1,2.55-8.27,2.16a9.93,9.93,0,0,1-6.41-3.06s5.88-3.6,8.93-2.54A20.28,20.28,0,0,1,19.05,73.38Z"/><path class="cls-1" d="M19.21,74.31S15.07,77,10.8,76.66a10.12,10.12,0,0,1-6.59-3s6-3.77,9.07-2.73A20.61,20.61,0,0,1,19.21,74.31Z"/><path class="cls-1" d="M15.75,75.21a8.46,8.46,0,0,1-4.56,1.22,5.49,5.49,0,0,1-3.54-1.67s3.23-2,4.91-1.43A11.24,11.24,0,0,1,15.75,75.21Z"/><path class="cls-1" d="M16,76.23a9,9,0,0,1-4.85,1.35,5.9,5.9,0,0,1-3.8-1.76s3.44-2.16,5.24-1.56A12,12,0,0,1,16,76.23Z"/><path class="cls-1" d="M18.45,78.22s-4,2-7.86,1.2A9.19,9.19,0,0,1,5,76s5.78-2.76,8.5-1.49A19,19,0,0,1,18.45,78.22Z"/><path class="cls-1" d="M18.48,79.13s-4,2-7.85,1.36a9.23,9.23,0,0,1-5.7-3.35s5.74-2.87,8.48-1.65A18.87,18.87,0,0,1,18.48,79.13Z"/><path class="cls-1" d="M18.1,80.08a13.59,13.59,0,0,1-7.4,1.32,8.67,8.67,0,0,1-5.39-3.13s5.39-2.74,8-1.6A17.86,17.86,0,0,1,18.1,80.08Z"/><path class="cls-1" d="M15.07,80.22a7,7,0,0,1-3.74,1.19,4.6,4.6,0,0,1-3-1.25s2.61-1.79,4-1.38A9.07,9.07,0,0,1,15.07,80.22Z"/><path class="cls-1" d="M17.2,82.84a12,12,0,0,1-6.66.25,7.78,7.78,0,0,1-4.36-3.42s5.09-1.74,7.23-.42A15.61,15.61,0,0,1,17.2,82.84Z"/><path class="cls-1" d="M13.25,82.42a3.28,3.28,0,0,1-1.79.39,2.15,2.15,0,0,1-1.33-.72s1.29-.71,1.92-.45A4.33,4.33,0,0,1,13.25,82.42Z"/><path class="cls-1" d="M18.18,84.52a13.77,13.77,0,0,1-7.58,1,8.85,8.85,0,0,1-5.38-3.39s5.61-2.59,8.21-1.33A18.31,18.31,0,0,1,18.18,84.52Z"/><path class="cls-1" d="M13.39,84.6a3.57,3.57,0,0,1-2,.33A2.29,2.29,0,0,1,10,84.09s1.44-.72,2.13-.41A4.7,4.7,0,0,1,13.39,84.6Z"/><path class="cls-1" d="M19.37,86.07S15,88.64,10.68,88.15a10.37,10.37,0,0,1-6.63-3.34s6.22-3.63,9.38-2.46A21.07,21.07,0,0,1,19.37,86.07Z"/><path class="cls-1" d="M17.09,87.94a11.73,11.73,0,0,1-6.5.33A7.56,7.56,0,0,1,6.3,85s4.93-1.76,7-.5A15.44,15.44,0,0,1,17.09,87.94Z"/><path class="cls-1" d="M18.59,88.05s-3.88,2.33-7.8,1.91a9.33,9.33,0,0,1-6-3s5.58-3.29,8.42-2.25A18.82,18.82,0,0,1,18.59,88.05Z"/><path class="cls-1" d="M17,89.71a11.31,11.31,0,0,1-6.23.62,7.31,7.31,0,0,1-4.28-3s4.67-1.93,6.75-.81A15.1,15.1,0,0,1,17,89.71Z"/><path class="cls-1" d="M15,90.49a7.14,7.14,0,0,1-4,.18,4.6,4.6,0,0,1-2.61-2s3-1.06,4.3-.28A9.27,9.27,0,0,1,15,90.49Z"/><path class="cls-1" d="M15.6,91.12a8.28,8.28,0,0,1-4.5.86,5.36,5.36,0,0,1-3.31-1.87s3.27-1.71,4.86-1A10.71,10.71,0,0,1,15.6,91.12Z"/><path class="cls-1" d="M17.13,92.19a11.32,11.32,0,0,1-6.19,1.39,7.35,7.35,0,0,1-4.66-2.43S10.72,88.64,13,89.5A15,15,0,0,1,17.13,92.19Z"/><path class="cls-1" d="M19.2,92.73s-4,2.84-8.27,2.72a10.14,10.14,0,0,1-6.71-2.72s5.76-4,8.92-3.14A20.64,20.64,0,0,1,19.2,92.73Z"/><path class="cls-1" d="M14.63,93.91a6.17,6.17,0,0,1-3.31.87,3.94,3.94,0,0,1-2.56-1.23s2.35-1.43,3.57-1A8,8,0,0,1,14.63,93.91Z"/><path class="cls-1" d="M16.54,96.36a10.62,10.62,0,0,1-5.93,0,6.88,6.88,0,0,1-3.78-3.16s4.58-1.4,6.44-.17A13.92,13.92,0,0,1,16.54,96.36Z"/><path class="cls-1" d="M14.93,96.26A6.88,6.88,0,0,1,11.2,97a4.44,4.44,0,0,1-2.74-1.56s2.72-1.41,4-.84A9,9,0,0,1,14.93,96.26Z"/><path class="cls-1" d="M18.34,97.41a14,14,0,0,1-7.52,1.84,9,9,0,0,1-5.75-2.87s5.38-3.17,8.12-2.17A18.37,18.37,0,0,1,18.34,97.41Z"/><path class="cls-1" d="M17,99.34a11.51,11.51,0,0,1-6.36.36A7.45,7.45,0,0,1,6.4,96.51s4.83-1.75,6.89-.53A15.11,15.11,0,0,1,17,99.34Z"/><path class="cls-1" d="M16.9,99.7a10.93,10.93,0,0,1-6,1.08,7.11,7.11,0,0,1-4.4-2.55S10.89,96,13,96.93A14.26,14.26,0,0,1,16.9,99.7Z"/><path class="cls-1" d="M14,100.24a4.82,4.82,0,0,1-2.64.55,3.15,3.15,0,0,1-2-1.06s1.91-1,2.86-.67A6.36,6.36,0,0,1,14,100.24Z"/><path class="cls-1" d="M16,101.53a9.05,9.05,0,0,1-5,1,5.87,5.87,0,0,1-3.7-2s3.6-2,5.37-1.23A12,12,0,0,1,16,101.53Z"/><path class="cls-1" d="M18.24,103.91s-4.19,1.53-7.89.38a9.15,9.15,0,0,1-5.2-4s6-2.13,8.55-.59A18.7,18.7,0,0,1,18.24,103.91Z"/><path class="cls-1" d="M16,104.19a9.38,9.38,0,0,1-5.19.4,6,6,0,0,1-3.51-2.52s3.91-1.52,5.62-.56A12.1,12.1,0,0,1,16,104.19Z"/><path class="cls-1" d="M13.12,104.27a3,3,0,0,1-1.63.38,2,2,0,0,1-1.24-.64s1.18-.67,1.77-.44A3.81,3.81,0,0,1,13.12,104.27Z"/><path class="cls-1" d="M13.31,105.57a3.52,3.52,0,0,1-1.93.17,2.24,2.24,0,0,1-1.32-.94s1.46-.58,2.1-.22A4.45,4.45,0,0,1,13.31,105.57Z"/><path class="cls-1" d="M12.62,106.43a2.05,2.05,0,0,1-1.11.11,1.27,1.27,0,0,1-.76-.52s.83-.35,1.2-.15A2.67,2.67,0,0,1,12.62,106.43Z"/><path class="cls-1" d="M13.51,107.51a3.89,3.89,0,0,1-2.1.4A2.5,2.5,0,0,1,9.87,107s1.52-.8,2.26-.49A5,5,0,0,1,13.51,107.51Z"/><path class="cls-1" d="M14.19,108.72a5.23,5.23,0,0,1-2.91.46,3.44,3.44,0,0,1-2.09-1.26s2.14-1,3.14-.57A7.1,7.1,0,0,1,14.19,108.72Z"/><path class="cls-1" d="M18.69,111.48s-4.53,1.55-8.48.25a9.86,9.86,0,0,1-5.51-4.39s6.49-2.17,9.19-.47A20.22,20.22,0,0,1,18.69,111.48Z"/><path class="cls-1" d="M14.2,111.07a5.45,5.45,0,0,1-3,.18,3.51,3.51,0,0,1-2-1.51s2.28-.84,3.27-.26A7.15,7.15,0,0,1,14.2,111.07Z"/><path class="cls-1" d="M17.51,112.7a12.38,12.38,0,0,1-6.87.76,8,8,0,0,1-4.76-3.2s5.12-2.19,7.44-1A16.2,16.2,0,0,1,17.51,112.7Z"/><path class="cls-1" d="M19.32,113.14s-4.3,2.57-8.63,2.09a10.31,10.31,0,0,1-6.6-3.3s6.18-3.63,9.32-2.47A20.93,20.93,0,0,1,19.32,113.14Z"/><path class="cls-1" d="M14.62,113.77a6.17,6.17,0,0,1-3.32.8,3.94,3.94,0,0,1-2.53-1.27s2.37-1.39,3.58-1A8.09,8.09,0,0,1,14.62,113.77Z"/><path class="cls-1" d="M17.17,116a11.81,11.81,0,0,1-6.57.41,7.67,7.67,0,0,1-4.38-3.26s5-1.85,7.11-.6A15.66,15.66,0,0,1,17.17,116Z"/><path class="cls-1" d="M15.65,116.08a8.36,8.36,0,0,1-4.53.94,5.4,5.4,0,0,1-3.38-1.84s3.28-1.78,4.9-1.12A10.88,10.88,0,0,1,15.65,116.08Z"/><path class="cls-1" d="M14.49,117.51a6.15,6.15,0,0,1-3.41.08,4,4,0,0,1-2.2-1.78s2.61-.85,3.7-.16A8.06,8.06,0,0,1,14.49,117.51Z"/><path class="cls-1" d="M14.93,118.28a6.91,6.91,0,0,1-3.79.54,4.41,4.41,0,0,1-2.68-1.69s2.79-1.29,4.09-.67A9.12,9.12,0,0,1,14.93,118.28Z"/><path class="cls-1" d="M18.68,120.34s-4.33,1.82-8.28.81a9.63,9.63,0,0,1-5.68-3.91s6.19-2.56,9-1.08A19.68,19.68,0,0,1,18.68,120.34Z"/><path class="cls-1" d="M19.14,120.16s-4.1,2.65-8.33,2.33a10,10,0,0,1-6.53-3s5.89-3.73,9-2.71A20.34,20.34,0,0,1,19.14,120.16Z"/><path class="cls-1" d="M17.82,120.84a12.78,12.78,0,0,1-6.75,2.23,8.21,8.21,0,0,1-5.47-2.2s4.69-3.29,7.27-2.57A16.67,16.67,0,0,1,17.82,120.84Z"/><path class="cls-1" d="M13.33,122.16a3.41,3.41,0,0,1-1.92.26,2.26,2.26,0,0,1-1.36-.86s1.42-.65,2.08-.33A4.67,4.67,0,0,1,13.33,122.16Z"/><path class="cls-1" d="M13.06,122.92a2.89,2.89,0,0,1-1.52.48,1.88,1.88,0,0,1-1.23-.52s1.07-.73,1.65-.55A3.68,3.68,0,0,1,13.06,122.92Z"/><path class="cls-1" d="M16,124.83a9,9,0,0,1-5,.59,5.82,5.82,0,0,1-3.49-2.31s3.73-1.63,5.43-.76A12,12,0,0,1,16,124.83Z"/><path class="cls-1" d="M15.78,125.61a8.64,8.64,0,0,1-4.73.82,5.56,5.56,0,0,1-3.44-2s3.46-1.74,5.12-1A11.39,11.39,0,0,1,15.78,125.61Z"/><path class="cls-1" d="M18.51,128.18s-4.45,1.47-8.29.15A9.62,9.62,0,0,1,4.88,124s6.36-2,9-.35A19.56,19.56,0,0,1,18.51,128.18Z"/><path class="cls-1" d="M18.77,127.33s-3.86,2.57-7.88,2.33a9.52,9.52,0,0,1-6.24-2.75s5.54-3.64,8.5-2.71A19.53,19.53,0,0,1,18.77,127.33Z"/><path class="cls-1" d="M13.74,128.63a4.48,4.48,0,0,1-2.45.18,2.87,2.87,0,0,1-1.65-1.2s1.85-.71,2.65-.25A5.6,5.6,0,0,1,13.74,128.63Z"/></svg>