<svg id="Layer_1" data-name="Layer 1" xmlns="http://www.w3.org/2000/svg" viewBox="0 0 128 128"><defs><style>.cls-1{fill:#32e785;}.cls-2{fill:#7cffa0;}.cls-3{fill:#6d5720;}</style></defs><path class="cls-1" d="M24,0H128a0,0,0,0,1,0,0V128a0,0,0,0,1,0,0H0a0,0,0,0,1,0,0V24A24,24,0,0,1,24,0Z"/><path class="cls-2" d="M98.74,107.76a9.36,9.36,0,0,1,1.21-3.63c1.21-2.42,6.06-1.21,6.06-1.21a28.32,28.32,0,0,1-3.64,3.63A17.37,17.37,0,0,1,98.74,107.76Z"/><path class="cls-2" d="M46.06,38.84a9.36,9.36,0,0,1,1.21-3.63C48.49,32.79,53.33,34,53.33,34a28.11,28.11,0,0,1-3.63,3.63A17.58,17.58,0,0,1,46.06,38.84Z"/><path class="cls-2" d="M92.82,106.4a8.56,8.56,0,0,1,.55-4.69A5.46,5.46,0,0,1,96.24,99s.67,3.74-.49,5.1A11.32,11.32,0,0,1,92.82,106.4Z"/><path class="cls-2" d="M45.45,80.22a9.36,9.36,0,0,1,1.21-3.63c1.21-2.42,6.05-1.21,6.05-1.21A28.11,28.11,0,0,1,49.08,79,17.37,17.37,0,0,1,45.45,80.22Z"/><path class="cls-2" d="M39.53,78.86a8.45,8.45,0,0,1,.55-4.69,5.47,5.47,0,0,1,2.86-2.68s.67,3.75-.49,5.1A10.93,10.93,0,0,1,39.53,78.86Z"/><path class="cls-2" d="M91.36,106.4a16.79,16.79,0,0,1-3.65-4.33,14.5,14.5,0,0,1-1-5.6s3.66,2,4.14,3.9A37,37,0,0,1,91.36,106.4Z"/><path class="cls-2" d="M87.58,106.4c-.06-.37-.73-4.08-2.56-4.51a23.48,23.48,0,0,0-5.66,0,23.7,23.7,0,0,0,4.11,3.3A20.88,20.88,0,0,0,87.58,106.4Z"/><path class="cls-2" d="M104.71,23.74a16.6,16.6,0,0,1-3.65-4.33,14.5,14.5,0,0,1-1-5.6s3.66,1.95,4.14,3.9A37,37,0,0,1,104.71,23.74Z"/><path class="cls-2" d="M100.93,23.74c-.06-.36-.73-4.08-2.55-4.51a24.11,24.11,0,0,0-5.67,0,23.7,23.7,0,0,0,4.11,3.3A20.88,20.88,0,0,0,100.93,23.74Z"/><path class="cls-2" d="M38.58,38.62a16.67,16.67,0,0,1-3.65-4.32,14.56,14.56,0,0,1-1-5.61s3.66,1.95,4.15,3.9A37.8,37.8,0,0,1,38.58,38.62Z"/><path class="cls-2" d="M34.81,38.62c-.06-.36-.74-4.08-2.56-4.51a24.11,24.11,0,0,0-5.67,0,23.7,23.7,0,0,0,4.11,3.3A21.1,21.1,0,0,0,34.81,38.62Z"/><path class="cls-3" d="M360,12a12,12,0,0,1,12,12V360a12,12,0,0,1-12,12H24a12,12,0,0,1-12-12V24A12,12,0,0,1,24,12H360m0-12H24A24,24,0,0,0,0,24V360a24,24,0,0,0,24,24H360a24,24,0,0,0,24-24V24A24,24,0,0,0,360,0Z"/><path class="cls-1" d="M129.78,18.36s-2.56-4.34-2.06-8.69a10.4,10.4,0,0,1,3.36-6.62s3.62,6.23,2.43,9.39A21.15,21.15,0,0,1,129.78,18.36Z"/><path class="cls-1" d="M129.34,16a11,11,0,0,1-1.83-5.83,7.11,7.11,0,0,1,2-4.67s2.76,4.07,2.11,6.28A14.59,14.59,0,0,1,129.34,16Z"/><path class="cls-1" d="M128.26,12.59a4,4,0,0,1-.54-2.15,2.57,2.57,0,0,1,.81-1.65s.92,1.53.64,2.32A5.23,5.23,0,0,1,128.26,12.59Z"/><path class="cls-1" d="M126.45,15.07a9.34,9.34,0,0,1-.61-5.16,6.06,6.06,0,0,1,2.37-3.6s1.68,3.84.79,5.59A12.49,12.49,0,0,1,126.45,15.07Z"/><path class="cls-1" d="M126.26,12.33a3.46,3.46,0,0,1-.53-1.84A2.25,2.25,0,0,1,126.37,9s.84,1.3.62,2A4.34,4.34,0,0,1,126.26,12.33Z"/><path class="cls-1" d="M124.83,17.55s-2.38-3.81-2-7.71a9.26,9.26,0,0,1,2.83-6S129,9.33,128,12.17A18.83,18.83,0,0,1,124.83,17.55Z"/><path class="cls-1" d="M122.93,14.89a9.21,9.21,0,0,1-.11-5.11,5.91,5.91,0,0,1,2.66-3.29s1.28,3.91.24,5.53A12,12,0,0,1,122.93,14.89Z"/><path class="cls-1" d="M122.35,14a7,7,0,0,1-.27-3.9A4.54,4.54,0,0,1,124,7.42s1.12,2.95.38,4.23A9,9,0,0,1,122.35,14Z"/><path class="cls-1" d="M121.94,17.05A13.31,13.31,0,0,1,119.82,10a8.59,8.59,0,0,1,2.45-5.62s3.29,5,2.46,7.63A17.33,17.33,0,0,1,121.94,17.05Z"/><path class="cls-1" d="M120.73,12.19a3.25,3.25,0,0,1-.13-1.8,2.09,2.09,0,0,1,.89-1.21s.51,1.36.17,2A4.37,4.37,0,0,1,120.73,12.19Z"/><path class="cls-1" d="M119.85,13.52a5.88,5.88,0,0,1-.8-3.2,3.81,3.81,0,0,1,1.21-2.46s1.36,2.29.94,3.46A7.71,7.71,0,0,1,119.85,13.52Z"/><path class="cls-1" d="M118.67,12.72a4.35,4.35,0,0,1-.35-2.37,2.78,2.78,0,0,1,1-1.69s.83,1.74.44,2.56A5.66,5.66,0,0,1,118.67,12.72Z"/><path class="cls-1" d="M117.89,11.84a2.43,2.43,0,0,1-.32-1.31,1.58,1.58,0,0,1,.51-1s.55.94.37,1.41A3.27,3.27,0,0,1,117.89,11.84Z"/><path class="cls-1" d="M116.63,14.63a8.24,8.24,0,0,1-1.11-4.45,5.36,5.36,0,0,1,1.69-3.43s1.89,3.19,1.3,4.82A10.81,10.81,0,0,1,116.63,14.63Z"/><path class="cls-1" d="M115.2,14.83a8.81,8.81,0,0,1-.76-4.82,5.72,5.72,0,0,1,2.1-3.46s1.71,3.54.94,5.21A11.63,11.63,0,0,1,115.2,14.83Z"/><path class="cls-1" d="M112.77,16.66a13.16,13.16,0,0,1,.09-7.34,8.52,8.52,0,0,1,4-4.6s1.65,5.68.08,8A17.39,17.39,0,0,1,112.77,16.66Z"/><path class="cls-1" d="M113.77,12.93a4.68,4.68,0,0,1-.77-2.49,3,3,0,0,1,.84-2s1.18,1.74.9,2.68A6.17,6.17,0,0,1,113.77,12.93Z"/><path class="cls-1" d="M111.8,18.13s-2.33-4.32-1.68-8.54a10.08,10.08,0,0,1,3.51-6.31s3.29,6.2,2,9.22A20.65,20.65,0,0,1,111.8,18.13Z"/><path class="cls-1" d="M110.8,15.18a9.55,9.55,0,0,1-.64-5.29,6.19,6.19,0,0,1,2.43-3.69s1.73,3.93.82,5.72A12.36,12.36,0,0,1,110.8,15.18Z"/><path class="cls-1" d="M109.56,14.09a7.48,7.48,0,0,1,0-4.16,4.87,4.87,0,0,1,2.22-2.65s1,3.21.11,4.52A10,10,0,0,1,109.56,14.09Z"/><path class="cls-1" d="M108.53,17.94s-2.18-4.28-1.45-8.38a9.86,9.86,0,0,1,3.57-6.1s3.07,6.13,1.77,9.07A20.17,20.17,0,0,1,108.53,17.94Z"/><path class="cls-1" d="M108.52,12.12a3,3,0,0,1-.43-1.62,1.93,1.93,0,0,1,.6-1.25s.7,1.15.5,1.75A4.08,4.08,0,0,1,108.52,12.12Z"/><path class="cls-1" d="M106.4,15.39a10.13,10.13,0,0,1-.46-5.6A6.52,6.52,0,0,1,108.65,6s1.66,4.22.63,6.07A13.22,13.22,0,0,1,106.4,15.39Z"/><path class="cls-1" d="M106.31,15.84a10.71,10.71,0,0,1-1.67-5.74,7,7,0,0,1,2-4.54s2.63,4,2,6.19A14.14,14.14,0,0,1,106.31,15.84Z"/><path class="cls-1" d="M105,13.37a5.65,5.65,0,0,1-.47-3.13A3.63,3.63,0,0,1,105.92,8s1.09,2.3.58,3.38A7.46,7.46,0,0,1,105,13.37Z"/><path class="cls-1" d="M102.62,16.75a13.2,13.2,0,0,1-.25-7.34,8.57,8.57,0,0,1,3.78-4.78s1.9,5.61.44,8A17.61,17.61,0,0,1,102.62,16.75Z"/><path class="cls-1" d="M102.47,17.07a13.45,13.45,0,0,1-1.34-7.36,8.65,8.65,0,0,1,3.09-5.38s2.75,5.36,1.63,8A17.72,17.72,0,0,1,102.47,17.07Z"/><path class="cls-1" d="M102,17.72s-2.48-3.89-2.16-7.88a9.44,9.44,0,0,1,2.86-6.14s3.5,5.57,2.52,8.49A19.34,19.34,0,0,1,102,17.72Z"/><path class="cls-1" d="M100.74,13.6a6.18,6.18,0,0,1-.44-3.42,4,4,0,0,1,1.55-2.4s1.13,2.53.55,3.69A8.18,8.18,0,0,1,100.74,13.6Z"/><path class="cls-1" d="M100,17.29a13.79,13.79,0,0,1-2.1-7.37,8.89,8.89,0,0,1,2.62-5.8s3.34,5.2,2.45,8A18.08,18.08,0,0,1,100,17.29Z"/><path class="cls-1" d="M99.13,12a2.76,2.76,0,0,1-.37-1.46,1.78,1.78,0,0,1,.56-1.13s.62,1,.43,1.58A3.42,3.42,0,0,1,99.13,12Z"/><path class="cls-1" d="M97.71,14.05A7.15,7.15,0,0,1,97,10.17a4.61,4.61,0,0,1,1.63-2.84s1.45,2.83.86,4.19A9.47,9.47,0,0,1,97.71,14.05Z"/><path class="cls-1" d="M96.92,14a7,7,0,0,1-1-3.73,4.44,4.44,0,0,1,1.38-2.88s1.62,2.64,1.15,4A9.18,9.18,0,0,1,96.92,14Z"/><path class="cls-1" d="M95.55,12.66a4.3,4.3,0,0,1-.12-2.38,2.78,2.78,0,0,1,1.2-1.57s.64,1.81.18,2.58A5.57,5.57,0,0,1,95.55,12.66Z"/><path class="cls-1" d="M94.9,12.54a4,4,0,0,1-.51-2.1,2.52,2.52,0,0,1,.81-1.61s.88,1.51.6,2.27A5.21,5.21,0,0,1,94.9,12.54Z"/><path class="cls-1" d="M94,13.29a5.43,5.43,0,0,1-.93-2.88,3.5,3.5,0,0,1,1-2.32s1.39,2,1.08,3.1A7,7,0,0,1,94,13.29Z"/><path class="cls-1" d="M92.91,12.28a3.33,3.33,0,0,1-.51-1.78A2.16,2.16,0,0,1,93,9.09s.81,1.26.59,1.93A4.37,4.37,0,0,1,92.91,12.28Z"/><path class="cls-1" d="M90.58,17.91s-2-4.35-1.19-8.44a9.94,9.94,0,0,1,3.78-6S96,9.72,94.64,12.62A20.14,20.14,0,0,1,90.58,17.91Z"/><path class="cls-1" d="M89.29,17.61s-1.8-4.29-.8-8.2a9.56,9.56,0,0,1,3.88-5.63s2.53,6.14,1.06,8.88A19.42,19.42,0,0,1,89.29,17.61Z"/><path class="cls-1" d="M89.32,12.5a4,4,0,0,1-.09-2.19,2.56,2.56,0,0,1,1.12-1.44s.58,1.67.15,2.38A5.19,5.19,0,0,1,89.32,12.5Z"/><path class="cls-1" d="M87.13,16.48a12.57,12.57,0,0,1-.3-7A8.14,8.14,0,0,1,90.38,4.9s1.86,5.32.49,7.58A16.45,16.45,0,0,1,87.13,16.48Z"/><path class="cls-1" d="M86,16A11.68,11.68,0,0,1,86,9.52,7.5,7.5,0,0,1,89.4,5.39s1.55,5,.22,7A15.22,15.22,0,0,1,86,16Z"/><path class="cls-1" d="M86.51,11.84a2.44,2.44,0,0,1-.19-1.35,1.62,1.62,0,0,1,.61-1s.46,1,.23,1.47A3,3,0,0,1,86.51,11.84Z"/><path class="cls-1" d="M84.2,15.34a10.17,10.17,0,0,1-.1-5.66,6.64,6.64,0,0,1,3-3.65s1.4,4.35.23,6.15A13.47,13.47,0,0,1,84.2,15.34Z"/><path class="cls-1" d="M82.61,17.7S81,13.2,82.24,9.24a9.83,9.83,0,0,1,4.31-5.56s2.25,6.45.59,9.17A20.12,20.12,0,0,1,82.61,17.7Z"/><path class="cls-1" d="M82.87,13.73a6.5,6.5,0,0,1-.32-3.62,4.18,4.18,0,0,1,1.73-2.46s1.09,2.71.43,3.91A8.72,8.72,0,0,1,82.87,13.73Z"/><path class="cls-1" d="M82.29,11.73a2.23,2.23,0,0,1-.09-1.25,1.43,1.43,0,0,1,.61-.84s.36.94.13,1.35A2.93,2.93,0,0,1,82.29,11.73Z"/><path class="cls-1" d="M81.28,11.71a2.19,2.19,0,0,1-.12-1.22,1.41,1.41,0,0,1,.58-.83s.37.91.15,1.32A3,3,0,0,1,81.28,11.71Z"/><path class="cls-1" d="M80.2,17.23a13.69,13.69,0,0,1-2.13-7.29,8.85,8.85,0,0,1,2.56-5.76S84,9.31,83.11,12A17.8,17.8,0,0,1,80.2,17.23Z"/><path class="cls-1" d="M79.28,16.16a11.46,11.46,0,0,1-1.86-6.07,7.33,7.33,0,0,1,2.07-4.84s2.85,4.24,2.16,6.54A15,15,0,0,1,79.28,16.16Z"/><path class="cls-1" d="M77.12,15a9.25,9.25,0,0,1-.19-5.17,6,6,0,0,1,2.65-3.38s1.35,3.95.33,5.61A12.2,12.2,0,0,1,77.12,15Z"/><path class="cls-1" d="M76.22,17.53s-2-4.06-1.3-7.94a9.34,9.34,0,0,1,3.44-5.72s2.85,5.82,1.58,8.58A19,19,0,0,1,76.22,17.53Z"/><path class="cls-1" d="M75.89,17.68s-2.46-3.87-2.14-7.83A9.44,9.44,0,0,1,76.6,3.73s3.47,5.55,2.5,8.45A19.2,19.2,0,0,1,75.89,17.68Z"/><path class="cls-1" d="M74.9,12.7a4.29,4.29,0,0,1-.35-2.35,2.77,2.77,0,0,1,1-1.68s.81,1.74.42,2.55A5.45,5.45,0,0,1,74.9,12.7Z"/><path class="cls-1" d="M73.66,17.7s-2.39-3.93-2-7.91a9.45,9.45,0,0,1,3-6.08S78,9.35,77,12.25A19.11,19.11,0,0,1,73.66,17.7Z"/><path class="cls-1" d="M72.58,16.46A12.12,12.12,0,0,1,71.1,9.9a7.81,7.81,0,0,1,2.57-5S76.35,9.66,75.44,12A16.12,16.12,0,0,1,72.58,16.46Z"/><path class="cls-1" d="M72.05,12.56a4,4,0,0,1-.6-2.1,2.54,2.54,0,0,1,.75-1.64s1,1.48.69,2.26A5.08,5.08,0,0,1,72.05,12.56Z"/><path class="cls-1" d="M69.47,16.92a13.41,13.41,0,0,1-.53-7.45,8.71,8.71,0,0,1,3.66-5s2.14,5.63.75,8.07A17.59,17.59,0,0,1,69.47,16.92Z"/><path class="cls-1" d="M68.76,17.54s-1.94-4.13-1.12-8a9.4,9.4,0,0,1,3.58-5.68s2.73,5.92,1.4,8.67A19.14,19.14,0,0,1,68.76,17.54Z"/><path class="cls-1" d="M68.67,11.91a2.63,2.63,0,0,1-.08-1.47,1.74,1.74,0,0,1,.74-1s.41,1.12.12,1.6A3.45,3.45,0,0,1,68.67,11.91Z"/><path class="cls-1" d="M67.79,16.14A11.39,11.39,0,0,1,66,10.08a7.3,7.3,0,0,1,2.08-4.81s2.82,4.24,2.12,6.52A15,15,0,0,1,67.79,16.14Z"/><path class="cls-1" d="M66.6,11.86a2.56,2.56,0,0,1-.08-1.42,1.67,1.67,0,0,1,.72-.94s.38,1.08.11,1.54A3.27,3.27,0,0,1,66.6,11.86Z"/><path class="cls-1" d="M65.76,11.91a2.62,2.62,0,0,1-.32-1.39A1.68,1.68,0,0,1,66,9.46s.57,1,.38,1.51A3.28,3.28,0,0,1,65.76,11.91Z"/><path class="cls-1" d="M63.28,18s-2-4.48-1-8.62a10.09,10.09,0,0,1,4-6s2.78,6.43,1.28,9.34A20.56,20.56,0,0,1,63.28,18Z"/><path class="cls-1" d="M63.29,15a9.11,9.11,0,0,1-1-4.95,5.85,5.85,0,0,1,2-3.7s2,3.57,1.25,5.35A11.91,11.91,0,0,1,63.29,15Z"/><path class="cls-1" d="M62,17.7s-2.28-4-1.76-8a9.48,9.48,0,0,1,3.17-6s3.22,5.75,2.09,8.62A19.46,19.46,0,0,1,62,17.7Z"/><path class="cls-1" d="M61.46,13.93a6.76,6.76,0,0,1-.92-3.66,4.43,4.43,0,0,1,1.38-2.82s1.56,2.62,1.08,4A8.86,8.86,0,0,1,61.46,13.93Z"/><path class="cls-1" d="M60.17,12.58A4.09,4.09,0,0,1,60,10.31a2.6,2.6,0,0,1,1.13-1.52s.64,1.72.21,2.46A5.42,5.42,0,0,1,60.17,12.58Z"/><path class="cls-1" d="M59.31,12.78a4.43,4.43,0,0,1-.42-2.42,2.79,2.79,0,0,1,1-1.76s.89,1.76.51,2.61A5.69,5.69,0,0,1,59.31,12.78Z"/><path class="cls-1" d="M58.27,14.47a7.92,7.92,0,0,1-1.05-4.28,5.13,5.13,0,0,1,1.62-3.28s1.81,3.06,1.25,4.62A10.28,10.28,0,0,1,58.27,14.47Z"/><path class="cls-1" d="M56.72,13.65a6.38,6.38,0,0,1-.19-3.56,4.17,4.17,0,0,1,1.79-2.37s1,2.71.29,3.87A8.55,8.55,0,0,1,56.72,13.65Z"/><path class="cls-1" d="M56.07,16a11,11,0,0,1-1.49-6,7.13,7.13,0,0,1,2.27-4.6s2.55,4.28,1.76,6.47A14.66,14.66,0,0,1,56.07,16Z"/><path class="cls-1" d="M55.08,12.49a3.84,3.84,0,0,1-.25-2.13,2.49,2.49,0,0,1,1-1.48s.69,1.58.32,2.3A4.9,4.9,0,0,1,55.08,12.49Z"/><path class="cls-1" d="M54.34,14.58A8.1,8.1,0,0,1,53,10.27a5.24,5.24,0,0,1,1.45-3.46s2.05,3,1.57,4.65A10.91,10.91,0,0,1,54.34,14.58Z"/><path class="cls-1" d="M52.86,12.17a3.23,3.23,0,0,1,0-1.83,2.11,2.11,0,0,1,1-1.15s.41,1.42,0,2A4.26,4.26,0,0,1,52.86,12.17Z"/><path class="cls-1" d="M50.52,17.26S49,13.08,50.07,9.37a9.18,9.18,0,0,1,4-5.25s2.19,6,.67,8.56A18.39,18.39,0,0,1,50.52,17.26Z"/><path class="cls-1" d="M50,15.52a10.39,10.39,0,0,1-.37-5.79,6.73,6.73,0,0,1,2.86-3.87s1.64,4.38.55,6.27A13.56,13.56,0,0,1,50,15.52Z"/><path class="cls-1" d="M49.11,16.08a11.54,11.54,0,0,1-.75-6.35A7.42,7.42,0,0,1,51.3,5.31s2.05,4.72,1,6.87A15.19,15.19,0,0,1,49.11,16.08Z"/><path class="cls-1" d="M49.06,13.05a4.9,4.9,0,0,1-.71-2.66,3.16,3.16,0,0,1,1-2.06s1.17,1.88.83,2.86A6.32,6.32,0,0,1,49.06,13.05Z"/><path class="cls-1" d="M47.89,12.48a3.8,3.8,0,0,1-.36-2.08,2.43,2.43,0,0,1,.89-1.51s.76,1.52.43,2.25A5,5,0,0,1,47.89,12.48Z"/><path class="cls-1" d="M45.89,17.62s-2-4.15-1.21-8.07a9.48,9.48,0,0,1,3.55-5.77s2.82,6,1.51,8.73A19.45,19.45,0,0,1,45.89,17.62Z"/><path class="cls-1" d="M45.08,17.82s-2.2-4.16-1.54-8.21a9.66,9.66,0,0,1,3.42-6s3.1,6,1.86,8.87A19.67,19.67,0,0,1,45.08,17.82Z"/><path class="cls-1" d="M43.75,15.85a11.15,11.15,0,0,1-.5-6.15,7.19,7.19,0,0,1,3-4.17s1.82,4.63.69,6.66A14.53,14.53,0,0,1,43.75,15.85Z"/><path class="cls-1" d="M43.17,14a7.25,7.25,0,0,1-.33-4,4.63,4.63,0,0,1,1.92-2.71s1.19,3,.46,4.32A9.41,9.41,0,0,1,43.17,14Z"/><path class="cls-1" d="M42.88,13a4.76,4.76,0,0,1-.75-2.52,3.08,3.08,0,0,1,.86-2s1.17,1.77.88,2.71A6.21,6.21,0,0,1,42.88,13Z"/><path class="cls-1" d="M40.25,17.79s-1.84-4.41-.81-8.42a9.88,9.88,0,0,1,4-5.77S46,9.91,44.51,12.72A20,20,0,0,1,40.25,17.79Z"/><path class="cls-1" d="M40.67,11.61a2,2,0,0,1-.12-1.1,1.27,1.27,0,0,1,.51-.75s.35.81.16,1.18A2.74,2.74,0,0,1,40.67,11.61Z"/><path class="cls-1" d="M38.89,17.07a13.39,13.39,0,0,1-1.33-7.36,8.65,8.65,0,0,1,3.1-5.38s2.74,5.37,1.61,8A17.77,17.77,0,0,1,38.89,17.07Z"/><path class="cls-1" d="M38.78,11.91a2.53,2.53,0,0,1-.45-1.35,1.65,1.65,0,0,1,.45-1.1s.66.94.51,1.46A3.21,3.21,0,0,1,38.78,11.91Z"/><path class="cls-1" d="M37.28,16.76a12.71,12.71,0,0,1-1.74-6.85,8.21,8.21,0,0,1,2.57-5.27s2.94,4.88,2,7.39A16.63,16.63,0,0,1,37.28,16.76Z"/><path class="cls-1" d="M35,17.3s-1.61-4.17-.55-7.91a9.22,9.22,0,0,1,3.89-5.31s2.27,6,.78,8.57A18.62,18.62,0,0,1,35,17.3Z"/><path class="cls-1" d="M34.36,14.59a8.55,8.55,0,0,1,0-4.77,5.54,5.54,0,0,1,2.55-3S38,10.46,37,12A11.31,11.31,0,0,1,34.36,14.59Z"/><path class="cls-1" d="M34.19,12.83a4.49,4.49,0,0,1-.32-2.52A2.93,2.93,0,0,1,35,8.54s.84,1.87.41,2.73A6,6,0,0,1,34.19,12.83Z"/><path class="cls-1" d="M33,14.27a7.53,7.53,0,0,1-.6-4.16,4.84,4.84,0,0,1,1.85-3s1.43,3.07.74,4.5A9.84,9.84,0,0,1,33,14.27Z"/><path class="cls-1" d="M34.38,18.08s-3.59-3.14-4.44-7.21a9.83,9.83,0,0,1,1-6.95s5.12,4.53,5,7.72A20,20,0,0,1,34.38,18.08Z"/><path class="cls-1" d="M32.18,13.84a5.49,5.49,0,0,1-1.46-2.7,3.54,3.54,0,0,1,.53-2.49s1.75,1.74,1.64,2.89A7.28,7.28,0,0,1,32.18,13.84Z"/><path class="cls-1" d="M31.87,18.68S28.52,15.31,28,11.23A9.82,9.82,0,0,1,29.47,4.4s4.76,4.84,4.42,8A20,20,0,0,1,31.87,18.68Z"/><path class="cls-1" d="M29.55,17.58a12.1,12.1,0,0,1-2-6.44A7.78,7.78,0,0,1,29.79,6s3,4.51,2.28,6.94A16,16,0,0,1,29.55,17.58Z"/><path class="cls-1" d="M28.35,19.14s-2.52-3.89-2.23-7.92A9.53,9.53,0,0,1,29,5s3.57,5.59,2.61,8.55A19.45,19.45,0,0,1,28.35,19.14Z"/><path class="cls-1" d="M27.88,15.08a5.75,5.75,0,0,1-1.21-3,3.72,3.72,0,0,1,.83-2.53s1.62,2,1.37,3.19A7.48,7.48,0,0,1,27.88,15.08Z"/><path class="cls-1" d="M26.65,20.15s-2.87-4-2.74-8.32a10.17,10.17,0,0,1,2.71-6.74s4.06,5.78,3.17,9A20.57,20.57,0,0,1,26.65,20.15Z"/><path class="cls-1" d="M25.69,15.48a5.43,5.43,0,0,1-1-2.88,3.48,3.48,0,0,1,.93-2.34s1.42,2,1.11,3.1A7,7,0,0,1,25.69,15.48Z"/><path class="cls-1" d="M25.4,15.88a5.89,5.89,0,0,1-1.8-2.75,3.81,3.81,0,0,1,.34-2.71s2,1.7,2,2.95A7.59,7.59,0,0,1,25.4,15.88Z"/><path class="cls-1" d="M23.19,20.56s-2.48-4-2.11-8a9.67,9.67,0,0,1,3-6.23S27.55,12,26.53,15A19.66,19.66,0,0,1,23.19,20.56Z"/><path class="cls-1" d="M24,20.61s-3.36-3.16-4-7.11a9.5,9.5,0,0,1,1.26-6.67s4.77,4.55,4.54,7.62A19.18,19.18,0,0,1,24,20.61Z"/><path class="cls-1" d="M23.36,16.29a5.15,5.15,0,0,1-2.12-1.92A3.31,3.31,0,0,1,20.92,12s2.08,1,2.35,2A6.78,6.78,0,0,1,23.36,16.29Z"/><path class="cls-1" d="M23.23,18.37a8.25,8.25,0,0,1-3.29-3.16,5.3,5.3,0,0,1-.39-3.77s3.28,1.67,3.65,3.35A10.9,10.9,0,0,1,23.23,18.37Z"/><path class="cls-1" d="M22.73,18.19a6.9,6.9,0,0,1-3.21-2.07,4.46,4.46,0,0,1-.92-3s3,.86,3.53,2.18A9,9,0,0,1,22.73,18.19Z"/><path class="cls-1" d="M20.76,17.23a2.52,2.52,0,0,1-1.22-.67,1.58,1.58,0,0,1-.42-1.08s1.1.23,1.34.7A3.37,3.37,0,0,1,20.76,17.23Z"/><path class="cls-1" d="M21.32,20.06a7.59,7.59,0,0,1-3.43-2.48,4.93,4.93,0,0,1-.83-3.42s3.22,1.12,3.77,2.62A10,10,0,0,1,21.32,20.06Z"/><path class="cls-1" d="M21.46,23.06a12.61,12.61,0,0,1-5.23-4.64,8.15,8.15,0,0,1-.82-5.75s5.12,2.37,5.78,4.92A16.53,16.53,0,0,1,21.46,23.06Z"/><path class="cls-1" d="M21.34,23.24a12.38,12.38,0,0,1-5.7-3.8A8,8,0,0,1,14.07,14s5.28,1.61,6.27,4A16,16,0,0,1,21.34,23.24Z"/><path class="cls-1" d="M20.17,23a10,10,0,0,1-4.84-2.85,6.53,6.53,0,0,1-1.55-4.4s4.4,1.07,5.32,3A13.3,13.3,0,0,1,20.17,23Z"/><path class="cls-1" d="M20.23,25.66S16,24.2,13.78,21a9.3,9.3,0,0,1-1.56-6.44s6.07,2.12,7.1,4.95A18.64,18.64,0,0,1,20.23,25.66Z"/><path class="cls-1" d="M18.29,25a10.41,10.41,0,0,1-4.59-3.56,6.76,6.76,0,0,1-1-4.72s4.37,1.68,5.06,3.76A13.74,13.74,0,0,1,18.29,25Z"/><path class="cls-1" d="M19.28,27.44S14.63,26,12.15,22.59a10,10,0,0,1-1.93-6.9s6.64,2.08,7.85,5.1A20.35,20.35,0,0,1,19.28,27.44Z"/><path class="cls-1" d="M20.09,25.13a13.11,13.11,0,0,1-7.18-1.2A8.49,8.49,0,0,1,9,19.31s5.83-.75,7.82,1.14A17.2,17.2,0,0,1,20.09,25.13Z"/><path class="cls-1" d="M20.93,26.77s-4.9.64-8.63-1.49a10.16,10.16,0,0,1-4.68-5.57s7-.87,9.4,1.41A20.79,20.79,0,0,1,20.93,26.77Z"/><path class="cls-1" d="M17,25.37a6.58,6.58,0,0,1-3.68-.22A4.27,4.27,0,0,1,11.06,23s2.89-.68,4,.16A8.91,8.91,0,0,1,17,25.37Z"/><path class="cls-1" d="M14.71,25.46a2.17,2.17,0,0,1-1.18.05,1.39,1.39,0,0,1-.77-.6s.9-.31,1.27-.08A2.82,2.82,0,0,1,14.71,25.46Z"/><path class="cls-1" d="M18.66,29.7a13.07,13.07,0,0,1-7-1.93,8.45,8.45,0,0,1-3.41-5s5.86-.15,7.65,1.93A17.25,17.25,0,0,1,18.66,29.7Z"/><path class="cls-1" d="M19.16,30.67s-4.49.44-7.84-1.61a9.25,9.25,0,0,1-4.11-5.22s6.42-.59,8.54,1.56A18.93,18.93,0,0,1,19.16,30.67Z"/><path class="cls-1" d="M19.65,30.94s-4.62,1.12-8.4-.52a9.81,9.81,0,0,1-5.06-4.83S12.8,24,15.32,26A19.72,19.72,0,0,1,19.65,30.94Z"/><path class="cls-1" d="M14.57,30.21a4.59,4.59,0,0,1-2.49-.39,2.92,2.92,0,0,1-1.36-1.59s2-.27,2.71.37A6.1,6.1,0,0,1,14.57,30.21Z"/><path class="cls-1" d="M13.44,30.69a2.49,2.49,0,0,1-1.35-.13,1.57,1.57,0,0,1-.78-.81s1.07-.21,1.46.11A3.21,3.21,0,0,1,13.44,30.69Z"/><path class="cls-1" d="M17.63,33.35a12.33,12.33,0,0,1-6.86-.29,7.93,7.93,0,0,1-4.19-3.87s5.36-1.37,7.45.16A16.26,16.26,0,0,1,17.63,33.35Z"/><path class="cls-1" d="M18.43,34.26s-4.28,1.45-8,.21a9.3,9.3,0,0,1-5.18-4.16s6.12-2,8.67-.41A19,19,0,0,1,18.43,34.26Z"/><path class="cls-1" d="M16.73,33.29a10.52,10.52,0,0,1-5.62,1.64,6.74,6.74,0,0,1-4.43-2s4-2.57,6.05-1.9A13.74,13.74,0,0,1,16.73,33.29Z"/><path class="cls-1" d="M13.75,34.56a4.46,4.46,0,0,1-2.43.28,2.8,2.8,0,0,1-1.69-1.12s1.81-.79,2.63-.36A5.75,5.75,0,0,1,13.75,34.56Z"/><path class="cls-1" d="M15.37,35.39a7.73,7.73,0,0,1-4.13,1.12A5,5,0,0,1,8,35s2.93-1.83,4.46-1.31A10.09,10.09,0,0,1,15.37,35.39Z"/><path class="cls-1" d="M14.45,36.48a5.71,5.71,0,0,1-3.14.72A3.73,3.73,0,0,1,8.93,36s2.26-1.29,3.4-.85A7.52,7.52,0,0,1,14.45,36.48Z"/><path class="cls-1" d="M13.83,37.87a4.68,4.68,0,0,1-2.59.11,3,3,0,0,1-1.7-1.32s2-.69,2.81-.18A6.17,6.17,0,0,1,13.83,37.87Z"/><path class="cls-1" d="M19.25,39.92s-4.63,2-8.91,1A10.44,10.44,0,0,1,4.15,36.8s6.64-2.86,9.64-1.3A21,21,0,0,1,19.25,39.92Z"/><path class="cls-1" d="M14,39.54a4.92,4.92,0,0,1-2.64.64,3.17,3.17,0,0,1-2-1s1.89-1.12,2.85-.76A6.17,6.17,0,0,1,14,39.54Z"/><path class="cls-1" d="M15.78,40.86a8.59,8.59,0,0,1-4.68,1A5.56,5.56,0,0,1,7.61,40s3.38-1.85,5.05-1.18A11.46,11.46,0,0,1,15.78,40.86Z"/><path class="cls-1" d="M16.58,42.29a10.36,10.36,0,0,1-5.7.85,6.71,6.71,0,0,1-4.07-2.51s4.2-2,6.17-1.06A13.62,13.62,0,0,1,16.58,42.29Z"/><path class="cls-1" d="M18.31,44.52s-4.3,1.45-8,.19a9.32,9.32,0,0,1-5.19-4.19s6.15-2,8.71-.39A19,19,0,0,1,18.31,44.52Z"/><path class="cls-1" d="M17.88,44.37a13,13,0,0,1-7.12,1.34,8.43,8.43,0,0,1-5.24-3s5.19-2.7,7.7-1.62A17.06,17.06,0,0,1,17.88,44.37Z"/><path class="cls-1" d="M14.59,45.23a6.18,6.18,0,0,1-3.44.32,4,4,0,0,1-2.36-1.64s2.58-1,3.73-.43A8,8,0,0,1,14.59,45.23Z"/><path class="cls-1" d="M15.42,45.69A7.84,7.84,0,0,1,11.28,47,5.07,5.07,0,0,1,8,45.54s2.91-1.94,4.47-1.47A10.19,10.19,0,0,1,15.42,45.69Z"/><path class="cls-1" d="M13.75,46.72a4.31,4.31,0,0,1-2.31.66,2.77,2.77,0,0,1-1.81-.82s1.63-1.05,2.49-.77A5.66,5.66,0,0,1,13.75,46.72Z"/><path class="cls-1" d="M16.27,48a9.54,9.54,0,0,1-5.15,1.37,6.17,6.17,0,0,1-4-1.89s3.65-2.26,5.55-1.61A12.74,12.74,0,0,1,16.27,48Z"/><path class="cls-1" d="M17.34,49.4a11.87,11.87,0,0,1-6.46,1.34,7.65,7.65,0,0,1-4.82-2.62s4.68-2.54,7-1.6A15.65,15.65,0,0,1,17.34,49.4Z"/><path class="cls-1" d="M18.79,52.24s-4.71,1.4-8.72-.1a10.13,10.13,0,0,1-5.48-4.73s6.75-2,9.47-.1A20.55,20.55,0,0,1,18.79,52.24Z"/><path class="cls-1" d="M16.33,52.16a10,10,0,0,1-5.61.22,6.5,6.5,0,0,1-3.67-2.86s4.27-1.48,6.08-.37A13.14,13.14,0,0,1,16.33,52.16Z"/><path class="cls-1" d="M13,51.85a2.85,2.85,0,0,1-1.5.49,1.8,1.8,0,0,1-1.2-.5s1-.72,1.61-.56A3.64,3.64,0,0,1,13,51.85Z"/><path class="cls-1" d="M15.13,53.71a7.36,7.36,0,0,1-4.09.36,4.74,4.74,0,0,1-2.79-2s3.07-1.23,4.43-.49A9.76,9.76,0,0,1,15.13,53.71Z"/><path class="cls-1" d="M19.22,54.9s-4.36,2.37-8.63,1.72a10.24,10.24,0,0,1-6.4-3.54s6.26-3.34,9.33-2.07A20.78,20.78,0,0,1,19.22,54.9Z"/><path class="cls-1" d="M17.83,55.73a12.9,12.9,0,0,1-7,1.44,8.34,8.34,0,0,1-5.23-2.86s5.09-2.75,7.6-1.72A16.85,16.85,0,0,1,17.83,55.73Z"/><path class="cls-1" d="M13.35,56.51a3.62,3.62,0,0,1-2,.06,2.3,2.3,0,0,1-1.31-1s1.54-.52,2.19-.11A4.78,4.78,0,0,1,13.35,56.51Z"/><path class="cls-1" d="M18.58,58.05s-4,2.11-7.94,1.45a9.36,9.36,0,0,1-5.81-3.33s5.79-3,8.58-1.76A19.06,19.06,0,0,1,18.58,58.05Z"/><path class="cls-1" d="M16.2,58.49a9.41,9.41,0,0,1-5.11,1.23,6,6,0,0,1-3.89-2s3.65-2.13,5.51-1.45A12.43,12.43,0,0,1,16.2,58.49Z"/><path class="cls-1" d="M15.88,59.32a8.71,8.71,0,0,1-4.67,1.35A5.64,5.64,0,0,1,7.52,59s3.29-2.14,5-1.58A11.41,11.41,0,0,1,15.88,59.32Z"/><path class="cls-1" d="M13,60.4a2.67,2.67,0,0,1-1.49.22A1.73,1.73,0,0,1,10.41,60s1.1-.52,1.61-.28A3.53,3.53,0,0,1,13,60.4Z"/><path class="cls-1" d="M17,62a11.2,11.2,0,0,1-6.15,1.08A7.3,7.3,0,0,1,6.38,60.5s4.5-2.27,6.65-1.32A14.75,14.75,0,0,1,17,62Z"/><path class="cls-1" d="M16.54,63.07a10.25,10.25,0,0,1-5.63.91,6.62,6.62,0,0,1-4.06-2.45s4.14-2,6.09-1.11A13.43,13.43,0,0,1,16.54,63.07Z"/><path class="cls-1" d="M17.32,64.33a12,12,0,0,1-6.57,1,7.73,7.73,0,0,1-4.67-2.92s4.84-2.26,7.1-1.18A15.47,15.47,0,0,1,17.32,64.33Z"/><path class="cls-1" d="M13.09,64.79a3.08,3.08,0,0,1-1.71,0,2,2,0,0,1-1.1-.9s1.31-.42,1.86-.07A4,4,0,0,1,13.09,64.79Z"/><path class="cls-1" d="M15,66a7,7,0,0,1-3.85.54,4.49,4.49,0,0,1-2.72-1.71s2.83-1.32,4.15-.68A9.3,9.3,0,0,1,15,66Z"/><path class="cls-1" d="M16,67a9,9,0,0,1-4.91.93,5.84,5.84,0,0,1-3.62-2s3.58-1.86,5.31-1.12A11.79,11.79,0,0,1,16,67Z"/><path class="cls-1" d="M13.54,67.56a3.91,3.91,0,0,1-2.07.59,2.54,2.54,0,0,1-1.63-.74s1.46-.94,2.23-.69A5.21,5.21,0,0,1,13.54,67.56Z"/><path class="cls-1" d="M13.81,69.23a4.71,4.71,0,0,1-2.6,0,3,3,0,0,1-1.65-1.4s2-.6,2.82-.06A6.1,6.1,0,0,1,13.81,69.23Z"/><path class="cls-1" d="M13.14,69.84a3.13,3.13,0,0,1-1.71.22,2,2,0,0,1-1.2-.77s1.27-.57,1.85-.28A4.12,4.12,0,0,1,13.14,69.84Z"/><path class="cls-1" d="M17,71.14A11.21,11.21,0,0,1,11,72.52a7.21,7.21,0,0,1-4.58-2.37s4.35-2.48,6.54-1.64A14.67,14.67,0,0,1,17,71.14Z"/><path class="cls-1" d="M13.3,71.87a3.45,3.45,0,0,1-1.86.34,2.19,2.19,0,0,1-1.36-.78s1.35-.69,2-.41A4.46,4.46,0,0,1,13.3,71.87Z"/><path class="cls-1" d="M17,73.38a11,11,0,0,1-6,1.18,7.13,7.13,0,0,1-4.46-2.49s4.38-2.32,6.52-1.42A14.62,14.62,0,0,1,17,73.38Z"/><path class="cls-1" d="M19.23,74.16s-4.17,2.66-8.44,2.31a10.18,10.18,0,0,1-6.6-3.06s6-3.75,9.11-2.7A20.76,20.76,0,0,1,19.23,74.16Z"/><path class="cls-1" d="M13.56,75.05a3.91,3.91,0,0,1-2.17.38,2.55,2.55,0,0,1-1.57-.92s1.58-.8,2.34-.46A5,5,0,0,1,13.56,75.05Z"/><path class="cls-1" d="M18.87,76.33s-4,2.48-8.08,2.09a9.68,9.68,0,0,1-6.24-3s5.75-3.5,8.72-2.45A19.61,19.61,0,0,1,18.87,76.33Z"/><path class="cls-1" d="M14.48,77.06a5.8,5.8,0,0,1-3.15.8A3.74,3.74,0,0,1,8.9,76.68s2.25-1.35,3.4-.94A7.63,7.63,0,0,1,14.48,77.06Z"/><path class="cls-1" d="M15,78.14a7,7,0,0,1-3.75,1,4.51,4.51,0,0,1-2.9-1.4s2.67-1.62,4.05-1.13A9.22,9.22,0,0,1,15,78.14Z"/><path class="cls-1" d="M16.83,79.41A10.72,10.72,0,0,1,11,80.79a7,7,0,0,1-4.44-2.24s4.17-2.43,6.29-1.64A14,14,0,0,1,16.83,79.41Z"/><path class="cls-1" d="M13.16,80.25a3.09,3.09,0,0,1-1.72.24,2,2,0,0,1-1.23-.76s1.27-.6,1.87-.31A4,4,0,0,1,13.16,80.25Z"/><path class="cls-1" d="M15,82a7.26,7.26,0,0,1-4,.14,4.69,4.69,0,0,1-2.64-2.08s3.08-1,4.38-.25A9.56,9.56,0,0,1,15,82Z"/><path class="cls-1" d="M14,82.78a5.1,5.1,0,0,1-2.83.07,3.27,3.27,0,0,1-1.83-1.47s2.16-.71,3.06-.14A6.57,6.57,0,0,1,14,82.78Z"/><path class="cls-1" d="M13,83.39a2.76,2.76,0,0,1-1.51.15,1.73,1.73,0,0,1-1-.7s1.12-.47,1.62-.21A3.58,3.58,0,0,1,13,83.39Z"/><path class="cls-1" d="M14.5,85.12a6.2,6.2,0,0,1-3.45,0,4,4,0,0,1-2.18-1.87s2.68-.78,3.75,0A8.16,8.16,0,0,1,14.5,85.12Z"/><path class="cls-1" d="M16.31,85.32a9.66,9.66,0,0,1-5.13,1.57,6.22,6.22,0,0,1-4.09-1.76s3.59-2.4,5.53-1.82A12.65,12.65,0,0,1,16.31,85.32Z"/><path class="cls-1" d="M16.09,87a9.31,9.31,0,0,1-5.14.74A6,6,0,0,1,7.3,85.49s3.79-1.76,5.56-.91A12.18,12.18,0,0,1,16.09,87Z"/><path class="cls-1" d="M12.56,87.49a1.85,1.85,0,0,1-1,.08,1.23,1.23,0,0,1-.71-.51s.79-.3,1.13-.11A2.74,2.74,0,0,1,12.56,87.49Z"/><path class="cls-1" d="M13.82,89a4.62,4.62,0,0,1-2.6,0,3,3,0,0,1-1.67-1.38s2-.62,2.83-.08A6.15,6.15,0,0,1,13.82,89Z"/><path class="cls-1" d="M18.55,90.48s-4.07,2-8,1.31a9.35,9.35,0,0,1-5.74-3.44s5.83-2.86,8.59-1.6A19,19,0,0,1,18.55,90.48Z"/><path class="cls-1" d="M17.5,92.13a12.59,12.59,0,0,1-7,.25,8.15,8.15,0,0,1-4.6-3.6s5.37-1.84,7.62-.44A16.37,16.37,0,0,1,17.5,92.13Z"/><path class="cls-1" d="M13.41,91.83a3.74,3.74,0,0,1-2,.21,2.41,2.41,0,0,1-1.4-1s1.52-.64,2.2-.27A4.93,4.93,0,0,1,13.41,91.83Z"/><path class="cls-1" d="M19.32,93.38s-4.39,2.45-8.71,1.84a10.33,10.33,0,0,1-6.52-3.51s6.3-3.45,9.42-2.19A20.87,20.87,0,0,1,19.32,93.38Z"/><path class="cls-1" d="M17.44,95.19a12.46,12.46,0,0,1-6.93.3A8,8,0,0,1,6,92s5.28-1.85,7.51-.49A16.34,16.34,0,0,1,17.44,95.19Z"/><path class="cls-1" d="M14,94.87a4.7,4.7,0,0,1-2.6.5A3.09,3.09,0,0,1,9.43,94.3s1.89-1,2.81-.61A6.3,6.3,0,0,1,14,94.87Z"/><path class="cls-1" d="M18.7,97.11s-4.29,1.89-8.26,1a9.71,9.71,0,0,1-5.75-3.82s6.16-2.66,9-1.23A19.75,19.75,0,0,1,18.7,97.11Z"/><path class="cls-1" d="M15.89,97.49a9,9,0,0,1-4.93.64A5.79,5.79,0,0,1,7.5,95.89s3.65-1.64,5.33-.81A11.74,11.74,0,0,1,15.89,97.49Z"/><path class="cls-1" d="M17.86,97.84A12.86,12.86,0,0,1,11,100a8.38,8.38,0,0,1-5.48-2.32s4.78-3.24,7.37-2.46A16.92,16.92,0,0,1,17.86,97.84Z"/><path class="cls-1" d="M14.83,99.77a7,7,0,0,1-3.84,0,4.45,4.45,0,0,1-2.44-2s2.95-.91,4.16-.12A9.28,9.28,0,0,1,14.83,99.77Z"/><path class="cls-1" d="M13.07,99.93a2.89,2.89,0,0,1-1.58.34,1.85,1.85,0,0,1-1.18-.63s1.14-.63,1.7-.4A3.71,3.71,0,0,1,13.07,99.93Z"/><path class="cls-1" d="M18.94,102s-4.31,2.13-8.42,1.35a10,10,0,0,1-6.06-3.66s6.19-3,9.11-1.66A20.15,20.15,0,0,1,18.94,102Z"/><path class="cls-1" d="M18.15,102.45a13.55,13.55,0,0,1-7.31,1.75,8.72,8.72,0,0,1-5.58-2.81s5.24-3.06,7.9-2.07A17.74,17.74,0,0,1,18.15,102.45Z"/><path class="cls-1" d="M18.42,104.29s-4.1,1.85-7.91,1A9.22,9.22,0,0,1,5,101.64s5.88-2.59,8.56-1.24A18.86,18.86,0,0,1,18.42,104.29Z"/><path class="cls-1" d="M13.63,104.09a4,4,0,0,1-2.19.56,2.62,2.62,0,0,1-1.69-.81s1.56-1,2.36-.67A5.16,5.16,0,0,1,13.63,104.09Z"/><path class="cls-1" d="M15.51,106a8.25,8.25,0,0,1-4.57.33,5.35,5.35,0,0,1-3.07-2.25s3.45-1.31,5-.46A10.84,10.84,0,0,1,15.51,106Z"/><path class="cls-1" d="M14.31,106.13a5.48,5.48,0,0,1-2.92.86,3.52,3.52,0,0,1-2.31-1s2.05-1.34,3.15-1A7.14,7.14,0,0,1,14.31,106.13Z"/><path class="cls-1" d="M18.78,108.69s-4.37,1.86-8.39.85a9.79,9.79,0,0,1-5.78-4s6.28-2.62,9.09-1.12A19.74,19.74,0,0,1,18.78,108.69Z"/><path class="cls-1" d="M16.7,108.45a10.51,10.51,0,0,1-5.63,1.49,6.78,6.78,0,0,1-4.37-2.07s4-2.47,6.08-1.75A13.68,13.68,0,0,1,16.7,108.45Z"/><path class="cls-1" d="M16.46,110.58a10.44,10.44,0,0,1-5.77.21,6.7,6.7,0,0,1-3.77-3s4.4-1.51,6.26-.37A13.64,13.64,0,0,1,16.46,110.58Z"/><path class="cls-1" d="M14.33,110.45a5.52,5.52,0,0,1-3,.7A3.56,3.56,0,0,1,9.05,110s2.15-1.24,3.24-.83A7.25,7.25,0,0,1,14.33,110.45Z"/><path class="cls-1" d="M15.29,112a7.71,7.71,0,0,1-4.25.47,5,5,0,0,1-2.95-2s3.17-1.36,4.6-.61A10,10,0,0,1,15.29,112Z"/><path class="cls-1" d="M14,112.35a4.87,4.87,0,0,1-2.59.79,3.11,3.11,0,0,1-2.06-.89s1.81-1.21,2.79-.91A6.34,6.34,0,0,1,14,112.35Z"/><path class="cls-1" d="M16.91,113.7A10.91,10.91,0,0,1,11,115.22,7.07,7.07,0,0,1,6.49,113s4.18-2.55,6.34-1.79A14.46,14.46,0,0,1,16.91,113.7Z"/><path class="cls-1" d="M13.38,114.76a3.61,3.61,0,0,1-2,.19A2.28,2.28,0,0,1,10,114s1.5-.62,2.17-.26A4.93,4.93,0,0,1,13.38,114.76Z"/><path class="cls-1" d="M19.21,115.77s-4.12,2.69-8.39,2.39a10.14,10.14,0,0,1-6.61-3s5.92-3.81,9.06-2.79A20.49,20.49,0,0,1,19.21,115.77Z"/><path class="cls-1" d="M14.59,117a6.13,6.13,0,0,1-3.41.44,4,4,0,0,1-2.39-1.55s2.53-1.13,3.69-.55A8.3,8.3,0,0,1,14.59,117Z"/><path class="cls-1" d="M19,118.84s-4.4,2.09-8.54,1.24a10.07,10.07,0,0,1-6.08-3.8s6.31-2.94,9.24-1.54A20.35,20.35,0,0,1,19,118.84Z"/><path class="cls-1" d="M18.78,120s-4.31,2-8.32,1a9.73,9.73,0,0,1-5.84-3.8s6.18-2.75,9-1.33A19.69,19.69,0,0,1,18.78,120Z"/><path class="cls-1" d="M18,119.91a13.13,13.13,0,0,1-7,2,8.44,8.44,0,0,1-5.49-2.52s5-3.14,7.56-2.28A17.22,17.22,0,0,1,18,119.91Z"/><path class="cls-1" d="M17.09,121.62a11.42,11.42,0,0,1-6.3.9,7.41,7.41,0,0,1-4.49-2.8s4.66-2.17,6.82-1.13A15,15,0,0,1,17.09,121.62Z"/><path class="cls-1" d="M16,122.31a9,9,0,0,1-4.93.87,5.84,5.84,0,0,1-3.6-2.09S11,119.27,12.76,120A11.8,11.8,0,0,1,16,122.31Z"/><path class="cls-1" d="M18.8,123.39s-4,2.36-8.06,1.88a9.58,9.58,0,0,1-6.13-3.13s5.79-3.33,8.71-2.23A19.71,19.71,0,0,1,18.8,123.39Z"/><path class="cls-1" d="M13.36,124a3.47,3.47,0,0,1-1.93.34,2.3,2.3,0,0,1-1.42-.82s1.42-.71,2.1-.42A4.53,4.53,0,0,1,13.36,124Z"/><path class="cls-1" d="M16.93,125.59a11.07,11.07,0,0,1-6,1.06,7.14,7.14,0,0,1-4.41-2.57s4.42-2.23,6.54-1.29A14.6,14.6,0,0,1,16.93,125.59Z"/><path class="cls-1" d="M18,127.23a13.54,13.54,0,0,1-7.47.81,8.75,8.75,0,0,1-5.18-3.49s5.58-2.37,8.09-1A17.54,17.54,0,0,1,18,127.23Z"/><path class="cls-1" d="M13.32,127.36a3.55,3.55,0,0,1-2,.07,2.32,2.32,0,0,1-1.29-1s1.51-.51,2.15-.12A4.83,4.83,0,0,1,13.32,127.36Z"/><path class="cls-1" d="M16.49,128.88a10.2,10.2,0,0,1-5.63.72,6.6,6.6,0,0,1-4-2.57s4.18-1.86,6.1-.9A13.55,13.55,0,0,1,16.49,128.88Z"/><path class="cls-1" d="M18.6,129.47s-3.86,2.37-7.78,2a9.34,9.34,0,0,1-6-2.9s5.53-3.36,8.39-2.35A19,19,0,0,1,18.6,129.47Z"/><path class="cls-1" d="M17.2,131a11.62,11.62,0,0,1-6.43.93,7.5,7.5,0,0,1-4.57-2.86s4.74-2.21,7-1.15A15.4,15.4,0,0,1,17.2,131Z"/></svg>