<?xml version="1.0" encoding="utf-8"?>
<!-- Generator: Adobe Illustrator 24.2.3, SVG Export Plug-In . SVG Version: 6.00 Build 0)  -->
<svg version="1.1" id="Layer_1" xmlns="http://www.w3.org/2000/svg" xmlns:xlink="http://www.w3.org/1999/xlink" x="0px" y="0px"
	 viewBox="0 0 128 128" style="enable-background:new 0 0 128 128;" xml:space="preserve">
<style type="text/css">
	.st0{fill:#32E785;}
	.st1{fill:#7CFFA0;}
	.st2{fill:#6D5720;}
</style>
<rect class="st0" width="128" height="128"/>
<path class="st1" d="M98.7,107.8c0.1-1.3,0.6-2.5,1.2-3.6c1.2-2.4,6.1-1.2,6.1-1.2c-1.1,1.3-2.3,2.5-3.6,3.6
	C101.2,107.1,100,107.5,98.7,107.8z"/>
<path class="st1" d="M46.1,38.8c0.1-1.3,0.6-2.5,1.2-3.6c1.2-2.4,6.1-1.2,6.1-1.2c-1.1,1.3-2.3,2.5-3.6,3.6
	C48.5,38.2,47.3,38.6,46.1,38.8z"/>
<path class="st1" d="M92.8,106.4c-0.3-1.6-0.1-3.2,0.6-4.7c0.6-1.2,1.6-2.2,2.9-2.7c0,0,0.7,3.7-0.5,5.1
	C94.9,105,93.9,105.8,92.8,106.4z"/>
<path class="st1" d="M45.5,80.2c0.1-1.3,0.6-2.5,1.2-3.6c1.2-2.4,6-1.2,6-1.2c-1.1,1.3-2.3,2.5-3.6,3.6
	C47.9,79.5,46.7,79.9,45.5,80.2z"/>
<path class="st1" d="M39.5,78.9c-0.3-1.6-0.1-3.2,0.5-4.7c0.6-1.2,1.6-2.2,2.9-2.7c0,0,0.7,3.8-0.5,5.1
	C41.6,77.5,40.6,78.3,39.5,78.9z"/>
<path class="st1" d="M91.4,106.4c-1.5-1.2-2.7-2.7-3.7-4.3c-0.7-1.8-1-3.7-1-5.6c0,0,3.7,2,4.1,3.9
	C91.2,102.4,91.4,104.4,91.4,106.4z"/>
<path class="st1" d="M87.6,106.4c-0.1-0.4-0.7-4.1-2.6-4.5c-1.9-0.2-3.8-0.2-5.7,0c1.2,1.2,2.6,2.4,4.1,3.3
	C84.8,105.7,86.2,106.1,87.6,106.4z"/>
<path class="st1" d="M104.7,23.7c-1.5-1.2-2.7-2.7-3.7-4.3c-0.7-1.8-1-3.7-1-5.6c0,0,3.7,1.9,4.1,3.9
	C104.5,19.7,104.7,21.7,104.7,23.7z"/>
<path class="st1" d="M100.9,23.7c-0.1-0.4-0.7-4.1-2.6-4.5c-1.9-0.2-3.8-0.2-5.7,0c1.2,1.2,2.6,2.4,4.1,3.3
	C98.1,23.1,99.5,23.5,100.9,23.7z"/>
<path class="st1" d="M38.6,38.6c-1.5-1.2-2.7-2.7-3.7-4.3c-0.7-1.8-1-3.7-1-5.6c0,0,3.7,2,4.2,3.9C38.4,34.6,38.6,36.6,38.6,38.6z"
	/>
<path class="st1" d="M34.8,38.6c-0.1-0.4-0.7-4.1-2.6-4.5c-1.9-0.2-3.8-0.2-5.7,0c1.2,1.2,2.6,2.4,4.1,3.3
	C32,38,33.4,38.4,34.8,38.6z"/>
<path class="st2" d="M232,12c6.6,0,12,5.4,12,12v336c0,6.6-5.4,12-12,12h-336c-6.6,0-12-5.4-12-12V24c0-6.6,5.4-12,12-12H232 M232,0
	h-336c-13.3,0-24,10.7-24,24v336c0,13.3,10.7,24,24,24h336c13.3,0,24-10.7,24-24V24C256,10.7,245.3,0,232,0z"/>
<path class="st0" d="M128.4,17.4c0,0-1.9-4-1.2-7.8c0.4-2.2,1.6-4.2,3.4-5.6c0,0,2.7,5.7,1.4,8.4C131.2,14.3,129.9,16,128.4,17.4z"
	/>
<path class="st0" d="M127.8,13.5c-0.4-1.1-0.4-2.3-0.1-3.4c0.3-0.9,0.9-1.7,1.7-2.2c0,0,0.9,2.6,0.2,3.7
	C129.1,12.3,128.5,12.9,127.8,13.5z"/>
<path class="st0" d="M127.2,16.5c-1.2-2-1.8-4.2-1.8-6.5c0.1-1.9,1-3.7,2.4-5.1c0,0,2.9,4.6,2.1,7C129.2,13.6,128.3,15.1,127.2,16.5
	z"/>
<path class="st0" d="M124.6,17.7c0,0-1.7-4.5-0.5-8.5c0.7-2.3,2.2-4.3,4.2-5.6c0,0,2.4,6.4,0.8,9.2
	C127.8,14.7,126.3,16.4,124.6,17.7z"/>
<path class="st0" d="M124.2,17.9c0,0-2.1-4.3-1.3-8.4c0.5-2.4,1.8-4.5,3.7-6c0,0,2.9,6.2,1.6,9.1C127.2,14.6,125.8,16.4,124.2,17.9z
	"/>
<path class="st0" d="M122,18c0,0-1.5-4.8,0-9c0.8-2.4,2.5-4.5,4.8-5.7c0,0,2.1,6.9,0.2,9.7C125.6,15,123.9,16.6,122,18z"/>
<path class="st0" d="M121,17.7c0,0-1.4-4.6,0-8.5c0.8-2.3,2.4-4.2,4.6-5.4c0,0,2,6.6,0.2,9.3C124.5,14.8,122.8,16.4,121,17.7z"/>
<path class="st0" d="M121.7,15.1c-0.8-1.6-1.2-3.3-1-5.1c0.2-1.5,1-2.8,2.1-3.7c0,0,1.9,3.7,1.2,5.5C123.4,13,122.7,14.1,121.7,15.1
	z"/>
<path class="st0" d="M119.4,16.1c-0.6-2.2-0.6-4.5,0-6.6c0.6-1.8,1.9-3.3,3.6-4.2c0,0,1.5,5.1,0.1,7.2
	C122.1,13.9,120.9,15.1,119.4,16.1z"/>
<path class="st0" d="M119.5,18.3c0,0-2.5-4.3-2-8.6c0.3-2.5,1.5-4.9,3.4-6.6c0,0,3.6,6.2,2.4,9.3C122.3,14.6,121.1,16.6,119.5,18.3z
	"/>
<path class="st0" d="M117.5,16.4c-0.7-2.2-0.8-4.6-0.3-6.9c0.6-1.9,1.8-3.5,3.5-4.5c0,0,1.8,5.3,0.4,7.5
	C120.2,14,119,15.3,117.5,16.4z"/>
<path class="st0" d="M118,16.1c-1.1-1.8-1.8-3.9-1.8-6c0.1-1.8,0.8-3.5,2.1-4.8c0,0,2.8,4.2,2.1,6.5C119.8,13.4,119,14.8,118,16.1z"
	/>
<path class="st0" d="M116.9,11.7c-0.2-0.4-0.2-0.8-0.1-1.2c0.1-0.3,0.3-0.6,0.6-0.8c0,0,0.4,0.9,0.2,1.3
	C117.4,11.2,117.1,11.5,116.9,11.7z"/>
<path class="st0" d="M115.8,12.7c-0.4-0.7-0.5-1.5-0.4-2.3c0.1-0.7,0.5-1.3,1-1.7c0,0,0.9,1.7,0.5,2.5
	C116.6,11.8,116.2,12.3,115.8,12.7z"/>
<path class="st0" d="M114.7,15.5c-1-1.6-1.4-3.5-1.4-5.4c0.1-1.6,0.8-3.1,2-4.2c0,0,2.3,3.8,1.6,5.8
	C116.4,13.1,115.7,14.4,114.7,15.5z"/>
<path class="st0" d="M113.6,16.3c-1.1-1.9-1.7-4.1-1.6-6.3c0.1-1.9,1-3.6,2.3-4.9c0,0,2.8,4.4,2,6.8C115.7,13.5,114.8,15,113.6,16.3
	z"/>
<path class="st0" d="M112.3,14.1c-0.5-1.3-0.7-2.6-0.5-4c0.2-1.1,0.9-2.1,1.8-2.8c0,0,1.3,2.9,0.7,4.3
	C113.7,12.5,113.1,13.3,112.3,14.1z"/>
<path class="st0" d="M111.9,11.7c-0.2-0.3-0.3-0.7-0.3-1.1c0-0.3,0.2-0.7,0.4-0.9c0,0,0.5,0.8,0.4,1.2
	C112.2,11.2,112.1,11.5,111.9,11.7z"/>
<path class="st0" d="M110.3,15.9c-1-1.8-1.4-3.9-1.3-5.9c0.2-1.7,1.1-3.3,2.4-4.5c0,0,2.4,4.3,1.5,6.5
	C112.3,13.4,111.4,14.8,110.3,15.9z"/>
<path class="st0" d="M109.5,13.4c-0.5-0.9-0.7-2-0.7-3.1c0.1-0.9,0.6-1.7,1.3-2.3c0,0,1.2,2.2,0.8,3.3
	C110.5,12.1,110.1,12.8,109.5,13.4z"/>
<path class="st0" d="M108.7,18.1c0,0-2.8-4-2.6-8.2c0.1-2.5,1-4.8,2.7-6.6c0,0,3.9,5.7,3,8.9C111.1,14.3,110,16.3,108.7,18.1z"/>
<path class="st0" d="M107.2,16c-1-1.8-1.5-3.9-1.3-6c0.2-1.8,1.1-3.4,2.4-4.5c0,0,2.4,4.3,1.6,6.5C109.2,13.5,108.3,14.8,107.2,16z"
	/>
<path class="st0" d="M105.8,14.4c-0.5-1.4-0.7-3-0.3-4.4c0.3-1.2,1.1-2.3,2.2-3c0,0,1.3,3.4,0.5,4.8
	C107.5,12.8,106.7,13.7,105.8,14.4z"/>
<path class="st0" d="M105.2,14.7c-0.8-1.4-1.1-3-1-4.6c0.2-1.3,0.8-2.5,1.8-3.4c0,0,1.8,3.3,1.2,4.9C106.7,12.8,106,13.8,105.2,14.7
	z"/>
<path class="st0" d="M104.2,12.1c-0.2-0.5-0.2-1.1,0-1.7c0.1-0.4,0.4-0.8,0.8-1.1c0,0,0.4,1.3,0.1,1.8
	C104.8,11.5,104.5,11.8,104.2,12.1z"/>
<path class="st0" d="M102.9,17.1c-1.2-2.3-1.8-4.8-1.6-7.4c0.3-2.1,1.3-4.1,2.9-5.5c0,0,3,5.3,1.9,8
	C105.3,14.1,104.2,15.7,102.9,17.1z"/>
<path class="st0" d="M102.4,11.7c-0.2-0.4-0.3-0.8-0.2-1.2c0-0.3,0.2-0.7,0.5-0.9c0,0,0.5,0.9,0.3,1.3
	C102.8,11.2,102.6,11.5,102.4,11.7z"/>
<path class="st0" d="M100.7,14.9c-0.7-1.6-0.9-3.3-0.7-5c0.3-1.4,1.1-2.7,2.2-3.5c0,0,1.7,3.7,0.8,5.4C102.5,13,101.7,14,100.7,14.9
	z"/>
<path class="st0" d="M100,13.5c-0.5-1-0.7-2.1-0.5-3.2c0.2-0.9,0.7-1.8,1.4-2.3c0,0,1.2,2.4,0.6,3.5C101.1,12.2,100.6,12.9,100,13.5
	z"/>
<path class="st0" d="M98.3,15.6c-0.7-1.8-0.9-3.9-0.6-5.8c0.4-1.6,1.4-3.1,2.8-4c0,0,1.8,4.4,0.8,6.3
	C100.4,13.4,99.5,14.6,98.3,15.6z"/>
<path class="st0" d="M98.2,13.4c-0.6-0.9-0.8-2-0.8-3.1c0.1-0.9,0.5-1.8,1.2-2.4c0,0,1.4,2.2,1,3.4C99.2,12.1,98.7,12.8,98.2,13.4z"
	/>
<path class="st0" d="M96.2,16.9c-1-2.2-1.4-4.7-1.1-7.2c0.4-2,1.5-3.9,3.2-5.1c0,0,2.5,5.3,1.3,7.8C98.8,14,97.6,15.5,96.2,16.9z"/>
<path class="st0" d="M96,13.7c-0.6-1.1-0.9-2.3-0.8-3.5c0.1-1,0.6-1.9,1.3-2.6c0,0,1.4,2.5,0.9,3.8C97.1,12.3,96.6,13,96,13.7z"/>
<path class="st0" d="M94.3,13.5c-0.3-1.1-0.3-2.3,0-3.4c0.3-0.9,0.9-1.7,1.8-2.2c0,0,0.8,2.6,0.1,3.7C95.8,12.3,95.1,13,94.3,13.5z"
	/>
<path class="st0" d="M94.2,12.5c-0.4-0.6-0.6-1.3-0.6-2c0-0.6,0.2-1.2,0.7-1.6c0,0,1,1.4,0.7,2.1C94.8,11.5,94.5,12,94.2,12.5z"/>
<path class="st0" d="M91.3,16.9c-0.8-2.4-0.9-5-0.3-7.5c0.6-2.1,2-3.8,3.8-4.9c0,0,2,5.7,0.5,8.1C94.2,14.3,92.9,15.7,91.3,16.9z"/>
<path class="st0" d="M91.7,15.2c-0.9-1.5-1.3-3.3-1.2-5.1c0.2-1.5,0.9-2.9,2-3.8c0,0,2.1,3.7,1.4,5.5C93.4,13,92.6,14.1,91.7,15.2z"
	/>
<path class="st0" d="M90.6,12.1c-0.2-0.6-0.2-1.2,0-1.8c0.2-0.5,0.5-0.9,0.9-1.1c0,0,0.4,1.4,0.1,1.9C91.3,11.5,91,11.9,90.6,12.1z"
	/>
<path class="st0" d="M88.8,16.4c-0.9-2.1-1.2-4.5-0.8-6.8c0.5-1.9,1.6-3.5,3.2-4.6c0,0,2.1,5.1,0.9,7.3
	C91.3,13.9,90.1,15.3,88.8,16.4z"/>
<path class="st0" d="M88.6,13.7c-0.5-1.1-0.8-2.3-0.7-3.5c0.2-1,0.7-1.9,1.5-2.6c0,0,1.3,2.6,0.8,3.8C89.8,12.3,89.2,13.1,88.6,13.7
	z"/>
<path class="st0" d="M86.3,18.1c0,0-1.9-4.6-0.9-8.7c0.6-2.4,2.1-4.6,4.1-6c0,0,2.7,6.5,1.2,9.5C89.5,14.8,88,16.6,86.3,18.1z"/>
<path class="st0" d="M86.7,13.6c-0.6-1-0.9-2.2-0.9-3.3c0.1-1,0.5-1.9,1.2-2.6c0,0,1.4,2.4,1,3.6C87.7,12.2,87.3,13,86.7,13.6z"/>
<path class="st0" d="M85.3,13.3c-0.4-1-0.5-2-0.3-3.1c0.2-0.9,0.7-1.6,1.4-2.1c0,0,1,2.3,0.5,3.3C86.5,12.1,86,12.8,85.3,13.3z"/>
<path class="st0" d="M84.3,13.3c-0.4-0.9-0.5-2-0.4-3c0.2-0.9,0.7-1.6,1.4-2.2c0,0,1,2.2,0.5,3.3C85.4,12.1,84.9,12.7,84.3,13.3z"/>
<path class="st0" d="M83.5,15.2c-0.9-1.5-1.4-3.2-1.3-5c0.1-1.5,0.8-2.9,1.8-3.9c0,0,2.2,3.6,1.5,5.4C85,12.9,84.3,14.1,83.5,15.2z"
	/>
<path class="st0" d="M82.6,14.9c-0.9-1.4-1.3-3-1.3-4.6c0.1-1.4,0.7-2.7,1.7-3.7c0,0,2.1,3.3,1.6,5C84,12.7,83.4,13.9,82.6,14.9z"/>
<path class="st0" d="M81,12.7c-0.2-0.8-0.2-1.7,0-2.5c0.2-0.7,0.7-1.2,1.3-1.6c0,0,0.6,1.9,0.1,2.7C82,11.9,81.5,12.3,81,12.7z"/>
<path class="st0" d="M80.3,13c-0.4-0.8-0.6-1.7-0.5-2.7c0.1-0.8,0.5-1.5,1.1-2c0,0,1,1.9,0.6,2.9C81.3,11.9,80.8,12.5,80.3,13z"/>
<path class="st0" d="M77.5,17.5c0,0-1.5-4.4-0.2-8.2C78,7,79.6,5.1,81.6,3.9c0,0,2.1,6.3,0.4,8.9C80.8,14.6,79.2,16.2,77.5,17.5z"/>
<path class="st0" d="M76.3,18.1c0,0-1.6-4.8-0.3-9c0.8-2.4,2.4-4.5,4.7-5.8c0,0,2.3,6.9,0.5,9.7C79.9,15,78.2,16.7,76.3,18.1z"/>
<path class="st0" d="M77.1,16.2c-1.1-1.9-1.7-4.1-1.6-6.2c0.2-1.8,1-3.6,2.3-4.8c0,0,2.7,4.5,1.9,6.8C79.1,13.5,78.2,15,77.1,16.2z"
	/>
<path class="st0" d="M75.2,16.6c-0.9-2.2-1.2-4.6-0.7-7c0.5-2,1.6-3.7,3.3-4.8c0,0,2.2,5.2,1,7.6C77.8,14,76.6,15.4,75.2,16.6z"/>
<path class="st0" d="M75.2,11.6c-0.1-0.3-0.2-0.7-0.1-1.1c0.1-0.3,0.3-0.5,0.5-0.7c0,0,0.3,0.8,0.1,1.1
	C75.6,11.2,75.4,11.4,75.2,11.6z"/>
<path class="st0" d="M74.1,15c-0.9-1.5-1.3-3.2-1.3-4.9c0.1-1.4,0.8-2.8,1.8-3.8c0,0,2.1,3.5,1.5,5.3C75.6,12.8,75,14,74.1,15z"/>
<path class="st0" d="M73.1,11.8c-0.1-0.4-0.1-0.9,0-1.3c0.1-0.4,0.3-0.7,0.7-0.9c0,0,0.3,1,0.1,1.4C73.6,11.3,73.3,11.6,73.1,11.8z"
	/>
<path class="st0" d="M71.7,14.5c-0.6-1.4-0.9-2.9-0.7-4.4c0.2-1.3,0.9-2.4,1.9-3.2c0,0,1.6,3.2,0.9,4.8
	C73.2,12.7,72.5,13.7,71.7,14.5z"/>
<path class="st0" d="M70.5,13.4c-0.4-1.1-0.4-2.2-0.1-3.3C70.6,9.2,71.2,8.5,72,8c0,0,0.9,2.5,0.2,3.6
	C71.8,12.3,71.2,12.9,70.5,13.4z"/>
<path class="st0" d="M68.7,16.7c-0.9-2.3-1-4.8-0.5-7.2c0.5-2,1.8-3.7,3.5-4.9c0,0,2.1,5.5,0.7,7.8C71.4,14.1,70.1,15.5,68.7,16.7z"
	/>
<path class="st0" d="M68.8,12.1c-0.2-0.5-0.2-1.1-0.1-1.7c0.1-0.5,0.4-0.8,0.8-1.1c0,0,0.5,1.3,0.1,1.8
	C69.5,11.5,69.2,11.8,68.8,12.1z"/>
<path class="st0" d="M67.7,12.4c-0.2-0.7-0.3-1.4-0.1-2.1c0.2-0.6,0.5-1.1,1-1.4c0,0,0.6,1.6,0.2,2.3C68.5,11.7,68.1,12.1,67.7,12.4
	z"/>
<path class="st0" d="M66.5,12.8c-0.3-0.8-0.3-1.7-0.1-2.5c0.2-0.7,0.7-1.3,1.3-1.7c0,0,0.7,1.9,0.2,2.8C67.5,11.9,67,12.4,66.5,12.8
	z"/>
<path class="st0" d="M65.6,15c-0.8-1.5-1.2-3.2-1.1-4.8c0.2-1.4,0.8-2.7,1.9-3.7c0,0,2,3.5,1.3,5.2C67.2,12.9,66.5,14,65.6,15z"/>
<path class="st0" d="M64.9,17.4c0,0-2.5-3.6-2.3-7.4c0.1-2.2,1-4.4,2.5-6c0,0,3.5,5.2,2.7,8C67.1,14,66.1,15.8,64.9,17.4z"/>
<path class="st0" d="M63.7,12.2c-0.3-0.6-0.3-1.2-0.2-1.8c0.1-0.5,0.4-1,0.8-1.3c0,0,0.6,1.4,0.3,2C64.3,11.5,64,11.9,63.7,12.2z"/>
<path class="st0" d="M62.8,17.9c0,0-2.7-3.9-2.5-8c0.1-2.4,1-4.7,2.7-6.4c0,0,3.8,5.6,3,8.6C65.2,14.2,64.2,16.2,62.8,17.9z"/>
<path class="st0" d="M61.7,12.2c-0.3-0.5-0.4-1.2-0.3-1.8c0.1-0.5,0.3-1,0.8-1.3c0,0,0.6,1.3,0.3,1.9C62.3,11.5,62,11.9,61.7,12.2z"
	/>
<path class="st0" d="M59.1,16.3c-0.7-2.2-0.7-4.6-0.1-6.8c0.6-1.8,1.9-3.4,3.5-4.4c0,0,1.7,5.2,0.3,7.4
	C61.8,13.9,60.5,15.2,59.1,16.3z"/>
<path class="st0" d="M59.1,16.4c-1-2-1.5-4.3-1.3-6.5C58,8,59,6.2,60.4,5c0,0,2.6,4.7,1.6,7.1C61.3,13.7,60.3,15.1,59.1,16.4z"/>
<path class="st0" d="M57.9,13.9c-0.5-1.3-0.5-2.6-0.2-3.9c0.3-1.1,1-2,1.9-2.6c0,0,1.1,2.9,0.3,4.2C59.4,12.5,58.7,13.3,57.9,13.9z"
	/>
<path class="st0" d="M57.6,15.1c-0.9-1.5-1.5-3.2-1.5-4.9c0.1-1.5,0.7-2.9,1.7-3.9c0,0,2.3,3.4,1.7,5.3C59.1,12.9,58.4,14,57.6,15.1
	z"/>
<path class="st0" d="M54.8,16.9c-0.8-2.4-0.9-5-0.2-7.5c0.6-2.1,2-3.8,3.9-4.9c0,0,2,5.8,0.4,8.1C57.8,14.3,56.4,15.7,54.8,16.9z"/>
<path class="st0" d="M55.5,13.7c-0.6-1-1-2.2-1-3.3c0.1-1,0.5-1.9,1.2-2.6c0,0,1.5,2.3,1.1,3.6C56.5,12.2,56.1,13,55.5,13.7z"/>
<path class="st0" d="M54.2,11.9c-0.1-0.5-0.1-1,0-1.5c0.1-0.4,0.4-0.7,0.8-0.9c0,0,0.3,1.2,0,1.6C54.8,11.4,54.5,11.7,54.2,11.9z"/>
<path class="st0" d="M51.6,18.1c0,0-1.8-4.7-0.6-8.8c0.7-2.4,2.2-4.5,4.4-5.9c0,0,2.5,6.7,0.8,9.6C55,14.9,53.4,16.6,51.6,18.1z"/>
<path class="st0" d="M52.3,17.4c0,0-2.5-3.7-2.3-7.5c0.1-2.3,1-4.4,2.6-6c0,0,3.5,5.3,2.6,8.1C54.5,14,53.6,15.8,52.3,17.4z"/>
<path class="st0" d="M50.5,14.1c-0.5-1.3-0.5-2.7-0.2-4.1c0.3-1.1,1-2.1,2-2.7c0,0,1.1,3.1,0.3,4.4C52.1,12.6,51.4,13.4,50.5,14.1z"
	/>
<path class="st0" d="M49.8,13c-0.3-0.9-0.4-1.9-0.2-2.8c0.2-0.8,0.7-1.4,1.4-1.9c0,0,0.8,2.1,0.2,3C50.9,12,50.4,12.5,49.8,13z"/>
<path class="st0" d="M48.9,14.5c-0.7-1.3-1-2.9-0.9-4.4c0.2-1.3,0.8-2.4,1.8-3.2c0,0,1.7,3.2,1,4.7C50.3,12.7,49.7,13.7,48.9,14.5z"
	/>
<path class="st0" d="M48.1,13c-0.5-0.8-0.7-1.7-0.6-2.6c0.1-0.8,0.4-1.5,1-2c0,0,1.1,1.9,0.7,2.8C49,11.9,48.6,12.5,48.1,13z"/>
<path class="st0" d="M46.7,13.4c-0.4-1-0.6-2.1-0.4-3.2c0.2-0.9,0.7-1.7,1.5-2.2c0,0,1.1,2.4,0.5,3.5C47.9,12.2,47.4,12.9,46.7,13.4
	z"/>
<path class="st0" d="M45.9,15.1c-0.9-1.5-1.3-3.2-1.3-5c0.1-1.5,0.8-2.8,1.9-3.9c0,0,2.2,3.6,1.5,5.4C47.5,12.9,46.8,14.1,45.9,15.1
	z"/>
<path class="st0" d="M44.8,14.6c-0.7-1.4-1.1-2.9-1-4.4c0.2-1.3,0.8-2.5,1.8-3.3c0,0,1.8,3.2,1.2,4.8C46.3,12.7,45.6,13.7,44.8,14.6
	z"/>
<path class="st0" d="M43.4,13.5c-0.4-1.1-0.5-2.3-0.2-3.4c0.3-0.9,0.9-1.7,1.7-2.2c0,0,1,2.6,0.3,3.7C44.7,12.3,44.1,12.9,43.4,13.5
	z"/>
<path class="st0" d="M43,14.2c-0.7-1.2-1.1-2.5-1.1-3.9c0.1-1.2,0.5-2.2,1.3-3.1c0,0,1.8,2.8,1.3,4.2C44.2,12.4,43.7,13.3,43,14.2z"
	/>
<path class="st0" d="M41.7,11.9c-0.1-0.5-0.1-1,0-1.4c0.1-0.4,0.4-0.7,0.8-0.9c0,0,0.3,1.1,0,1.6C42.3,11.4,42,11.6,41.7,11.9z"/>
<path class="st0" d="M40.6,15.6c-1-1.7-1.4-3.6-1.3-5.6c0.2-1.6,0.9-3.1,2.1-4.2c0,0,2.3,4,1.6,6C42.4,13.2,41.6,14.5,40.6,15.6z"/>
<path class="st0" d="M39.6,12.2c-0.2-0.6-0.3-1.2-0.1-1.9c0.1-0.5,0.5-1,0.9-1.2c0,0,0.5,1.4,0.2,2C40.3,11.6,40,11.9,39.6,12.2z"/>
<path class="st0" d="M38.1,14.1c-0.5-1.3-0.6-2.7-0.3-4.1c0.3-1.1,1-2.1,2-2.8c0,0,1.2,3.1,0.4,4.5C39.6,12.6,38.9,13.4,38.1,14.1z"
	/>
<path class="st0" d="M37.4,13.3c-0.4-1-0.5-2-0.4-3.1c0.2-0.9,0.7-1.6,1.4-2.1c0,0,1,2.3,0.5,3.3C38.5,12.1,38,12.7,37.4,13.3z"/>
<path class="st0" d="M36.7,13c-0.5-0.8-0.7-1.7-0.7-2.6c0.1-0.8,0.4-1.5,1-2c0,0,1.1,1.8,0.8,2.8C37.6,11.9,37.2,12.5,36.7,13z"/>
<path class="st0" d="M35.2,14.7c-0.7-1.5-1-3.1-0.8-4.7c0.2-1.3,0.9-2.5,2-3.3c0,0,1.7,3.4,0.9,5C36.8,12.8,36.1,13.8,35.2,14.7z"/>
<path class="st0" d="M34.6,13.8c-0.6-1.1-1-2.3-0.9-3.5c0.1-1,0.6-2,1.3-2.7c0,0,1.5,2.5,1.1,3.8C35.7,12.2,35.2,13.1,34.6,13.8z"/>
<path class="st0" d="M33,13.7c-0.4-1.1-0.5-2.4-0.3-3.6c0.3-1,0.9-1.8,1.7-2.4c0,0,1,2.7,0.4,3.8C34.3,12.4,33.7,13.1,33,13.7z"/>
<path class="st0" d="M32.4,17.8c0,0-2.5-3.9-2.2-7.9c0.2-2.4,1.2-4.6,2.9-6.2c0,0,3.6,5.6,2.6,8.5C34.9,14.2,33.8,16.1,32.4,17.8z"
	/>
<path class="st0" d="M31.6,11.6c-0.2-0.3-0.2-0.7-0.2-1c0-0.3,0.2-0.6,0.4-0.8c0,0,0.4,0.7,0.2,1.1C31.9,11.2,31.7,11.4,31.6,11.6z"
	/>
<path class="st0" d="M30.2,18.2c0,0-2.6-4.2-2.3-8.5c0.2-2.5,1.3-4.9,3.1-6.6c0,0,3.7,6,2.7,9.1C32.8,14.5,31.7,16.5,30.2,18.2z"/>
<path class="st0" d="M28.6,17.1c-1.1-2.3-1.6-4.9-1.3-7.4c0.3-2.1,1.5-4.1,3.2-5.4c0,0,2.7,5.4,1.6,8C31.2,14.1,30,15.7,28.6,17.1z"
	/>
<path class="st0" d="M27.9,15.5c-0.8-1.7-1.2-3.6-1-5.5c0.2-1.6,1.1-3,2.3-4.1c0,0,2.1,4,1.2,6C29.8,13.2,28.9,14.4,27.9,15.5z"/>
<path class="st0" d="M26.8,15.1c-0.7-1.6-1-3.4-0.8-5.1c0.3-1.5,1.1-2.8,2.2-3.7c0,0,1.8,3.8,1,5.5C28.6,13.1,27.8,14.2,26.8,15.1z"
	/>
<path class="st0" d="M26.3,16.5c-1.3-1.9-1.9-4.2-1.9-6.5c0.1-1.9,0.9-3.7,2.2-5.1c0,0,3,4.5,2.2,7C28.2,13.5,27.4,15.1,26.3,16.5z"
	/>
<path class="st0" d="M25.1,12.4c-0.3-0.6-0.4-1.3-0.3-2c0.1-0.6,0.4-1.1,0.9-1.4c0,0,0.7,1.5,0.3,2.2C25.8,11.6,25.5,12,25.1,12.4z"
	/>
<path class="st0" d="M23.9,12.9c-0.3-0.8-0.4-1.7-0.2-2.6c0.2-0.7,0.6-1.3,1.2-1.8c0,0,0.8,2,0.3,2.8C24.8,11.9,24.4,12.4,23.9,12.9
	z"/>
<path class="st0" d="M21.9,16.4c-0.8-2.2-1-4.5-0.5-6.8c0.5-1.9,1.7-3.5,3.3-4.6c0,0,2,5.1,0.7,7.3C24.5,13.9,23.3,15.2,21.9,16.4z"
	/>
<path class="st0" d="M21.8,12.5c-0.2-0.7-0.3-1.5-0.1-2.2c0.2-0.6,0.6-1.1,1.1-1.4c0,0,0.6,1.7,0.2,2.4
	C22.6,11.7,22.2,12.2,21.8,12.5z"/>
<path class="st0" d="M20.2,14.9c-0.6-1.6-0.7-3.3-0.4-5c0.4-1.4,1.2-2.6,2.4-3.4c0,0,1.5,3.8,0.6,5.4C22.1,13.1,21.2,14.1,20.2,14.9
	z"/>
<path class="st0" d="M20.1,13.1c-0.5-0.8-0.8-1.7-0.8-2.6c0-0.8,0.4-1.5,0.9-2.1c0,0,1.2,1.9,0.9,2.8C20.9,11.8,20.6,12.5,20.1,13.1
	z"/>
<path class="st0" d="M18.7,18.1c0,0-2.6-4.1-2.3-8.3c0.2-2.5,1.2-4.8,3-6.5c0,0,3.7,5.9,2.6,9C21.3,14.4,20.2,16.4,18.7,18.1z"/>
<path class="st0" d="M17.7,14c-0.6-1.2-0.9-2.5-0.8-3.8c0.2-1.1,0.7-2.1,1.6-2.8c0,0,1.5,2.8,0.9,4.1C19,12.4,18.4,13.3,17.7,14z"/>
<path class="st0" d="M16.3,13.3c-0.3-1-0.4-2.1-0.1-3.2c0.3-0.9,0.9-1.6,1.6-2.1c0,0,0.8,2.4,0.2,3.4C17.5,12.2,17,12.8,16.3,13.3z"
	/>
<path class="st0" d="M14.7,15.5c-0.6-1.9-0.7-3.9-0.3-5.8c0.5-1.6,1.5-3,2.9-3.8c0,0,1.6,4.4,0.4,6.3C16.9,13.4,15.9,14.6,14.7,15.5
	z"/>
<path class="st0" d="M13.9,17.4c0,0-2-4-1.3-7.8C13,7.4,14.2,5.4,16,4c0,0,2.8,5.7,1.6,8.4C16.7,14.3,15.4,15.9,13.9,17.4z"/>
<path class="st0" d="M13.4,17c-1.2-2.2-1.8-4.6-1.6-7.1c0.2-2.1,1.2-4,2.8-5.4c0,0,2.9,5.1,2,7.7C15.7,13.9,14.6,15.6,13.4,17z"/>
<path class="st0" d="M12,13.3c-0.3-1-0.3-2.1,0-3.2c0.3-0.9,0.9-1.6,1.7-2c0,0,0.7,2.4,0.1,3.4C13.3,12.2,12.7,12.8,12,13.3z"/>
<path class="st0" d="M11.7,17.5c0,0-2.5-3.7-2.3-7.5c0.1-2.3,1-4.4,2.6-6c0,0,3.5,5.2,2.7,8.1C14,14,13,15.8,11.7,17.5z"/>
<path class="st0" d="M9.6,14.6C9.1,13,9.1,11.4,9.5,9.8c0.4-1.3,1.3-2.3,2.5-3c0,0,1.1,3.6,0.2,5.1C11.5,13,10.6,13.8,9.6,14.6z"/>
<path class="st0" d="M9.3,13.9c-0.6-1.2-0.8-2.5-0.7-3.7c0.2-1.1,0.7-2,1.6-2.7c0,0,1.4,2.7,0.8,4C10.6,12.4,10,13.2,9.3,13.9z"/>
<path class="st0" d="M8.7,17.9c0,0-2.7-3.8-2.6-7.9c0-2.4,1-4.7,2.6-6.5c0,0,3.9,5.5,3,8.5C11,14.2,10,16.1,8.7,17.9z"/>
<path class="st0" d="M7.3,15.7C6.3,14,5.8,12,5.9,10c0.2-1.7,1-3.2,2.2-4.3c0,0,2.4,4.1,1.6,6.1C9.1,13.2,8.3,14.6,7.3,15.7z"/>
<path class="st0" d="M5.6,15.7c-0.8-1.9-1-3.9-0.7-5.9c0.4-1.7,1.4-3.1,2.8-4.1c0,0,1.9,4.4,0.8,6.4C7.7,13.5,6.7,14.7,5.6,15.7z"/>
<path class="st0" d="M3.2,17.8c0,0-1.4-4.7,0.1-8.7C4.1,6.7,5.8,4.8,8,3.6c0,0,2,6.7,0.1,9.4C6.7,14.9,5,16.5,3.2,17.8z"/>
<path class="st0" d="M3.2,15.8c-0.7-2-0.8-4.1-0.4-6.1c0.5-1.7,1.5-3.1,3-4.1c0,0,1.7,4.6,0.6,6.6C5.5,13.6,4.4,14.8,3.2,15.8z"/>
<path class="st0" d="M1.7,17.5c0,0-1.6-4.3-0.5-8.2c0.6-2.3,2.1-4.2,4.1-5.4c0,0,2.3,6.2,0.7,8.9C4.8,14.6,3.4,16.2,1.7,17.5z"/>
<path class="st0" d="M1.8,18.4c0,0-2.6-4.4-2.1-8.7C0,7.1,1.2,4.8,3.1,3c0,0,3.6,6.2,2.4,9.4C4.6,14.6,3.3,16.6,1.8,18.4z"/>
<path class="st0" d="M1.3,16c-1.2-1.7-1.8-3.8-1.8-5.9c0.1-1.7,0.8-3.4,2-4.7c0,0,2.7,4.1,2.1,6.3C3.1,13.3,2.3,14.7,1.3,16z"/>
<path class="st0" d="M0.3,12.6c-0.4-0.7-0.6-1.4-0.5-2.1c0.1-0.6,0.3-1.2,0.8-1.7c0,0,0.9,1.5,0.6,2.3C1,11.7,0.6,12.2,0.3,12.6z"/>
<path class="st0" d="M-1.5,15.1c-0.7-1.6-0.9-3.4-0.6-5.2C-1.8,8.5-1,7.2,0.2,6.3c0,0,1.7,3.8,0.8,5.6C0.3,13.1-0.5,14.2-1.5,15.1z"
	/>
<path class="st0" d="M-3.2,17.5c0,0-2.4-3.8-2-7.7C-5,7.6-4,5.4-2.3,3.8c0,0,3.3,5.5,2.3,8.3C-0.7,14.1-1.8,15.9-3.2,17.5z"/>
</svg>
