<svg id="Layer_1" data-name="Layer 1" xmlns="http://www.w3.org/2000/svg" viewBox="0 0 128 128"><defs><style>.cls-1{fill:#004d51;opacity:0.4;}.cls-2{fill:#7d7b72;}.cls-3{fill:#908f7e;}.cls-4{fill:#a8a99a;}.cls-5{fill:#cecec5;}.cls-6{fill:#cfcfc6;}</style></defs><path class="cls-1" d="M96.13,86.18s19.41,1.89,26,4.73.15,9.72-3.79,13.26a42.52,42.52,0,0,1-22.25,10.89,82,82,0,0,1-29.82-1c-8.05-1.89-10.89-2.84-10.89-2.84a25.38,25.38,0,0,1-15.15,3.31c-8.52-.94-18.94-1.42-26.51-4.73S-1.86,100.38,6.66,98,96.13,86.18,96.13,86.18Z"/><path class="cls-2" d="M36.48,94.23s2.37-12.79,6.63-18.94,6.63-8.52,12.78-7.1,18,2.84,33.62,9,16.09,6.16,19.88,8.52,7.57,5.68,3.79,9.47-13.26,10.42-19.41,11.36-10.42,1.9-17,1-25.56-3.31-32.66-5.21S36.48,97.54,36.48,94.23Z"/><path class="cls-3" d="M36.48,94.23s2.37-12.79,6.63-18.94,6.63-8.52,12.78-7.1S51.63,74.34,67.25,80.5,93.75,102.86,88.56,107c-2.37,1.89-13.26.94-19.89,0a248.7,248.7,0,0,1-24.61-4.74C37,100.38,36.48,97.54,36.48,94.23Z"/><path class="cls-4" d="M49.74,69.13s0-2.36,6.15-.94,18,2.84,33.62,9,11.36,4.26,15.14,6.63,5.21,2.84,1.42,6.63-13.25,4.73-19.41,5.68-6.15-1-10.88-3.32c-6-3-12.35-9.17-18.47-13.25C51.63,75.76,49.74,72.45,49.74,69.13Z"/><path class="cls-5" d="M49.74,69.13s0-2.36,6.15-.94,18,2.84,33.62,9,11.36,4.26,15.14,6.63,5.21,2.84,1.42,6.63c-1.64,1.64.78-1.64-2.36-4.26-4.11-3.43-17.39-5.84-20.83-6.63C76.72,78.13,72,76.24,65.36,74.81s7.54,15.44,1.42,11.37C61.1,82.39,49.26,77.66,49.74,69.13Z"/><path class="cls-2" d="M28,91.86c8.52-2.37,14.68-3.32,17.52-1a19.28,19.28,0,0,1,6.15,9c.95,3.31,2.37,8-2.37,8.52s-21.77-.48-27.45-2.37-12.79-5.21-6.63-9A45.73,45.73,0,0,1,28,91.86Z"/><path class="cls-3" d="M28,91.86c8.52-2.37,14.68-3.32,17.52-1s-13.26,4.74-12.31,8,12.78,9,8,9.47a57.48,57.48,0,0,1-19.41-2.37c-5.68-1.89-12.79-5.21-6.63-9A45.73,45.73,0,0,1,28,91.86Z"/><path class="cls-4" d="M27,91.86c7.85-2.62,11.84-2.37,15.15-1.9s5.68,2.84,1.9,5.21S36,99.43,28.43,99,14.7,99,14.7,98,18.49,94.7,27,91.86Z"/><path class="cls-6" d="M27,91.86c7.85-2.62,11.84-2.37,15.15-1.9s5.68,2.84,1.9,5.21S36,99.43,28.43,99,36,99,35.54,94.7C35,90,18.49,94.7,27,91.86Z"/></svg>