<svg id="Layer_1" data-name="Layer 1" xmlns="http://www.w3.org/2000/svg" xmlns:xlink="http://www.w3.org/1999/xlink" viewBox="0 0 128 128"><defs><style>.cls-1{opacity:0.3;}.cls-2{fill:#e2ede5;}.cls-3{fill:#bacdc3;}.cls-4{fill:#297983;}.cls-5{fill:#4bb1cb;}.cls-6{fill:url(#linear-gradient);}.cls-7{fill:#4bb99d;}.cls-8{fill:#ffe850;}.cls-9{fill:#2fa993;}.cls-10{fill:#feca00;}</style><linearGradient id="linear-gradient" x1="63.87" y1="78.42" x2="99.7" y2="114.25" gradientUnits="userSpaceOnUse"><stop offset="0" stop-color="#8adcf4"/><stop offset="0.17" stop-color="#3aacf7"/><stop offset="0.38" stop-color="#1394e8"/><stop offset="0.58" stop-color="#8adcf4"/><stop offset="0.78" stop-color="#5ed4f5"/><stop offset="1" stop-color="#3aacf7"/></linearGradient></defs><path class="cls-1" d="M118,127H9l-5-5V49l5-5H118l5,5v73Z"/><path class="cls-2" d="M110.43,119H16.57l-5-5V58.17l5-5h93.86l5,5V114Z"/><path class="cls-3" d="M111.9,83.9H15.1l-5-5V17.22l5-5h96.8l5,5v61.7Z"/><path class="cls-2" d="M111.9,73.66H15.1l-5-5V7l5-5h96.8l5,5v61.7Z"/><rect class="cls-4" x="21.82" y="47.34" width="84.82" height="21.94"/><rect class="cls-5" x="21.82" y="40.03" width="84.82" height="7.31"/><rect class="cls-5" x="24.74" y="89.75" width="29.25" height="29.25"/><rect class="cls-6" x="59.84" y="82.44" width="43.88" height="27.79"/><rect class="cls-4" x="29.13" y="101.45" width="2.92" height="8.78" rx="1"/><path class="cls-7" d="M18.89,79.51h8.77a0,0,0,0,1,0,0V91.14a3,3,0,0,1-3,3H21.89a3,3,0,0,1-3-3V79.51a0,0,0,0,1,0,0Z"/><path class="cls-8" d="M27.67,79.51h8.77a0,0,0,0,1,0,0V91.14a3,3,0,0,1-3,3H30.67a3,3,0,0,1-3-3V79.51a0,0,0,0,1,0,0Z"/><path class="cls-7" d="M36.44,79.51h8.77a0,0,0,0,1,0,0V91.14a3,3,0,0,1-3,3H39.44a3,3,0,0,1-3-3V79.51A0,0,0,0,1,36.44,79.51Z"/><path class="cls-8" d="M45.22,79.51H54a0,0,0,0,1,0,0V91.14a3,3,0,0,1-3,3H48.22a3,3,0,0,1-3-3V79.51A0,0,0,0,1,45.22,79.51Z"/><path class="cls-7" d="M54,79.51h8.77a0,0,0,0,1,0,0V91.14a3,3,0,0,1-3,3H57a3,3,0,0,1-3-3V79.51A0,0,0,0,1,54,79.51Z"/><path class="cls-8" d="M62.77,79.51h8.77a0,0,0,0,1,0,0V91.14a3,3,0,0,1-3,3H65.77a3,3,0,0,1-3-3V79.51a0,0,0,0,1,0,0Z"/><path class="cls-7" d="M71.54,79.51h8.77a0,0,0,0,1,0,0V91.14a3,3,0,0,1-3,3H74.54a3,3,0,0,1-3-3V79.51A0,0,0,0,1,71.54,79.51Z"/><path class="cls-8" d="M80.32,79.51h8.77a0,0,0,0,1,0,0V91.14a3,3,0,0,1-3,3H83.32a3,3,0,0,1-3-3V79.51A0,0,0,0,1,80.32,79.51Z"/><path class="cls-7" d="M89.09,79.51h8.77a0,0,0,0,1,0,0V91.14a3,3,0,0,1-3,3H92.09a3,3,0,0,1-3-3V79.51A0,0,0,0,1,89.09,79.51Z"/><path class="cls-8" d="M97.87,79.51h8.77a0,0,0,0,1,0,0V91.14a3,3,0,0,1-3,3h-2.78a3,3,0,0,1-3-3V79.51a0,0,0,0,1,0,0Z"/><path class="cls-9" d="M27.67,89.75a4.4,4.4,0,0,1-4.39,4.39h0a4.4,4.4,0,0,1-4.39-4.39"/><path class="cls-10" d="M36.44,89.75a4.39,4.39,0,0,1-4.38,4.39h0a4.39,4.39,0,0,1-4.39-4.39"/><path class="cls-9" d="M45.22,89.75a4.4,4.4,0,0,1-4.39,4.39h0a4.4,4.4,0,0,1-4.39-4.39"/><path class="cls-10" d="M54,89.75a4.39,4.39,0,0,1-4.38,4.39h0a4.39,4.39,0,0,1-4.39-4.39"/><path class="cls-9" d="M62.77,89.75a4.4,4.4,0,0,1-4.39,4.39h0A4.4,4.4,0,0,1,54,89.75"/><path class="cls-10" d="M71.54,89.75a4.39,4.39,0,0,1-4.38,4.39h0a4.39,4.39,0,0,1-4.39-4.39"/><path class="cls-9" d="M80.32,89.75a4.4,4.4,0,0,1-4.39,4.39h0a4.4,4.4,0,0,1-4.39-4.39"/><path class="cls-10" d="M89.09,89.75a4.39,4.39,0,0,1-4.38,4.39h0a4.39,4.39,0,0,1-4.39-4.39"/><path class="cls-9" d="M97.87,89.75a4.4,4.4,0,0,1-4.39,4.39h0a4.4,4.4,0,0,1-4.39-4.39"/><path class="cls-10" d="M106.64,89.75a4.39,4.39,0,0,1-4.38,4.39h0a4.39,4.39,0,0,1-4.39-4.39"/><path class="cls-3" d="M103.74,9.31H23.26L16,16.6v7.31l7.29-7.29h80.48L111,23.91V16.6Z"/></svg>