<svg id="Layer_1" data-name="Layer 1" xmlns="http://www.w3.org/2000/svg" xmlns:xlink="http://www.w3.org/1999/xlink" viewBox="0 0 128 128"><defs><style>.cls-1{fill:#b8681a;}.cls-2{fill:#32e785;}.cls-3{fill:url(#linear-gradient);}.cls-4{fill:#e45e00;}.cls-5{fill:#943100;}.cls-6{fill:url(#linear-gradient-2);}.cls-7{fill:url(#linear-gradient-3);}.cls-8{fill:#42bb7b;}.cls-9{fill:#1f9079;}.cls-10{fill:#e7133b;}.cls-11{fill:#ff7d3c;}.cls-12{fill:#ff532f;}.cls-13{fill:#15afe5;}.cls-14{fill:#8fd4ff;}.cls-15{fill:#63c9fc;}.cls-16{fill:#a605ce;}.cls-17{fill:#db97ff;}.cls-18{fill:#cc31ff;}</style><linearGradient id="linear-gradient" x1="18" y1="34.2" x2="112" y2="34.2" gradientUnits="userSpaceOnUse"><stop offset="0" stop-color="#f3963c"/><stop offset="1" stop-color="#ffa948"/></linearGradient><linearGradient id="linear-gradient-2" y1="66.2" x2="112" y2="66.2" gradientTransform="matrix(1, 0, 0, -1, 0, 132.39)" xlink:href="#linear-gradient"/><linearGradient id="linear-gradient-3" y1="99.2" x2="112" y2="99.2" xlink:href="#linear-gradient"/></defs><rect class="cls-1" x="6" y="18.52" width="114" height="102.98" rx="20.21"/><path class="cls-2" d="M102,119.09a5.53,5.53,0,0,1,1.58,2.74,3.44,3.44,0,0,1-.59,2.52s-1.91-1.78-1.78-2.94A7.07,7.07,0,0,1,102,119.09Z"/><path class="cls-2" d="M102.6,118.68a6,6,0,0,1,2.15,2.52,3.47,3.47,0,0,1-.11,2.66s-2.29-1.48-2.38-2.69A7.07,7.07,0,0,1,102.6,118.68Z"/><path class="cls-2" d="M103.42,117.1a8.36,8.36,0,0,1,3,3.65,5,5,0,0,1-.23,3.79s-3.22-2.18-3.32-3.9A10.18,10.18,0,0,1,103.42,117.1Z"/><path class="cls-2" d="M105.61,117.79a5.3,5.3,0,0,1,1.39,2.75,3.34,3.34,0,0,1-.72,2.43s-1.76-1.82-1.57-3A6.92,6.92,0,0,1,105.61,117.79Z"/><path class="cls-2" d="M106.1,116a8.55,8.55,0,0,1,2.69,4,5.23,5.23,0,0,1-.65,3.91s-3.09-2.55-3-4.35A10.64,10.64,0,0,1,106.1,116Z"/><path class="cls-2" d="M107.45,116.55a6.31,6.31,0,0,1,2.06,3,3.84,3.84,0,0,1-.41,2.91s-2.34-1.85-2.32-3.18A7.76,7.76,0,0,1,107.45,116.55Z"/><path class="cls-2" d="M109.3,118.1a2,2,0,0,1,.5,1,1.2,1.2,0,0,1-.26.89s-.65-.67-.58-1.09A2.53,2.53,0,0,1,109.3,118.1Z"/><path class="cls-2" d="M110.45,117.09a3.13,3.13,0,0,1,.74,1.63,2,2,0,0,1-.47,1.41s-1-1.1-.85-1.76A4.15,4.15,0,0,1,110.45,117.09Z"/><path class="cls-2" d="M111.63,117.31a1.78,1.78,0,0,1,.46.91,1.13,1.13,0,0,1-.24.8s-.58-.6-.52-1A2.16,2.16,0,0,1,111.63,117.31Z"/><path class="cls-2" d="M112.49,113.57a8.43,8.43,0,0,1,2.1,4.42,5.35,5.35,0,0,1-1.22,3.85s-2.74-3-2.39-4.75A11,11,0,0,1,112.49,113.57Z"/><path class="cls-2" d="M112.58,113.82a8,8,0,0,1,3,3.29,4.68,4.68,0,0,1,0,3.58s-3.15-1.9-3.34-3.51A9.53,9.53,0,0,1,112.58,113.82Z"/><path class="cls-2" d="M110.8,115a9.51,9.51,0,0,1,4.83.84,5.32,5.32,0,0,1,2.58,2.93s-3.94.39-5.26-.81A10.81,10.81,0,0,1,110.8,115Z"/><path class="cls-2" d="M112.58,114.4a6.4,6.4,0,0,1,3.22.77,3.59,3.59,0,0,1,1.6,2.1s-2.69.09-3.52-.78A7.23,7.23,0,0,1,112.58,114.4Z"/><path class="cls-2" d="M112.42,113.31a7.68,7.68,0,0,1,3.93.57,4.33,4.33,0,0,1,2.17,2.31s-3.18.41-4.29-.53A8.66,8.66,0,0,1,112.42,113.31Z"/><path class="cls-2" d="M114.58,112.94a3.57,3.57,0,0,1,1.81.37,2,2,0,0,1,.93,1.14s-1.49.1-2-.37A4.11,4.11,0,0,1,114.58,112.94Z"/><path class="cls-2" d="M115.35,112.11a2.8,2.8,0,0,1,1.39.2,1.55,1.55,0,0,1,.76.82s-1.12.14-1.51-.19A3,3,0,0,1,115.35,112.11Z"/><path class="cls-2" d="M115.84,111.1a2.65,2.65,0,0,1,1.36.13,1.5,1.5,0,0,1,.78.76s-1.08.19-1.48-.11A3.13,3.13,0,0,1,115.84,111.1Z"/><path class="cls-2" d="M116.4,109.89a2.57,2.57,0,0,1,1.32.31,1.49,1.49,0,0,1,.67.85s-1.11,0-1.45-.3A2.87,2.87,0,0,1,116.4,109.89Z"/><path class="cls-2" d="M114,107.59a9.67,9.67,0,0,1,4.94.67,5.51,5.51,0,0,1,2.75,2.89s-4,.54-5.39-.63A11,11,0,0,1,114,107.59Z"/><path class="cls-2" d="M117.38,107.78a2.59,2.59,0,0,1,1.29.27,1.47,1.47,0,0,1,.66.82s-1.07.06-1.41-.28A2.79,2.79,0,0,1,117.38,107.78Z"/><path class="cls-2" d="M117.06,106.26a4.58,4.58,0,0,1,2.34.49,2.56,2.56,0,0,1,1.21,1.47s-1.93.13-2.56-.48A5.27,5.27,0,0,1,117.06,106.26Z"/><path class="cls-2" d="M115.27,104.42a10,10,0,0,1,5.14.54,5.71,5.71,0,0,1,3,2.91s-4.11.68-5.6-.49A11.55,11.55,0,0,1,115.27,104.42Z"/><path class="cls-2" d="M116.65,104.58a6.75,6.75,0,0,1,3.5-.16,4,4,0,0,1,2.32,1.63s-2.67.88-3.8.25A8.14,8.14,0,0,1,116.65,104.58Z"/><path class="cls-2" d="M117.67,103.59a4.51,4.51,0,0,1,2.31,0,2.63,2.63,0,0,1,1.47,1.15s-1.78.5-2.51.06A5.34,5.34,0,0,1,117.67,103.59Z"/><path class="cls-2" d="M116.49,102.9a6.74,6.74,0,0,1,3.42-.93,4.32,4.32,0,0,1,2.71,1.1s-2.41,1.46-3.69,1.09A8.55,8.55,0,0,1,116.49,102.9Z"/><path class="cls-2" d="M116.62,101.8a6.45,6.45,0,0,1,3.25-1,4.17,4.17,0,0,1,2.62,1s-2.27,1.44-3.51,1.11A8.23,8.23,0,0,1,116.62,101.8Z"/><path class="cls-2" d="M117.16,100.25A5.49,5.49,0,0,1,120,99.9a3.35,3.35,0,0,1,2,1.18s-2.08.88-3,.44A6.58,6.58,0,0,1,117.16,100.25Z"/><path class="cls-2" d="M115.52,99.17a8.92,8.92,0,0,1,4.58-1,5.58,5.58,0,0,1,3.49,1.64s-3.29,1.76-5,1.18A10.93,10.93,0,0,1,115.52,99.17Z"/><path class="cls-2" d="M116.17,97.8a7.65,7.65,0,0,1,4-.55,4.62,4.62,0,0,1,2.82,1.61s-2.9,1.28-4.27.68A9.28,9.28,0,0,1,116.17,97.8Z"/><path class="cls-2" d="M115.28,95.85a10.19,10.19,0,0,1,5.24,0,6,6,0,0,1,3.32,2.6s-4,1.13-5.69.11A11.8,11.8,0,0,1,115.28,95.85Z"/><path class="cls-2" d="M116.7,95.69a6.48,6.48,0,0,1,3.28-.61,4,4,0,0,1,2.43,1.24s-2.38,1.18-3.54.74A7.89,7.89,0,0,1,116.7,95.69Z"/><path class="cls-2" d="M117.88,94.52a3.93,3.93,0,0,1,2-.2,2.32,2.32,0,0,1,1.37.86s-1.48.59-2.15.26A4.49,4.49,0,0,1,117.88,94.52Z"/><path class="cls-2" d="M115.59,93.06a9,9,0,0,1,4.62-.66,5.44,5.44,0,0,1,3.31,1.88s-3.4,1.5-5,.81A10.8,10.8,0,0,1,115.59,93.06Z"/><path class="cls-2" d="M117.1,92.22a5.59,5.59,0,0,1,2.83-.5A3.41,3.41,0,0,1,122,92.81s-2.06,1-3.07.61A6.82,6.82,0,0,1,117.1,92.22Z"/><path class="cls-2" d="M117.47,91.18a4.61,4.61,0,0,1,2.37-.5,2.87,2.87,0,0,1,1.8.85s-1.7.91-2.56.6A5.73,5.73,0,0,1,117.47,91.18Z"/><path class="cls-2" d="M115.79,90a8.39,8.39,0,0,1,4.24-1,5.24,5.24,0,0,1,3.28,1.46s-3,1.7-4.57,1.2A10.68,10.68,0,0,1,115.79,90Z"/><path class="cls-2" d="M118.28,88.74a3,3,0,0,1,1.53-.1,1.78,1.78,0,0,1,1,.7s-1.16.41-1.67.14A3.64,3.64,0,0,1,118.28,88.74Z"/><path class="cls-2" d="M118.18,87.56a3.2,3.2,0,0,1,1.65-.12,1.93,1.93,0,0,1,1.11.75s-1.24.44-1.78.16A3.87,3.87,0,0,1,118.18,87.56Z"/><path class="cls-2" d="M115.22,85.47a10.19,10.19,0,0,1,5.27-.12,6,6,0,0,1,3.41,2.54s-4,1.23-5.72.24A11.77,11.77,0,0,1,115.22,85.47Z"/><path class="cls-2" d="M118,85.43a3.57,3.57,0,0,1,1.77-.4,2.17,2.17,0,0,1,1.35.63s-1.26.69-1.91.47A4.4,4.4,0,0,1,118,85.43Z"/><path class="cls-2" d="M117.94,84a3.75,3.75,0,0,1,1.94-.13,2.29,2.29,0,0,1,1.31.89s-1.47.52-2.11.18A4.41,4.41,0,0,1,117.94,84Z"/><path class="cls-2" d="M115.28,82.22a9.9,9.9,0,0,1,5.1-.36,5.9,5.9,0,0,1,3.46,2.3s-3.85,1.39-5.54.51A11.8,11.8,0,0,1,115.28,82.22Z"/><path class="cls-2" d="M115.67,82A8.59,8.59,0,0,1,120,80.73a5.42,5.42,0,0,1,3.47,1.3s-3,1.93-4.61,1.51A10.81,10.81,0,0,1,115.67,82Z"/><path class="cls-2" d="M116.62,80.65a6.5,6.5,0,0,1,3.33-.73,4,4,0,0,1,2.54,1.19s-2.39,1.28-3.6.86A8,8,0,0,1,116.62,80.65Z"/><path class="cls-2" d="M116.42,79.37a7,7,0,0,1,3.6-.67,4.31,4.31,0,0,1,2.67,1.35s-2.61,1.3-3.89.81A8.48,8.48,0,0,1,116.42,79.37Z"/><path class="cls-2" d="M117.62,78.17a4.51,4.51,0,0,1,2.3-.22,2.67,2.67,0,0,1,1.58,1s-1.72.66-2.48.29A5.48,5.48,0,0,1,117.62,78.17Z"/><path class="cls-2" d="M118.51,77.35a2.33,2.33,0,0,1,1.18-.29,1.47,1.47,0,0,1,.92.4s-.84.48-1.27.34A3,3,0,0,1,118.51,77.35Z"/><path class="cls-2" d="M115.9,75.77a8.15,8.15,0,0,1,4.21-.73,5,5,0,0,1,3.1,1.62s-3.07,1.48-4.56.89A10.17,10.17,0,0,1,115.9,75.77Z"/><path class="cls-2" d="M115.48,74.45a9.25,9.25,0,0,1,4.73-.71,5.64,5.64,0,0,1,3.42,1.9s-3.48,1.58-5.12.88A11.17,11.17,0,0,1,115.48,74.45Z"/><path class="cls-2" d="M115.1,73.5a9.94,9.94,0,0,1,5.07-1.07A6.16,6.16,0,0,1,124,74.26s-3.64,1.93-5.47,1.28A12.37,12.37,0,0,1,115.1,73.5Z"/><path class="cls-2" d="M116,72.64a7.81,7.81,0,0,1,4-1.1,5,5,0,0,1,3.15,1.28s-2.79,1.7-4.28,1.27A10.1,10.1,0,0,1,116,72.64Z"/><path class="cls-2" d="M116,71.23a7.79,7.79,0,0,1,4-.81,4.83,4.83,0,0,1,3,1.48s-2.9,1.49-4.34,1A9.61,9.61,0,0,1,116,71.23Z"/><path class="cls-2" d="M117.73,70.18a4.16,4.16,0,0,1,2.11-.35,2.5,2.5,0,0,1,1.54.81s-1.53.74-2.27.44A5.2,5.2,0,0,1,117.73,70.18Z"/><path class="cls-2" d="M118.22,69a3.06,3.06,0,0,1,1.57-.2,1.83,1.83,0,0,1,1.12.65s-1.17.49-1.71.25A3.58,3.58,0,0,1,118.22,69Z"/><path class="cls-2" d="M116.53,67.36a7.1,7.1,0,0,1,3.63-.23,4.15,4.15,0,0,1,2.42,1.66s-2.74,1-3.92.32A8.28,8.28,0,0,1,116.53,67.36Z"/><path class="cls-2" d="M118.49,66.83a2.42,2.42,0,0,1,1.22-.25,1.45,1.45,0,0,1,.92.45s-.88.46-1.32.3A2.92,2.92,0,0,1,118.49,66.83Z"/><path class="cls-2" d="M118,65.6a3.56,3.56,0,0,1,1.82-.35,2.18,2.18,0,0,1,1.36.67s-1.31.67-2,.43A4.42,4.42,0,0,1,118,65.6Z"/><path class="cls-2" d="M116.31,64.1a7.44,7.44,0,0,1,3.78-.56,4.45,4.45,0,0,1,2.71,1.53s-2.77,1.24-4.08.68A9,9,0,0,1,116.31,64.1Z"/><path class="cls-2" d="M116.86,62.86a6.16,6.16,0,0,1,3.2-.28,3.71,3.71,0,0,1,2.2,1.41s-2.4.91-3.47.37A7.34,7.34,0,0,1,116.86,62.86Z"/><path class="cls-2" d="M116.31,62.26a7.11,7.11,0,0,1,3.58-1.09,4.57,4.57,0,0,1,2.9,1.08s-2.49,1.62-3.85,1.26A9.13,9.13,0,0,1,116.31,62.26Z"/><path class="cls-2" d="M116,60.29a8.32,8.32,0,0,1,4.28-.32,5,5,0,0,1,2.9,1.91s-3.22,1.18-4.64.45A9.9,9.9,0,0,1,116,60.29Z"/><path class="cls-2" d="M116.91,59.83a5.88,5.88,0,0,1,3-.77,3.73,3.73,0,0,1,2.33,1s-2.09,1.24-3.19.91A7.28,7.28,0,0,1,116.91,59.83Z"/><path class="cls-2" d="M116.29,58.23a7.38,7.38,0,0,1,3.82-.51,4.54,4.54,0,0,1,2.72,1.58s-2.83,1.22-4.14.63A9.17,9.17,0,0,1,116.29,58.23Z"/><path class="cls-2" d="M118.47,57.27a2.68,2.68,0,0,1,1.34,0,1.47,1.47,0,0,1,.84.67s-1,.28-1.45,0A3.05,3.05,0,0,1,118.47,57.27Z"/><path class="cls-2" d="M115.62,56.32A8.67,8.67,0,0,1,120,55.13a5.51,5.51,0,0,1,3.47,1.42s-3.09,1.86-4.73,1.38A11,11,0,0,1,115.62,56.32Z"/><path class="cls-2" d="M116.71,54.7a6.58,6.58,0,0,1,3.37-.32,3.94,3.94,0,0,1,2.33,1.47s-2.52,1-3.65.42A7.8,7.8,0,0,1,116.71,54.7Z"/><path class="cls-2" d="M116.62,53.89a6.57,6.57,0,0,1,3.33-.74,4,4,0,0,1,2.54,1.18s-2.38,1.3-3.59.88A8.18,8.18,0,0,1,116.62,53.89Z"/><path class="cls-2" d="M115.37,52.62a9.26,9.26,0,0,1,4.74-1,5.76,5.76,0,0,1,3.62,1.68s-3.39,1.84-5.12,1.25A11.47,11.47,0,0,1,115.37,52.62Z"/><path class="cls-2" d="M118,51.49a3.49,3.49,0,0,1,1.8-.17,2.1,2.1,0,0,1,1.24.78s-1.34.53-2,.23A4.31,4.31,0,0,1,118,51.49Z"/><path class="cls-2" d="M117.86,50.38a3.89,3.89,0,0,1,2-.29,2.34,2.34,0,0,1,1.42.8s-1.45.64-2.14.35A4.74,4.74,0,0,1,117.86,50.38Z"/><path class="cls-2" d="M115.53,49.25a8.87,8.87,0,0,1,4.52-1.13,5.58,5.58,0,0,1,3.52,1.53s-3.2,1.85-4.88,1.32A11.1,11.1,0,0,1,115.53,49.25Z"/><path class="cls-2" d="M115.37,47.91a9.34,9.34,0,0,1,4.77-1,5.78,5.78,0,0,1,3.59,1.74s-3.43,1.79-5.14,1.17A11.53,11.53,0,0,1,115.37,47.91Z"/><path class="cls-2" d="M118.43,46.91a2.64,2.64,0,0,1,1.34-.12,1.6,1.6,0,0,1,.92.59s-1,.38-1.45.16A3.24,3.24,0,0,1,118.43,46.91Z"/><path class="cls-2" d="M116.39,45.14a7.38,7.38,0,0,1,3.83-.16,4.35,4.35,0,0,1,2.51,1.81s-2.91.94-4.15.25A8.87,8.87,0,0,1,116.39,45.14Z"/><path class="cls-2" d="M116.46,44.13a7.16,7.16,0,0,1,3.69-.3,4.27,4.27,0,0,1,2.51,1.64s-2.77,1-4,.4A8.51,8.51,0,0,1,116.46,44.13Z"/><path class="cls-2" d="M116.85,43.1a6.11,6.11,0,0,1,3.2-.31,3.73,3.73,0,0,1,2.22,1.39s-2.4.94-3.47.41A7.5,7.5,0,0,1,116.85,43.1Z"/><path class="cls-2" d="M115.48,42.25a9.08,9.08,0,0,1,4.58-1.13,5.65,5.65,0,0,1,3.56,1.56s-3.25,1.86-4.94,1.32A11.27,11.27,0,0,1,115.48,42.25Z"/><path class="cls-2" d="M118.53,41.1a2.44,2.44,0,0,1,1.23-.1,1.43,1.43,0,0,1,.84.56s-.93.34-1.34.13A3,3,0,0,1,118.53,41.1Z"/><path class="cls-2" d="M117.51,39.94a4.64,4.64,0,0,1,2.35-.45,2.77,2.77,0,0,1,1.74.88s-1.69.85-2.53.54A5.74,5.74,0,0,1,117.51,39.94Z"/><path class="cls-2" d="M117.15,38.57a5.44,5.44,0,0,1,2.83-.35,3.33,3.33,0,0,1,2,1.19s-2.1.87-3.06.43A6.53,6.53,0,0,1,117.15,38.57Z"/><path class="cls-2" d="M117.31,37.56a5,5,0,0,1,2.59-.46,3.16,3.16,0,0,1,1.91,1s-1.88.92-2.8.56A6.16,6.16,0,0,1,117.31,37.56Z"/><path class="cls-2" d="M115.84,36.12a8.43,8.43,0,0,1,4.31-.66,5.11,5.11,0,0,1,3.12,1.72s-3.16,1.44-4.66.81A10.12,10.12,0,0,1,115.84,36.12Z"/><path class="cls-2" d="M117.06,35.34a5.51,5.51,0,0,1,2.82-.67,3.54,3.54,0,0,1,2.18,1s-2,1.12-3,.78A7.1,7.1,0,0,1,117.06,35.34Z"/><path class="cls-2" d="M116.59,34.08a6.6,6.6,0,0,1,3.37-.72,4.1,4.1,0,0,1,2.56,1.22s-2.42,1.28-3.64.85A8.3,8.3,0,0,1,116.59,34.08Z"/><path class="cls-2" d="M115.38,34.57a8.21,8.21,0,0,1,3.77-2.44,5.75,5.75,0,0,1,3.8.32s-2.29,2.7-4,2.73A11.71,11.71,0,0,1,115.38,34.57Z"/><path class="cls-2" d="M115,33.77a8.24,8.24,0,0,1,3.58-2.72,5.78,5.78,0,0,1,3.84.05s-2.07,2.87-3.81,3A11.64,11.64,0,0,1,115,33.77Z"/><path class="cls-2" d="M113.94,32.1a9.22,9.22,0,0,1,4.42-2.25,6.23,6.23,0,0,1,4.11.76s-2.84,2.69-4.74,2.54A12.49,12.49,0,0,1,113.94,32.1Z"/><path class="cls-2" d="M115.27,30.48a5.3,5.3,0,0,1,2.65-1,3.51,3.51,0,0,1,2.28.65s-1.78,1.37-2.85,1.18A7.16,7.16,0,0,1,115.27,30.48Z"/><path class="cls-2" d="M115.35,29.94a4.19,4.19,0,0,1,1.82-1.43,2.94,2.94,0,0,1,2,0s-1,1.49-1.94,1.59A6.17,6.17,0,0,1,115.35,29.94Z"/><path class="cls-2" d="M112.82,28.7A8.57,8.57,0,0,1,117,26.75a5.68,5.68,0,0,1,3.75.82s-2.7,2.4-4.44,2.2A11.45,11.45,0,0,1,112.82,28.7Z"/><path class="cls-2" d="M114.89,27.28a3.11,3.11,0,0,1,1.47-.7,2.05,2.05,0,0,1,1.34.29s-1,.86-1.58.79A4.18,4.18,0,0,1,114.89,27.28Z"/><path class="cls-2" d="M112.61,26.78a7,7,0,0,1,3.22-2,4.8,4.8,0,0,1,3.16.37s-2,2.19-3.44,2.18A9.76,9.76,0,0,1,112.61,26.78Z"/><path class="cls-2" d="M111.76,25.26a7.78,7.78,0,0,1,3.8-1.59,5.1,5.1,0,0,1,3.33.89s-2.53,2-4.09,1.8A10.15,10.15,0,0,1,111.76,25.26Z"/><path class="cls-2" d="M113.73,24a2.47,2.47,0,0,1,1.18-.54,1.62,1.62,0,0,1,1.07.24s-.77.68-1.27.62A3.17,3.17,0,0,1,113.73,24Z"/><path class="cls-2" d="M112.77,23a3.48,3.48,0,0,1,1.68-.8,2.29,2.29,0,0,1,1.52.33s-1.09,1-1.8.9A4.55,4.55,0,0,1,112.77,23Z"/><path class="cls-2" d="M111.7,25A6.08,6.08,0,0,1,113,21.66a4.61,4.61,0,0,1,2.76-1.48s-.16,2.86-1.32,3.66A9.34,9.34,0,0,1,111.7,25Z"/><path class="cls-2" d="M111,25a6.36,6.36,0,0,1,.65-3.73,4.68,4.68,0,0,1,2.57-2s.44,3-.61,4.06A9.76,9.76,0,0,1,111,25Z"/><path class="cls-2" d="M110.1,23.51a4.26,4.26,0,0,1,.74-2.43,3.24,3.24,0,0,1,1.89-1.18s0,2-.75,2.66A6.63,6.63,0,0,1,110.1,23.51Z"/><path class="cls-2" d="M109.32,23.27a4.22,4.22,0,0,1,.24-2.53,3.1,3.1,0,0,1,1.62-1.48s.45,2-.2,2.75A6.53,6.53,0,0,1,109.32,23.27Z"/><path class="cls-2" d="M108,22.47a3.9,3.9,0,0,1,.6-2.21,2.88,2.88,0,0,1,1.66-1.09s.09,1.83-.6,2.4A6.1,6.1,0,0,1,108,22.47Z"/><path class="cls-2" d="M106.72,22.38a4.45,4.45,0,0,1,.55-2.62,3.34,3.34,0,0,1,1.86-1.4s.24,2.15-.53,2.86A6.74,6.74,0,0,1,106.72,22.38Z"/><path class="cls-2" d="M106.05,21a2.49,2.49,0,0,1,.38-1.42,1.92,1.92,0,0,1,1.07-.71s.06,1.18-.38,1.55A3.78,3.78,0,0,1,106.05,21Z"/><path class="cls-2" d="M105.07,20.3a1.9,1.9,0,0,1,.29-1.09,1.4,1.4,0,0,1,.81-.54s0,.9-.29,1.18A3,3,0,0,1,105.07,20.3Z"/><path class="cls-2" d="M102,22.64a8.29,8.29,0,0,1,1.31-4.81,6.31,6.31,0,0,1,3.62-2.41s.2,4-1.3,5.26A13.11,13.11,0,0,1,102,22.64Z"/><path class="cls-2" d="M102.72,19.7a2.38,2.38,0,0,1,.2-1.42,1.76,1.76,0,0,1,.94-.8s.21,1.14-.17,1.55A3.81,3.81,0,0,1,102.72,19.7Z"/><path class="cls-2" d="M100,20.44a6.14,6.14,0,0,1,1.47-3.26,4.56,4.56,0,0,1,2.81-1.34s-.31,2.83-1.5,3.57A9.68,9.68,0,0,1,100,20.44Z"/><path class="cls-2" d="M100.92,18.91a1.71,1.71,0,0,1,0-1,1.2,1.2,0,0,1,.56-.65s.28.77.06,1.09A2.52,2.52,0,0,1,100.92,18.91Z"/><path class="cls-2" d="M99.48,20.06a4,4,0,0,1-.29-2.33,2.8,2.8,0,0,1,1.17-1.63s.82,1.74.38,2.53A5.59,5.59,0,0,1,99.48,20.06Z"/><path class="cls-2" d="M98.34,20.46a4.68,4.68,0,0,1-.57-2.73,3.23,3.23,0,0,1,1.22-2s1.13,2,.69,2.95A6.8,6.8,0,0,1,98.34,20.46Z"/><path class="cls-2" d="M97.21,20.44a4.65,4.65,0,0,1-.7-2.67,3.11,3.11,0,0,1,1.09-2s1.22,1.91.84,2.88A6.43,6.43,0,0,1,97.21,20.44Z"/><path class="cls-2" d="M96,19.65a3.13,3.13,0,0,1-.45-1.78,2.11,2.11,0,0,1,.75-1.35s.79,1.28.53,1.92A4.32,4.32,0,0,1,96,19.65Z"/><path class="cls-2" d="M94.25,21a5.82,5.82,0,0,1-.44-3.45,4,4,0,0,1,1.72-2.39s1.2,2.56.56,3.72A8.63,8.63,0,0,1,94.25,21Z"/><path class="cls-2" d="M92.9,22.15a8.11,8.11,0,0,1-.8-4.73A5.58,5.58,0,0,1,94.34,14s1.8,3.48,1,5.11A11.56,11.56,0,0,1,92.9,22.15Z"/><path class="cls-2" d="M92.34,21.13a6,6,0,0,1-1.15-3.37,4,4,0,0,1,1.22-2.71s1.74,2.35,1.33,3.63A8.17,8.17,0,0,1,92.34,21.13Z"/><path class="cls-2" d="M90.37,21.68a7.13,7.13,0,0,1-.59-4.22,5,5,0,0,1,2.07-3s1.52,3.12.74,4.56A10.34,10.34,0,0,1,90.37,21.68Z"/><path class="cls-2" d="M89.47,20.18a4.13,4.13,0,0,1-.38-2.45A2.89,2.89,0,0,1,90.27,16s.91,1.81.47,2.65A6,6,0,0,1,89.47,20.18Z"/><path class="cls-2" d="M88.24,20.11a4,4,0,0,1-.38-2.36A2.78,2.78,0,0,1,89,16.06s.88,1.74.47,2.56A5.82,5.82,0,0,1,88.24,20.11Z"/><path class="cls-2" d="M86.93,20.22a4.24,4.24,0,0,1-.37-2.5A2.91,2.91,0,0,1,87.78,16s.91,1.85.46,2.71A6.07,6.07,0,0,1,86.93,20.22Z"/><path class="cls-2" d="M85.55,20.32a4.43,4.43,0,0,1-.27-2.66,3.16,3.16,0,0,1,1.37-1.82s.87,2,.35,2.88A6.27,6.27,0,0,1,85.55,20.32Z"/><path class="cls-2" d="M84.34,20a3.81,3.81,0,0,1-.18-2.25,2.66,2.66,0,0,1,1.19-1.52s.7,1.7.25,2.44A5.65,5.65,0,0,1,84.34,20Z"/><path class="cls-2" d="M83.56,20.23a4.21,4.21,0,0,1-.81-2.38,2.8,2.8,0,0,1,.86-1.91s1.23,1.66.94,2.57A5.64,5.64,0,0,1,83.56,20.23Z"/><path class="cls-2" d="M82.33,19.15A2.15,2.15,0,0,1,81.92,18a1.41,1.41,0,0,1,.42-1s.62.83.48,1.28A2.86,2.86,0,0,1,82.33,19.15Z"/><path class="cls-2" d="M80.05,21.88a7.62,7.62,0,0,1-.38-4.53,5.35,5.35,0,0,1,2.38-3.06s1.44,3.42.53,4.91A11.11,11.11,0,0,1,80.05,21.88Z"/><path class="cls-2" d="M79.72,19.69a3.18,3.18,0,0,1-.52-1.81,2.14,2.14,0,0,1,.72-1.4s.85,1.28.61,1.95A4.35,4.35,0,0,1,79.72,19.69Z"/><path class="cls-2" d="M78.12,20.84a5.43,5.43,0,0,1-.6-3.19A3.73,3.73,0,0,1,79,15.33s1.27,2.33.73,3.45A7.74,7.74,0,0,1,78.12,20.84Z"/><path class="cls-2" d="M76.72,19.67a3.26,3.26,0,0,1,0-2,2.34,2.34,0,0,1,1.15-1.23s.47,1.51,0,2.12A4.8,4.8,0,0,1,76.72,19.67Z"/><path class="cls-2" d="M75.59,20.09a4,4,0,0,1-.29-2.37,2.83,2.83,0,0,1,1.19-1.65s.82,1.77.38,2.57A5.75,5.75,0,0,1,75.59,20.09Z"/><path class="cls-2" d="M74.75,20.5a4.82,4.82,0,0,1-.91-2.67,3.18,3.18,0,0,1,1-2.15s1.37,1.86,1.05,2.88A6.36,6.36,0,0,1,74.75,20.5Z"/><path class="cls-2" d="M73.08,19.65A3.16,3.16,0,0,1,73,17.76a2.28,2.28,0,0,1,1-1.25s.56,1.44.17,2A4.78,4.78,0,0,1,73.08,19.65Z"/><path class="cls-2" d="M71.49,21.91a7.59,7.59,0,0,1-.65-4.48A5.3,5.3,0,0,1,73,14.27s1.63,3.32.82,4.84A11.09,11.09,0,0,1,71.49,21.91Z"/><path class="cls-2" d="M70.2,21.05a5.92,5.92,0,0,1-.27-3.55,4.2,4.2,0,0,1,1.89-2.38s1.1,2.68.37,3.84A8.61,8.61,0,0,1,70.2,21.05Z"/><path class="cls-2" d="M69.36,20.92a5.64,5.64,0,0,1-.68-3.26,3.86,3.86,0,0,1,1.47-2.41s1.34,2.38.81,3.53A8,8,0,0,1,69.36,20.92Z"/><path class="cls-2" d="M68.48,22.19a8.16,8.16,0,0,1-1.6-4.53A5.37,5.37,0,0,1,68.49,14s2.37,3.15,1.85,4.88A11,11,0,0,1,68.48,22.19Z"/><path class="cls-2" d="M67,19.7a3.21,3.21,0,0,1-.36-1.87,2.25,2.25,0,0,1,.86-1.37s.75,1.37.44,2A4.54,4.54,0,0,1,67,19.7Z"/><path class="cls-2" d="M65.87,19.4a2.6,2.6,0,0,1-.37-1.5,1.75,1.75,0,0,1,.62-1.13s.67,1.07.45,1.61A3.65,3.65,0,0,1,65.87,19.4Z"/><path class="cls-2" d="M64.57,19.09a2,2,0,0,1-.21-1.17,1.38,1.38,0,0,1,.56-.85s.45.86.25,1.27A2.73,2.73,0,0,1,64.57,19.09Z"/><path class="cls-2" d="M62.44,21.27a6.47,6.47,0,0,1-.12-3.86,4.66,4.66,0,0,1,2.17-2.51s1.06,3,.22,4.19A9.58,9.58,0,0,1,62.44,21.27Z"/><path class="cls-2" d="M61.43,20.47a4.85,4.85,0,0,1-.07-2.9A3.49,3.49,0,0,1,63,15.69s.79,2.23.16,3.15A7.29,7.29,0,0,1,61.43,20.47Z"/><path class="cls-2" d="M60.18,20.76A5.41,5.41,0,0,1,60,17.54a3.82,3.82,0,0,1,1.73-2.14s1,2.45.3,3.49A7.85,7.85,0,0,1,60.18,20.76Z"/><path class="cls-2" d="M59.64,19.38a2.62,2.62,0,0,1-.43-1.46,1.7,1.7,0,0,1,.58-1.13s.69,1,.5,1.57A3.55,3.55,0,0,1,59.64,19.38Z"/><path class="cls-2" d="M58.1,19.47A2.77,2.77,0,0,1,58,17.82a1.93,1.93,0,0,1,.86-1.13s.53,1.24.21,1.79A4.06,4.06,0,0,1,58.1,19.47Z"/><path class="cls-2" d="M56.79,21.61a7,7,0,0,1-.95-4,4.74,4.74,0,0,1,1.73-3s1.74,2.9,1.13,4.34A9.74,9.74,0,0,1,56.79,21.61Z"/><path class="cls-2" d="M55.15,21.45a6.65,6.65,0,0,1-.46-4,4.66,4.66,0,0,1,2-2.75s1.36,3,.6,4.3A9.66,9.66,0,0,1,55.15,21.45Z"/><path class="cls-2" d="M54.62,20.86a5.52,5.52,0,0,1-1-3.08,3.65,3.65,0,0,1,1.14-2.47s1.57,2.16,1.19,3.33A7.41,7.41,0,0,1,54.62,20.86Z"/><path class="cls-2" d="M53.15,19.32A2.47,2.47,0,0,1,53,17.86a1.74,1.74,0,0,1,.74-1s.51,1.09.23,1.59A3.61,3.61,0,0,1,53.15,19.32Z"/><path class="cls-2" d="M51.05,21.29a6.5,6.5,0,0,1,0-3.91,4.67,4.67,0,0,1,2.24-2.5s1,3,.14,4.24A9.7,9.7,0,0,1,51.05,21.29Z"/><path class="cls-2" d="M50.57,20a3.84,3.84,0,0,1-.39-2.26,2.69,2.69,0,0,1,1.07-1.64s.87,1.67.48,2.46A5.68,5.68,0,0,1,50.57,20Z"/><path class="cls-2" d="M49.38,19.31a2.4,2.4,0,0,1-.17-1.45,1.66,1.66,0,0,1,.73-1s.49,1.08.22,1.56A3.67,3.67,0,0,1,49.38,19.31Z"/><path class="cls-2" d="M48.16,19.05a1.9,1.9,0,0,1-.11-1.15,1.39,1.39,0,0,1,.6-.79s.37.87.15,1.25A2.91,2.91,0,0,1,48.16,19.05Z"/><path class="cls-2" d="M47.07,19.39a2.55,2.55,0,0,1-.43-1.47,1.74,1.74,0,0,1,.58-1.14s.7,1,.5,1.58A3.51,3.51,0,0,1,47.07,19.39Z"/><path class="cls-2" d="M45.71,19.05a1.93,1.93,0,0,1-.18-1.13,1.3,1.3,0,0,1,.54-.8s.42.83.22,1.22A2.91,2.91,0,0,1,45.71,19.05Z"/><path class="cls-2" d="M44.14,19.46a2.86,2.86,0,0,1,0-1.69,2,2,0,0,1,1-1.07s.43,1.3,0,1.83A4.15,4.15,0,0,1,44.14,19.46Z"/><path class="cls-2" d="M43,20.93a5.67,5.67,0,0,1-.76-3.25,3.8,3.8,0,0,1,1.39-2.43s1.41,2.34.91,3.5A7.66,7.66,0,0,1,43,20.93Z"/><path class="cls-2" d="M42,20.21a4.19,4.19,0,0,1-.72-2.38A2.79,2.79,0,0,1,42.21,16s1.16,1.68.84,2.57A5.63,5.63,0,0,1,42,20.21Z"/><path class="cls-2" d="M40.48,20.16a4.13,4.13,0,0,1-.4-2.42A2.87,2.87,0,0,1,41.22,16s.92,1.78.5,2.61A5.78,5.78,0,0,1,40.48,20.16Z"/><path class="cls-2" d="M39.52,20.33a4.46,4.46,0,0,1-.8-2.5,3,3,0,0,1,1-2s1.25,1.76.93,2.7A6.1,6.1,0,0,1,39.52,20.33Z"/><path class="cls-2" d="M38.07,21.76a7.29,7.29,0,0,1-1.16-4.14,4.9,4.9,0,0,1,1.67-3.2s1.93,3,1.36,4.47A10.08,10.08,0,0,1,38.07,21.76Z"/><path class="cls-2" d="M36.76,21A5.81,5.81,0,0,1,36,17.68a3.88,3.88,0,0,1,1.41-2.5s1.46,2.39.95,3.58A7.91,7.91,0,0,1,36.76,21Z"/><path class="cls-2" d="M34.85,21.23a6.33,6.33,0,0,1-.17-3.8,4.52,4.52,0,0,1,2.1-2.49s1.08,2.89.27,4.12A9.4,9.4,0,0,1,34.85,21.23Z"/><path class="cls-2" d="M34.44,21.83a7.47,7.47,0,0,1-1.34-4.17,5,5,0,0,1,1.56-3.3s2.09,2.92,1.56,4.49A10.08,10.08,0,0,1,34.44,21.83Z"/><path class="cls-2" d="M33.27,19.64a3.14,3.14,0,0,1-.56-1.73,2.07,2.07,0,0,1,.65-1.38s.87,1.22.65,1.87A4.27,4.27,0,0,1,33.27,19.64Z"/><path class="cls-2" d="M31.75,19.76a3.32,3.32,0,0,1-.31-2,2.3,2.3,0,0,1,.92-1.4s.74,1.44.4,2.11A5,5,0,0,1,31.75,19.76Z"/><path class="cls-2" d="M30.37,20.1a4,4,0,0,1-.32-2.37,2.75,2.75,0,0,1,1.18-1.66s.84,1.76.4,2.56A5.73,5.73,0,0,1,30.37,20.1Z"/><path class="cls-2" d="M29.22,20.08a3.94,3.94,0,0,1-.43-2.31,2.73,2.73,0,0,1,1.08-1.68s.9,1.69.51,2.5A5.54,5.54,0,0,1,29.22,20.08Z"/><path class="cls-2" d="M28.19,20.17a4.17,4.17,0,0,1-.71-2.33,2.76,2.76,0,0,1,.9-1.84s1.14,1.65.83,2.52A5.73,5.73,0,0,1,28.19,20.17Z"/><path class="cls-2" d="M27,18.94a1.73,1.73,0,0,1-.26-1,1.13,1.13,0,0,1,.4-.75s.45.69.31,1.05A2.27,2.27,0,0,1,27,18.94Z"/><path class="cls-2" d="M25.5,19.17a2.17,2.17,0,0,1-.12-1.3,1.56,1.56,0,0,1,.68-.88s.42,1,.16,1.41A3.16,3.16,0,0,1,25.5,19.17Z"/><path class="cls-2" d="M24.56,20.13a3.83,3.83,0,0,1-.62-2.19,2.57,2.57,0,0,1,.88-1.69s1,1.55.72,2.36A5.17,5.17,0,0,1,24.56,20.13Z"/><path class="cls-2" d="M24.07,20a3.08,3.08,0,0,1-1-1.44,1.84,1.84,0,0,1,.2-1.4s1.13.89,1.11,1.54A3.7,3.7,0,0,1,24.07,20Z"/><path class="cls-2" d="M23.55,22.45a7.5,7.5,0,0,1-2.49-3.39,4.47,4.47,0,0,1,.38-3.39s2.78,2.08,2.79,3.62A9.17,9.17,0,0,1,23.55,22.45Z"/><path class="cls-2" d="M21.64,21.71a4.5,4.5,0,0,1-1.19-2.35,2.89,2.89,0,0,1,.6-2.09s1.51,1.56,1.35,2.53A5.69,5.69,0,0,1,21.64,21.71Z"/><path class="cls-2" d="M21.85,23.87a9.1,9.1,0,0,1-3.38-3.76,5.28,5.28,0,0,1,0-4.07s3.56,2.17,3.76,4A10.73,10.73,0,0,1,21.85,23.87Z"/><path class="cls-2" d="M19.28,23.16a5.65,5.65,0,0,1-1.38-3,3.65,3.65,0,0,1,.86-2.58s1.81,2,1.56,3.21A7.21,7.21,0,0,1,19.28,23.16Z"/><path class="cls-2" d="M18.41,22.21a3.13,3.13,0,0,1-1.14-1.35,1.86,1.86,0,0,1,.06-1.42s1.22.8,1.27,1.44A3.75,3.75,0,0,1,18.41,22.21Z"/><path class="cls-2" d="M17,23.06a3.71,3.71,0,0,1-1-1.87,2.33,2.33,0,0,1,.43-1.71s1.27,1.22,1.17,2A4.79,4.79,0,0,1,17,23.06Z"/><path class="cls-2" d="M16.52,25.3A7.72,7.72,0,0,1,14,21.69a4.72,4.72,0,0,1,.52-3.54s2.83,2.26,2.8,3.88A9.43,9.43,0,0,1,16.52,25.3Z"/><path class="cls-2" d="M15.05,24.7a5.48,5.48,0,0,1-1.74-2.57,3.33,3.33,0,0,1,.4-2.5s2,1.62,1.94,2.76A6.78,6.78,0,0,1,15.05,24.7Z"/><path class="cls-2" d="M13.54,25.51A6,6,0,0,1,12,22.42a3.75,3.75,0,0,1,.84-2.7s1.93,2.06,1.7,3.32A7.65,7.65,0,0,1,13.54,25.51Z"/><path class="cls-2" d="M13.8,24.5a4.55,4.55,0,0,1-2.09-1.17,2.52,2.52,0,0,1-.65-1.78s1.91.45,2.3,1.22A5,5,0,0,1,13.8,24.5Z"/><path class="cls-2" d="M14.78,24.9a6.41,6.41,0,0,1-3.33-.24,3.69,3.69,0,0,1-2-1.8s2.63-.54,3.61.19A7.49,7.49,0,0,1,14.78,24.9Z"/><path class="cls-2" d="M15.17,26.79A9.11,9.11,0,0,1,10.56,26a5.12,5.12,0,0,1-2.45-2.82s3.77-.36,5,.8A10.15,10.15,0,0,1,15.17,26.79Z"/><path class="cls-2" d="M12,26.52a2.26,2.26,0,0,1-1.17-.27,1.25,1.25,0,0,1-.58-.74s1-.05,1.27.26A2.72,2.72,0,0,1,12,26.52Z"/><path class="cls-2" d="M12.27,28a4.27,4.27,0,0,1-2.13-.51,2.37,2.37,0,0,1-1.05-1.38s1.77-.06,2.32.51A4.69,4.69,0,0,1,12.27,28Z"/><path class="cls-2" d="M13.13,29.73A7.53,7.53,0,0,1,9.29,29a4.24,4.24,0,0,1-2-2.36s3.15-.27,4.19.7A8.54,8.54,0,0,1,13.13,29.73Z"/><path class="cls-2" d="M12.7,30.48a7.38,7.38,0,0,1-3.77-.35A4.25,4.25,0,0,1,6.74,28s3-.54,4.1.31A8.43,8.43,0,0,1,12.7,30.48Z"/><path class="cls-2" d="M11.9,31.77a6.85,6.85,0,0,1-3.51-.7,3.83,3.83,0,0,1-1.81-2.18s2.88-.22,3.81.68A7.85,7.85,0,0,1,11.9,31.77Z"/><path class="cls-2" d="M12.34,32.93a8.85,8.85,0,0,1-4.55-.47A5.06,5.06,0,0,1,5.18,29.9s3.63-.62,5,.41A10.15,10.15,0,0,1,12.34,32.93Z"/><path class="cls-2" d="M12,34.32a9.47,9.47,0,0,1-4.83-.77,5.34,5.34,0,0,1-2.62-2.88s3.92-.46,5.26.72A10.69,10.69,0,0,1,12,34.32Z"/><path class="cls-2" d="M9.82,35.07a5.75,5.75,0,0,1-2.84-1,3.2,3.2,0,0,1-1.22-2s2.44.16,3.1,1A6.22,6.22,0,0,1,9.82,35.07Z"/><path class="cls-2" d="M11.22,35.38a8.82,8.82,0,0,1-4.55.33A5.29,5.29,0,0,1,3.6,33.65S7,32.42,8.53,33.2A10.6,10.6,0,0,1,11.22,35.38Z"/><path class="cls-2" d="M9.15,35.64a3.88,3.88,0,0,1-1.95.45,2.39,2.39,0,0,1-1.5-.68s1.39-.77,2.1-.53A4.87,4.87,0,0,1,9.15,35.64Z"/><path class="cls-2" d="M10.64,37.43a7.42,7.42,0,0,1-3.84.27A4.38,4.38,0,0,1,4.21,36s2.9-1,4.16-.37A9,9,0,0,1,10.64,37.43Z"/><path class="cls-2" d="M9.83,37.89a5.38,5.38,0,0,1-2.67.77A3.38,3.38,0,0,1,5,37.83s1.86-1.17,2.87-.9A6.83,6.83,0,0,1,9.83,37.89Z"/><path class="cls-2" d="M11.56,40.19a9.72,9.72,0,0,1-5,.12,5.68,5.68,0,0,1-3.25-2.42s3.84-1.18,5.44-.24A11.25,11.25,0,0,1,11.56,40.19Z"/><path class="cls-2" d="M11.56,40.62a9.2,9.2,0,0,1-4.73.92A5.69,5.69,0,0,1,3.3,39.78s3.42-1.73,5.11-1.1A11.45,11.45,0,0,1,11.56,40.62Z"/><path class="cls-2" d="M9,41.37a3.47,3.47,0,0,1-1.73.49,2.2,2.2,0,0,1-1.38-.55s1.21-.75,1.87-.56A4.34,4.34,0,0,1,9,41.37Z"/><path class="cls-2" d="M11.49,42.87a9.07,9.07,0,0,1-4.62,1,5.65,5.65,0,0,1-3.5-1.67s3.32-1.75,5-1.16A11.32,11.32,0,0,1,11.49,42.87Z"/><path class="cls-2" d="M12,44.42a10.25,10.25,0,0,1-5.3.72A6.2,6.2,0,0,1,2.89,43s3.91-1.7,5.74-.9A12.68,12.68,0,0,1,12,44.42Z"/><path class="cls-2" d="M11.45,45a8.84,8.84,0,0,1-4.51,1.15,5.61,5.61,0,0,1-3.53-1.5s3.19-1.87,4.87-1.35A11.16,11.16,0,0,1,11.45,45Z"/><path class="cls-2" d="M11.21,46.92a8.73,8.73,0,0,1-4.53.27,5.22,5.22,0,0,1-3-2.08s3.43-1.18,4.92-.39A10.52,10.52,0,0,1,11.21,46.92Z"/><path class="cls-2" d="M9.05,47.56a3.78,3.78,0,0,1-2,.11,2.28,2.28,0,0,1-1.3-.9s1.47-.51,2.11-.16A4.34,4.34,0,0,1,9.05,47.56Z"/><path class="cls-2" d="M11.11,48.54a8.09,8.09,0,0,1-4.14,1,5.05,5.05,0,0,1-3.21-1.41S6.7,46.46,8.22,47A10.33,10.33,0,0,1,11.11,48.54Z"/><path class="cls-2" d="M10.67,50.17a7.5,7.5,0,0,1-3.85.35,4.47,4.47,0,0,1-2.64-1.69s2.88-1.09,4.17-.46A9,9,0,0,1,10.67,50.17Z"/><path class="cls-2" d="M10.57,50.67a6.92,6.92,0,0,1-3.47,1,4.44,4.44,0,0,1-2.81-1.06S6.71,49.1,8,49.45A8.63,8.63,0,0,1,10.57,50.67Z"/><path class="cls-2" d="M10.75,52.8a7.91,7.91,0,0,1-4.06.05,4.57,4.57,0,0,1-2.59-2s3.12-.91,4.4-.13A9.12,9.12,0,0,1,10.75,52.8Z"/><path class="cls-2" d="M10,53.26a5.79,5.79,0,0,1-2.93.56,3.54,3.54,0,0,1-2.18-1.11S7,51.65,8,52.05A7,7,0,0,1,10,53.26Z"/><path class="cls-2" d="M10.43,54.87a7,7,0,0,1-3.6.22,4.12,4.12,0,0,1-2.41-1.64s2.72-1,3.9-.33A8.2,8.2,0,0,1,10.43,54.87Z"/><path class="cls-2" d="M10.91,55.6a7.72,7.72,0,0,1-4,.86A4.81,4.81,0,0,1,4,55s2.84-1.52,4.27-1A9.64,9.64,0,0,1,10.91,55.6Z"/><path class="cls-2" d="M9.29,57a4.46,4.46,0,0,1-2.28,0,2.61,2.61,0,0,1-1.46-1.12S7.3,55.42,8,55.85A5,5,0,0,1,9.29,57Z"/><path class="cls-2" d="M9.2,57.67a3.87,3.87,0,0,1-2,.56,2.44,2.44,0,0,1-1.57-.64S7,56.74,7.78,57A5.17,5.17,0,0,1,9.2,57.67Z"/><path class="cls-2" d="M10.37,59.25a6.67,6.67,0,0,1-3.43.5,4,4,0,0,1-2.46-1.39S7,57.24,8.19,57.75A8,8,0,0,1,10.37,59.25Z"/><path class="cls-2" d="M9.33,60.19a4.28,4.28,0,0,1-2.2.39,2.59,2.59,0,0,1-1.61-.85s1.6-.77,2.37-.46A5.37,5.37,0,0,1,9.33,60.19Z"/><path class="cls-2" d="M8.34,61.25a2.11,2.11,0,0,1-1.07.16A1.28,1.28,0,0,1,6.5,61s.78-.36,1.15-.2A2.34,2.34,0,0,1,8.34,61.25Z"/><path class="cls-2" d="M11.47,63.25a9.35,9.35,0,0,1-4.83.32,5.61,5.61,0,0,1-3.26-2.19s3.65-1.3,5.24-.46A11.14,11.14,0,0,1,11.47,63.25Z"/><path class="cls-2" d="M11.32,63.7a8.58,8.58,0,0,1-4.39,1,5.38,5.38,0,0,1-3.39-1.51S6.67,61.48,8.28,62A10.81,10.81,0,0,1,11.32,63.7Z"/><path class="cls-2" d="M11.31,65.3a8.84,8.84,0,0,1-4.55.57A5.33,5.33,0,0,1,3.55,64s3.36-1.43,4.92-.72A10.67,10.67,0,0,1,11.31,65.3Z"/><path class="cls-2" d="M9.47,65.82a4.46,4.46,0,0,1-2.27.64,2.82,2.82,0,0,1-1.81-.72S7,64.76,7.83,65A5.79,5.79,0,0,1,9.47,65.82Z"/><path class="cls-2" d="M11.82,67.18a9.7,9.7,0,0,1-4.93,1.24,6.1,6.1,0,0,1-3.84-1.67s3.49-2,5.32-1.44A12.31,12.31,0,0,1,11.82,67.18Z"/><path class="cls-2" d="M9.94,68.7a5.87,5.87,0,0,1-3,.2,3.45,3.45,0,0,1-2-1.37s2.27-.8,3.26-.28A6.81,6.81,0,0,1,9.94,68.7Z"/><path class="cls-2" d="M10.37,69.53A6.58,6.58,0,0,1,7,70.24,4,4,0,0,1,4.49,69s2.4-1.27,3.61-.84A8.3,8.3,0,0,1,10.37,69.53Z"/><path class="cls-2" d="M12,71a10.23,10.23,0,0,1-5.27.91,6.27,6.27,0,0,1-3.86-2s3.83-1.84,5.69-1.1A12.86,12.86,0,0,1,12,71Z"/><path class="cls-2" d="M8.34,71.71a2.08,2.08,0,0,1-1.06.18,1.27,1.27,0,0,1-.78-.42s.78-.36,1.15-.21A2.6,2.6,0,0,1,8.34,71.71Z"/><path class="cls-2" d="M9,73.21a3.63,3.63,0,0,1-1.89,0,2.16,2.16,0,0,1-1.21-.92s1.45-.43,2.05-.07A4,4,0,0,1,9,73.21Z"/><path class="cls-2" d="M8.4,74.21a2.33,2.33,0,0,1-1.2,0,1.35,1.35,0,0,1-.76-.59s.92-.26,1.3,0A2.88,2.88,0,0,1,8.4,74.21Z"/><path class="cls-2" d="M11.17,75.26A8.32,8.32,0,0,1,7,76.35,5.23,5.23,0,0,1,3.69,75s3-1.75,4.52-1.28A10.42,10.42,0,0,1,11.17,75.26Z"/><path class="cls-2" d="M10.88,77.12a8,8,0,0,1-4.15.22A4.78,4.78,0,0,1,4,75.42s3.15-1.07,4.5-.33A9.56,9.56,0,0,1,10.88,77.12Z"/><path class="cls-2" d="M11.19,78.06a8.52,8.52,0,0,1-4.4.57,5.15,5.15,0,0,1-3.12-1.82s3.25-1.39,4.76-.71A10.47,10.47,0,0,1,11.19,78.06Z"/><path class="cls-2" d="M9.63,79A5.07,5.07,0,0,1,7,79.29,3,3,0,0,1,5.22,78.2s1.92-.8,2.8-.39A6.07,6.07,0,0,1,9.63,79Z"/><path class="cls-2" d="M9.74,79.89a5.09,5.09,0,0,1-2.61.62,3.2,3.2,0,0,1-2-.89S7,78.57,7.93,78.88A6.38,6.38,0,0,1,9.74,79.89Z"/><path class="cls-2" d="M12,81.17a10.13,10.13,0,0,1-5.16,1.28,6.41,6.41,0,0,1-4-1.76S6.51,78.6,8.42,79.2A13.07,13.07,0,0,1,12,81.17Z"/><path class="cls-2" d="M11.21,82.68a8.63,8.63,0,0,1-4.41.62,5.18,5.18,0,0,1-3.15-1.79s3.24-1.43,4.76-.77A10.51,10.51,0,0,1,11.21,82.68Z"/><path class="cls-2" d="M12,83.29A10.11,10.11,0,0,1,6.94,84.8a6.41,6.41,0,0,1-4.1-1.57S6.39,81,8.33,81.48A12.88,12.88,0,0,1,12,83.29Z"/><path class="cls-2" d="M10.32,85.12a6.74,6.74,0,0,1-3.48.19,4,4,0,0,1-2.31-1.6s2.63-.9,3.76-.29A8.2,8.2,0,0,1,10.32,85.12Z"/><path class="cls-2" d="M9.09,85.94a3.78,3.78,0,0,1-2,.14,2.29,2.29,0,0,1-1.34-.89s1.49-.54,2.15-.2A4.71,4.71,0,0,1,9.09,85.94Z"/><path class="cls-2" d="M9.58,86.87a4.82,4.82,0,0,1-2.43.57,2.93,2.93,0,0,1-1.87-.85s1.73-1,2.62-.67A6.16,6.16,0,0,1,9.58,86.87Z"/><path class="cls-2" d="M10.35,88.48a6.68,6.68,0,0,1-3.46.34A4,4,0,0,1,4.5,87.33s2.58-1,3.74-.45A8.07,8.07,0,0,1,10.35,88.48Z"/><path class="cls-2" d="M11.24,89.57a8.52,8.52,0,0,1-4.41.73,5.25,5.25,0,0,1-3.22-1.73s3.23-1.51,4.77-.88A10.54,10.54,0,0,1,11.24,89.57Z"/><path class="cls-2" d="M10.9,91.31a8.22,8.22,0,0,1-4.26,0A4.83,4.83,0,0,1,4,89.16s3.29-.9,4.62-.07A9.8,9.8,0,0,1,10.9,91.31Z"/><path class="cls-2" d="M10.62,91.83a7.21,7.21,0,0,1-3.7.59A4.38,4.38,0,0,1,4.24,91s2.7-1.25,4-.72A9.1,9.1,0,0,1,10.62,91.83Z"/><path class="cls-2" d="M10.19,92.79a6.14,6.14,0,0,1-3.14.67,3.83,3.83,0,0,1-2.38-1.14s2.26-1.19,3.39-.79A7.59,7.59,0,0,1,10.19,92.79Z"/><path class="cls-2" d="M11.19,94.49a8.58,8.58,0,0,1-4.46.42A5.17,5.17,0,0,1,3.66,93S7,91.68,8.49,92.41A10.52,10.52,0,0,1,11.19,94.49Z"/><path class="cls-2" d="M11.22,95.38a8.43,8.43,0,0,1-4.38.73,5.23,5.23,0,0,1-3.2-1.71s3.2-1.51,4.74-.89A10.73,10.73,0,0,1,11.22,95.38Z"/><path class="cls-2" d="M10.08,96.27a5.93,5.93,0,0,1-3,.64,3.63,3.63,0,0,1-2.28-1.09S7,94.67,8,95.06A7.65,7.65,0,0,1,10.08,96.27Z"/><path class="cls-2" d="M10.34,97.61A6.59,6.59,0,0,1,7,98.15a4,4,0,0,1-2.46-1.33S7,95.67,8.16,96.16A7.91,7.91,0,0,1,10.34,97.61Z"/><path class="cls-2" d="M10.7,98.79a7.35,7.35,0,0,1-3.78.64A4.52,4.52,0,0,1,4.16,98s2.75-1.3,4.08-.77A9,9,0,0,1,10.7,98.79Z"/><path class="cls-2" d="M10,99.74a5.79,5.79,0,0,1-3,.65,3.6,3.6,0,0,1-2.24-1.06S6.94,98.2,8,98.57A7.25,7.25,0,0,1,10,99.74Z"/><path class="cls-2" d="M11.84,101.84a10.31,10.31,0,0,1-5.32.24A6.1,6.1,0,0,1,3,99.59s4.05-1.33,5.77-.37A12.19,12.19,0,0,1,11.84,101.84Z"/><path class="cls-2" d="M10,102.09a5.8,5.8,0,0,1-3,.62,3.59,3.59,0,0,1-2.25-1.07S7,100.52,8,100.9A7.32,7.32,0,0,1,10,102.09Z"/><path class="cls-2" d="M11.31,104.1a9.1,9.1,0,0,1-4.71.13A5.35,5.35,0,0,1,3.54,102s3.6-1.12,5.1-.24A10.67,10.67,0,0,1,11.31,104.1Z"/><path class="cls-2" d="M10.84,104.89a7.83,7.83,0,0,1-4,.38A4.65,4.65,0,0,1,4,103.51s3-1.17,4.38-.5A9.37,9.37,0,0,1,10.84,104.89Z"/><path class="cls-2" d="M9.77,105.89a5.42,5.42,0,0,1-2.8.2,3.25,3.25,0,0,1-1.89-1.27s2.11-.76,3-.27A6.32,6.32,0,0,1,9.77,105.89Z"/><path class="cls-2" d="M9.88,105.86a4.74,4.74,0,0,1-2.3,1.1,3.16,3.16,0,0,1-2.1-.44S7,105.17,8,105.27A6.69,6.69,0,0,1,9.88,105.86Z"/><path class="cls-2" d="M9.31,107.09a2.45,2.45,0,0,1-1.21.57,1.63,1.63,0,0,1-1.1-.24s.79-.7,1.3-.64A3.54,3.54,0,0,1,9.31,107.09Z"/><path class="cls-2" d="M10.74,107.56a4.61,4.61,0,0,1-2,1.56,3.26,3.26,0,0,1-2.19,0s1.16-1.65,2.15-1.75A6.86,6.86,0,0,1,10.74,107.56Z"/><path class="cls-2" d="M13.51,108.07a9.5,9.5,0,0,1-4.3,3,6.73,6.73,0,0,1-4.45-.25s2.58-3.22,4.6-3.32A13.63,13.63,0,0,1,13.51,108.07Z"/><path class="cls-2" d="M11.05,110.29a3,3,0,0,1-1.53.7,2.11,2.11,0,0,1-1.38-.31s1-.87,1.65-.8A4.21,4.21,0,0,1,11.05,110.29Z"/><path class="cls-2" d="M13.65,111a7.71,7.71,0,0,1-3.71,1.82,5.21,5.21,0,0,1-3.41-.69s2.41-2.2,4-2A10.44,10.44,0,0,1,13.65,111Z"/><path class="cls-2" d="M12.85,112.33a5,5,0,0,1-2.4,1.11A3.31,3.31,0,0,1,8.28,113s1.58-1.37,2.58-1.25A6.81,6.81,0,0,1,12.85,112.33Z"/><path class="cls-2" d="M14.91,113.44a8.37,8.37,0,0,1-4.15,1.62,5.49,5.49,0,0,1-3.57-1s2.8-2.15,4.47-1.84A11,11,0,0,1,14.91,113.44Z"/><path class="cls-2" d="M15.48,113.54a8.64,8.64,0,0,1-3.86,2.72,6.06,6.06,0,0,1-4-.2s2.3-2.93,4.12-3A12.23,12.23,0,0,1,15.48,113.54Z"/><path class="cls-2" d="M13.92,115.72a4.13,4.13,0,0,1-2.06.8,2.66,2.66,0,0,1-1.77-.51s1.38-1.07,2.21-.92A5.49,5.49,0,0,1,13.92,115.72Z"/><path class="cls-2" d="M13.89,116.48a3,3,0,0,1-1.37,1,2.17,2.17,0,0,1-1.44-.06s.82-1,1.47-1.09A4.25,4.25,0,0,1,13.89,116.48Z"/><path class="cls-2" d="M13.94,115.32a4.2,4.2,0,0,1-.34,2.5A3.11,3.11,0,0,1,12,119.23s-.37-2,.3-2.71A6.36,6.36,0,0,1,13.94,115.32Z"/><path class="cls-2" d="M14.77,116.4a2.82,2.82,0,0,1-.22,1.69,2.14,2.14,0,0,1-1.13,1s-.25-1.36.21-1.84A4.16,4.16,0,0,1,14.77,116.4Z"/><path class="cls-2" d="M16.19,117.1a2.77,2.77,0,0,1-.61,1.5,2.09,2.09,0,0,1-1.26.64s.1-1.28.63-1.64A4.17,4.17,0,0,1,16.19,117.1Z"/><path class="cls-2" d="M18.15,115.57a6.64,6.64,0,0,1-.7,3.94,5,5,0,0,1-2.72,2.15s-.46-3.19.66-4.29A10.17,10.17,0,0,1,18.15,115.57Z"/><path class="cls-2" d="M19.12,116a6.55,6.55,0,0,1-.49,3.87,4.79,4.79,0,0,1-2.55,2.2s-.59-3.09.44-4.2A9.83,9.83,0,0,1,19.12,116Z"/><path class="cls-2" d="M20.05,117.9a4,4,0,0,1-.81,2.21,3,3,0,0,1-1.79,1s.06-1.89.82-2.42A6.07,6.07,0,0,1,20.05,117.9Z"/><path class="cls-2" d="M20.68,119a2.44,2.44,0,0,1-.47,1.36,1.84,1.84,0,0,1-1.09.62s0-1.15.48-1.48A3.92,3.92,0,0,1,20.68,119Z"/><path class="cls-2" d="M22.38,118.7A4.11,4.11,0,0,1,21.6,121a3.1,3.1,0,0,1-1.84,1.08s0-2,.79-2.54A6.4,6.4,0,0,1,22.38,118.7Z"/><path class="cls-2" d="M23.56,119.34a3.85,3.85,0,0,1-.88,2.11,2.91,2.91,0,0,1-1.78.9s.15-1.82.9-2.31A6.05,6.05,0,0,1,23.56,119.34Z"/><path class="cls-2" d="M24.74,119.2a4.82,4.82,0,0,1-.67,2.76,3.57,3.57,0,0,1-2,1.41s-.17-2.27.66-3A7.44,7.44,0,0,1,24.74,119.2Z"/><path class="cls-2" d="M25,120.84a1.86,1.86,0,0,1-.1,1.12,1.39,1.39,0,0,1-.72.66s-.2-.89.09-1.22A2.92,2.92,0,0,1,25,120.84Z"/><path class="cls-2" d="M26,118.08a7.6,7.6,0,0,1,.95,4.39A5.17,5.17,0,0,1,25,125.73s-1.84-3.19-1.14-4.75A10.64,10.64,0,0,1,26,118.08Z"/><path class="cls-2" d="M26.73,118a7.87,7.87,0,0,1,1.56,4.36,5.21,5.21,0,0,1-1.53,3.54s-2.31-3-1.81-4.7A10.8,10.8,0,0,1,26.73,118Z"/><path class="cls-2" d="M28.53,119a5.87,5.87,0,0,1,.57,3.45,4.06,4.06,0,0,1-1.64,2.47s-1.31-2.54-.7-3.73A8.33,8.33,0,0,1,28.53,119Z"/><path class="cls-2" d="M29.49,120.5a2.82,2.82,0,0,1,.27,1.65,1.94,1.94,0,0,1-.78,1.18s-.63-1.22-.34-1.79A3.91,3.91,0,0,1,29.49,120.5Z"/><path class="cls-2" d="M31.13,118.14a7.46,7.46,0,0,1,.8,4.37,5.14,5.14,0,0,1-2,3.17s-1.72-3.21-1-4.73A10.43,10.43,0,0,1,31.13,118.14Z"/><path class="cls-2" d="M32.54,117.83a8.12,8.12,0,0,1,.75,4.76A5.6,5.6,0,0,1,31,126s-1.78-3.51-.93-5.15A11.59,11.59,0,0,1,32.54,117.83Z"/><path class="cls-2" d="M33.62,119.77a4.27,4.27,0,0,1,.17,2.57,3.06,3.06,0,0,1-1.39,1.72s-.77-2-.24-2.79A6.28,6.28,0,0,1,33.62,119.77Z"/><path class="cls-2" d="M34.34,120.94a2,2,0,0,1,.29,1.1,1.28,1.28,0,0,1-.45.85s-.51-.79-.35-1.19A2.58,2.58,0,0,1,34.34,120.94Z"/><path class="cls-2" d="M36.47,118.65a6.55,6.55,0,0,1,.25,3.91,4.64,4.64,0,0,1-2.11,2.61s-1.18-3-.37-4.24A9.5,9.5,0,0,1,36.47,118.65Z"/><path class="cls-2" d="M37.54,119.83a4.28,4.28,0,0,1,0,2.56A3.1,3.1,0,0,1,36,124s-.63-2-.05-2.78A6.29,6.29,0,0,1,37.54,119.83Z"/><path class="cls-2" d="M38,119.36a5.09,5.09,0,0,1,1,2.81,3.35,3.35,0,0,1-1,2.28s-1.47-2-1.15-3A7,7,0,0,1,38,119.36Z"/><path class="cls-2" d="M39.53,120.58a2.6,2.6,0,0,1,.25,1.55,1.84,1.84,0,0,1-.73,1.12s-.59-1.15-.32-1.69A3.76,3.76,0,0,1,39.53,120.58Z"/><path class="cls-2" d="M40.88,120.53a2.74,2.74,0,0,1,.17,1.64,2,2,0,0,1-.84,1.12s-.54-1.22-.22-1.77A3.82,3.82,0,0,1,40.88,120.53Z"/><path class="cls-2" d="M41.8,120.42a3,3,0,0,1,.59,1.65,1.94,1.94,0,0,1-.59,1.33s-.86-1.14-.67-1.77A3.91,3.91,0,0,1,41.8,120.42Z"/><path class="cls-2" d="M43.5,120.24a3.38,3.38,0,0,1,.17,2,2.39,2.39,0,0,1-1.05,1.35s-.63-1.51-.23-2.17A4.81,4.81,0,0,1,43.5,120.24Z"/><path class="cls-2" d="M44.39,118.51a6.82,6.82,0,0,1,1.27,3.77,4.49,4.49,0,0,1-1.39,3s-1.92-2.64-1.46-4.07A9.26,9.26,0,0,1,44.39,118.51Z"/><path class="cls-2" d="M46.16,119.38a5.08,5.08,0,0,1,.36,3A3.56,3.56,0,0,1,45,124.44s-1-2.23-.46-3.24A7.4,7.4,0,0,1,46.16,119.38Z"/><path class="cls-2" d="M47.39,118.41a6.87,6.87,0,0,1,.77,4,4.73,4.73,0,0,1-1.85,3s-1.61-3-.94-4.37A9.83,9.83,0,0,1,47.39,118.41Z"/><path class="cls-2" d="M48.29,121a1.83,1.83,0,0,1,.12,1.06,1.26,1.26,0,0,1-.53.73s-.37-.79-.16-1.15A2.6,2.6,0,0,1,48.29,121Z"/><path class="cls-2" d="M50.56,118.27a7.36,7.36,0,0,1,.11,4.42,5.3,5.3,0,0,1-2.49,2.86s-1.2-3.39-.23-4.79A11,11,0,0,1,50.56,118.27Z"/><path class="cls-2" d="M51.23,118a7.75,7.75,0,0,1,.87,4.54A5.38,5.38,0,0,1,50,125.84s-1.82-3.33-1.06-4.92A11,11,0,0,1,51.23,118Z"/><path class="cls-2" d="M52.2,120.67a2.44,2.44,0,0,1,.1,1.49,1.76,1.76,0,0,1-.79,1s-.45-1.12-.15-1.61A3.91,3.91,0,0,1,52.2,120.67Z"/><path class="cls-2" d="M53.13,119.34a5.11,5.11,0,0,1,1,2.84,3.35,3.35,0,0,1-1,2.29s-1.49-2-1.16-3A6.81,6.81,0,0,1,53.13,119.34Z"/><path class="cls-2" d="M54.69,120.9a2.08,2.08,0,0,1,0,1.23,1.43,1.43,0,0,1-.68.8S53.7,122,54,121.6A2.83,2.83,0,0,1,54.69,120.9Z"/><path class="cls-2" d="M55.63,118.78a6.26,6.26,0,0,1,1.24,3.45,4.13,4.13,0,0,1-1.22,2.8s-1.82-2.4-1.42-3.72A8.29,8.29,0,0,1,55.63,118.78Z"/><path class="cls-2" d="M56.92,120.45a2.87,2.87,0,0,1,.53,1.62,1.89,1.89,0,0,1-.6,1.3s-.82-1.14-.62-1.75A4,4,0,0,1,56.92,120.45Z"/><path class="cls-2" d="M58.64,120.24a3.41,3.41,0,0,1,.11,2,2.45,2.45,0,0,1-1.1,1.33s-.59-1.54-.17-2.19A5.1,5.1,0,0,1,58.64,120.24Z"/><path class="cls-2" d="M59.91,120.46a3,3,0,0,1,0,1.78,2.11,2.11,0,0,1-1,1.13s-.45-1.37,0-1.93A4.35,4.35,0,0,1,59.91,120.46Z"/><path class="cls-2" d="M61.92,117.85a8.26,8.26,0,0,1,.23,4.9,5.82,5.82,0,0,1-2.7,3.22s-1.41-3.73-.37-5.31A12,12,0,0,1,61.92,117.85Z"/><path class="cls-2" d="M62.06,118.82a6.08,6.08,0,0,1,1.06,3.45A4.06,4.06,0,0,1,61.79,125s-1.69-2.44-1.23-3.73A8.28,8.28,0,0,1,62.06,118.82Z"/><path class="cls-2" d="M64,119.75a4.48,4.48,0,0,1,0,2.66,3.2,3.2,0,0,1-1.55,1.67s-.65-2.06,0-2.89A6.69,6.69,0,0,1,64,119.75Z"/><path class="cls-2" d="M64.56,119.56a4.63,4.63,0,0,1,.78,2.64,3.11,3.11,0,0,1-1,2.06s-1.27-1.87-.92-2.85A6.44,6.44,0,0,1,64.56,119.56Z"/><path class="cls-2" d="M66.16,117.85a8.06,8.06,0,0,1,1.09,4.63,5.46,5.46,0,0,1-2,3.48s-2-3.34-1.3-5A11.18,11.18,0,0,1,66.16,117.85Z"/><path class="cls-2" d="M68.4,117.85a8.32,8.32,0,0,1,0,5A6,6,0,0,1,65.54,126s-1.26-3.83-.13-5.39A12.2,12.2,0,0,1,68.4,117.85Z"/><path class="cls-2" d="M69.09,119a5.92,5.92,0,0,1,.17,3.51,4.18,4.18,0,0,1-1.93,2.31s-1-2.67-.27-3.8A8.66,8.66,0,0,1,69.09,119Z"/><path class="cls-2" d="M69.74,120.74a2.31,2.31,0,0,1,.14,1.39,1.63,1.63,0,0,1-.72,1s-.46-1-.19-1.51A3.44,3.44,0,0,1,69.74,120.74Z"/><path class="cls-2" d="M71.21,119.23a5.31,5.31,0,0,1,.51,3.12,3.71,3.71,0,0,1-1.49,2.24s-1.17-2.3-.62-3.38A7.62,7.62,0,0,1,71.21,119.23Z"/><path class="cls-2" d="M72.3,118.7a6.35,6.35,0,0,1,.91,3.65,4.32,4.32,0,0,1-1.55,2.76s-1.61-2.62-1.07-3.94A8.9,8.9,0,0,1,72.3,118.7Z"/><path class="cls-2" d="M74.13,119.26a5.39,5.39,0,0,1,.05,3.23,3.86,3.86,0,0,1-1.83,2.08s-.86-2.49-.14-3.51A7.92,7.92,0,0,1,74.13,119.26Z"/><path class="cls-2" d="M74.84,119.35a5.1,5.1,0,0,1,.62,2.94,3.49,3.49,0,0,1-1.31,2.18s-1.22-2.14-.75-3.18A6.94,6.94,0,0,1,74.84,119.35Z"/><path class="cls-2" d="M76.38,119.74a4.39,4.39,0,0,1,.15,2.61,3.09,3.09,0,0,1-1.41,1.73s-.78-2-.24-2.83A6.63,6.63,0,0,1,76.38,119.74Z"/><path class="cls-2" d="M77.83,119.09a5.68,5.68,0,0,1,.2,3.39,4.06,4.06,0,0,1-1.84,2.25s-1-2.58-.3-3.67A8.49,8.49,0,0,1,77.83,119.09Z"/><path class="cls-2" d="M78.54,119.84a4.07,4.07,0,0,1,.5,2.38A2.8,2.8,0,0,1,78,124s-1-1.73-.61-2.57A5.79,5.79,0,0,1,78.54,119.84Z"/><path class="cls-2" d="M79.74,119.29a5.16,5.16,0,0,1,.78,3,3.47,3.47,0,0,1-1.22,2.27s-1.35-2.13-.92-3.21A7,7,0,0,1,79.74,119.29Z"/><path class="cls-2" d="M80.81,119.07a5.68,5.68,0,0,1,1.07,3.14,3.73,3.73,0,0,1-1.13,2.53s-1.63-2.19-1.25-3.39A7.75,7.75,0,0,1,80.81,119.07Z"/><path class="cls-2" d="M82.91,119.17a5.62,5.62,0,0,1,.11,3.32,4,4,0,0,1-1.85,2.16s-.93-2.54-.21-3.6A8.23,8.23,0,0,1,82.91,119.17Z"/><path class="cls-2" d="M83.91,118.45a6.86,6.86,0,0,1,.68,4,4.73,4.73,0,0,1-1.9,2.89s-1.54-3-.84-4.35A9.78,9.78,0,0,1,83.91,118.45Z"/><path class="cls-2" d="M84.84,120.19a3.45,3.45,0,0,1,.34,2,2.37,2.37,0,0,1-1,1.44s-.76-1.47-.41-2.16A4.86,4.86,0,0,1,84.84,120.19Z"/><path class="cls-2" d="M87.23,117.92a8.2,8.2,0,0,1,0,4.88,5.85,5.85,0,0,1-2.83,3.1s-1.23-3.76-.13-5.3A12.14,12.14,0,0,1,87.23,117.92Z"/><path class="cls-2" d="M87.48,118a7.84,7.84,0,0,1,1.09,4.48,5.26,5.26,0,0,1-1.9,3.39s-2-3.23-1.3-4.84A10.72,10.72,0,0,1,87.48,118Z"/><path class="cls-2" d="M88.4,119.15a5.45,5.45,0,0,1,1,3.07,3.63,3.63,0,0,1-1.16,2.44s-1.53-2.16-1.14-3.31A7.48,7.48,0,0,1,88.4,119.15Z"/><path class="cls-2" d="M90,120.39a3.11,3.11,0,0,1,.12,1.83,2.16,2.16,0,0,1-1,1.22s-.55-1.39-.17-2A4.59,4.59,0,0,1,90,120.39Z"/><path class="cls-2" d="M91.56,119.59a4.71,4.71,0,0,1,.1,2.81,3.31,3.31,0,0,1-1.56,1.84s-.79-2.15-.18-3A6.67,6.67,0,0,1,91.56,119.59Z"/><path class="cls-2" d="M92.8,119.78a4.39,4.39,0,0,1,0,2.6,3.15,3.15,0,0,1-1.48,1.67s-.69-2-.12-2.82A6.56,6.56,0,0,1,92.8,119.78Z"/><path class="cls-2" d="M94.52,118a7.92,7.92,0,0,1,.25,4.71,5.64,5.64,0,0,1-2.57,3.11s-1.38-3.58-.39-5.11A11.78,11.78,0,0,1,94.52,118Z"/><path class="cls-2" d="M94.66,120.42a3,3,0,0,1,.5,1.67,1.94,1.94,0,0,1-.64,1.31s-.81-1.18-.59-1.8A4.09,4.09,0,0,1,94.66,120.42Z"/><path class="cls-2" d="M96.7,118.41a7,7,0,0,1,.45,4.14A4.9,4.9,0,0,1,95,125.41s-1.4-3.1-.6-4.49A10,10,0,0,1,96.7,118.41Z"/><path class="cls-2" d="M98,117.72a8.3,8.3,0,0,1,.69,4.91,5.78,5.78,0,0,1-2.41,3.46s-1.77-3.64-.87-5.32A12,12,0,0,1,98,117.72Z"/><path class="cls-2" d="M99.57,118.16a7.55,7.55,0,0,1,.16,4.54,5.4,5.4,0,0,1-2.53,3s-1.27-3.47-.29-4.92A11.09,11.09,0,0,1,99.57,118.16Z"/><path class="cls-2" d="M99.9,118.11a7.51,7.51,0,0,1,1.2,4.28,5,5,0,0,1-1.72,3.3s-2-3-1.4-4.61A10.36,10.36,0,0,1,99.9,118.11Z"/><path class="cls-2" d="M101.23,120.64a2.56,2.56,0,0,1,.1,1.53,1.79,1.79,0,0,1-.81,1s-.47-1.16-.16-1.66A4,4,0,0,1,101.23,120.64Z"/><path class="cls-2" d="M102.32,120.28a3.22,3.22,0,0,1,.43,1.87,2.2,2.2,0,0,1-.81,1.39s-.8-1.35-.51-2A4.56,4.56,0,0,1,102.32,120.28Z"/><rect class="cls-3" x="18" y="26.39" width="94" height="15.61" rx="7.8"/><rect class="cls-4" x="94.11" y="36.09" width="2.82" height="2.82" transform="translate(54.49 -56.56) rotate(45)"/><rect class="cls-5" x="81.02" y="35.38" width="2.82" height="2.82" transform="translate(50.15 -47.51) rotate(45)"/><rect class="cls-4" x="68.09" y="31.09" width="1.33" height="1.33" transform="translate(42.59 -39.32) rotate(45)"/><rect class="cls-5" x="97.29" y="30.09" width="2.82" height="2.82" transform="translate(51.18 -60.56) rotate(45)"/><rect class="cls-4" x="53.11" y="33.2" width="2.82" height="2.82" transform="translate(40.44 -28.41) rotate(45)"/><rect class="cls-4" x="35.15" y="29.27" width="2.82" height="2.82" transform="translate(32.4 -16.87) rotate(45)"/><rect class="cls-4" x="23.52" y="35.55" width="2.82" height="2.82" transform="translate(33.43 -6.8) rotate(45)"/><rect class="cls-5" x="42.66" y="37.31" width="1.33" height="1.33" transform="translate(39.54 -19.52) rotate(45)"/><rect class="cls-6" x="18" y="58.39" width="94" height="15.61" rx="7.8" transform="translate(130 132.39) rotate(-180)"/><rect class="cls-4" x="33.08" y="68.09" width="2.82" height="2.82" transform="translate(108.01 94.26) rotate(135)"/><rect class="cls-5" x="46.17" y="67.38" width="2.82" height="2.82" transform="translate(129.86 83.79) rotate(135)"/><rect class="cls-4" x="60.58" y="63.09" width="1.33" height="1.33" transform="translate(149.63 65.54) rotate(135)"/><rect class="cls-5" x="29.89" y="62.09" width="2.82" height="2.82" transform="translate(98.34 86.27) rotate(135)"/><rect class="cls-4" x="74.08" y="65.2" width="2.82" height="2.82" transform="translate(175.96 60.33) rotate(135)"/><rect class="cls-4" x="92.03" y="61.27" width="2.82" height="2.82" transform="translate(203.83 40.93) rotate(135)"/><rect class="cls-4" x="103.67" y="67.55" width="2.82" height="2.82" transform="translate(228.13 43.41) rotate(135)"/><rect class="cls-5" x="86.01" y="69.31" width="1.33" height="1.33" transform="translate(197.43 58.16) rotate(135)"/><rect class="cls-7" x="18" y="91.39" width="94" height="15.61" rx="7.8"/><rect class="cls-4" x="94.11" y="101.09" width="2.82" height="2.82" transform="translate(100.45 -37.52) rotate(45)"/><rect class="cls-5" x="81.02" y="100.38" width="2.82" height="2.82" transform="translate(96.12 -28.47) rotate(45)"/><rect class="cls-4" x="68.09" y="96.09" width="1.33" height="1.33" transform="translate(88.56 -20.28) rotate(45)"/><rect class="cls-5" x="97.29" y="95.09" width="2.82" height="2.82" transform="translate(97.14 -41.53) rotate(45)"/><rect class="cls-4" x="53.11" y="98.2" width="2.82" height="2.82" transform="translate(86.4 -9.37) rotate(45)"/><rect class="cls-4" x="35.15" y="94.27" width="2.82" height="2.82" transform="translate(78.37 2.17) rotate(45)"/><rect class="cls-4" x="23.52" y="100.55" width="2.82" height="2.82" transform="translate(79.39 12.24) rotate(45)"/><rect class="cls-5" x="42.66" y="102.31" width="1.33" height="1.33" transform="translate(85.5 -0.48) rotate(45)"/><rect class="cls-8" x="99.63" y="24.29" width="1.25" height="11.39" rx="0.63"/><path class="cls-9" d="M101.2,35.21h-.45l6.73-6.8v.45A6.31,6.31,0,0,1,101.2,35.21Z"/><path class="cls-8" d="M100.75,35.21v-.45A6.31,6.31,0,0,1,107,28.41h.45Z"/><path class="cls-9" d="M99.32,35.21h.45L93,28.41v.45A6.31,6.31,0,0,0,99.32,35.21Z"/><path class="cls-8" d="M99.77,35.21v-.45a6.31,6.31,0,0,0-6.28-6.35H93Z"/><circle class="cls-8" cx="100.17" cy="22.05" r="3.49"/><path class="cls-10" d="M100.52,5s-4.74,3.46-4.79,7.79,3.89,7.49,3.89,7.49,4.39-2.91,4.84-7.22S100.52,5,100.52,5Z"/><path class="cls-11" d="M107.15,9.23s-5.74,1.26-7.53,5.2.54,8.42.54,8.42,5.2-.89,7.35-4.66S107.15,9.23,107.15,9.23Z"/><path class="cls-12" d="M93.36,9.23s5.74,1.26,7.53,5.2-.54,8.42-.54,8.42S95.15,22,93,18.19,93.36,9.23,93.36,9.23Z"/><rect class="cls-8" x="82.17" y="24.29" width="1.25" height="11.39" rx="0.63"/><path class="cls-9" d="M83.74,35.21h-.45L90,28.41v.45A6.31,6.31,0,0,1,83.74,35.21Z"/><path class="cls-8" d="M83.29,35.21v-.45a6.31,6.31,0,0,1,6.28-6.35H90Z"/><path class="cls-9" d="M81.86,35.21h.45l-6.73-6.8v.45A6.31,6.31,0,0,0,81.86,35.21Z"/><path class="cls-8" d="M82.31,35.21v-.45A6.31,6.31,0,0,0,76,28.41h-.45Z"/><circle class="cls-8" cx="82.71" cy="22.05" r="3.49"/><path class="cls-10" d="M83.06,5s-4.74,3.46-4.79,7.79,3.89,7.49,3.89,7.49,4.39-2.91,4.84-7.22S83.06,5,83.06,5Z"/><path class="cls-11" d="M89.69,9.23s-5.74,1.26-7.53,5.2.54,8.42.54,8.42S87.89,22,90,18.19,89.69,9.23,89.69,9.23Z"/><path class="cls-12" d="M75.9,9.23s5.73,1.26,7.53,5.2-.54,8.42-.54,8.42-5.2-.89-7.35-4.66S75.9,9.23,75.9,9.23Z"/><rect class="cls-8" x="65.21" y="24.29" width="1.25" height="11.39" rx="0.63"/><path class="cls-9" d="M66.77,35.21h-.45l6.73-6.8v.45A6.31,6.31,0,0,1,66.77,35.21Z"/><path class="cls-8" d="M66.32,35.21v-.45a6.31,6.31,0,0,1,6.28-6.35h.45Z"/><path class="cls-9" d="M64.9,35.21h.44l-6.72-6.8v.45A6.31,6.31,0,0,0,64.9,35.21Z"/><path class="cls-8" d="M65.34,35.21v-.45a6.31,6.31,0,0,0-6.28-6.35h-.44Z"/><circle class="cls-8" cx="65.75" cy="22.05" r="3.49"/><path class="cls-10" d="M66.09,5s-4.74,3.46-4.79,7.79,3.89,7.49,3.89,7.49,4.4-2.91,4.85-7.22S66.09,5,66.09,5Z"/><path class="cls-11" d="M72.72,9.23s-5.73,1.26-7.53,5.2.54,8.42.54,8.42,5.2-.89,7.35-4.66S72.72,9.23,72.72,9.23Z"/><path class="cls-12" d="M58.93,9.23s5.74,1.26,7.53,5.2-.54,8.42-.54,8.42-5.19-.89-7.34-4.66S58.93,9.23,58.93,9.23Z"/><rect class="cls-8" x="29.63" y="24.29" width="1.25" height="11.39" rx="0.63"/><path class="cls-9" d="M31.2,35.21h-.45l6.73-6.8v.45A6.31,6.31,0,0,1,31.2,35.21Z"/><path class="cls-8" d="M30.75,35.21v-.45A6.31,6.31,0,0,1,37,28.41h.45Z"/><path class="cls-9" d="M29.32,35.21h.45L23,28.41v.45A6.31,6.31,0,0,0,29.32,35.21Z"/><path class="cls-8" d="M29.77,35.21v-.45a6.31,6.31,0,0,0-6.28-6.35H23Z"/><circle class="cls-8" cx="30.17" cy="22.05" r="3.49"/><path class="cls-10" d="M30.52,5s-4.74,3.46-4.79,7.79,3.89,7.49,3.89,7.49,4.39-2.91,4.84-7.22S30.52,5,30.52,5Z"/><path class="cls-11" d="M37.15,9.23s-5.74,1.26-7.53,5.2.54,8.42.54,8.42,5.2-.89,7.35-4.66S37.15,9.23,37.15,9.23Z"/><path class="cls-12" d="M23.36,9.23s5.74,1.26,7.53,5.2-.54,8.42-.54,8.42S25.15,22,23,18.19,23.36,9.23,23.36,9.23Z"/><rect class="cls-8" x="47.63" y="24.29" width="1.25" height="11.39" rx="0.63"/><path class="cls-9" d="M49.2,35.21h-.45l6.73-6.8v.45A6.31,6.31,0,0,1,49.2,35.21Z"/><path class="cls-8" d="M48.75,35.21v-.45A6.31,6.31,0,0,1,55,28.41h.45Z"/><path class="cls-9" d="M47.32,35.21h.45L41,28.41v.45A6.31,6.31,0,0,0,47.32,35.21Z"/><path class="cls-8" d="M47.77,35.21v-.45a6.31,6.31,0,0,0-6.28-6.35H41Z"/><circle class="cls-8" cx="48.17" cy="22.05" r="3.49"/><path class="cls-10" d="M48.52,5s-4.74,3.46-4.79,7.79,3.89,7.49,3.89,7.49,4.39-2.91,4.84-7.22S48.52,5,48.52,5Z"/><path class="cls-11" d="M55.15,9.23s-5.74,1.26-7.53,5.2.54,8.42.54,8.42,5.2-.89,7.35-4.66S55.15,9.23,55.15,9.23Z"/><path class="cls-12" d="M41.36,9.23s5.74,1.26,7.53,5.2-.54,8.42-.54,8.42S43.15,22,41,18.19,41.36,9.23,41.36,9.23Z"/><rect class="cls-8" x="99.63" y="57.29" width="1.25" height="11.39" rx="0.63"/><path class="cls-9" d="M101.2,68.21h-.45l6.73-6.8v.45A6.31,6.31,0,0,1,101.2,68.21Z"/><path class="cls-8" d="M100.75,68.21v-.45A6.31,6.31,0,0,1,107,61.41h.45Z"/><path class="cls-9" d="M99.32,68.21h.45L93,61.41v.45A6.31,6.31,0,0,0,99.32,68.21Z"/><path class="cls-8" d="M99.77,68.21v-.45a6.31,6.31,0,0,0-6.28-6.35H93Z"/><circle class="cls-8" cx="100.17" cy="55.05" r="3.49"/><path class="cls-13" d="M100.52,38s-4.74,3.46-4.79,7.79,3.89,7.49,3.89,7.49,4.39-2.91,4.84-7.22S100.52,38,100.52,38Z"/><path class="cls-14" d="M107.15,42.23s-5.74,1.26-7.53,5.2.54,8.42.54,8.42,5.2-.89,7.35-4.66S107.15,42.23,107.15,42.23Z"/><path class="cls-15" d="M93.36,42.23s5.74,1.26,7.53,5.2-.54,8.42-.54,8.42S95.15,55,93,51.19,93.36,42.23,93.36,42.23Z"/><rect class="cls-8" x="81.63" y="57.29" width="1.25" height="11.39" rx="0.63"/><path class="cls-9" d="M83.2,68.21h-.45l6.73-6.8v.45A6.31,6.31,0,0,1,83.2,68.21Z"/><path class="cls-8" d="M82.75,68.21v-.45A6.31,6.31,0,0,1,89,61.41h.45Z"/><path class="cls-9" d="M81.32,68.21h.45L75,61.41v.45A6.31,6.31,0,0,0,81.32,68.21Z"/><path class="cls-8" d="M81.77,68.21v-.45a6.31,6.31,0,0,0-6.28-6.35H75Z"/><circle class="cls-8" cx="82.17" cy="55.05" r="3.49"/><path class="cls-13" d="M82.52,38s-4.74,3.46-4.79,7.79,3.89,7.49,3.89,7.49,4.39-2.91,4.84-7.22S82.52,38,82.52,38Z"/><path class="cls-14" d="M89.15,42.23s-5.74,1.26-7.53,5.2.54,8.42.54,8.42,5.2-.89,7.35-4.66S89.15,42.23,89.15,42.23Z"/><path class="cls-15" d="M75.36,42.23s5.74,1.26,7.53,5.2-.54,8.42-.54,8.42S77.15,55,75,51.19,75.36,42.23,75.36,42.23Z"/><rect class="cls-8" x="64.63" y="57.29" width="1.25" height="11.39" rx="0.63"/><path class="cls-9" d="M66.2,68.21h-.45l6.73-6.8v.45A6.31,6.31,0,0,1,66.2,68.21Z"/><path class="cls-8" d="M65.75,68.21v-.45A6.31,6.31,0,0,1,72,61.41h.45Z"/><path class="cls-9" d="M64.32,68.21h.45L58,61.41v.45A6.31,6.31,0,0,0,64.32,68.21Z"/><path class="cls-8" d="M64.77,68.21v-.45a6.31,6.31,0,0,0-6.28-6.35H58Z"/><circle class="cls-8" cx="65.17" cy="55.05" r="3.49"/><path class="cls-13" d="M65.52,38s-4.74,3.46-4.79,7.79,3.89,7.49,3.89,7.49,4.39-2.91,4.84-7.22S65.52,38,65.52,38Z"/><path class="cls-14" d="M72.15,42.23s-5.74,1.26-7.53,5.2.54,8.42.54,8.42,5.2-.89,7.35-4.66S72.15,42.23,72.15,42.23Z"/><path class="cls-15" d="M58.36,42.23s5.74,1.26,7.53,5.2-.54,8.42-.54,8.42S60.15,55,58,51.19,58.36,42.23,58.36,42.23Z"/><rect class="cls-8" x="46.63" y="57.29" width="1.25" height="11.39" rx="0.63"/><path class="cls-9" d="M48.2,68.21h-.45l6.73-6.8v.45A6.31,6.31,0,0,1,48.2,68.21Z"/><path class="cls-8" d="M47.75,68.21v-.45A6.31,6.31,0,0,1,54,61.41h.45Z"/><path class="cls-9" d="M46.32,68.21h.45L40,61.41v.45A6.31,6.31,0,0,0,46.32,68.21Z"/><path class="cls-8" d="M46.77,68.21v-.45a6.31,6.31,0,0,0-6.28-6.35H40Z"/><circle class="cls-8" cx="47.17" cy="55.05" r="3.49"/><path class="cls-13" d="M47.52,38s-4.74,3.46-4.79,7.79,3.89,7.49,3.89,7.49,4.39-2.91,4.84-7.22S47.52,38,47.52,38Z"/><path class="cls-14" d="M54.15,42.23s-5.74,1.26-7.53,5.2.54,8.42.54,8.42,5.2-.89,7.35-4.66S54.15,42.23,54.15,42.23Z"/><path class="cls-15" d="M40.36,42.23s5.74,1.26,7.53,5.2-.54,8.42-.54,8.42S42.15,55,40,51.19,40.36,42.23,40.36,42.23Z"/><rect class="cls-8" x="29.63" y="57.29" width="1.25" height="11.39" rx="0.63"/><path class="cls-9" d="M31.2,68.21h-.45l6.73-6.8v.45A6.31,6.31,0,0,1,31.2,68.21Z"/><path class="cls-8" d="M30.75,68.21v-.45A6.31,6.31,0,0,1,37,61.41h.45Z"/><path class="cls-9" d="M29.32,68.21h.45L23,61.41v.45A6.31,6.31,0,0,0,29.32,68.21Z"/><path class="cls-8" d="M29.77,68.21v-.45a6.31,6.31,0,0,0-6.28-6.35H23Z"/><circle class="cls-8" cx="30.17" cy="55.05" r="3.49"/><path class="cls-13" d="M30.52,38s-4.74,3.46-4.79,7.79,3.89,7.49,3.89,7.49,4.39-2.91,4.84-7.22S30.52,38,30.52,38Z"/><path class="cls-14" d="M37.15,42.23s-5.74,1.26-7.53,5.2.54,8.42.54,8.42,5.2-.89,7.35-4.66S37.15,42.23,37.15,42.23Z"/><path class="cls-15" d="M23.36,42.23s5.74,1.26,7.53,5.2-.54,8.42-.54,8.42S25.15,55,23,51.19,23.36,42.23,23.36,42.23Z"/><rect class="cls-8" x="99.63" y="90.29" width="1.25" height="11.39" rx="0.63"/><path class="cls-9" d="M101.2,101.21h-.45l6.73-6.8v.45A6.31,6.31,0,0,1,101.2,101.21Z"/><path class="cls-8" d="M100.75,101.21v-.45A6.31,6.31,0,0,1,107,94.41h.45Z"/><path class="cls-9" d="M99.32,101.21h.45L93,94.41v.45A6.31,6.31,0,0,0,99.32,101.21Z"/><path class="cls-8" d="M99.77,101.21v-.45a6.31,6.31,0,0,0-6.28-6.35H93Z"/><circle class="cls-8" cx="100.17" cy="88.05" r="3.49"/><path class="cls-16" d="M100.52,71s-4.74,3.46-4.79,7.79,3.89,7.49,3.89,7.49,4.39-2.91,4.84-7.22S100.52,71,100.52,71Z"/><path class="cls-17" d="M107.15,75.23s-5.74,1.26-7.53,5.2.54,8.42.54,8.42,5.2-.89,7.35-4.66S107.15,75.23,107.15,75.23Z"/><path class="cls-18" d="M93.36,75.23s5.74,1.26,7.53,5.2-.54,8.42-.54,8.42S95.15,88,93,84.19,93.36,75.23,93.36,75.23Z"/><rect class="cls-8" x="81.63" y="90.29" width="1.25" height="11.39" rx="0.63"/><path class="cls-9" d="M83.2,101.21h-.45l6.73-6.8v.45A6.31,6.31,0,0,1,83.2,101.21Z"/><path class="cls-8" d="M82.75,101.21v-.45A6.31,6.31,0,0,1,89,94.41h.45Z"/><path class="cls-9" d="M81.32,101.21h.45L75,94.41v.45A6.31,6.31,0,0,0,81.32,101.21Z"/><path class="cls-8" d="M81.77,101.21v-.45a6.31,6.31,0,0,0-6.28-6.35H75Z"/><circle class="cls-8" cx="82.17" cy="88.05" r="3.49"/><path class="cls-16" d="M82.52,71s-4.74,3.46-4.79,7.79,3.89,7.49,3.89,7.49,4.39-2.91,4.84-7.22S82.52,71,82.52,71Z"/><path class="cls-17" d="M89.15,75.23s-5.74,1.26-7.53,5.2.54,8.42.54,8.42,5.2-.89,7.35-4.66S89.15,75.23,89.15,75.23Z"/><path class="cls-18" d="M75.36,75.23s5.74,1.26,7.53,5.2-.54,8.42-.54,8.42S77.15,88,75,84.19,75.36,75.23,75.36,75.23Z"/><rect class="cls-8" x="63.63" y="90.29" width="1.25" height="11.39" rx="0.63"/><path class="cls-9" d="M65.2,101.21h-.45l6.73-6.8v.45A6.31,6.31,0,0,1,65.2,101.21Z"/><path class="cls-8" d="M64.75,101.21v-.45A6.31,6.31,0,0,1,71,94.41h.45Z"/><path class="cls-9" d="M63.32,101.21h.45L57,94.41v.45A6.31,6.31,0,0,0,63.32,101.21Z"/><path class="cls-8" d="M63.77,101.21v-.45a6.31,6.31,0,0,0-6.28-6.35H57Z"/><circle class="cls-8" cx="64.17" cy="88.05" r="3.49"/><path class="cls-16" d="M64.52,71s-4.74,3.46-4.79,7.79,3.89,7.49,3.89,7.49,4.39-2.91,4.84-7.22S64.52,71,64.52,71Z"/><path class="cls-17" d="M71.15,75.23s-5.74,1.26-7.53,5.2.54,8.42.54,8.42,5.2-.89,7.35-4.66S71.15,75.23,71.15,75.23Z"/><path class="cls-18" d="M57.36,75.23s5.74,1.26,7.53,5.2-.54,8.42-.54,8.42S59.15,88,57,84.19,57.36,75.23,57.36,75.23Z"/><rect class="cls-8" x="46.63" y="90.29" width="1.25" height="11.39" rx="0.63"/><path class="cls-9" d="M48.2,101.21h-.45l6.73-6.8v.45A6.31,6.31,0,0,1,48.2,101.21Z"/><path class="cls-8" d="M47.75,101.21v-.45A6.31,6.31,0,0,1,54,94.41h.45Z"/><path class="cls-9" d="M46.32,101.21h.45L40,94.41v.45A6.31,6.31,0,0,0,46.32,101.21Z"/><path class="cls-8" d="M46.77,101.21v-.45a6.31,6.31,0,0,0-6.28-6.35H40Z"/><circle class="cls-8" cx="47.17" cy="88.05" r="3.49"/><path class="cls-16" d="M47.52,71s-4.74,3.46-4.79,7.79,3.89,7.49,3.89,7.49,4.39-2.91,4.84-7.22S47.52,71,47.52,71Z"/><path class="cls-17" d="M54.15,75.23s-5.74,1.26-7.53,5.2.54,8.42.54,8.42,5.2-.89,7.35-4.66S54.15,75.23,54.15,75.23Z"/><path class="cls-18" d="M40.36,75.23s5.74,1.26,7.53,5.2-.54,8.42-.54,8.42S42.15,88,40,84.19,40.36,75.23,40.36,75.23Z"/><rect class="cls-8" x="28.63" y="90.29" width="1.25" height="11.39" rx="0.63"/><path class="cls-9" d="M30.2,101.21h-.45l6.73-6.8v.45A6.31,6.31,0,0,1,30.2,101.21Z"/><path class="cls-8" d="M29.75,101.21v-.45A6.31,6.31,0,0,1,36,94.41h.45Z"/><path class="cls-9" d="M28.32,101.21h.45L22,94.41v.45A6.31,6.31,0,0,0,28.32,101.21Z"/><path class="cls-8" d="M28.77,101.21v-.45a6.31,6.31,0,0,0-6.28-6.35H22Z"/><circle class="cls-8" cx="29.17" cy="88.05" r="3.49"/><path class="cls-16" d="M29.52,71s-4.74,3.46-4.79,7.79,3.89,7.49,3.89,7.49,4.39-2.91,4.84-7.22S29.52,71,29.52,71Z"/><path class="cls-17" d="M36.15,75.23s-5.74,1.26-7.53,5.2.54,8.42.54,8.42,5.2-.89,7.35-4.66S36.15,75.23,36.15,75.23Z"/><path class="cls-18" d="M22.36,75.23s5.74,1.26,7.53,5.2-.54,8.42-.54,8.42S24.15,88,22,84.19,22.36,75.23,22.36,75.23Z"/></svg>