<?xml version="1.0" encoding="utf-8"?>
<!-- Generator: Adobe Illustrator 24.2.3, SVG Export Plug-In . SVG Version: 6.00 Build 0)  -->
<svg version="1.1" id="Layer_1" xmlns="http://www.w3.org/2000/svg" xmlns:xlink="http://www.w3.org/1999/xlink" x="0px" y="0px"
	 viewBox="0 0 2175 1913.4" style="enable-background:new 0 0 2175 1913.4;" xml:space="preserve">
<style type="text/css">
	.st0{fill:#00DAC5;}
</style>
<g id="Layer_2_1_">
	<g id="Layer_1-2">
		<path class="st0" d="M2047,509h-94c-18.8,0-34-15.2-34-34v-59.6c0-18.8-15.2-34-34-34h-60c-18.8,0-34-15.2-34-34V288
			c0-18.8-15.2-34-34-33.9h-316c-18.8,0-34-15.2-34-33.9V161c0-18.8-15.2-34-34-33.9h-60c-18.8,0-34-15.2-34-33.9V34
			c0-18.8-15.2-34-34-34h-60c-18.8,0-34,15.2-34,34v59.1c0,18.8-15.2,34-34,34l0,0H929c-18.7,0-33.9,15.1-34,33.9v59.1
			c0,18.8-15.2,34-34,33.9H545c-18.8,0-34,15.2-34,33.9v187.1c-0.1,18.7-15.2,33.9-34,33.9h-60c-18.8,0-34,15.2-34,34v59.5
			c0,18.8-15.2,34-34,34h-60c-18.7,0-33.9,15.2-34,33.9v59.7c0,18.8-15.2,34-33.9,34H34c-18.8,0-34,15.2-34,33.9v60.1
			c0,18.8,15.2,34,34,34h60.1c18.8,0,34,15.2,34,34l0,0v59.4c0,18.8,15.2,34,33.9,34h59.1c18.8,0,34,15.2,33.9,34v187.1
			c0,18.8,15.2,34,33.9,34h60.1c18.8,0,34,15.2,34,34v58.7c0,18.8-15.2,34-34,34H290c-18.7,0-33.9,15.1-34,33.8v60.1
			c0.1,18.7,15.3,33.9,34,33.9h60.1c18.8,0,34-15.2,34-34v-59c0-18.8,15.2-34,33.9-34h59.1c18.7,0.1,33.9,15.3,33.9,34v59.6
			c0,18.8,15.2,34,34,34h60.1c18.8,0,34,15.2,34,34v60.1c0,18.8,15.2,34,34,34l0,0h188.1c18.8,0,34,15.2,34,34l0,0v60.1
			c0,18.8,15.2,34,34,34h188.1c18.8,0,34,15.2,34,34v60.1c0,18.8,15.2,34,34,34h188.1c18.8,0,34-15.2,34-34v-60.1
			c0-18.8,15.2-34,34-34h60.1c18.8,0,34-15.2,34-34v-60.1c0-18.8,15.2-34,34-34l0,0h60.1c18.8,0,34-15.2,34-34l0,0v-60.1
			c0-18.8,15.2-34,34-34h60.1c18.8,0,34-15.2,34-34V1436c0-18.8,15.2-34,34-34l0,0h188.1c18.8,0,34-15.2,34-34l0,0v-60
			c0-18.8-15.2-34-34-34H1953c-18.8,0-34-15.2-34-34v-59.6c0-18.8-15.2-34-34-34l0,0h-60c-18.8,0-34-15.2-34-34V926
			c0-18.8,15.2-34,34-34l0,0h60.1c18.8,0,34-15.2,34-34l0,0v-59.6c0-18.8,15.2-34,34-34h60.1c18.8,0,34-15.2,34-34V671
			c0-18.7,15.1-33.9,33.8-34h60.1c18.8,0,33.9-15.2,33.9-34v-60c0-18.8-15.2-34-33.9-34H2047z"/>
	</g>
</g>
</svg>
