<svg id="Layer_1" data-name="Layer 1" xmlns="http://www.w3.org/2000/svg" viewBox="0 0 128 128"><defs><style>.cls-1{fill:#00a8be;}.cls-2{fill:none;stroke:#00d5cc;stroke-linecap:round;stroke-miterlimit:10;stroke-width:2px;}</style></defs><rect class="cls-1" width="128" height="128"/><path class="cls-2" d="M104.13,21.78c-2.69,0-2.69-1.29-5.39-1.29s-2.69,1.29-5.39,1.29S90.66,20.49,88,20.49s-2.7,1.29-5.4,1.29-2.7-1.29-5.39-1.29-2.7,1.29-5.4,1.29"/><path class="cls-2" d="M92.64,34.83c-2.7,0-2.7-1.29-5.39-1.29s-2.7,1.29-5.39,1.29-2.7-1.29-5.39-1.29-2.7,1.29-5.39,1.29-2.7-1.29-5.4-1.29-2.7,1.29-5.4,1.29"/><path class="cls-2" d="M104.13,47.81c-2.69,0-2.69-1.29-5.39-1.29s-2.69,1.29-5.39,1.29S90.66,46.52,88,46.52s-2.7,1.29-5.4,1.29-2.7-1.29-5.39-1.29-2.7,1.29-5.4,1.29"/><path class="cls-2" d="M57,86.66c-2.69,0-2.69-1.3-5.39-1.3s-2.69,1.3-5.39,1.3-2.69-1.3-5.39-1.3-2.69,1.3-5.39,1.3-2.7-1.3-5.4-1.3-2.7,1.3-5.39,1.3"/><path class="cls-2" d="M45.55,99.71c-2.7,0-2.7-1.3-5.39-1.3s-2.7,1.3-5.4,1.3-2.69-1.3-5.38-1.3-2.7,1.3-5.4,1.3-2.69-1.3-5.39-1.3-2.7,1.3-5.4,1.3"/><path class="cls-2" d="M57,112.69c-2.69,0-2.69-1.3-5.39-1.3s-2.69,1.3-5.39,1.3-2.69-1.3-5.39-1.3-2.69,1.3-5.39,1.3-2.7-1.3-5.4-1.3-2.7,1.3-5.39,1.3"/></svg>