<?xml version="1.0" standalone="no"?>
<!DOCTYPE svg PUBLIC "-//W3C//DTD SVG 20010904//EN"
 "http://www.w3.org/TR/2001/REC-SVG-20010904/DTD/svg10.dtd">
<svg version="1.0" xmlns="http://www.w3.org/2000/svg"
 width="1000.000000pt" height="1000.000000pt" viewBox="0 0 1000.000000 1000.000000"
 preserveAspectRatio="xMidYMid meet">
<metadata>
Created by potrace 1.11, written by Peter Selinger 2001-2013
</metadata>
<g transform="translate(0.000000,1000.000000) scale(0.100000,-0.100000)"
fill="#000000" stroke="none">
<path d="M656 9369 c2 -4 -4 -5 -15 -2 -16 4 -18 -1 -15 -38 2 -23 6 -49 8
-56 3 -8 2 -12 -2 -9 -5 3 -7 -14 -6 -37 2 -23 4 -42 4 -42 5 0 6 -47 1 -50
-8 -4 -5 -81 3 -102 3 -8 2 -12 -2 -9 -7 4 -8 -72 -1 -81 2 -4 2 -42 -1 -48
-2 -6 -3 -64 0 -67 7 -10 5 -50 -2 -54 -5 -3 -3 -13 4 -22 7 -9 9 -13 3 -10
-12 7 -12 -652 0 -672 5 -8 4 -11 -2 -7 -5 3 -8 -11 -7 -36 2 -23 4 -42 4 -42
5 0 6 -47 1 -50 -8 -4 -5 -81 3 -102 3 -8 2 -12 -2 -9 -5 3 -7 -14 -6 -37 2
-23 4 -42 4 -42 5 0 6 -47 1 -50 -8 -4 -5 -81 3 -102 3 -8 2 -12 -2 -9 -5 3
-7 -14 -6 -37 2 -23 4 -42 4 -42 5 0 6 -47 1 -50 -8 -4 -5 -81 3 -102 3 -8 2
-12 -2 -9 -5 3 -7 -14 -6 -37 2 -23 4 -42 4 -42 5 0 6 -47 1 -50 -8 -4 -5 -81
3 -102 3 -8 2 -12 -2 -9 -7 4 -8 -72 -1 -81 2 -4 2 -42 -1 -48 -2 -6 -3 -64 0
-67 7 -10 5 -50 -2 -54 -5 -3 -3 -13 4 -22 7 -9 9 -13 3 -10 -12 7 -12 -652 0
-672 5 -8 4 -11 -2 -7 -5 3 -8 -11 -7 -36 2 -23 4 -42 4 -42 5 0 6 -47 1 -50
-8 -4 -5 -81 3 -102 3 -8 2 -12 -2 -9 -5 3 -7 -14 -6 -37 2 -23 4 -42 4 -42 5
0 6 -47 1 -50 -8 -4 -5 -81 3 -102 3 -8 2 -12 -2 -9 -5 3 -7 -14 -6 -37 2 -23
4 -42 4 -42 5 0 6 -47 1 -50 -8 -4 -5 -81 3 -102 3 -8 2 -12 -2 -9 -5 3 -7
-14 -6 -37 2 -23 4 -42 4 -42 5 0 6 -47 1 -50 -8 -4 -5 -81 3 -102 3 -8 2 -12
-2 -9 -7 4 -8 -72 -1 -81 2 -4 2 -42 -1 -48 -2 -6 -3 -64 0 -67 7 -10 5 -50
-2 -54 -5 -3 -3 -13 4 -22 7 -9 9 -13 3 -10 -12 7 -12 -652 0 -672 5 -8 4 -11
-2 -7 -5 3 -8 -11 -7 -36 2 -23 4 -42 4 -42 5 0 6 -47 1 -50 -8 -4 -5 -81 3
-102 3 -8 2 -12 -2 -9 -5 3 -7 -14 -6 -37 2 -23 4 -42 4 -42 5 0 6 -47 1 -50
-8 -4 -5 -81 3 -102 3 -8 2 -12 -2 -9 -5 3 -7 -14 -6 -37 2 -23 4 -42 4 -42 5
0 6 -47 1 -50 -8 -4 -5 -81 3 -102 3 -8 2 -12 -2 -9 -5 3 -7 -14 -6 -37 2 -23
4 -42 4 -42 5 0 6 -47 1 -50 -8 -4 -5 -81 3 -102 3 -8 2 -12 -2 -9 -7 4 -8
-72 -1 -81 2 -4 2 -42 -1 -48 -2 -6 -3 -64 0 -67 7 -10 5 -50 -2 -54 -5 -3 -3
-13 4 -22 7 -9 9 -13 3 -10 -12 7 -12 -652 0 -672 5 -8 4 -11 -2 -7 -5 3 -8
-11 -7 -36 2 -23 4 -42 4 -42 5 0 6 -47 1 -50 -8 -4 -5 -81 3 -102 3 -8 2 -12
-2 -9 -5 3 -7 -14 -6 -37 2 -23 4 -42 4 -42 5 0 6 -47 1 -50 -8 -4 -5 -81 3
-102 3 -8 2 -12 -2 -9 -5 3 -7 -14 -6 -37 2 -23 4 -42 4 -42 5 0 6 -47 1 -50
-8 -4 -5 -81 3 -102 3 -8 2 -12 -2 -9 -5 3 -7 -14 -6 -37 2 -23 4 -42 4 -42 5
0 6 -47 1 -50 -8 -4 -5 -81 3 -102 3 -8 2 -12 -2 -9 -7 4 -8 -72 -1 -81 2 -4
2 -42 -1 -48 -2 -6 -3 -64 0 -67 7 -10 5 -50 -2 -54 -5 -3 -3 -13 4 -22 7 -9
9 -13 3 -10 -12 7 -12 -402 0 -422 6 -9 4 -11 -6 -5 -11 6 -12 5 -2 -5 8 -9
17 -10 25 -4 12 8 34 10 48 4 14 -6 153 -4 156 2 3 4 15 4 27 0 20 -7 42 -8
50 -2 8 6 49 5 53 -2 3 -4 10 -8 15 -8 6 0 7 4 4 10 -4 7 2 7 19 0 14 -5 28
-6 30 -1 6 9 43 8 52 -2 4 -4 13 -2 20 4 8 7 14 7 19 -1 3 -5 11 -10 16 -10 6
0 7 4 4 10 -4 7 2 7 19 0 14 -5 28 -6 30 -1 6 9 43 8 52 -2 4 -4 13 -2 20 4 8
7 14 7 19 -1 3 -5 11 -10 16 -10 6 0 7 4 4 10 -4 7 2 7 18 1 14 -6 28 -7 31
-3 10 9 46 10 52 0 3 -5 12 -4 19 2 9 8 15 8 20 0 3 -5 11 -10 16 -10 6 0 7 4
4 10 -4 7 2 7 19 0 14 -5 28 -6 30 -1 4 6 51 7 51 1 0 -1 10 -3 23 -6 17 -3
21 -1 16 8 -6 10 -4 10 8 0 11 -9 18 -10 23 -2 3 6 10 8 14 6 17 -11 61 -14
67 -5 3 5 10 6 16 3 13 -8 179 -11 184 -3 3 5 49 4 49 -1 0 -6 148 -4 151 2 3
4 15 4 27 0 20 -7 42 -8 50 -2 8 6 49 5 53 -2 3 -4 10 -8 15 -8 6 0 7 4 4 10
-4 7 2 7 19 0 14 -5 28 -6 30 -1 6 9 43 8 52 -2 4 -4 13 -2 20 4 8 7 14 7 19
-1 3 -5 11 -10 16 -10 6 0 7 4 4 10 -4 7 2 7 19 0 14 -5 28 -6 30 -1 6 9 43 8
52 -2 4 -4 13 -2 20 4 8 7 14 7 19 -1 3 -5 11 -10 16 -10 6 0 7 4 4 10 -4 7 2
7 19 0 14 -5 28 -6 30 -1 6 9 43 8 52 -2 4 -4 13 -2 20 4 8 7 14 7 19 -1 3 -5
11 -10 16 -10 6 0 7 4 4 10 -4 7 2 7 19 0 14 -5 28 -6 30 -1 4 6 51 7 51 1 0
-1 10 -3 23 -6 17 -3 21 -1 16 8 -6 10 -4 10 8 0 11 -9 18 -10 23 -2 3 6 10 8
14 6 17 -11 61 -14 67 -5 3 5 10 6 16 3 13 -8 179 -11 184 -3 3 5 49 4 49 -1
0 -6 148 -4 151 2 3 4 15 4 27 0 20 -7 42 -8 50 -2 8 6 49 5 53 -2 3 -4 10 -8
15 -8 6 0 7 4 4 10 -4 7 2 7 18 1 14 -6 28 -7 31 -3 10 9 46 10 52 0 3 -5 12
-4 19 2 9 8 15 8 20 0 3 -5 11 -10 16 -10 6 0 7 4 4 10 -4 7 2 7 19 0 14 -5
28 -6 30 -1 6 9 43 8 52 -2 4 -4 13 -2 20 4 8 7 14 7 19 -1 3 -5 11 -10 16
-10 6 0 7 4 4 10 -4 7 2 7 19 0 14 -5 28 -6 30 -1 6 9 43 8 52 -2 4 -4 13 -2
20 4 8 7 14 7 19 -1 3 -5 11 -10 16 -10 6 0 7 4 4 10 -4 7 2 7 19 0 14 -5 28
-6 30 -1 4 6 51 7 51 1 0 -1 10 -3 23 -6 17 -3 21 -1 16 8 -6 10 -4 10 8 0 11
-9 18 -10 23 -2 3 6 10 8 14 6 17 -11 61 -14 67 -5 3 5 10 6 16 3 13 -8 179
-11 184 -3 3 5 49 4 49 -1 0 -6 148 -4 151 2 3 4 15 4 27 0 20 -7 42 -8 50 -2
8 6 49 5 53 -2 3 -4 10 -8 15 -8 6 0 7 4 4 10 -4 7 2 7 19 0 14 -5 28 -6 30
-1 6 9 43 8 52 -2 4 -4 13 -2 20 4 8 7 14 7 19 -1 3 -5 11 -10 16 -10 6 0 7 4
4 10 -4 7 2 7 19 0 14 -5 28 -6 30 -1 6 9 43 8 52 -2 4 -4 13 -2 20 4 8 7 14
7 19 -1 3 -5 11 -10 16 -10 6 0 7 4 4 10 -4 7 2 7 19 0 14 -5 28 -6 30 -1 6 9
43 8 52 -2 4 -4 13 -2 20 4 8 7 14 7 19 -1 3 -5 11 -10 16 -10 6 0 7 4 4 10
-4 7 2 7 19 0 14 -5 28 -6 30 -1 4 6 51 7 51 1 0 -1 10 -3 23 -6 17 -3 21 -1
16 8 -6 10 -4 10 8 0 11 -9 18 -10 23 -2 3 6 10 8 14 6 17 -11 61 -14 67 -5 3
5 10 6 16 3 13 -8 179 -11 184 -3 3 5 49 4 49 -1 0 -6 148 -4 151 2 3 4 15 4
27 0 20 -7 42 -8 50 -2 8 6 49 5 53 -2 3 -4 10 -8 15 -8 6 0 7 4 4 10 -4 7 2
7 19 0 14 -5 28 -6 30 -1 6 9 43 8 52 -2 4 -4 13 -2 20 4 8 7 14 7 19 -1 3 -5
11 -10 16 -10 6 0 7 4 4 10 -4 7 2 7 19 0 14 -5 28 -6 30 -1 6 9 43 8 52 -2 4
-4 13 -2 20 4 8 7 14 7 19 -1 3 -5 11 -10 16 -10 6 0 7 4 4 10 -4 7 2 7 19 0
14 -5 28 -6 30 -1 6 9 43 8 52 -2 4 -4 13 -2 20 4 8 7 14 7 19 -1 3 -5 11 -10
16 -10 6 0 7 4 4 10 -4 7 2 7 19 0 14 -5 28 -6 30 -1 4 6 51 7 51 1 0 -1 10
-3 23 -6 17 -3 21 -1 16 8 -6 10 -4 10 8 0 11 -9 18 -10 23 -2 3 6 10 8 14 6
17 -11 61 -14 67 -5 3 5 10 6 16 3 13 -8 179 -11 184 -3 4 6 34 6 49 -2 9 -4
133 -4 145 1 17 6 48 5 44 -2 -3 -4 0 -8 7 -8 7 0 9 10 7 25 -3 14 -1 25 4 25
5 0 4 8 -1 18 -6 11 -6 24 -1 32 5 9 4 20 -3 29 -8 9 -8 15 -2 18 7 2 9 26 5
64 -3 33 -3 62 1 64 3 3 3 25 -1 50 -4 25 -3 45 1 45 5 0 6 7 2 17 -8 20 -8
81 -1 89 3 3 2 21 -2 40 -4 18 -4 34 0 34 4 0 4 18 0 40 -4 22 -4 43 0 45 4 3
4 21 0 40 -4 19 -5 35 -1 35 3 0 4 29 1 65 -3 41 -2 65 5 65 7 0 7 3 0 8 -11
8 -15 62 -4 62 4 0 4 14 -1 30 -5 18 -5 30 0 30 6 0 6 10 0 24 -6 17 -5 27 3
34 7 6 212 9 519 8 278 0 504 1 502 3 -2 2 1 10 7 17 7 8 7 14 -1 19 -6 4 -7
12 -1 24 11 19 10 39 -2 58 -4 6 -1 13 5 16 10 3 10 7 1 17 -8 8 -9 19 -3 30
10 18 9 38 -3 57 -4 6 -1 13 5 16 10 3 10 7 1 17 -8 8 -9 19 -3 30 10 18 9 38
-3 57 -4 6 -1 13 5 16 10 3 10 7 1 17 -8 8 -9 19 -3 30 10 18 9 38 -3 57 -4 6
-1 13 5 16 10 3 10 7 1 19 -7 8 -10 18 -6 21 10 10 10 178 0 184 -5 3 -3 9 4
14 11 6 11 11 2 20 -7 7 -9 19 -4 28 9 21 7 93 -4 110 -5 9 -4 12 2 8 14 -9
12 65 -2 75 -6 5 -5 8 4 8 10 0 11 3 2 14 -8 10 -8 16 2 25 8 6 17 8 20 4 4
-3 7 -2 7 4 0 6 17 7 45 3 25 -4 47 -4 50 -1 2 4 31 4 64 1 38 -4 62 -2 64 5
3 6 9 6 18 -2 9 -7 20 -8 29 -3 8 5 21 5 32 -1 10 -5 18 -6 18 -1 0 5 20 6 45
2 26 -4 48 -3 52 3 3 5 9 3 14 -4 5 -8 9 -9 9 -4 0 11 92 11 109 0 6 -3 11 -2
11 4 0 6 11 6 30 1 16 -5 30 -5 30 0 0 4 16 4 35 0 19 -4 37 -4 40 0 2 4 23 4
45 0 22 -4 40 -4 40 0 0 4 16 4 34 0 19 -4 37 -5 40 -3 3 3 38 6 78 7 73 1 86
9 69 41 -7 14 -9 45 -2 49 5 4 6 191 1 191 -6 0 -5 47 1 51 5 2 4 16 -1 30 -7
17 -7 23 0 19 6 -3 10 -2 10 4 0 5 -5 13 -10 16 -8 5 -8 11 0 20 6 7 7 16 2
19 -10 6 -9 42 0 52 4 3 3 17 -3 31 -6 16 -6 22 1 18 6 -3 10 -2 10 4 0 5 -4
12 -8 15 -7 4 -8 45 -2 54 6 7 5 29 -2 49 -4 12 -4 24 0 27 6 3 8 151 2 151
-5 0 -6 46 -1 49 8 5 5 171 -3 184 -3 6 -2 13 3 16 9 6 6 50 -5 67 -2 4 0 11
6 14 8 5 7 12 -2 23 -10 12 -10 14 0 8 9 -5 11 -1 8 16 -3 13 -5 23 -6 23 -6
0 -5 47 1 51 5 2 4 16 -1 30 -7 17 -7 23 0 19 6 -3 10 -2 10 4 0 5 -5 13 -10
16 -8 5 -8 11 0 20 6 7 7 16 2 19 -10 6 -9 42 0 52 4 3 3 17 -3 31 -6 16 -6
22 1 18 6 -3 10 -2 10 4 0 5 -5 13 -10 16 -6 4 -8 11 -5 16 9 13 13 99 5 104
-5 3 -6 50 0 50 1 0 2 26 4 57 1 31 -2 54 -6 52 -4 -3 -5 2 -2 10 8 21 11 147
4 151 -7 5 -6 42 1 49 6 7 2 173 -5 184 -3 6 -2 13 3 16 9 6 6 50 -5 67 -2 4
-1 10 3 12 7 4 9 152 3 152 -5 0 -6 46 -1 49 8 5 5 171 -3 184 -3 6 -2 13 3
16 9 6 6 50 -5 67 -2 4 0 11 6 14 8 5 7 12 -2 23 -10 12 -10 14 0 8 14 -8 16
3 2 24 -6 9 -5 19 3 29 7 8 11 15 10 15 -7 4 -21 56 -15 60 6 3 8 151 2 151
-5 0 -6 46 -1 49 8 5 5 171 -3 184 -3 6 -2 13 3 16 9 6 6 50 -5 67 -2 4 0 11
6 14 8 5 7 12 -2 23 -7 9 -8 13 -3 10 7 -4 10 16 9 55 -1 34 -3 63 -4 65 -3 3
-3 41 -1 45 7 9 5 115 -1 111 -4 -3 -5 2 -2 10 8 21 11 147 4 151 -7 5 -7 35
1 50 4 9 4 173 -1 185 -6 17 -5 52 1 56 5 2 4 16 -1 30 -7 17 -7 23 0 19 6 -3
10 -2 10 4 0 5 -5 13 -10 16 -8 5 -8 11 0 20 6 7 7 16 2 19 -10 6 -9 42 0 52
4 3 3 17 -3 31 -6 16 -6 22 1 18 6 -3 10 -2 10 4 0 5 -4 12 -8 15 -7 4 -8 45
-2 54 6 6 5 29 -1 48 -4 12 -5 25 -1 28 3 4 6 24 7 46 l0 39 -78 3 c-43 2 -80
1 -82 -1 -9 -8 -105 -5 -105 4 0 6 -5 3 -10 -5 -7 -11 -10 -11 -10 -2 0 8 -5
10 -14 5 -8 -4 -51 -6 -96 -3 -45 3 -83 3 -85 1 -9 -8 -105 -5 -105 4 0 6 -5
3 -10 -5 -7 -11 -10 -11 -10 -2 0 8 -5 10 -14 5 -8 -4 -51 -6 -96 -3 -45 3
-83 3 -85 1 -9 -8 -105 -5 -105 4 0 6 -5 3 -10 -5 -7 -11 -10 -11 -10 -2 0 9
-5 10 -19 2 -12 -6 -22 -6 -25 -1 -3 5 -16 7 -28 4 -26 -7 -53 24 -37 43 7 8
7 14 -1 19 -6 4 -7 12 -1 24 11 19 10 39 -2 58 -4 6 -1 13 5 16 10 3 10 7 1
17 -8 8 -9 19 -3 30 10 18 9 38 -3 57 -4 6 -1 13 5 16 10 3 10 7 1 17 -8 8 -9
19 -3 30 10 18 9 38 -3 57 -4 6 -1 13 5 16 10 3 10 7 1 17 -8 8 -9 19 -3 30
10 18 9 38 -3 57 -4 6 -1 13 5 16 10 3 10 7 1 17 -8 8 -9 19 -3 30 10 18 9 38
-3 57 -4 6 -1 13 5 16 10 3 10 7 1 19 -7 8 -10 18 -6 22 4 3 7 83 7 176 1 144
-1 170 -14 171 -8 1 -22 2 -30 3 -8 0 -18 -3 -22 -9 -5 -7 -8 -7 -8 0 0 9
-203 13 -235 5 -5 -1 -12 -1 -15 0 -16 7 -87 5 -97 -3 -7 -5 -13 -6 -13 -1 0
11 -71 12 -87 1 -7 -5 -13 -4 -13 1 0 12 -32 12 -47 -1 -7 -5 -13 -6 -13 -1 0
10 -180 11 -196 1 -6 -3 -14 -4 -18 0 -10 11 -200 10 -216 -1 -8 -6 -12 -6 -8
-2 4 5 3 15 -3 23 -6 7 -7 13 -2 13 4 0 6 29 3 65 -3 41 -2 65 5 65 7 0 7 3 0
8 -11 8 -15 62 -4 62 4 0 4 14 -1 30 -5 17 -5 30 -1 30 4 0 5 23 1 50 -4 28
-4 53 0 55 4 2 4 25 0 50 -4 25 -3 45 2 45 5 0 6 5 3 11 -11 17 -11 109 0 113
6 3 4 5 -4 5 -11 1 -11 4 -1 16 7 8 9 15 4 15 -9 0 -10 97 -1 106 2 3 1 21 -3
40 -4 18 -4 34 0 34 4 0 4 18 0 40 -4 22 -4 43 0 45 4 3 4 21 0 40 -4 19 -4
35 0 35 4 0 5 11 2 25 -2 14 -9 25 -14 25 -5 0 -6 -6 -2 -12 6 -10 4 -10 -8 0
-9 7 -19 9 -22 4 -4 -7 -51 -9 -51 -2 0 0 -19 2 -42 4 -23 1 -40 -1 -37 -6 3
-4 -1 -5 -9 -2 -21 8 -98 11 -102 3 -3 -5 -50 -4 -50 1 0 0 -19 2 -42 4 -23 1
-40 -1 -37 -6 3 -4 -1 -5 -9 -2 -21 8 -98 11 -102 3 -3 -5 -50 -4 -50 1 0 0
-19 2 -42 4 -23 1 -40 -1 -37 -6 3 -4 -1 -5 -9 -2 -21 8 -98 11 -102 3 -3 -5
-50 -4 -50 1 0 0 -19 2 -42 4 -25 1 -39 -2 -36 -7 4 -6 1 -7 -7 -2 -20 12
-679 12 -672 0 3 -5 -1 -4 -10 3 -9 7 -19 9 -22 4 -4 -7 -44 -9 -53 -2 -4 3
-62 2 -68 0 -6 -3 -44 -3 -47 -1 -10 7 -86 6 -82 -1 3 -4 -1 -5 -9 -2 -21 8
-98 11 -102 3 -3 -5 -50 -4 -50 1 0 0 -19 2 -42 4 -23 1 -40 -1 -37 -6 3 -4
-1 -5 -9 -2 -21 8 -98 11 -102 3 -3 -5 -50 -4 -50 1 0 0 -19 2 -42 4 -23 1
-40 -1 -37 -6 3 -4 -1 -5 -9 -2 -21 8 -98 11 -102 3 -3 -5 -50 -4 -50 1 0 0
-19 2 -42 4 -23 1 -40 -1 -37 -6 3 -4 -1 -5 -9 -2 -21 8 -98 11 -102 3 -3 -5
-50 -4 -50 1 0 0 -19 2 -42 4 -25 1 -39 -2 -36 -7 4 -6 1 -7 -7 -2 -20 12
-679 12 -672 0 3 -5 -1 -4 -10 3 -9 7 -19 9 -22 4 -4 -7 -44 -9 -53 -2 -4 3
-62 2 -68 0 -6 -3 -44 -3 -47 -1 -10 7 -86 6 -82 -1 3 -4 -1 -5 -9 -2 -21 8
-98 11 -102 3 -3 -5 -50 -4 -50 1 0 0 -19 2 -42 4 -23 1 -40 -1 -37 -6 3 -4
-1 -5 -9 -2 -21 8 -98 11 -102 3 -3 -5 -50 -4 -50 1 0 0 -19 2 -42 4 -23 1
-40 -1 -37 -6 3 -4 -1 -5 -9 -2 -21 8 -98 11 -102 3 -3 -5 -50 -4 -50 1 0 0
-19 2 -42 4 -23 1 -40 -1 -37 -6 3 -4 -1 -5 -9 -2 -21 8 -98 11 -102 3 -3 -5
-50 -4 -50 1 0 0 -19 2 -42 4 -25 1 -39 -2 -36 -7 4 -6 1 -7 -7 -2 -20 12
-679 12 -672 0 3 -5 -1 -4 -10 3 -9 7 -19 9 -22 4 -4 -7 -44 -9 -53 -2 -4 3
-62 2 -68 0 -6 -3 -44 -3 -47 -1 -10 7 -86 6 -82 -1 3 -4 -1 -5 -9 -2 -21 8
-98 11 -102 3 -3 -5 -50 -4 -50 1 0 0 -19 2 -42 4 -23 1 -40 -1 -37 -6 3 -4
-1 -5 -9 -2 -21 8 -98 11 -102 3 -3 -5 -50 -4 -50 1 0 0 -19 2 -42 4 -23 1
-40 -1 -37 -6 3 -4 -1 -5 -9 -2 -21 8 -98 11 -102 3 -3 -5 -50 -4 -50 1 0 0
-19 2 -42 4 -23 1 -40 -1 -37 -6 3 -4 -1 -5 -9 -2 -21 8 -98 11 -102 3 -3 -5
-50 -4 -50 1 0 0 -19 2 -42 4 -23 1 -40 -1 -37 -5z m3974 -2574 c0 -7 3 -6 8
0 9 13 83 14 97 1 12 -11 12 -46 1 -65 -5 -8 -4 -16 4 -21 15 -10 15 -21 -2
-31 -9 -6 -10 -9 -1 -9 9 0 10 -7 3 -24 -5 -13 -6 -26 -3 -29 7 -7 10 -106 3
-102 -3 2 -5 -8 -5 -21 0 -13 3 -24 8 -24 10 0 4 -23 -8 -32 -6 -5 -5 -8 2 -8
9 0 10 -7 3 -24 -5 -13 -6 -26 -3 -29 8 -9 9 -106 1 -101 -4 3 -4 -5 1 -18 4
-13 5 -35 0 -50 -4 -16 -5 -28 -1 -28 4 0 7 -16 8 -35 0 -18 -2 -32 -5 -30 -3
1 -6 -8 -6 -21 0 -13 3 -24 7 -24 11 0 5 -23 -7 -32 -6 -5 -5 -8 2 -8 9 0 10
-7 3 -24 -5 -13 -6 -26 -3 -29 8 -9 9 -106 1 -101 -4 3 -4 -5 1 -18 4 -13 5
-35 0 -50 -6 -22 -4 -28 12 -33 11 -4 26 -2 33 4 7 6 16 8 20 4 11 -11 95 -12
102 -2 3 5 11 6 17 2 17 -10 217 -11 223 -1 3 5 11 5 17 1 17 -11 217 -11 223
-1 3 5 12 4 19 -2 10 -8 19 -8 34 -1 11 6 22 7 25 2 7 -10 106 -9 123 2 6 4
14 3 17 -1 3 -5 36 -8 73 -7 97 2 101 0 98 -46 -2 -21 1 -42 7 -45 5 -4 5 -10
0 -17 -11 -14 -10 -86 1 -104 4 -6 3 -14 -2 -17 -11 -7 -9 -85 2 -103 4 -6 3
-14 -2 -17 -11 -7 -9 -85 2 -103 4 -6 3 -14 -2 -17 -11 -7 -9 -85 2 -103 4 -6
3 -14 -2 -17 -11 -7 -9 -85 2 -103 4 -6 3 -14 -2 -17 -11 -7 -9 -85 2 -103 4
-6 4 -14 -1 -16 -4 -3 -7 -162 -7 -354 1 -191 -1 -353 -3 -360 -2 -7 -22 -10
-57 -8 -30 2 -57 0 -60 -6 -4 -5 -12 -6 -18 -2 -18 11 -96 13 -103 2 -3 -5
-11 -6 -17 -2 -18 11 -96 13 -103 2 -3 -5 -11 -6 -17 -2 -18 11 -96 13 -103 2
-3 -5 -11 -6 -17 -2 -18 11 -96 13 -103 2 -3 -5 -11 -6 -17 -2 -17 11 -137 12
-143 1 -3 -4 -11 -5 -17 -1 -18 11 -96 13 -103 2 -3 -5 -11 -6 -17 -2 -17 11
-119 12 -137 2 -13 -7 -13 -8 0 -9 13 0 13 -1 0 -10 -8 -5 -10 -10 -5 -10 6 0
11 -9 12 -20 1 -11 -2 -20 -7 -20 -5 0 -6 -8 -3 -17 9 -23 8 -66 -1 -82 -5 -7
-4 -16 1 -20 12 -8 13 -41 1 -41 -5 0 -6 -5 -3 -10 8 -13 13 -110 5 -105 -3 2
-5 -8 -5 -21 0 -13 3 -24 8 -24 10 0 4 -23 -8 -32 -6 -5 -5 -8 2 -8 9 0 10 -7
3 -24 -5 -13 -6 -26 -3 -29 7 -7 10 -106 3 -102 -3 2 -5 -8 -5 -21 0 -13 3
-24 8 -24 10 0 4 -23 -8 -32 -6 -5 -5 -8 2 -8 9 0 10 -7 3 -24 -5 -13 -6 -26
-3 -29 8 -9 9 -106 1 -101 -4 3 -4 -5 1 -18 4 -13 5 -35 0 -50 -5 -18 -4 -28
3 -28 7 0 7 -4 0 -12 -5 -7 -6 -22 -2 -33 7 -20 2 -46 -11 -55 -6 -4 -479 -5
-500 -1 -3 1 -5 25 -4 54 2 28 -2 57 -7 64 -5 6 -5 14 0 17 10 6 10 206 -1
223 -4 6 -4 14 1 17 10 6 9 206 -1 223 -4 6 -3 14 2 17 11 7 9 85 -2 103 -4 6
-3 14 2 17 7 5 8 116 1 124 -6 5 -6 28 -1 37 10 17 9 115 0 121 -5 3 -6 10 -2
17 10 17 11 117 1 123 -5 3 -5 11 0 17 10 14 10 287 -1 304 -4 6 -3 14 1 17
10 6 9 166 -1 183 -4 6 -3 14 2 17 7 5 8 116 1 124 -6 5 -6 28 -1 37 10 17 9
115 0 121 -5 3 -4 14 2 25 7 15 7 24 -1 34 -6 7 -7 16 -2 19 10 6 10 206 -1
223 -4 6 -4 14 1 17 10 6 9 206 -1 223 -4 6 -3 14 2 17 11 7 9 85 -2 103 -4 6
-3 14 2 17 7 5 8 116 1 124 -6 5 -6 28 -1 37 9 14 9 108 1 120 -6 9 -6 32 0
38 6 5 7 113 0 122 -6 9 -6 32 0 38 7 7 6 118 -1 123 -5 3 -4 14 2 25 7 15 7
24 -1 34 -6 7 -7 16 -2 19 4 2 8 60 7 128 -1 68 2 128 6 133 10 14 399 14 399
0z"/>
</g>
</svg>
