<svg xmlns="http://www.w3.org/2000/svg" xmlns:xlink="http://www.w3.org/1999/xlink" viewBox="0 0 1280 800"><defs><style>.cls-1{fill:url(#linear-gradient);}.cls-2{fill:#fdc984;}.cls-3{fill:url(#New_Gradient_Swatch_1);}.cls-4{fill:#e29e53;}.cls-5{fill:url(#linear-gradient-2);}.cls-6,.cls-7,.cls-8{fill:none;stroke-miterlimit:10;stroke-width:38.97px;}.cls-6{stroke:#e39b5a;opacity:0.49;}.cls-7{stroke:#f0ede6;}.cls-8{stroke:#fff;}.cls-15,.cls-9{fill:#fff;}.cls-10{fill:#3589aa;}.cls-11{fill:#409ece;}.cls-12{fill:#cb3535;}.cls-13{fill:#f05f54;}.cls-14{fill:#cce8f0;}.cls-15{opacity:0.4;}.cls-16{fill:#f4f6fb;}.cls-17{fill:url(#radial-gradient);}.cls-18{fill:url(#radial-gradient-2);}</style><linearGradient id="linear-gradient" x1="-24.75" y1="641.29" x2="1300.04" y2="641.29" gradientUnits="userSpaceOnUse"><stop offset="0" stop-color="#fcd29e"/><stop offset="1" stop-color="#fce49d"/></linearGradient><linearGradient id="New_Gradient_Swatch_1" x1="-48.26" y1="739.59" x2="1325.4" y2="739.59" gradientUnits="userSpaceOnUse"><stop offset="0" stop-color="#fbbc8c"/><stop offset="1" stop-color="#fcc380"/></linearGradient><linearGradient id="linear-gradient-2" x1="660.63" y1="545.95" x2="660.63" y2="388.11" gradientUnits="userSpaceOnUse"><stop offset="0" stop-color="#c3e7f9"/><stop offset="1" stop-color="#3da2cd"/></linearGradient><radialGradient id="radial-gradient" cx="17.33" cy="6.9" r="634.42" gradientTransform="translate(-13.35 1.75) scale(1.53 1.27)" gradientUnits="userSpaceOnUse"><stop offset="0.29" stop-color="#f9ec31" stop-opacity="0.5"/><stop offset="0.75" stop-color="#fffffa" stop-opacity="0"/></radialGradient><radialGradient id="radial-gradient-2" cx="13.11" cy="0.22" r="519.41" gradientUnits="userSpaceOnUse"><stop offset="0.12" stop-color="#f9ec31" stop-opacity="0.5"/><stop offset="0.86" stop-color="#fffffa" stop-opacity="0"/></radialGradient></defs><g id="Layer_2" data-name="Layer 2"><g id="BEACH"><rect class="cls-1" x="-24.75" y="523.36" width="1324.79" height="235.87"/><path class="cls-2" d="M-68.48,624.43c94.84-2.2,192.43-3.35,292.05-3.35,431.55,0,825,21.57,1122,57V791.85H-70.94Z"/><path class="cls-3" d="M-48.26,686.76c183.66-9.15,382.67-14.16,590.51-14.16,282.9,0,549.43,9.28,783.15,25.65V806.57H-43.11Z"/></g><g id="SAND_FREKLES" data-name="SAND FREKLES"><ellipse class="cls-4" cx="1114.3" cy="635.59" rx="12.8" ry="3.73"/><ellipse class="cls-4" cx="985.06" cy="664.98" rx="12.8" ry="3.73"/><ellipse class="cls-4" cx="910.7" cy="684.65" rx="12.8" ry="3.73"/><ellipse class="cls-4" cx="833.55" cy="606.74" rx="12.8" ry="3.73"/><ellipse class="cls-4" cx="579.98" cy="615.07" rx="12.8" ry="3.73"/><ellipse class="cls-4" cx="420.68" cy="647.17" rx="12.8" ry="3.73"/><ellipse class="cls-4" cx="329.59" cy="668.17" rx="12.8" ry="3.73"/><ellipse class="cls-4" cx="353.29" cy="710.14" rx="12.8" ry="3.73"/><ellipse class="cls-4" cx="406.46" cy="676.06" rx="12.8" ry="3.73"/><ellipse class="cls-4" cx="299.39" cy="766.44" rx="12.8" ry="3.73"/><ellipse class="cls-4" cx="546.05" cy="740.22" rx="12.8" ry="3.73"/><ellipse class="cls-4" cx="913.43" cy="773.35" rx="12.8" ry="3.73"/><ellipse class="cls-4" cx="999.82" cy="729.27" rx="12.8" ry="3.73"/><ellipse class="cls-4" cx="1094.98" cy="760.69" rx="12.8" ry="3.73"/><ellipse class="cls-4" cx="1088.48" cy="723.67" rx="6.9" ry="2.01"/><ellipse class="cls-4" cx="1071.31" cy="677.32" rx="6.9" ry="2.01"/><ellipse class="cls-4" cx="921.21" cy="722.68" rx="6.9" ry="2.01"/><ellipse class="cls-4" cx="832.49" cy="736.62" rx="6.9" ry="2.01"/><ellipse class="cls-4" cx="729.72" cy="773.76" rx="6.9" ry="2.01"/><ellipse class="cls-4" cx="547.8" cy="777.36" rx="6.9" ry="2.01"/><ellipse class="cls-4" cx="487.74" cy="748.79" rx="6.9" ry="2.01"/><ellipse class="cls-4" cx="298.24" cy="726.17" rx="6.9" ry="2.01"/><ellipse class="cls-4" cx="284.9" cy="693.61" rx="6.9" ry="2.01"/><ellipse class="cls-4" cx="353.12" cy="627.35" rx="6.9" ry="2.01"/><ellipse class="cls-4" cx="463.17" cy="608.06" rx="6.9" ry="2.01"/><ellipse class="cls-4" cx="372.91" cy="773.39" rx="6.9" ry="2.01"/><ellipse class="cls-4" cx="342.05" cy="744.38" rx="3.54" ry="1.03"/><ellipse class="cls-4" cx="368.85" cy="675.41" rx="3.54" ry="1.03"/><ellipse class="cls-4" cx="512.8" cy="624.09" rx="3.54" ry="1.03"/><ellipse class="cls-4" cx="491.63" cy="787.62" rx="3.54" ry="1.03"/><ellipse class="cls-4" cx="668.72" cy="778.99" rx="3.54" ry="1.03"/><ellipse class="cls-4" cx="886.38" cy="749.51" rx="3.54" ry="1.03"/><ellipse class="cls-4" cx="963.09" cy="755.84" rx="3.54" ry="1.03"/><ellipse class="cls-4" cx="1035.28" cy="707.04" rx="3.54" ry="1.03"/><ellipse class="cls-4" cx="1142.06" cy="661.74" rx="3.54" ry="1.03"/><ellipse class="cls-4" cx="1149.69" cy="748.51" rx="3.54" ry="1.03"/><ellipse class="cls-4" cx="929.54" cy="606.04" rx="3.54" ry="1.03"/></g><g id="OCEAN"><rect class="cls-5" x="-16.11" y="388.11" width="1353.48" height="157.84"/><path class="cls-6" d="M-43.25,562.36C.8,562.36.8,587,44.85,587s44-24.61,88.09-24.61S177,587,221,587s44-24.61,88.09-24.61,44,24.61,88.09,24.61,44-24.61,88.08-24.61S529.34,587,573.38,587s44-24.61,88.1-24.61,44,24.61,88.08,24.61,44.05-24.61,88.1-24.61S881.7,587,925.75,587s44-24.61,88.09-24.61S1057.89,587,1101.93,587s44-24.61,88.1-24.61,44,24.61,88.09,24.61,44.05-24.61,88.1-24.61"/><path class="cls-7" d="M-43.25,551.24c44.05,0,44.05,24.61,88.1,24.61s44-24.61,88.09-24.61,44,24.61,88.09,24.61,44-24.61,88.09-24.61,44,24.61,88.09,24.61,44-24.61,88.08-24.61,44.05,24.61,88.09,24.61,44-24.61,88.1-24.61,44,24.61,88.08,24.61,44.05-24.61,88.1-24.61,44,24.61,88.09,24.61,44-24.61,88.09-24.61,44.05,24.61,88.09,24.61,44-24.61,88.1-24.61,44,24.61,88.09,24.61,44.05-24.61,88.1-24.61"/><path class="cls-8" d="M-43.25,538.52c44.05,0,44.05,24.61,88.1,24.61s44-24.61,88.09-24.61,44,24.61,88.09,24.61,44-24.61,88.09-24.61,44,24.61,88.09,24.61,44-24.61,88.08-24.61,44.05,24.61,88.09,24.61,44-24.61,88.1-24.61,44,24.61,88.08,24.61,44.05-24.61,88.1-24.61,44,24.61,88.09,24.61,44-24.61,88.09-24.61,44.05,24.61,88.09,24.61,44-24.61,88.1-24.61,44,24.61,88.09,24.61,44.05-24.61,88.1-24.61"/><ellipse class="cls-9" cx="1277" cy="531.01" rx="10.97" ry="8.62"/><ellipse class="cls-9" cx="1276.6" cy="508.87" rx="13.54" ry="10.64"/><ellipse class="cls-9" cx="1266.03" cy="487.99" rx="6.16" ry="4.84"/><ellipse class="cls-9" cx="1216.8" cy="512.91" rx="10.97" ry="8.62"/><ellipse class="cls-9" cx="1187.06" cy="538.69" rx="10.97" ry="8.62"/><ellipse class="cls-9" cx="1186.67" cy="516.55" rx="13.54" ry="10.64"/><ellipse class="cls-9" cx="1249.73" cy="523.22" rx="15.01" ry="11.8"/><ellipse class="cls-9" cx="1225.68" cy="545.26" rx="22.98" ry="18.06" transform="translate(-70.75 200.48) rotate(-9.09)"/><ellipse class="cls-9" cx="1176.09" cy="495.67" rx="6.16" ry="4.84"/><ellipse class="cls-9" cx="1127.01" cy="508.53" rx="10.97" ry="8.62"/><ellipse class="cls-9" cx="1097.27" cy="534.31" rx="10.97" ry="8.62"/><ellipse class="cls-9" cx="1096.87" cy="512.17" rx="13.54" ry="10.64"/><ellipse class="cls-9" cx="1159.93" cy="518.83" rx="15.01" ry="11.8"/><ellipse class="cls-9" cx="1135.89" cy="540.88" rx="22.98" ry="18.06" transform="translate(-71.18 186.24) rotate(-9.09)"/><ellipse class="cls-9" cx="1086.29" cy="491.28" rx="6.16" ry="4.84"/><ellipse class="cls-9" cx="1037.21" cy="509.32" rx="10.97" ry="8.62"/><ellipse class="cls-9" cx="1007.47" cy="535.1" rx="10.97" ry="8.62"/><ellipse class="cls-9" cx="1007.07" cy="512.96" rx="13.54" ry="10.64"/><ellipse class="cls-9" cx="1070.13" cy="519.63" rx="15.01" ry="11.8"/><ellipse class="cls-9" cx="1046.09" cy="541.67" rx="22.98" ry="18.06" transform="translate(-72.44 172.06) rotate(-9.09)"/><ellipse class="cls-9" cx="996.5" cy="492.08" rx="6.16" ry="4.84"/><ellipse class="cls-9" cx="947.41" cy="512.12" rx="10.97" ry="8.62"/><ellipse class="cls-9" cx="917.67" cy="537.9" rx="10.97" ry="8.62"/><ellipse class="cls-9" cx="917.28" cy="515.76" rx="13.54" ry="10.64"/><ellipse class="cls-9" cx="980.34" cy="522.43" rx="15.01" ry="11.8"/><ellipse class="cls-9" cx="956.29" cy="544.47" rx="22.98" ry="18.06" transform="translate(-74 157.91) rotate(-9.09)"/><ellipse class="cls-9" cx="906.7" cy="494.88" rx="6.16" ry="4.84"/><ellipse class="cls-9" cx="857.57" cy="505.84" rx="10.97" ry="8.62"/><ellipse class="cls-9" cx="827.83" cy="531.61" rx="10.97" ry="8.62"/><ellipse class="cls-9" cx="827.43" cy="509.47" rx="13.54" ry="10.64"/><ellipse class="cls-9" cx="890.49" cy="516.14" rx="15.01" ry="11.8"/><ellipse class="cls-9" cx="866.44" cy="538.18" rx="22.98" ry="18.06" transform="translate(-74.14 143.64) rotate(-9.09)"/><ellipse class="cls-9" cx="816.85" cy="488.59" rx="6.16" ry="4.84"/><ellipse class="cls-9" cx="767.57" cy="515.19" rx="10.97" ry="8.62"/><ellipse class="cls-9" cx="737.83" cy="540.97" rx="10.97" ry="8.62"/><ellipse class="cls-9" cx="737.44" cy="518.83" rx="13.54" ry="10.64"/><ellipse class="cls-9" cx="800.49" cy="525.5" rx="15.01" ry="11.8"/><ellipse class="cls-9" cx="776.45" cy="547.54" rx="22.98" ry="18.06" transform="translate(-76.75 129.54) rotate(-9.09)"/><ellipse class="cls-9" cx="726.86" cy="497.95" rx="6.16" ry="4.84"/><ellipse class="cls-9" cx="677.58" cy="503.08" rx="10.97" ry="8.62"/><ellipse class="cls-9" cx="647.84" cy="528.86" rx="10.97" ry="8.62"/><ellipse class="cls-9" cx="647.44" cy="506.71" rx="13.54" ry="10.64"/><ellipse class="cls-9" cx="710.5" cy="513.38" rx="15.01" ry="11.8"/><ellipse class="cls-9" cx="686.46" cy="535.42" rx="22.98" ry="18.06" transform="translate(-75.96 115.17) rotate(-9.09)"/><ellipse class="cls-9" cx="636.87" cy="485.83" rx="6.16" ry="4.84"/><ellipse class="cls-9" cx="587.58" cy="517.95" rx="10.97" ry="8.62"/><ellipse class="cls-9" cx="557.84" cy="543.73" rx="10.97" ry="8.62"/><ellipse class="cls-9" cx="557.45" cy="521.59" rx="13.54" ry="10.64"/><ellipse class="cls-9" cx="620.5" cy="528.26" rx="15.01" ry="11.8"/><ellipse class="cls-9" cx="596.46" cy="550.3" rx="22.98" ry="18.06" transform="translate(-79.44 101.14) rotate(-9.09)"/><ellipse class="cls-9" cx="546.87" cy="500.71" rx="6.16" ry="4.84"/><ellipse class="cls-9" cx="497.59" cy="500.32" rx="10.97" ry="8.62"/><ellipse class="cls-9" cx="467.85" cy="526.1" rx="10.97" ry="8.62"/><ellipse class="cls-9" cx="467.45" cy="503.96" rx="13.54" ry="10.64"/><ellipse class="cls-9" cx="530.51" cy="510.62" rx="15.01" ry="11.8"/><ellipse class="cls-9" cx="506.47" cy="532.66" rx="22.98" ry="18.06" transform="translate(-77.79 86.7) rotate(-9.09)"/><ellipse class="cls-9" cx="456.88" cy="483.07" rx="6.16" ry="4.84"/><ellipse class="cls-9" cx="407.39" cy="519.93" rx="10.97" ry="8.62"/><ellipse class="cls-9" cx="377.65" cy="545.71" rx="10.97" ry="8.62"/><ellipse class="cls-9" cx="377.26" cy="523.57" rx="13.54" ry="10.64"/><ellipse class="cls-9" cx="440.32" cy="530.24" rx="15.01" ry="11.8"/><ellipse class="cls-9" cx="416.27" cy="552.28" rx="22.98" ry="18.06" transform="translate(-82.02 72.7) rotate(-9.09)"/><ellipse class="cls-9" cx="366.68" cy="502.69" rx="6.16" ry="4.84"/><ellipse class="cls-9" cx="317.16" cy="499.28" rx="10.97" ry="8.62"/><ellipse class="cls-9" cx="287.42" cy="525.06" rx="10.97" ry="8.62"/><ellipse class="cls-9" cx="287.02" cy="502.91" rx="13.54" ry="10.64"/><ellipse class="cls-9" cx="350.08" cy="509.58" rx="15.01" ry="11.8"/><ellipse class="cls-9" cx="326.04" cy="531.62" rx="22.98" ry="18.06" transform="translate(-79.89 58.18) rotate(-9.09)"/><ellipse class="cls-9" cx="276.45" cy="482.03" rx="6.16" ry="4.84"/><ellipse class="cls-9" cx="226.92" cy="520.81" rx="10.97" ry="8.62"/><ellipse class="cls-9" cx="197.18" cy="546.59" rx="10.97" ry="8.62"/><ellipse class="cls-9" cx="196.79" cy="524.45" rx="13.54" ry="10.64"/><ellipse class="cls-9" cx="259.85" cy="531.12" rx="15.01" ry="11.8"/><ellipse class="cls-9" cx="235.8" cy="553.16" rx="22.98" ry="18.06" transform="translate(-84.42 44.2) rotate(-9.09)"/><ellipse class="cls-9" cx="186.21" cy="503.57" rx="6.16" ry="4.84"/><ellipse class="cls-9" cx="136.69" cy="498.4" rx="10.97" ry="8.62"/><ellipse class="cls-9" cx="106.95" cy="524.18" rx="10.97" ry="8.62"/><ellipse class="cls-9" cx="106.55" cy="502.03" rx="13.54" ry="10.64"/><ellipse class="cls-9" cx="169.61" cy="508.7" rx="15.01" ry="11.8"/><ellipse class="cls-9" cx="145.57" cy="530.74" rx="22.98" ry="18.06" transform="translate(-82.02 29.66) rotate(-9.09)"/><ellipse class="cls-9" cx="95.98" cy="481.15" rx="6.16" ry="4.84"/><ellipse class="cls-9" cx="46.45" cy="521.69" rx="10.97" ry="8.62"/><ellipse class="cls-9" cx="16.72" cy="547.47" rx="10.97" ry="8.62"/><ellipse class="cls-9" cx="16.32" cy="525.33" rx="13.54" ry="10.64"/><ellipse class="cls-9" cx="79.38" cy="532" rx="15.01" ry="11.8"/><ellipse class="cls-9" cx="55.33" cy="554.04" rx="22.98" ry="18.06" transform="translate(-86.83 15.7) rotate(-9.09)"/><ellipse class="cls-9" cx="5.74" cy="504.45" rx="6.16" ry="4.84"/><ellipse class="cls-9" cx="-10.86" cy="507.82" rx="15.01" ry="11.8"/></g><g id="STARFISH_BLUE" data-name="STARFISH BLUE"><path class="cls-10" d="M989.8,609.08c3.3-.24,6.82.66,9.47-1.1s4.18-4.85,4.84-2.21,0,4.19,2.64,6,8.37,5.5,3.75,4.84-5.51-1.54-7,.22c-1,1.12,1.1,9.25-1.76,6.17s-5.51-7.71-8.81-6.61-8.81,2-7.27,0,8.15-3.74,3.75-4.4S986.71,609.3,989.8,609.08Z"/><path class="cls-11" d="M989.16,607.55c3.3-.24,6.82.66,9.47-1.11s4.18-4.84,4.84-2.2,0,4.19,2.64,6,8.37,5.5,3.75,4.84-5.51-1.54-7.05.22c-1,1.11,1.1,9.25-1.76,6.17s-5.51-7.71-8.81-6.61-8.81,2-7.27,0,8.15-3.74,3.75-4.4S986.08,607.77,989.16,607.55Z"/></g><g id="STARFISH_RED" data-name="STARFISH RED"><path class="cls-12" d="M1046.93,611.37c6,1,15.85.44,13.87,2.43-1.33,1.33-8.81,1.32-7.27,2.86s8.37,7,5.51,7.48-8.81-2.42-12.11-1.76c-2.42.49-7.93,8.59-11.23,7.93-2-.39,3.52-8.59,1.1-9.25s-14.09,3.3-12.77.88,7.48-5.06,8.81-8.14c1.13-2.64.88-9.47,2.86-8.37S1043,610.71,1046.93,611.37Z"/><path class="cls-13" d="M1046.08,610.4c6,1,15.86.44,13.87,2.42-1.33,1.33-8.8,1.32-7.26,2.86s8.37,7.05,5.5,7.49-8.81-2.42-12.11-1.76c-2.41.48-7.93,8.59-11.23,7.93-1.94-.39,3.52-8.59,1.1-9.25s-14.09,3.3-12.77.88,7.49-5.07,8.81-8.15c1.13-2.64.88-9.47,2.86-8.37S1042.12,609.74,1046.08,610.4Z"/></g><g id="sky"><rect class="cls-14" x="-9.71" y="-9.21" width="1298.29" height="397.82"/><path class="cls-15" d="M1288.58,187.38V388.61h-466a65,65,0,0,1,103.28-10.84A46.93,46.93,0,0,1,1006.81,356a58.78,58.78,0,0,1,87.81-6.46c-.29-.75-.56-1.51-.78-2.29a27.13,27.13,0,0,1,32-33.93,58.33,58.33,0,0,1-2.41-6.81,59.33,59.33,0,0,1,81.7-70.23,52.57,52.57,0,0,1,83.5-48.85Z"/><path class="cls-16" d="M475.16,388.61H11.72L10.66,265.49a82,82,0,0,1,149.76-46A74.62,74.62,0,0,1,290.85,285a30.49,30.49,0,0,1,6.66-.77A30,30,0,0,1,324.86,302a62.74,62.74,0,0,1,102.71,60.2A57.62,57.62,0,0,1,475.16,388.61Z"/></g><rect id="LIGHT" class="cls-17" x="-11.71" y="-6.38" width="781.73" height="649.81"/><polygon class="cls-18" points="496.47 42.41 18.92 -3.63 13.87 -9.21 10.55 -6.29 9.44 -6.86 9.35 -6.67 8.36 -7.26 6.87 -4.8 6.84 -4.8 4.99 -5.1 4.26 -0.77 1.52 1.63 9.13 10.5 37.09 489.25 44.5 488.8 13.65 15.77 14.36 16.59 171.53 461.74 176.99 459.8 33.97 61.48 201.69 449.43 213.36 444.32 31.31 36.36 322.99 376.4 345.49 356.63 41.46 21.23 425.59 256.86 432.19 245.97 52.21 18.93 446.12 223.55 448.77 218.41 37.87 7.72 490.22 86.55 492.34 73.99 59.72 3.78 495.9 48.17 496.47 42.41"/></g></svg>