<svg xmlns="http://www.w3.org/2000/svg" viewBox="0 0 77.13 67.19"><defs><style>.cls-1{fill:#00c8d4;}</style></defs><g id="Layer_2" data-name="Layer 2"><g id="Layer_1-2" data-name="Layer 1"><path class="cls-1" d="M52.7,67.19c-3.52,0-6.7-2.32-8.54-6.23-1.22-2.6-3.34-11.87-6.69-26.77-2.38-10.61-5.09-22.64-6.12-25.08C30.71,7.58,29.89,7,29.39,7h0c-.5,0-1.33.5-2.05,1.92-1.42,2.83-3.92,10.58-5.93,16.81C19.54,31.44,18,36.37,17,38.48a11.45,11.45,0,0,1-10,7,30.2,30.2,0,0,1-3.72,0,3.5,3.5,0,0,1,.53-7h0a23.59,23.59,0,0,0,2.75,0,4.56,4.56,0,0,0,4.12-3c.8-1.69,2.47-6.88,4.09-11.9,2.3-7.13,4.67-14.5,6.34-17.81C22.94,2,26.1-.11,29.63,0s6.54,2.51,8.18,6.39C39,9.21,41.05,18.19,44.3,32.65,46.64,43,49.54,55.94,50.5,58c.77,1.64,1.64,2.24,2.22,2.2s1.3-.53,1.91-2c1.15-2.76,2.4-8.1,3.49-12.82.91-3.92,1.77-7.63,2.61-10a11.06,11.06,0,0,1,10.39-7.91,14.54,14.54,0,0,1,3.14.15A3.5,3.5,0,0,1,73,34.48h0a8.68,8.68,0,0,0-1.58,0c-1.46.06-3.1.37-4.07,3.19-.72,2.07-1.54,5.6-2.41,9.34-1.21,5.24-2.47,10.65-3.86,14-1.62,3.86-4.69,6.2-8.22,6.27Z"/></g></g></svg>